<svg width="1280" height="640" viewBox="0 0 1280 640" fill="none" xmlns="http://www.w3.org/2000/svg">
<rect width="1280" height="640" fill="white"/>
<rect width="1120" height="480" transform="translate(80 80)" fill="white"/>
<path d="M228.098 110.163V98.75H186.25L121.576 163.424V171.033L209.076 258.533H262.337L281.359 277.554H159.62L98.75 216.685V281.359L140.598 323.207H269.946L243.315 349.837V361.25H288.967L346.033 304.185V296.576L262.337 212.88H209.076L190.054 193.859H304.185L361.25 250.924V190.054L315.598 144.402H193.859L228.098 110.163Z" stroke="#2A3B51" stroke-width="18.75"/>
<path d="M421.376 128.704C422.229 135.189 422.955 141.461 423.552 147.52C424.149 153.493 424.448 159.851 424.448 166.592V200H406.656V111.296H432.896L455.424 182.336C453.376 169.195 452.352 156.821 452.352 145.216V111.296H470.144V200H444.672L421.376 128.704ZM503.246 171.968C504.526 182.293 509.987 187.456 519.63 187.456C525.433 187.456 531.235 185.579 537.038 181.824L545.102 192.832C541.774 195.733 537.806 198.037 533.198 199.744C528.59 201.365 523.513 202.176 517.966 202.176C510.371 202.176 503.929 200.683 498.638 197.696C493.347 194.624 489.337 190.4 486.606 185.024C483.961 179.563 482.638 173.248 482.638 166.08C482.638 159.253 483.918 153.109 486.478 147.648C489.123 142.101 492.921 137.749 497.87 134.592C502.905 131.349 508.878 129.728 515.79 129.728C522.275 129.728 527.907 131.136 532.686 133.952C537.465 136.683 541.134 140.693 543.694 145.984C546.339 151.189 547.662 157.419 547.662 164.672C547.662 167.488 547.534 169.92 547.278 171.968H503.246ZM515.79 143.296C512.121 143.296 509.177 144.661 506.958 147.392C504.739 150.037 503.417 154.133 502.99 159.68H527.95C527.779 148.757 523.726 143.296 515.79 143.296ZM591.9 129.728C602.225 129.728 610.289 133.013 616.092 139.584C621.98 146.069 624.924 154.816 624.924 165.824C624.924 177.259 622.023 186.176 616.22 192.576C610.417 198.976 602.311 202.176 591.9 202.176C581.489 202.176 573.383 199.019 567.58 192.704C561.777 186.304 558.876 177.387 558.876 165.952C558.876 158.699 560.156 152.384 562.716 147.008C565.361 141.547 569.159 137.323 574.108 134.336C579.143 131.264 585.073 129.728 591.9 129.728ZM591.9 144.704C587.719 144.704 584.647 146.411 582.684 149.824C580.721 153.152 579.74 158.528 579.74 165.952C579.74 173.461 580.721 178.923 582.684 182.336C584.647 185.664 587.719 187.328 591.9 187.328C596.081 187.328 599.153 185.621 601.116 182.208C603.079 178.795 604.06 173.333 604.06 165.824C604.06 158.485 603.079 153.152 601.116 149.824C599.153 146.411 596.081 144.704 591.9 144.704ZM639.21 132.032H656.874L658.282 139.84C661.354 136.427 664.554 133.909 667.882 132.288C671.295 130.581 675.135 129.728 679.402 129.728C685.29 129.728 689.855 131.52 693.098 135.104C696.426 138.688 698.09 143.68 698.09 150.08V200H677.866V155.968C677.866 151.701 677.397 148.757 676.458 147.136C675.519 145.515 673.813 144.704 671.338 144.704C669.29 144.704 667.285 145.387 665.322 146.752C663.445 148.032 661.482 149.952 659.434 152.512V200H639.21V132.032ZM822.022 96.448C825.521 96.448 828.379 97.5573 830.598 99.776C832.817 101.909 833.926 104.597 833.926 107.84C833.926 111.168 832.817 113.899 830.598 116.032C828.379 118.165 825.521 119.232 822.022 119.232C818.523 119.232 815.622 118.165 813.318 116.032C811.099 113.813 809.99 111.083 809.99 107.84C809.99 104.597 811.099 101.909 813.318 99.776C815.622 97.5573 818.523 96.448 822.022 96.448ZM834.182 186.176H851.59V200H794.758V186.176H813.958V145.856H795.398V132.032H834.182V186.176ZM905.556 186.176C908.116 186.176 910.591 185.707 912.98 184.768C915.369 183.744 917.929 182.293 920.66 180.416L929.62 193.216C926.377 195.947 922.623 198.123 918.356 199.744C914.089 201.365 909.439 202.176 904.404 202.176C897.151 202.176 890.879 200.683 885.588 197.696C880.383 194.709 876.372 190.528 873.556 185.152C870.74 179.776 869.332 173.547 869.332 166.464C869.332 159.381 870.783 153.067 873.684 147.52C876.585 141.973 880.681 137.621 885.972 134.464C891.348 131.307 897.62 129.728 904.788 129.728C909.823 129.728 914.345 130.453 918.356 131.904C922.367 133.269 926.121 135.403 929.62 138.304L920.916 150.464C915.967 147.051 910.889 145.344 905.684 145.344C895.529 145.344 890.452 152.384 890.452 166.464C890.452 173.547 891.775 178.624 894.42 181.696C897.065 184.683 900.777 186.176 905.556 186.176ZM975.65 129.728C985.975 129.728 994.039 133.013 999.842 139.584C1005.73 146.069 1008.67 154.816 1008.67 165.824C1008.67 177.259 1005.77 186.176 999.97 192.576C994.167 198.976 986.061 202.176 975.65 202.176C965.239 202.176 957.133 199.019 951.33 192.704C945.527 186.304 942.626 177.387 942.626 165.952C942.626 158.699 943.906 152.384 946.466 147.008C949.111 141.547 952.909 137.323 957.858 134.336C962.893 131.264 968.823 129.728 975.65 129.728ZM975.65 144.704C971.469 144.704 968.397 146.411 966.434 149.824C964.471 153.152 963.49 158.528 963.49 165.952C963.49 173.461 964.471 178.923 966.434 182.336C968.397 185.664 971.469 187.328 975.65 187.328C979.831 187.328 982.903 185.621 984.866 182.208C986.829 178.795 987.81 173.333 987.81 165.824C987.81 158.485 986.829 153.152 984.866 149.824C982.903 146.411 979.831 144.704 975.65 144.704ZM1022.96 132.032H1040.62L1042.03 139.84C1045.1 136.427 1048.3 133.909 1051.63 132.288C1055.05 130.581 1058.89 129.728 1063.15 129.728C1069.04 129.728 1073.61 131.52 1076.85 135.104C1080.18 138.688 1081.84 143.68 1081.84 150.08V200H1061.62V155.968C1061.62 151.701 1061.15 148.757 1060.21 147.136C1059.27 145.515 1057.56 144.704 1055.09 144.704C1053.04 144.704 1051.03 145.387 1049.07 146.752C1047.19 148.032 1045.23 149.952 1043.18 152.512V200H1022.96V132.032ZM1126.97 187.712C1130.47 187.712 1133.2 187.2 1135.17 186.176C1137.21 185.067 1138.24 183.445 1138.24 181.312C1138.24 179.776 1137.81 178.539 1136.96 177.6C1136.19 176.661 1134.7 175.765 1132.48 174.912C1130.26 173.973 1126.8 172.864 1122.11 171.584C1115.28 169.792 1110.08 167.317 1106.49 164.16C1102.91 160.917 1101.12 156.48 1101.12 150.848C1101.12 144.619 1103.68 139.541 1108.8 135.616C1114 131.691 1121.26 129.728 1130.56 129.728C1141.31 129.728 1150.48 132.501 1158.08 138.048L1150.01 149.952C1143.78 146.112 1137.51 144.192 1131.2 144.192C1127.87 144.192 1125.4 144.619 1123.77 145.472C1122.24 146.325 1121.47 147.648 1121.47 149.44C1121.47 150.635 1121.85 151.659 1122.62 152.512C1123.48 153.28 1125.01 154.091 1127.23 154.944C1129.53 155.797 1132.95 156.864 1137.47 158.144C1142.33 159.509 1146.3 161.003 1149.37 162.624C1152.53 164.245 1154.96 166.421 1156.67 169.152C1158.38 171.883 1159.23 175.381 1159.23 179.648C1159.23 184.427 1157.78 188.523 1154.88 191.936C1151.98 195.349 1148.09 197.909 1143.23 199.616C1138.37 201.323 1132.99 202.176 1127.1 202.176C1120.79 202.176 1115.07 201.28 1109.95 199.488C1104.83 197.696 1100.48 195.179 1096.89 191.936L1107.01 180.544C1113.15 185.323 1119.81 187.712 1126.97 187.712Z" fill="black"/>
<path d="M410.304 306.736L406.784 318H401.28L415.68 273.904H422.72L437.056 318H431.296L427.776 306.736H410.304ZM426.304 302.128L419.072 278.64L411.776 302.128H426.304ZM494.67 314.288C497.23 314.288 499.257 313.797 500.75 312.816C502.243 311.835 502.99 310.533 502.99 308.912C502.99 307.803 502.798 306.907 502.414 306.224C502.03 305.499 501.262 304.859 500.11 304.304C498.958 303.707 497.209 303.109 494.862 302.512C490.937 301.531 488.035 300.357 486.158 298.992C484.281 297.584 483.342 295.515 483.342 292.784C483.342 289.968 484.515 287.728 486.862 286.064C489.209 284.4 492.302 283.568 496.142 283.568C500.835 283.568 504.931 284.805 508.43 287.28L505.998 290.992C504.59 290.011 503.118 289.264 501.582 288.752C500.046 288.197 498.275 287.92 496.27 287.92C491.406 287.92 488.974 289.392 488.974 292.336C488.974 293.36 489.23 294.192 489.742 294.832C490.297 295.472 491.171 296.048 492.366 296.56C493.603 297.029 495.438 297.605 497.87 298.288C501.539 299.269 504.27 300.528 506.062 302.064C507.897 303.557 508.814 305.755 508.814 308.656C508.814 312.027 507.449 314.544 504.718 316.208C501.987 317.872 498.638 318.704 494.67 318.704C489.379 318.704 484.985 317.189 481.486 314.16L484.494 310.64C485.859 311.749 487.417 312.645 489.166 313.328C490.915 313.968 492.75 314.288 494.67 314.288ZM525.813 303.024C525.941 306.736 526.901 309.531 528.693 311.408C530.528 313.285 532.832 314.224 535.605 314.224C537.269 314.224 538.784 313.989 540.149 313.52C541.557 313.008 543.05 312.24 544.629 311.216L547.125 314.8C545.546 316.037 543.733 316.997 541.685 317.68C539.68 318.363 537.653 318.704 535.605 318.704C530.741 318.704 526.944 317.125 524.213 313.968C521.525 310.768 520.181 306.501 520.181 301.168C520.181 297.797 520.778 294.789 521.973 292.144C523.168 289.456 524.874 287.365 527.093 285.872C529.312 284.336 531.893 283.568 534.837 283.568C539.104 283.568 542.453 285.061 544.885 288.048C547.36 290.992 548.597 295.024 548.597 300.144C548.597 301.125 548.554 302.085 548.469 303.024H525.813ZM534.901 287.984C532.298 287.984 530.186 288.923 528.565 290.8C526.944 292.635 526.026 295.344 525.813 298.928H543.349C543.306 295.387 542.538 292.677 541.045 290.8C539.552 288.923 537.504 287.984 534.901 287.984ZM586.716 316.272C585.564 317.04 584.156 317.637 582.492 318.064C580.871 318.491 579.249 318.704 577.628 318.704C574.087 318.704 571.313 317.787 569.308 315.952C567.303 314.075 566.3 311.621 566.3 308.592V288.496H558.556V284.272H566.3V276.656L571.676 276.016V284.272H583.388L582.684 288.496H571.676V308.528C571.676 310.448 572.188 311.877 573.212 312.816C574.236 313.755 575.879 314.224 578.14 314.224C580.444 314.224 582.599 313.691 584.604 312.624L586.716 316.272ZM649.514 283.568C654.165 283.568 657.727 285.147 660.202 288.304C662.719 291.419 663.978 295.685 663.978 301.104C663.978 306.395 662.698 310.661 660.138 313.904C657.621 317.104 654.058 318.704 649.45 318.704C644.799 318.704 641.215 317.147 638.698 314.032C636.181 310.875 634.922 306.587 634.922 301.168C634.922 295.835 636.181 291.568 638.698 288.368C641.258 285.168 644.863 283.568 649.514 283.568ZM649.514 287.984C646.57 287.984 644.373 289.072 642.922 291.248C641.471 293.424 640.746 296.731 640.746 301.168C640.746 305.605 641.45 308.912 642.858 311.088C644.309 313.221 646.506 314.288 649.45 314.288C652.394 314.288 654.57 313.221 655.978 311.088C657.429 308.912 658.154 305.584 658.154 301.104C658.154 296.667 657.429 293.381 655.978 291.248C654.57 289.072 652.415 287.984 649.514 287.984ZM694.929 270.064C698.129 270.064 701.18 270.661 704.081 271.856L702.353 275.888C700.22 274.949 697.809 274.48 695.121 274.48C690.428 274.48 688.081 276.336 688.081 280.048V286.896H699.473L698.897 291.184H688.081V318H682.641V291.184H674.641V286.896H682.641V280.176C682.641 277.147 683.793 274.715 686.097 272.88C688.444 271.003 691.388 270.064 694.929 270.064ZM764.575 268.528C765.77 268.528 766.73 268.891 767.455 269.616C768.18 270.299 768.543 271.195 768.543 272.304C768.543 273.413 768.18 274.331 767.455 275.056C766.73 275.739 765.77 276.08 764.575 276.08C763.423 276.08 762.484 275.739 761.759 275.056C761.076 274.331 760.735 273.413 760.735 272.304C760.735 271.195 761.076 270.299 761.759 269.616C762.484 268.891 763.423 268.528 764.575 268.528ZM768.863 313.712H778.335V318H753.119V313.712H763.487V288.56H753.439V284.272H768.863V313.712ZM805.446 314.096C808.39 314.096 811.313 313.115 814.214 311.152L816.774 314.672C815.366 315.909 813.617 316.891 811.526 317.616C809.435 318.341 807.409 318.704 805.446 318.704C800.454 318.704 796.55 317.147 793.734 314.032C790.961 310.875 789.574 306.629 789.574 301.296C789.574 297.925 790.193 294.896 791.43 292.208C792.71 289.52 794.545 287.408 796.934 285.872C799.323 284.336 802.161 283.568 805.446 283.568C809.798 283.568 813.553 284.891 816.71 287.536L814.086 291.056C811.142 289.093 808.241 288.112 805.382 288.112C802.353 288.112 799.921 289.243 798.086 291.504C796.294 293.723 795.398 296.987 795.398 301.296C795.398 305.605 796.294 308.827 798.086 310.96C799.921 313.051 802.374 314.096 805.446 314.096ZM841.389 283.568C846.04 283.568 849.602 285.147 852.077 288.304C854.594 291.419 855.853 295.685 855.853 301.104C855.853 306.395 854.573 310.661 852.013 313.904C849.496 317.104 845.933 318.704 841.325 318.704C836.674 318.704 833.09 317.147 830.573 314.032C828.056 310.875 826.797 306.587 826.797 301.168C826.797 295.835 828.056 291.568 830.573 288.368C833.133 285.168 836.738 283.568 841.389 283.568ZM841.389 287.984C838.445 287.984 836.248 289.072 834.797 291.248C833.346 293.424 832.621 296.731 832.621 301.168C832.621 305.605 833.325 308.912 834.733 311.088C836.184 313.221 838.381 314.288 841.325 314.288C844.269 314.288 846.445 313.221 847.853 311.088C849.304 308.912 850.029 305.584 850.029 301.104C850.029 296.667 849.304 293.381 847.853 291.248C846.445 289.072 844.29 287.984 841.389 287.984ZM866.9 284.272H871.508L871.956 289.008C873.279 287.301 874.943 285.979 876.948 285.04C878.996 284.059 881.044 283.568 883.092 283.568C889.407 283.568 892.564 286.896 892.564 293.552V318H887.188V297.52C887.188 295.003 887.039 293.083 886.74 291.76C886.484 290.437 885.951 289.456 885.14 288.816C884.329 288.176 883.092 287.856 881.428 287.856C879.593 287.856 877.865 288.411 876.244 289.52C874.623 290.629 873.3 291.952 872.276 293.488V318H866.9V284.272ZM916.795 314.288C919.355 314.288 921.382 313.797 922.875 312.816C924.368 311.835 925.115 310.533 925.115 308.912C925.115 307.803 924.923 306.907 924.539 306.224C924.155 305.499 923.387 304.859 922.235 304.304C921.083 303.707 919.334 303.109 916.987 302.512C913.062 301.531 910.16 300.357 908.283 298.992C906.406 297.584 905.467 295.515 905.467 292.784C905.467 289.968 906.64 287.728 908.987 286.064C911.334 284.4 914.427 283.568 918.267 283.568C922.96 283.568 927.056 284.805 930.555 287.28L928.123 290.992C926.715 290.011 925.243 289.264 923.707 288.752C922.171 288.197 920.4 287.92 918.395 287.92C913.531 287.92 911.099 289.392 911.099 292.336C911.099 293.36 911.355 294.192 911.867 294.832C912.422 295.472 913.296 296.048 914.491 296.56C915.728 297.029 917.563 297.605 919.995 298.288C923.664 299.269 926.395 300.528 928.187 302.064C930.022 303.557 930.939 305.755 930.939 308.656C930.939 312.027 929.574 314.544 926.843 316.208C924.112 317.872 920.763 318.704 916.795 318.704C911.504 318.704 907.11 317.189 903.611 314.16L906.619 310.64C907.984 311.749 909.542 312.645 911.291 313.328C913.04 313.968 914.875 314.288 916.795 314.288ZM987.401 308.208C987.401 310.384 987.849 311.984 988.745 313.008C989.684 313.989 991.134 314.48 993.097 314.48C994.889 314.48 996.617 313.968 998.281 312.944C999.945 311.92 1001.27 310.64 1002.25 309.104V284.272H1007.62V318H1003.02L1002.57 313.456C1001.25 315.12 999.604 316.421 997.641 317.36C995.721 318.256 993.758 318.704 991.753 318.704C988.553 318.704 986.121 317.851 984.457 316.144C982.836 314.437 982.025 311.984 982.025 308.784V284.272H987.401V308.208ZM1031.92 314.288C1034.48 314.288 1036.51 313.797 1038 312.816C1039.49 311.835 1040.24 310.533 1040.24 308.912C1040.24 307.803 1040.05 306.907 1039.66 306.224C1039.28 305.499 1038.51 304.859 1037.36 304.304C1036.21 303.707 1034.46 303.109 1032.11 302.512C1028.19 301.531 1025.29 300.357 1023.41 298.992C1021.53 297.584 1020.59 295.515 1020.59 292.784C1020.59 289.968 1021.77 287.728 1024.11 286.064C1026.46 284.4 1029.55 283.568 1033.39 283.568C1038.09 283.568 1042.18 284.805 1045.68 287.28L1043.25 290.992C1041.84 290.011 1040.37 289.264 1038.83 288.752C1037.3 288.197 1035.53 287.92 1033.52 287.92C1028.66 287.92 1026.22 289.392 1026.22 292.336C1026.22 293.36 1026.48 294.192 1026.99 294.832C1027.55 295.472 1028.42 296.048 1029.62 296.56C1030.85 297.029 1032.69 297.605 1035.12 298.288C1038.79 299.269 1041.52 300.528 1043.31 302.064C1045.15 303.557 1046.06 305.755 1046.06 308.656C1046.06 312.027 1044.7 314.544 1041.97 316.208C1039.24 317.872 1035.89 318.704 1031.92 318.704C1026.63 318.704 1022.23 317.189 1018.74 314.16L1021.74 310.64C1023.11 311.749 1024.67 312.645 1026.42 313.328C1028.17 313.968 1030 314.288 1031.92 314.288ZM1071.58 268.528C1072.77 268.528 1073.73 268.891 1074.46 269.616C1075.18 270.299 1075.54 271.195 1075.54 272.304C1075.54 273.413 1075.18 274.331 1074.46 275.056C1073.73 275.739 1072.77 276.08 1071.58 276.08C1070.42 276.08 1069.48 275.739 1068.76 275.056C1068.08 274.331 1067.74 273.413 1067.74 272.304C1067.74 271.195 1068.08 270.299 1068.76 269.616C1069.48 268.891 1070.42 268.528 1071.58 268.528ZM1075.86 313.712H1085.34V318H1060.12V313.712H1070.49V288.56H1060.44V284.272H1075.86V313.712ZM1097.15 284.272H1101.76L1102.21 289.008C1103.53 287.301 1105.19 285.979 1107.2 285.04C1109.25 284.059 1111.29 283.568 1113.34 283.568C1119.66 283.568 1122.81 286.896 1122.81 293.552V318H1117.44V297.52C1117.44 295.003 1117.29 293.083 1116.99 291.76C1116.73 290.437 1116.2 289.456 1115.39 288.816C1114.58 288.176 1113.34 287.856 1111.68 287.856C1109.84 287.856 1108.12 288.411 1106.49 289.52C1104.87 290.629 1103.55 291.952 1102.53 293.488V318H1097.15V284.272ZM1164.58 285.808C1163.3 286.235 1161.91 286.512 1160.42 286.64C1158.93 286.725 1157.03 286.768 1154.73 286.768C1158.65 288.56 1160.61 291.397 1160.61 295.28C1160.61 298.693 1159.48 301.467 1157.22 303.6C1154.96 305.691 1151.87 306.736 1147.94 306.736C1145.94 306.736 1144.25 306.501 1142.89 306.032C1142.37 306.416 1141.95 306.907 1141.61 307.504C1141.31 308.101 1141.16 308.699 1141.16 309.296C1141.16 311.216 1142.65 312.176 1145.64 312.176H1151.72C1153.94 312.176 1155.94 312.581 1157.73 313.392C1159.57 314.16 1161 315.248 1162.02 316.656C1163.09 318.064 1163.62 319.621 1163.62 321.328C1163.62 324.613 1162.21 327.131 1159.4 328.88C1156.62 330.672 1152.68 331.568 1147.56 331.568C1142.35 331.568 1138.68 330.757 1136.55 329.136C1134.42 327.515 1133.35 324.933 1133.35 321.392H1138.21C1138.21 322.8 1138.47 323.909 1138.98 324.72C1139.54 325.573 1140.47 326.192 1141.8 326.576C1143.16 327.003 1145.08 327.216 1147.56 327.216C1151.18 327.216 1153.85 326.747 1155.56 325.808C1157.31 324.869 1158.18 323.483 1158.18 321.648C1158.18 320.112 1157.48 318.917 1156.07 318.064C1154.66 317.253 1152.85 316.848 1150.63 316.848H1144.61C1141.84 316.848 1139.73 316.251 1138.28 315.056C1136.83 313.819 1136.1 312.283 1136.1 310.448C1136.1 309.381 1136.42 308.336 1137.06 307.312C1137.7 306.245 1138.62 305.328 1139.81 304.56C1137.89 303.579 1136.46 302.341 1135.53 300.848C1134.63 299.312 1134.18 297.456 1134.18 295.28C1134.18 293.019 1134.74 291.013 1135.85 289.264C1137 287.472 1138.58 286.085 1140.58 285.104C1142.63 284.08 1144.98 283.568 1147.62 283.568C1151.46 283.568 1154.38 283.355 1156.39 282.928C1158.39 282.501 1160.59 281.776 1162.98 280.752L1164.58 285.808ZM1147.56 287.536C1144.95 287.536 1142.99 288.24 1141.67 289.648C1140.35 291.013 1139.69 292.891 1139.69 295.28C1139.69 297.669 1140.35 299.589 1141.67 301.04C1143.03 302.448 1145.04 303.152 1147.69 303.152C1150.07 303.152 1151.89 302.469 1153.13 301.104C1154.41 299.696 1155.05 297.733 1155.05 295.216C1155.05 290.096 1152.55 287.536 1147.56 287.536ZM430.592 387.64C430.592 388.963 430.805 389.944 431.232 390.584C431.659 391.181 432.363 391.629 433.344 391.928L432 395.768C428.715 395.341 426.667 393.741 425.856 390.968C424.661 392.504 423.147 393.677 421.312 394.488C419.52 395.299 417.515 395.704 415.296 395.704C411.925 395.704 409.259 394.765 407.296 392.888C405.376 391.011 404.416 388.493 404.416 385.336C404.416 381.88 405.76 379.213 408.448 377.336C411.179 375.459 415.083 374.52 420.16 374.52H425.152V371.768C425.152 369.379 424.469 367.672 423.104 366.648C421.739 365.581 419.755 365.048 417.152 365.048C414.592 365.048 411.669 365.624 408.384 366.776L406.912 362.68C410.88 361.272 414.571 360.568 417.984 360.568C422.08 360.568 425.195 361.528 427.328 363.448C429.504 365.368 430.592 368.035 430.592 371.448V387.64ZM416.64 391.672C418.304 391.672 419.883 391.245 421.376 390.392C422.912 389.539 424.171 388.365 425.152 386.872V378.232H420.288C416.704 378.232 414.123 378.829 412.544 380.024C410.965 381.219 410.176 382.968 410.176 385.272C410.176 389.539 412.331 391.672 416.64 391.672ZM483.15 361.272H487.758L488.206 366.008C489.529 364.301 491.193 362.979 493.198 362.04C495.246 361.059 497.294 360.568 499.342 360.568C505.657 360.568 508.814 363.896 508.814 370.552V395H503.438V374.52C503.438 372.003 503.289 370.083 502.99 368.76C502.734 367.437 502.201 366.456 501.39 365.816C500.579 365.176 499.342 364.856 497.678 364.856C495.843 364.856 494.115 365.411 492.494 366.52C490.873 367.629 489.55 368.952 488.526 370.488V395H483.15V361.272ZM525.813 380.024C525.941 383.736 526.901 386.531 528.693 388.408C530.528 390.285 532.832 391.224 535.605 391.224C537.269 391.224 538.784 390.989 540.149 390.52C541.557 390.008 543.05 389.24 544.629 388.216L547.125 391.8C545.546 393.037 543.733 393.997 541.685 394.68C539.68 395.363 537.653 395.704 535.605 395.704C530.741 395.704 526.944 394.125 524.213 390.968C521.525 387.768 520.181 383.501 520.181 378.168C520.181 374.797 520.778 371.789 521.973 369.144C523.168 366.456 524.874 364.365 527.093 362.872C529.312 361.336 531.893 360.568 534.837 360.568C539.104 360.568 542.453 362.061 544.885 365.048C547.36 367.992 548.597 372.024 548.597 377.144C548.597 378.125 548.554 379.085 548.469 380.024H525.813ZM534.901 364.984C532.298 364.984 530.186 365.923 528.565 367.8C526.944 369.635 526.026 372.344 525.813 375.928H543.349C543.306 372.387 542.538 369.677 541.045 367.8C539.552 365.923 537.504 364.984 534.901 364.984ZM572.764 360.568C577.415 360.568 580.977 362.147 583.452 365.304C585.969 368.419 587.228 372.685 587.228 378.104C587.228 383.395 585.948 387.661 583.388 390.904C580.871 394.104 577.308 395.704 572.7 395.704C568.049 395.704 564.465 394.147 561.948 391.032C559.431 387.875 558.172 383.587 558.172 378.168C558.172 372.835 559.431 368.568 561.948 365.368C564.508 362.168 568.113 360.568 572.764 360.568ZM572.764 364.984C569.82 364.984 567.623 366.072 566.172 368.248C564.721 370.424 563.996 373.731 563.996 378.168C563.996 382.605 564.7 385.912 566.108 388.088C567.559 390.221 569.756 391.288 572.7 391.288C575.644 391.288 577.82 390.221 579.228 388.088C580.679 385.912 581.404 382.584 581.404 378.104C581.404 373.667 580.679 370.381 579.228 368.248C577.82 366.072 575.665 364.984 572.764 364.984ZM598.275 361.272H602.883L603.331 366.008C604.654 364.301 606.318 362.979 608.323 362.04C610.371 361.059 612.419 360.568 614.467 360.568C620.782 360.568 623.939 363.896 623.939 370.552V395H618.563V374.52C618.563 372.003 618.414 370.083 618.115 368.76C617.859 367.437 617.326 366.456 616.515 365.816C615.704 365.176 614.467 364.856 612.803 364.856C610.968 364.856 609.24 365.411 607.619 366.52C605.998 367.629 604.675 368.952 603.651 370.488V395H598.275V361.272ZM686.545 391.288C689.105 391.288 691.132 390.797 692.625 389.816C694.118 388.835 694.865 387.533 694.865 385.912C694.865 384.803 694.673 383.907 694.289 383.224C693.905 382.499 693.137 381.859 691.985 381.304C690.833 380.707 689.084 380.109 686.737 379.512C682.812 378.531 679.91 377.357 678.033 375.992C676.156 374.584 675.217 372.515 675.217 369.784C675.217 366.968 676.39 364.728 678.737 363.064C681.084 361.4 684.177 360.568 688.017 360.568C692.71 360.568 696.806 361.805 700.305 364.28L697.873 367.992C696.465 367.011 694.993 366.264 693.457 365.752C691.921 365.197 690.15 364.92 688.145 364.92C683.281 364.92 680.849 366.392 680.849 369.336C680.849 370.36 681.105 371.192 681.617 371.832C682.172 372.472 683.046 373.048 684.241 373.56C685.478 374.029 687.313 374.605 689.745 375.288C693.414 376.269 696.145 377.528 697.937 379.064C699.772 380.557 700.689 382.755 700.689 385.656C700.689 389.027 699.324 391.544 696.593 393.208C693.862 394.872 690.513 395.704 686.545 395.704C681.254 395.704 676.86 394.189 673.361 391.16L676.369 387.64C677.734 388.749 679.292 389.645 681.041 390.328C682.79 390.968 684.625 391.288 686.545 391.288ZM740.216 393.272C739.064 394.04 737.656 394.637 735.992 395.064C734.371 395.491 732.749 395.704 731.128 395.704C727.587 395.704 724.813 394.787 722.808 392.952C720.803 391.075 719.8 388.621 719.8 385.592V365.496H712.056V361.272H719.8V353.656L725.176 353.016V361.272H736.888L736.184 365.496H725.176V385.528C725.176 387.448 725.688 388.877 726.712 389.816C727.736 390.755 729.379 391.224 731.64 391.224C733.944 391.224 736.099 390.691 738.104 389.624L740.216 393.272ZM768.031 395.192C766.708 399.075 764.895 402.168 762.591 404.472C760.287 406.776 757.066 408.141 752.927 408.568L752.159 404.28C754.42 403.896 756.212 403.299 757.535 402.488C758.9 401.72 759.967 400.739 760.735 399.544C761.503 398.392 762.207 396.877 762.847 395H761.055L749.343 361.272H755.039L764.703 390.904L774.239 361.272H779.807L768.031 395.192ZM803.334 386.68C803.334 389.709 805.19 391.224 808.902 391.224C810.651 391.224 812.529 390.84 814.534 390.072L815.942 393.976C813.809 395.128 811.142 395.704 807.942 395.704C804.913 395.704 802.481 394.872 800.646 393.208C798.854 391.544 797.958 389.283 797.958 386.424V351.992H787.59V347.704H803.334V386.68ZM841.325 345.528C842.52 345.528 843.48 345.891 844.205 346.616C844.93 347.299 845.293 348.195 845.293 349.304C845.293 350.413 844.93 351.331 844.205 352.056C843.48 352.739 842.52 353.08 841.325 353.08C840.173 353.08 839.234 352.739 838.509 352.056C837.826 351.331 837.485 350.413 837.485 349.304C837.485 348.195 837.826 347.299 838.509 346.616C839.234 345.891 840.173 345.528 841.325 345.528ZM845.613 390.712H855.085V395H829.869V390.712H840.237V365.56H830.189V361.272H845.613V390.712ZM866.9 361.272H871.508L871.956 366.008C873.279 364.301 874.943 362.979 876.948 362.04C878.996 361.059 881.044 360.568 883.092 360.568C889.407 360.568 892.564 363.896 892.564 370.552V395H887.188V374.52C887.188 372.003 887.039 370.083 886.74 368.76C886.484 367.437 885.951 366.456 885.14 365.816C884.329 365.176 883.092 364.856 881.428 364.856C879.593 364.856 877.865 365.411 876.244 366.52C874.623 367.629 873.3 368.952 872.276 370.488V395H866.9V361.272ZM934.331 362.808C933.051 363.235 931.664 363.512 930.171 363.64C928.678 363.725 926.779 363.768 924.475 363.768C928.4 365.56 930.363 368.397 930.363 372.28C930.363 375.693 929.232 378.467 926.971 380.6C924.71 382.691 921.616 383.736 917.691 383.736C915.686 383.736 914 383.501 912.635 383.032C912.123 383.416 911.696 383.907 911.355 384.504C911.056 385.101 910.907 385.699 910.907 386.296C910.907 388.216 912.4 389.176 915.387 389.176H921.467C923.686 389.176 925.691 389.581 927.483 390.392C929.318 391.16 930.747 392.248 931.771 393.656C932.838 395.064 933.371 396.621 933.371 398.328C933.371 401.613 931.963 404.131 929.147 405.88C926.374 407.672 922.427 408.568 917.307 408.568C912.102 408.568 908.432 407.757 906.299 406.136C904.166 404.515 903.099 401.933 903.099 398.392H907.963C907.963 399.8 908.219 400.909 908.731 401.72C909.286 402.573 910.224 403.192 911.547 403.576C912.912 404.003 914.832 404.216 917.307 404.216C920.934 404.216 923.6 403.747 925.307 402.808C927.056 401.869 927.931 400.483 927.931 398.648C927.931 397.112 927.227 395.917 925.819 395.064C924.411 394.253 922.598 393.848 920.379 393.848H914.363C911.59 393.848 909.478 393.251 908.027 392.056C906.576 390.819 905.851 389.283 905.851 387.448C905.851 386.381 906.171 385.336 906.811 384.312C907.451 383.245 908.368 382.328 909.563 381.56C907.643 380.579 906.214 379.341 905.275 377.848C904.379 376.312 903.931 374.456 903.931 372.28C903.931 370.019 904.486 368.013 905.595 366.264C906.747 364.472 908.326 363.085 910.331 362.104C912.379 361.08 914.726 360.568 917.371 360.568C921.211 360.568 924.134 360.355 926.139 359.928C928.144 359.501 930.342 358.776 932.731 357.752L934.331 362.808ZM917.307 364.536C914.704 364.536 912.742 365.24 911.419 366.648C910.096 368.013 909.435 369.891 909.435 372.28C909.435 374.669 910.096 376.589 911.419 378.04C912.784 379.448 914.79 380.152 917.435 380.152C919.824 380.152 921.638 379.469 922.875 378.104C924.155 376.696 924.795 374.733 924.795 372.216C924.795 367.096 922.299 364.536 917.307 364.536ZM950.754 390.072C950.754 388.493 951.287 387.171 952.354 386.104C953.463 384.995 954.807 384.44 956.386 384.44C958.007 384.44 959.351 384.995 960.418 386.104C961.485 387.171 962.018 388.493 962.018 390.072C962.018 391.693 961.485 393.037 960.418 394.104C959.351 395.171 958.007 395.704 956.386 395.704C954.807 395.704 953.463 395.171 952.354 394.104C951.287 392.995 950.754 391.651 950.754 390.072Z" fill="black"/>
<path d="M242.951 537.472C243.612 536.619 244.423 535.957 245.383 535.488C246.343 535.019 247.335 534.784 248.359 534.784C251.516 534.784 253.095 536.448 253.095 539.776V552H250.407V539.808C250.407 538.805 250.172 538.08 249.703 537.632C249.233 537.163 248.487 536.928 247.463 536.928C246.588 536.928 245.745 537.205 244.935 537.76C244.124 538.315 243.463 538.965 242.951 539.712V552H240.263V528.384L242.951 528.096V537.472ZM272.858 551.136C272.282 551.52 271.578 551.819 270.746 552.032C269.935 552.245 269.125 552.352 268.314 552.352C266.543 552.352 265.157 551.893 264.154 550.976C263.151 550.037 262.65 548.811 262.65 547.296V537.248H258.778V535.136H262.65V531.328L265.338 531.008V535.136H271.194L270.842 537.248H265.338V547.264C265.338 548.224 265.594 548.939 266.106 549.408C266.618 549.877 267.439 550.112 268.57 550.112C269.722 550.112 270.799 549.845 271.802 549.312L272.858 551.136ZM292.046 551.136C291.47 551.52 290.766 551.819 289.934 552.032C289.123 552.245 288.312 552.352 287.502 552.352C285.731 552.352 284.344 551.893 283.342 550.976C282.339 550.037 281.838 548.811 281.838 547.296V537.248H277.966V535.136H281.838V531.328L284.526 531.008V535.136H290.382L290.03 537.248H284.526V547.264C284.526 548.224 284.782 548.939 285.294 549.408C285.806 549.877 286.627 550.112 287.758 550.112C288.91 550.112 289.987 549.845 290.99 549.312L292.046 551.136ZM305.377 534.784C309.452 534.784 311.489 537.707 311.489 543.552C311.489 546.219 310.934 548.352 309.825 549.952C308.716 551.552 307.105 552.352 304.993 552.352C303.158 552.352 301.665 551.712 300.513 550.432V558.464L297.825 558.784V535.136H300.129L300.353 537.504C300.972 536.629 301.708 535.957 302.561 535.488C303.436 535.019 304.374 534.784 305.377 534.784ZM304.737 536.96C303.884 536.96 303.094 537.216 302.369 537.728C301.665 538.24 301.046 538.88 300.513 539.648V548C300.961 548.661 301.516 549.184 302.177 549.568C302.86 549.931 303.596 550.112 304.385 550.112C305.793 550.112 306.838 549.579 307.521 548.512C308.225 547.424 308.577 545.771 308.577 543.552C308.577 541.333 308.268 539.68 307.649 538.592C307.03 537.504 306.06 536.96 304.737 536.96ZM322.773 550.144C324.053 550.144 325.066 549.899 325.813 549.408C326.559 548.917 326.933 548.267 326.933 547.456C326.933 546.901 326.837 546.453 326.645 546.112C326.453 545.749 326.069 545.429 325.493 545.152C324.917 544.853 324.042 544.555 322.869 544.256C320.906 543.765 319.455 543.179 318.516 542.496C317.578 541.792 317.109 540.757 317.109 539.392C317.109 537.984 317.695 536.864 318.869 536.032C320.042 535.2 321.589 534.784 323.509 534.784C325.855 534.784 327.903 535.403 329.653 536.64L328.437 538.496C327.733 538.005 326.997 537.632 326.229 537.376C325.461 537.099 324.575 536.96 323.573 536.96C321.141 536.96 319.925 537.696 319.925 539.168C319.925 539.68 320.053 540.096 320.309 540.416C320.586 540.736 321.023 541.024 321.621 541.28C322.239 541.515 323.157 541.803 324.373 542.144C326.207 542.635 327.573 543.264 328.469 544.032C329.386 544.779 329.845 545.877 329.845 547.328C329.845 549.013 329.162 550.272 327.797 551.104C326.431 551.936 324.757 552.352 322.773 552.352C320.127 552.352 317.93 551.595 316.181 550.08L317.685 548.32C318.367 548.875 319.146 549.323 320.021 549.664C320.895 549.984 321.813 550.144 322.773 550.144ZM340.008 538.208C340.008 537.504 340.253 536.907 340.744 536.416C341.235 535.904 341.843 535.648 342.568 535.648C343.315 535.648 343.933 535.904 344.424 536.416C344.915 536.907 345.16 537.504 345.16 538.208C345.16 538.933 344.915 539.552 344.424 540.064C343.933 540.576 343.315 540.832 342.568 540.832C341.843 540.832 341.235 540.576 340.744 540.064C340.253 539.552 340.008 538.933 340.008 538.208ZM340.008 549.76C340.008 549.056 340.253 548.448 340.744 547.936C341.235 547.424 341.843 547.168 342.568 547.168C343.315 547.168 343.933 547.424 344.424 547.936C344.915 548.427 345.16 549.035 345.16 549.76C345.16 550.507 344.915 551.125 344.424 551.616C343.933 552.107 343.315 552.352 342.568 552.352C341.843 552.352 341.235 552.107 340.744 551.616C340.253 551.125 340.008 550.507 340.008 549.76ZM353.884 554.336L367.548 526.112L369.692 527.136L356.06 555.296L353.884 554.336ZM373.071 554.336L386.735 526.112L388.879 527.136L375.247 555.296L373.071 554.336ZM402.467 552L400.259 539.648L397.891 552H394.179L391.139 535.136H393.859L396.035 550.336L398.723 537.28H401.891L404.419 550.336L406.595 535.136H409.187L406.275 552H402.467ZM421.654 552L419.446 539.648L417.078 552H413.366L410.326 535.136H413.046L415.222 550.336L417.91 537.28H421.078L423.606 550.336L425.782 535.136H428.374L425.462 552H421.654ZM440.842 552L438.634 539.648L436.266 552H432.554L429.514 535.136H432.234L434.41 550.336L437.098 537.28H440.266L442.794 550.336L444.97 535.136H447.562L444.65 552H440.842ZM454.877 549.536C454.877 548.747 455.144 548.085 455.677 547.552C456.232 546.997 456.904 546.72 457.693 546.72C458.504 546.72 459.176 546.997 459.709 547.552C460.242 548.085 460.509 548.747 460.509 549.536C460.509 550.347 460.242 551.019 459.709 551.552C459.176 552.085 458.504 552.352 457.693 552.352C456.904 552.352 456.232 552.085 455.677 551.552C455.144 550.997 454.877 550.325 454.877 549.536ZM482.609 548.32C482.609 548.981 482.715 549.472 482.929 549.792C483.142 550.091 483.494 550.315 483.985 550.464L483.312 552.384C481.67 552.171 480.646 551.371 480.241 549.984C479.643 550.752 478.886 551.339 477.969 551.744C477.073 552.149 476.07 552.352 474.961 552.352C473.275 552.352 471.942 551.883 470.961 550.944C470.001 550.005 469.521 548.747 469.521 547.168C469.521 545.44 470.193 544.107 471.536 543.168C472.902 542.229 474.854 541.76 477.393 541.76H479.889V540.384C479.889 539.189 479.547 538.336 478.865 537.824C478.182 537.291 477.19 537.024 475.889 537.024C474.609 537.024 473.147 537.312 471.505 537.888L470.769 535.84C472.753 535.136 474.598 534.784 476.305 534.784C478.353 534.784 479.91 535.264 480.977 536.224C482.065 537.184 482.609 538.517 482.609 540.224V548.32ZM475.633 550.336C476.465 550.336 477.254 550.123 478.001 549.696C478.769 549.269 479.398 548.683 479.889 547.936V543.616H477.457C475.665 543.616 474.374 543.915 473.585 544.512C472.795 545.109 472.401 545.984 472.401 547.136C472.401 549.269 473.478 550.336 475.633 550.336ZM502.5 528.352V552H500.132L499.876 549.792C499.257 550.645 498.543 551.285 497.732 551.712C496.921 552.139 496.047 552.352 495.108 552.352C492.975 552.352 491.364 551.573 490.276 550.016C489.209 548.459 488.676 546.315 488.676 543.584C488.676 541.899 488.943 540.395 489.476 539.072C490.009 537.728 490.767 536.683 491.748 535.936C492.751 535.168 493.924 534.784 495.268 534.784C497.124 534.784 498.639 535.456 499.812 536.8V528.032L502.5 528.352ZM495.972 536.96C494.564 536.96 493.476 537.515 492.708 538.624C491.961 539.733 491.588 541.387 491.588 543.584C491.588 545.76 491.929 547.413 492.612 548.544C493.316 549.653 494.329 550.208 495.652 550.208C497.252 550.208 498.639 549.312 499.812 547.52V539.136C499.343 538.432 498.777 537.899 498.116 537.536C497.455 537.152 496.74 536.96 495.972 536.96ZM520.984 548.32C520.984 548.981 521.09 549.472 521.304 549.792C521.517 550.091 521.869 550.315 522.36 550.464L521.688 552.384C520.045 552.171 519.021 551.371 518.616 549.984C518.018 550.752 517.261 551.339 516.344 551.744C515.448 552.149 514.445 552.352 513.336 552.352C511.65 552.352 510.317 551.883 509.336 550.944C508.376 550.005 507.896 548.747 507.896 547.168C507.896 545.44 508.568 544.107 509.911 543.168C511.277 542.229 513.229 541.76 515.768 541.76H518.264V540.384C518.264 539.189 517.922 538.336 517.24 537.824C516.557 537.291 515.565 537.024 514.264 537.024C512.984 537.024 511.522 537.312 509.88 537.888L509.144 535.84C511.128 535.136 512.973 534.784 514.68 534.784C516.728 534.784 518.285 535.264 519.352 536.224C520.44 537.184 520.984 538.517 520.984 540.224V548.32ZM514.008 550.336C514.84 550.336 515.629 550.123 516.376 549.696C517.144 549.269 517.773 548.683 518.264 547.936V543.616H515.832C514.04 543.616 512.749 543.915 511.96 544.512C511.17 545.109 510.776 545.984 510.776 547.136C510.776 549.269 511.853 550.336 514.008 550.336ZM539.179 534.784C540.139 534.784 540.918 535.125 541.515 535.808C542.134 536.469 542.443 537.685 542.443 539.456V552H539.979V539.904C539.979 538.731 539.904 537.941 539.755 537.536C539.606 537.109 539.243 536.896 538.667 536.896C537.579 536.896 536.598 537.568 535.723 538.912V552H533.227V539.904C533.227 538.731 533.152 537.941 533.003 537.536C532.854 537.109 532.491 536.896 531.915 536.896C530.827 536.896 529.846 537.568 528.971 538.912V552H526.507V535.136H528.587L528.779 537.12C529.291 536.373 529.824 535.797 530.379 535.392C530.955 534.987 531.638 534.784 532.427 534.784C534.006 534.784 535.019 535.531 535.467 537.024C535.979 536.299 536.523 535.744 537.099 535.36C537.675 534.976 538.368 534.784 539.179 534.784ZM555.807 527.264C556.383 527.264 556.852 527.445 557.215 527.808C557.577 528.149 557.759 528.597 557.759 529.152C557.759 529.707 557.577 530.165 557.215 530.528C556.852 530.869 556.383 531.04 555.807 531.04C555.231 531.04 554.761 530.869 554.399 530.528C554.036 530.165 553.855 529.707 553.855 529.152C553.855 528.597 554.036 528.149 554.399 527.808C554.761 527.445 555.231 527.264 555.807 527.264ZM558.303 549.312C558.303 552.021 557.396 554.123 555.583 555.616C553.791 557.131 551.124 558.187 547.583 558.784L547.135 556.704C549.844 556.256 551.935 555.467 553.407 554.336C554.879 553.227 555.615 551.605 555.615 549.472V537.28H548.607V535.136H558.303V549.312ZM572.882 534.784C575.207 534.784 576.989 535.573 578.226 537.152C579.485 538.709 580.114 540.843 580.114 543.552C580.114 546.197 579.474 548.331 578.194 549.952C576.935 551.552 575.154 552.352 572.85 552.352C570.525 552.352 568.733 551.573 567.474 550.016C566.215 548.437 565.586 546.293 565.586 543.584C565.586 540.917 566.215 538.784 567.474 537.184C568.754 535.584 570.557 534.784 572.882 534.784ZM572.882 536.992C571.41 536.992 570.311 537.536 569.586 538.624C568.861 539.712 568.498 541.365 568.498 543.584C568.498 545.803 568.85 547.456 569.554 548.544C570.279 549.611 571.378 550.144 572.85 550.144C574.322 550.144 575.41 549.611 576.114 548.544C576.839 547.456 577.202 545.792 577.202 543.552C577.202 541.333 576.839 539.691 576.114 538.624C575.41 537.536 574.333 536.992 572.882 536.992ZM592.23 547.84C592.23 549.355 593.158 550.112 595.014 550.112C595.888 550.112 596.827 549.92 597.83 549.536L598.534 551.488C597.467 552.064 596.134 552.352 594.534 552.352C593.019 552.352 591.803 551.936 590.885 551.104C589.99 550.272 589.542 549.141 589.542 547.712V530.496H584.358V528.352H592.23V547.84ZM611.225 527.264C611.822 527.264 612.302 527.445 612.665 527.808C613.028 528.149 613.209 528.597 613.209 529.152C613.209 529.707 613.028 530.165 612.665 530.528C612.302 530.869 611.822 531.04 611.225 531.04C610.649 531.04 610.18 530.869 609.817 530.528C609.476 530.165 609.305 529.707 609.305 529.152C609.305 528.597 609.476 528.149 609.817 527.808C610.18 527.445 610.649 527.264 611.225 527.264ZM613.369 549.856H618.105V552H605.497V549.856H610.681V537.28H605.657V535.136H613.369V549.856ZM631.661 550.048C633.133 550.048 634.594 549.557 636.045 548.576L637.325 550.336C636.621 550.955 635.746 551.445 634.701 551.808C633.655 552.171 632.642 552.352 631.661 552.352C629.165 552.352 627.213 551.573 625.805 550.016C624.418 548.437 623.725 546.315 623.725 543.648C623.725 541.963 624.034 540.448 624.653 539.104C625.293 537.76 626.21 536.704 627.405 535.936C628.599 535.168 630.018 534.784 631.661 534.784C633.837 534.784 635.714 535.445 637.293 536.768L635.981 538.528C634.509 537.547 633.058 537.056 631.629 537.056C630.114 537.056 628.898 537.621 627.981 538.752C627.085 539.861 626.637 541.493 626.637 543.648C626.637 545.803 627.085 547.413 627.981 548.48C628.898 549.525 630.125 550.048 631.661 550.048ZM649.632 534.784C651.957 534.784 653.739 535.573 654.976 537.152C656.235 538.709 656.864 540.843 656.864 543.552C656.864 546.197 656.224 548.331 654.944 549.952C653.685 551.552 651.904 552.352 649.6 552.352C647.275 552.352 645.483 551.573 644.224 550.016C642.965 548.437 642.336 546.293 642.336 543.584C642.336 540.917 642.965 538.784 644.224 537.184C645.504 535.584 647.307 534.784 649.632 534.784ZM649.632 536.992C648.16 536.992 647.061 537.536 646.336 538.624C645.611 539.712 645.248 541.365 645.248 543.584C645.248 545.803 645.6 547.456 646.304 548.544C647.029 549.611 648.128 550.144 649.6 550.144C651.072 550.144 652.16 549.611 652.864 548.544C653.589 547.456 653.952 545.792 653.952 543.552C653.952 541.333 653.589 539.691 652.864 538.624C652.16 537.536 651.083 536.992 649.632 536.992ZM664.532 544.512C664.596 546.368 665.076 547.765 665.972 548.704C666.889 549.643 668.041 550.112 669.428 550.112C670.26 550.112 671.017 549.995 671.7 549.76C672.404 549.504 673.15 549.12 673.94 548.608L675.188 550.4C674.398 551.019 673.492 551.499 672.468 551.84C671.465 552.181 670.452 552.352 669.428 552.352C666.996 552.352 665.097 551.563 663.732 549.984C662.388 548.384 661.716 546.251 661.716 543.584C661.716 541.899 662.014 540.395 662.612 539.072C663.209 537.728 664.062 536.683 665.172 535.936C666.281 535.168 667.572 534.784 669.044 534.784C671.177 534.784 672.852 535.531 674.068 537.024C675.305 538.496 675.924 540.512 675.924 543.072C675.924 543.563 675.902 544.043 675.86 544.512H664.532ZM669.076 536.992C667.774 536.992 666.718 537.461 665.908 538.4C665.097 539.317 664.638 540.672 664.532 542.464H673.3C673.278 540.693 672.894 539.339 672.148 538.4C671.401 537.461 670.377 536.992 669.076 536.992ZM684.263 547.104C684.263 548.192 684.487 548.992 684.935 549.504C685.404 549.995 686.13 550.24 687.111 550.24C688.007 550.24 688.871 549.984 689.703 549.472C690.535 548.96 691.196 548.32 691.687 547.552V535.136H694.375V552H692.071L691.847 549.728C691.186 550.56 690.364 551.211 689.383 551.68C688.423 552.128 687.442 552.352 686.439 552.352C684.839 552.352 683.623 551.925 682.791 551.072C681.98 550.219 681.575 548.992 681.575 547.392V535.136H684.263V547.104ZM712.155 534.784C712.837 534.784 713.627 534.901 714.523 535.136L714.139 540.864H711.963V537.248H711.803C709.2 537.248 707.355 539.104 706.267 542.816V549.92H709.691V552H700.923V549.92H703.579V537.216H700.923V535.136H705.595L706.107 539.136C706.789 537.685 707.6 536.597 708.539 535.872C709.499 535.147 710.704 534.784 712.155 534.784ZM723.502 549.536C723.502 548.747 723.769 548.085 724.302 547.552C724.857 546.997 725.529 546.72 726.318 546.72C727.129 546.72 727.801 546.997 728.334 547.552C728.867 548.085 729.134 548.747 729.134 549.536C729.134 550.347 728.867 551.019 728.334 551.552C727.801 552.085 727.129 552.352 726.318 552.352C725.529 552.352 724.857 552.085 724.302 551.552C723.769 550.997 723.502 550.325 723.502 549.536ZM746.786 550.048C748.258 550.048 749.719 549.557 751.17 548.576L752.45 550.336C751.746 550.955 750.871 551.445 749.826 551.808C748.78 552.171 747.767 552.352 746.786 552.352C744.29 552.352 742.338 551.573 740.93 550.016C739.543 548.437 738.85 546.315 738.85 543.648C738.85 541.963 739.159 540.448 739.778 539.104C740.418 537.76 741.335 536.704 742.53 535.936C743.724 535.168 745.143 534.784 746.786 534.784C748.962 534.784 750.839 535.445 752.418 536.768L751.106 538.528C749.634 537.547 748.183 537.056 746.754 537.056C745.239 537.056 744.023 537.621 743.106 538.752C742.21 539.861 741.762 541.493 741.762 543.648C741.762 545.803 742.21 547.413 743.106 548.48C744.023 549.525 745.25 550.048 746.786 550.048ZM764.757 534.784C767.082 534.784 768.864 535.573 770.101 537.152C771.36 538.709 771.989 540.843 771.989 543.552C771.989 546.197 771.349 548.331 770.069 549.952C768.81 551.552 767.029 552.352 764.725 552.352C762.4 552.352 760.608 551.573 759.349 550.016C758.09 548.437 757.461 546.293 757.461 543.584C757.461 540.917 758.09 538.784 759.349 537.184C760.629 535.584 762.432 534.784 764.757 534.784ZM764.757 536.992C763.285 536.992 762.186 537.536 761.461 538.624C760.736 539.712 760.373 541.365 760.373 543.584C760.373 545.803 760.725 547.456 761.429 548.544C762.154 549.611 763.253 550.144 764.725 550.144C766.197 550.144 767.285 549.611 767.989 548.544C768.714 547.456 769.077 545.792 769.077 543.552C769.077 541.333 768.714 539.691 767.989 538.624C767.285 537.536 766.208 536.992 764.757 536.992ZM788.617 534.784C789.577 534.784 790.355 535.125 790.953 535.808C791.571 536.469 791.881 537.685 791.881 539.456V552H789.417V539.904C789.417 538.731 789.342 537.941 789.193 537.536C789.043 537.109 788.681 536.896 788.105 536.896C787.017 536.896 786.035 537.568 785.161 538.912V552H782.665V539.904C782.665 538.731 782.59 537.941 782.441 537.536C782.291 537.109 781.929 536.896 781.353 536.896C780.265 536.896 779.283 537.568 778.409 538.912V552H775.945V535.136H778.025L778.217 537.12C778.729 536.373 779.262 535.797 779.817 535.392C780.393 534.987 781.075 534.784 781.865 534.784C783.443 534.784 784.457 535.531 784.905 537.024C785.417 536.299 785.961 535.744 786.537 535.36C787.113 534.976 787.806 534.784 788.617 534.784ZM795.196 554.336L808.86 526.112L811.004 527.136L797.372 555.296L795.196 554.336ZM822.288 527.264C822.885 527.264 823.365 527.445 823.728 527.808C824.09 528.149 824.272 528.597 824.272 529.152C824.272 529.707 824.09 530.165 823.728 530.528C823.365 530.869 822.885 531.04 822.288 531.04C821.712 531.04 821.242 530.869 820.88 530.528C820.538 530.165 820.368 529.707 820.368 529.152C820.368 528.597 820.538 528.149 820.88 527.808C821.242 527.445 821.712 527.264 822.288 527.264ZM824.432 549.856H829.168V552H816.56V549.856H821.744V537.28H816.72V535.136H824.432V549.856ZM842.723 550.048C844.195 550.048 845.656 549.557 847.107 548.576L848.387 550.336C847.683 550.955 846.808 551.445 845.763 551.808C844.718 552.171 843.704 552.352 842.723 552.352C840.227 552.352 838.275 551.573 836.867 550.016C835.48 548.437 834.787 546.315 834.787 543.648C834.787 541.963 835.096 540.448 835.715 539.104C836.355 537.76 837.272 536.704 838.467 535.936C839.662 535.168 841.08 534.784 842.723 534.784C844.899 534.784 846.776 535.445 848.355 536.768L847.043 538.528C845.571 537.547 844.12 537.056 842.691 537.056C841.176 537.056 839.96 537.621 839.043 538.752C838.147 539.861 837.699 541.493 837.699 543.648C837.699 545.803 838.147 547.413 839.043 548.48C839.96 549.525 841.187 550.048 842.723 550.048ZM860.695 534.784C863.02 534.784 864.801 535.573 866.039 537.152C867.297 538.709 867.927 540.843 867.927 543.552C867.927 546.197 867.287 548.331 866.007 549.952C864.748 551.552 862.967 552.352 860.663 552.352C858.337 552.352 856.545 551.573 855.286 550.016C854.028 548.437 853.399 546.293 853.399 543.584C853.399 540.917 854.028 538.784 855.286 537.184C856.567 535.584 858.369 534.784 860.695 534.784ZM860.695 536.992C859.223 536.992 858.124 537.536 857.399 538.624C856.673 539.712 856.311 541.365 856.311 543.584C856.311 545.803 856.663 547.456 857.367 548.544C858.092 549.611 859.191 550.144 860.663 550.144C862.135 550.144 863.223 549.611 863.927 548.544C864.652 547.456 865.015 545.792 865.015 543.552C865.015 541.333 864.652 539.691 863.927 538.624C863.223 537.536 862.145 536.992 860.695 536.992ZM873.45 535.136H875.754L875.978 537.504C876.639 536.651 877.471 535.989 878.474 535.52C879.498 535.029 880.522 534.784 881.546 534.784C884.703 534.784 886.282 536.448 886.282 539.776V552H883.594V541.76C883.594 540.501 883.519 539.541 883.37 538.88C883.242 538.219 882.975 537.728 882.57 537.408C882.165 537.088 881.546 536.928 880.714 536.928C879.797 536.928 878.933 537.205 878.122 537.76C877.311 538.315 876.65 538.976 876.138 539.744V552H873.45V535.136ZM893.438 540.832H904.638V543.136H893.438V540.832ZM918.417 547.84C918.417 549.355 919.345 550.112 921.201 550.112C922.076 550.112 923.014 549.92 924.017 549.536L924.721 551.488C923.654 552.064 922.321 552.352 920.721 552.352C919.206 552.352 917.99 551.936 917.073 551.104C916.177 550.272 915.729 549.141 915.729 547.712V530.496H910.545V528.352H918.417V547.84ZM937.413 527.264C938.01 527.264 938.49 527.445 938.853 527.808C939.215 528.149 939.397 528.597 939.397 529.152C939.397 529.707 939.215 530.165 938.853 530.528C938.49 530.869 938.01 531.04 937.413 531.04C936.837 531.04 936.367 530.869 936.005 530.528C935.663 530.165 935.493 529.707 935.493 529.152C935.493 528.597 935.663 528.149 936.005 527.808C936.367 527.445 936.837 527.264 937.413 527.264ZM939.557 549.856H944.293V552H931.685V549.856H936.869V537.28H931.845V535.136H939.557V549.856ZM952.888 537.344C954.189 535.637 955.8 534.784 957.72 534.784C959.875 534.784 961.464 535.552 962.488 537.088C963.512 538.624 964.024 540.779 964.024 543.552C964.024 546.197 963.437 548.331 962.264 549.952C961.091 551.552 959.448 552.352 957.336 552.352C955.395 552.352 953.869 551.648 952.76 550.24L952.568 552H950.2V528.352L952.888 528.032V537.344ZM956.728 550.176C958.136 550.176 959.213 549.621 959.96 548.512C960.728 547.403 961.112 545.749 961.112 543.552C961.112 541.376 960.771 539.733 960.088 538.624C959.427 537.515 958.435 536.96 957.112 536.96C956.259 536.96 955.469 537.216 954.744 537.728C954.04 538.24 953.421 538.88 952.888 539.648V548C953.336 548.683 953.891 549.216 954.552 549.6C955.213 549.984 955.939 550.176 956.728 550.176ZM980.78 534.784C981.462 534.784 982.252 534.901 983.148 535.136L982.764 540.864H980.588V537.248H980.428C977.825 537.248 975.98 539.104 974.892 542.816V549.92H978.316V552H969.548V549.92H972.204V537.216H969.548V535.136H974.22L974.732 539.136C975.414 537.685 976.225 536.597 977.164 535.872C978.124 535.147 979.329 534.784 980.78 534.784ZM1000.67 548.32C1000.67 548.981 1000.78 549.472 1000.99 549.792C1001.2 550.091 1001.56 550.315 1002.05 550.464L1001.38 552.384C999.732 552.171 998.708 551.371 998.303 549.984C997.706 550.752 996.948 551.339 996.031 551.744C995.135 552.149 994.132 552.352 993.023 552.352C991.338 552.352 990.004 551.883 989.023 550.944C988.063 550.005 987.583 548.747 987.583 547.168C987.583 545.44 988.255 544.107 989.599 543.168C990.964 542.229 992.916 541.76 995.455 541.76H997.951V540.384C997.951 539.189 997.61 538.336 996.927 537.824C996.244 537.291 995.252 537.024 993.951 537.024C992.671 537.024 991.21 537.312 989.567 537.888L988.831 535.84C990.815 535.136 992.66 534.784 994.367 534.784C996.415 534.784 997.972 535.264 999.039 536.224C1000.13 537.184 1000.67 538.517 1000.67 540.224V548.32ZM993.695 550.336C994.527 550.336 995.316 550.123 996.063 549.696C996.831 549.269 997.46 548.683 997.951 547.936V543.616H995.519C993.727 543.616 992.436 543.915 991.647 544.512C990.858 545.109 990.463 545.984 990.463 547.136C990.463 549.269 991.54 550.336 993.695 550.336ZM1019.15 534.784C1019.84 534.784 1020.63 534.901 1021.52 535.136L1021.14 540.864H1018.96V537.248H1018.8C1016.2 537.248 1014.35 539.104 1013.27 542.816V549.92H1016.69V552H1007.92V549.92H1010.58V537.216H1007.92V535.136H1012.59L1013.11 539.136C1013.79 537.685 1014.6 536.597 1015.54 535.872C1016.5 535.147 1017.7 534.784 1019.15 534.784ZM1035.08 552.096C1034.42 554.037 1033.51 555.584 1032.36 556.736C1031.21 557.888 1029.6 558.571 1027.53 558.784L1027.14 556.64C1028.27 556.448 1029.17 556.149 1029.83 555.744C1030.51 555.36 1031.05 554.869 1031.43 554.272C1031.81 553.696 1032.17 552.939 1032.49 552H1031.59L1025.73 535.136H1028.58L1033.41 549.952L1038.18 535.136H1040.97L1035.08 552.096Z" fill="black"/>
<path d="M482.058 466.368L480.298 472H477.546L484.746 449.952H488.266L495.434 472H492.554L490.794 466.368H482.058ZM490.058 464.064L486.442 452.32L482.794 464.064H490.058ZM512.094 448.352V472H509.726L509.47 469.792C508.851 470.645 508.136 471.285 507.326 471.712C506.515 472.139 505.64 472.352 504.702 472.352C502.568 472.352 500.958 471.573 499.87 470.016C498.803 468.459 498.27 466.315 498.27 463.584C498.27 461.899 498.536 460.395 499.07 459.072C499.603 457.728 500.36 456.683 501.342 455.936C502.344 455.168 503.518 454.784 504.862 454.784C506.718 454.784 508.232 455.456 509.406 456.8V448.032L512.094 448.352ZM505.566 456.96C504.158 456.96 503.07 457.515 502.302 458.624C501.555 459.733 501.182 461.387 501.182 463.584C501.182 465.76 501.523 467.413 502.206 468.544C502.91 469.653 503.923 470.208 505.246 470.208C506.846 470.208 508.232 469.312 509.406 467.52V459.136C508.936 458.432 508.371 457.899 507.71 457.536C507.048 457.152 506.334 456.96 505.566 456.96ZM530.577 468.32C530.577 468.981 530.684 469.472 530.897 469.792C531.111 470.091 531.463 470.315 531.953 470.464L531.281 472.384C529.639 472.171 528.615 471.371 528.209 469.984C527.612 470.752 526.855 471.339 525.937 471.744C525.041 472.149 524.039 472.352 522.929 472.352C521.244 472.352 519.911 471.883 518.929 470.944C517.969 470.005 517.489 468.747 517.489 467.168C517.489 465.44 518.161 464.107 519.505 463.168C520.871 462.229 522.823 461.76 525.361 461.76H527.857V460.384C527.857 459.189 527.516 458.336 526.833 457.824C526.151 457.291 525.159 457.024 523.857 457.024C522.577 457.024 521.116 457.312 519.473 457.888L518.737 455.84C520.721 455.136 522.567 454.784 524.273 454.784C526.321 454.784 527.879 455.264 528.945 456.224C530.033 457.184 530.577 458.517 530.577 460.224V468.32ZM523.601 470.336C524.433 470.336 525.223 470.123 525.969 469.696C526.737 469.269 527.367 468.683 527.857 467.936V463.616H525.425C523.633 463.616 522.343 463.915 521.553 464.512C520.764 465.109 520.369 465.984 520.369 467.136C520.369 469.269 521.447 470.336 523.601 470.336ZM548.773 454.784C549.733 454.784 550.511 455.125 551.109 455.808C551.727 456.469 552.037 457.685 552.037 459.456V472H549.573V459.904C549.573 458.731 549.498 457.941 549.349 457.536C549.199 457.109 548.837 456.896 548.261 456.896C547.173 456.896 546.191 457.568 545.317 458.912V472H542.821V459.904C542.821 458.731 542.746 457.941 542.597 457.536C542.447 457.109 542.085 456.896 541.509 456.896C540.421 456.896 539.439 457.568 538.565 458.912V472H536.101V455.136H538.181L538.373 457.12C538.885 456.373 539.418 455.797 539.973 455.392C540.549 454.987 541.231 454.784 542.021 454.784C543.599 454.784 544.613 455.531 545.061 457.024C545.573 456.299 546.117 455.744 546.693 455.36C547.269 454.976 547.962 454.784 548.773 454.784ZM588.748 464.672C588.748 466.827 588.15 468.651 586.956 470.144C585.782 471.637 583.862 472.384 581.196 472.384C580.108 472.384 579.041 472.213 577.996 471.872C576.972 471.531 576.033 471.029 575.18 470.368L576.396 468.544C577.996 469.547 579.585 470.048 581.164 470.048C582.7 470.048 583.884 469.568 584.716 468.608C585.548 467.627 585.964 466.272 585.964 464.544V452.224H579.436V449.952H588.748V464.672ZM598.783 469.536C598.783 468.747 599.05 468.085 599.583 467.552C600.138 466.997 600.81 466.72 601.599 466.72C602.41 466.72 603.082 466.997 603.615 467.552C604.149 468.085 604.415 468.747 604.415 469.536C604.415 470.347 604.149 471.019 603.615 471.552C603.082 472.085 602.41 472.352 601.599 472.352C600.81 472.352 600.138 472.085 599.583 471.552C599.05 470.997 598.783 470.325 598.783 469.536ZM646.31 464.672C646.31 466.827 645.713 468.651 644.518 470.144C643.345 471.637 641.425 472.384 638.758 472.384C637.67 472.384 636.604 472.213 635.558 471.872C634.534 471.531 633.596 471.029 632.742 470.368L633.958 468.544C635.558 469.547 637.148 470.048 638.726 470.048C640.262 470.048 641.446 469.568 642.278 468.608C643.11 467.627 643.526 466.272 643.526 464.544V452.224H636.998V449.952H646.31V464.672ZM659.226 454.784C661.551 454.784 663.332 455.573 664.57 457.152C665.828 458.709 666.458 460.843 666.458 463.552C666.458 466.197 665.818 468.331 664.538 469.952C663.279 471.552 661.498 472.352 659.194 472.352C656.868 472.352 655.076 471.573 653.818 470.016C652.559 468.437 651.93 466.293 651.93 463.584C651.93 460.917 652.559 458.784 653.818 457.184C655.098 455.584 656.9 454.784 659.226 454.784ZM659.226 456.992C657.754 456.992 656.655 457.536 655.93 458.624C655.204 459.712 654.842 461.365 654.842 463.584C654.842 465.803 655.194 467.456 655.898 468.544C656.623 469.611 657.722 470.144 659.194 470.144C660.666 470.144 661.754 469.611 662.458 468.544C663.183 467.456 663.546 465.792 663.546 463.552C663.546 461.333 663.183 459.691 662.458 458.624C661.754 457.536 660.676 456.992 659.226 456.992ZM678.573 467.84C678.573 469.355 679.501 470.112 681.357 470.112C682.232 470.112 683.171 469.92 684.173 469.536L684.877 471.488C683.811 472.064 682.477 472.352 680.877 472.352C679.363 472.352 678.147 471.936 677.229 471.104C676.333 470.272 675.885 469.141 675.885 467.712V450.496H670.701V448.352H678.573V467.84ZM697.569 447.264C698.166 447.264 698.646 447.445 699.009 447.808C699.371 448.149 699.553 448.597 699.553 449.152C699.553 449.707 699.371 450.165 699.009 450.528C698.646 450.869 698.166 451.04 697.569 451.04C696.993 451.04 696.523 450.869 696.161 450.528C695.819 450.165 695.649 449.707 695.649 449.152C695.649 448.597 695.819 448.149 696.161 447.808C696.523 447.445 696.993 447.264 697.569 447.264ZM699.713 469.856H704.449V472H691.841V469.856H697.025V457.28H692.001V455.136H699.713V469.856ZM718.004 470.048C719.476 470.048 720.938 469.557 722.388 468.576L723.668 470.336C722.964 470.955 722.09 471.445 721.044 471.808C719.999 472.171 718.986 472.352 718.004 472.352C715.508 472.352 713.556 471.573 712.148 470.016C710.762 468.437 710.068 466.315 710.068 463.648C710.068 461.963 710.378 460.448 710.996 459.104C711.636 457.76 712.554 456.704 713.748 455.936C714.943 455.168 716.362 454.784 718.004 454.784C720.18 454.784 722.058 455.445 723.636 456.768L722.324 458.528C720.852 457.547 719.402 457.056 717.972 457.056C716.458 457.056 715.242 457.621 714.324 458.752C713.428 459.861 712.98 461.493 712.98 463.648C712.98 465.803 713.428 467.413 714.324 468.48C715.242 469.525 716.468 470.048 718.004 470.048ZM735.976 454.784C738.301 454.784 740.082 455.573 741.32 457.152C742.578 458.709 743.208 460.843 743.208 463.552C743.208 466.197 742.568 468.331 741.288 469.952C740.029 471.552 738.248 472.352 735.944 472.352C733.618 472.352 731.826 471.573 730.568 470.016C729.309 468.437 728.68 466.293 728.68 463.584C728.68 460.917 729.309 458.784 730.568 457.184C731.848 455.584 733.65 454.784 735.976 454.784ZM735.976 456.992C734.504 456.992 733.405 457.536 732.68 458.624C731.954 459.712 731.592 461.365 731.592 463.584C731.592 465.803 731.944 467.456 732.648 468.544C733.373 469.611 734.472 470.144 735.944 470.144C737.416 470.144 738.504 469.611 739.208 468.544C739.933 467.456 740.296 465.792 740.296 463.552C740.296 461.333 739.933 459.691 739.208 458.624C738.504 457.536 737.426 456.992 735.976 456.992ZM750.875 464.512C750.939 466.368 751.419 467.765 752.315 468.704C753.233 469.643 754.385 470.112 755.771 470.112C756.603 470.112 757.361 469.995 758.043 469.76C758.747 469.504 759.494 469.12 760.283 468.608L761.531 470.4C760.742 471.019 759.835 471.499 758.811 471.84C757.809 472.181 756.795 472.352 755.771 472.352C753.339 472.352 751.441 471.563 750.075 469.984C748.731 468.384 748.059 466.251 748.059 463.584C748.059 461.899 748.358 460.395 748.955 459.072C749.553 457.728 750.406 456.683 751.515 455.936C752.625 455.168 753.915 454.784 755.387 454.784C757.521 454.784 759.195 455.531 760.411 457.024C761.649 458.496 762.267 460.512 762.267 463.072C762.267 463.563 762.246 464.043 762.203 464.512H750.875ZM755.419 456.992C754.118 456.992 753.062 457.461 752.251 458.4C751.441 459.317 750.982 460.672 750.875 462.464H759.643C759.622 460.693 759.238 459.339 758.491 458.4C757.745 457.461 756.721 456.992 755.419 456.992ZM770.607 467.104C770.607 468.192 770.831 468.992 771.279 469.504C771.748 469.995 772.473 470.24 773.455 470.24C774.351 470.24 775.215 469.984 776.047 469.472C776.879 468.96 777.54 468.32 778.031 467.552V455.136H780.719V472H778.415L778.191 469.728C777.529 470.56 776.708 471.211 775.727 471.68C774.767 472.128 773.785 472.352 772.783 472.352C771.183 472.352 769.967 471.925 769.135 471.072C768.324 470.219 767.919 468.992 767.919 467.392V455.136H770.607V467.104ZM798.498 454.784C799.181 454.784 799.97 454.901 800.866 455.136L800.482 460.864H798.306V457.248H798.146C795.544 457.248 793.698 459.104 792.61 462.816V469.92H796.034V472H787.266V469.92H789.922V457.216H787.266V455.136H791.938L792.45 459.136C793.133 457.685 793.944 456.597 794.882 455.872C795.842 455.147 797.048 454.784 798.498 454.784Z" fill="black"/>
</svg>
