<svg width="16" height="16" viewBox="0 0 16 16" fill="none" xmlns="http://www.w3.org/2000/svg">
<path d="M8.20436 14.1502C8.12935 14.2176 8.06093 14.2788 8 14.3331L1.5 5C1.5 4.99964 1.5 4.99927 1.5 4.99891C1.50059 3.06641 3.06737 1.5 5 1.5C6.02586 1.5 6.69544 1.73137 7.09511 1.94223C7.29634 2.0484 7.43319 2.15151 7.51528 2.22234C7.55639 2.2578 7.5839 2.2853 7.59896 2.30116C7.60545 2.308 7.60962 2.31268 7.61156 2.31491L8 2.80607L8.38844 2.31491C8.39038 2.31268 8.39455 2.308 8.40104 2.30116C8.4161 2.2853 8.44361 2.2578 8.48472 2.22234C8.56681 2.15151 8.70366 2.0484 8.90489 1.94223C9.30456 1.73137 9.97414 1.5 11 1.5C12.933 1.5 14.5 3.067 14.5 5L14.5 5.0009L14.4997 5.01579C14.4993 5.03028 14.4985 5.05377 14.4968 5.08568C14.4934 5.1495 14.4864 5.24685 14.472 5.37291C14.4432 5.62521 14.3848 5.99147 14.2669 6.43367C14.031 7.31814 13.5581 8.50195 12.6096 9.68765C11.7696 10.7376 10.5405 11.9681 9.50914 12.9457C8.99583 13.4323 8.53588 13.8521 8.20436 14.1502Z" stroke="#2A3B51"/>
</svg>
