<svg width="16" height="16" viewBox="0 0 16 16" fill="none" xmlns="http://www.w3.org/2000/svg">
<mask id="path-1-inside-1_140_844" fill="white">
<path d="M16 8C16 12.4183 12.4183 16 8 16C3.58172 16 0 12.4183 0 8C0 3.58172 3.58172 0 8 0C12.4183 0 16 3.58172 16 8Z"/>
</mask>
<path d="M8 5.00002L8.35355 4.64646C8.15829 4.4512 7.84171 4.4512 7.64645 4.64646L8 5.00002ZM2.64645 9.64645C2.45118 9.84171 2.45118 10.1583 2.64645 10.3536C2.84171 10.5488 3.15829 10.5488 3.35355 10.3536L2.64645 9.64645ZM12.6464 10.3536C12.8417 10.5488 13.1583 10.5488 13.3536 10.3536C13.5488 10.1583 13.5488 9.84171 13.3536 9.64645L12.6464 10.3536ZM7.64645 4.64646L2.64645 9.64645L3.35355 10.3536L8.35355 5.35357L7.64645 4.64646ZM7.64645 5.35357L12.6464 10.3536L13.3536 9.64645L8.35355 4.64646L7.64645 5.35357ZM15 8C15 11.866 11.866 15 8 15V17C12.9706 17 17 12.9706 17 8H15ZM8 15C4.13401 15 1 11.866 1 8H-1C-1 12.9706 3.02944 17 8 17V15ZM1 8C1 4.13401 4.13401 1 8 1V-1C3.02944 -1 -1 3.02944 -1 8H1ZM8 1C11.866 1 15 4.13401 15 8H17C17 3.02944 12.9706 -1 8 -1V1Z" fill="black" mask="url(#path-1-inside-1_140_844)"/>
</svg>
