<svg width="16" height="16" viewBox="0 0 16 16" fill="none" xmlns="http://www.w3.org/2000/svg">
<mask id="path-1-inside-1_140_839" fill="white">
<path d="M16 8C16 12.4183 12.4183 16 8 16C3.58172 16 0 12.4183 0 8C0 3.58172 3.58172 0 8 0C12.4183 0 16 3.58172 16 8Z"/>
</mask>
<path d="M5 8.00002L4.67991 7.61591C4.56592 7.71091 4.5 7.85163 4.5 8.00002C4.5 8.14841 4.56592 8.28914 4.67991 8.38414L5 8.00002ZM10.6799 13.3841C10.8921 13.5609 11.2073 13.5322 11.3841 13.3201C11.5609 13.108 11.5322 12.7927 11.3201 12.6159L10.6799 13.3841ZM11.3201 3.38411C11.5322 3.20733 11.5609 2.89205 11.3841 2.67991C11.2073 2.46777 10.892 2.43911 10.6799 2.61589L11.3201 3.38411ZM4.67991 8.38414L10.6799 13.3841L11.3201 12.6159L5.3201 7.61591L4.67991 8.38414ZM5.3201 8.38413L11.3201 3.38411L10.6799 2.61589L4.67991 7.61591L5.3201 8.38413ZM15 8C15 11.866 11.866 15 8 15V17C12.9706 17 17 12.9706 17 8H15ZM8 15C4.13401 15 1 11.866 1 8H-1C-1 12.9706 3.02944 17 8 17V15ZM1 8C1 4.13401 4.13401 1 8 1V-1C3.02944 -1 -1 3.02944 -1 8H1ZM8 1C11.866 1 15 4.13401 15 8H17C17 3.02944 12.9706 -1 8 -1V1Z" fill="black" mask="url(#path-1-inside-1_140_839)"/>
</svg>
