<svg width="16" height="16" viewBox="0 0 16 16" fill="none" xmlns="http://www.w3.org/2000/svg">
<mask id="path-1-inside-1_140_837" fill="white">
<path d="M16 8C16 12.4183 12.4183 16 8 16C3.58172 16 0 12.4183 0 8C0 3.58172 3.58172 0 8 0C12.4183 0 16 3.58172 16 8Z"/>
</mask>
<path d="M8 11L7.64645 11.3536C7.84171 11.5488 8.15829 11.5488 8.35355 11.3536L8 11ZM13.3536 6.35355C13.5488 6.15829 13.5488 5.84171 13.3536 5.64645C13.1583 5.45118 12.8417 5.45118 12.6464 5.64645L13.3536 6.35355ZM3.35355 5.64645C3.15829 5.45118 2.84171 5.45118 2.64645 5.64645C2.45118 5.84171 2.45118 6.15829 2.64645 6.35355L3.35355 5.64645ZM8.35355 11.3536L13.3536 6.35355L12.6464 5.64645L7.64645 10.6464L8.35355 11.3536ZM8.35355 10.6464L3.35355 5.64645L2.64645 6.35355L7.64645 11.3536L8.35355 10.6464ZM15 8C15 11.866 11.866 15 8 15V17C12.9706 17 17 12.9706 17 8H15ZM8 15C4.13401 15 1 11.866 1 8H-1C-1 12.9706 3.02944 17 8 17V15ZM1 8C1 4.13401 4.13401 1 8 1V-1C3.02944 -1 -1 3.02944 -1 8H1ZM8 1C11.866 1 15 4.13401 15 8H17C17 3.02944 12.9706 -1 8 -1V1Z" fill="#2A3B51" mask="url(#path-1-inside-1_140_837)"/>
</svg>
