<svg width="16" height="16" viewBox="0 0 16 16" fill="none" xmlns="http://www.w3.org/2000/svg">
<mask id="path-1-inside-1_140_843" fill="white">
<path d="M16 8C16 12.4183 12.4183 16 8 16C3.58172 16 0 12.4183 0 8C0 3.58172 3.58172 0 8 0C12.4183 0 16 3.58172 16 8Z"/>
</mask>
<path d="M11 8L11.3201 8.38411C11.4341 8.28911 11.5 8.14839 11.5 8C11.5 7.85161 11.4341 7.71089 11.3201 7.61589L11 8ZM5.32009 2.61589C5.10795 2.43911 4.79267 2.46777 4.61589 2.67991C4.43911 2.89205 4.46777 3.20733 4.67991 3.38411L5.32009 2.61589ZM4.67991 12.6159C4.46777 12.7927 4.43911 13.108 4.61589 13.3201C4.79267 13.5322 5.10795 13.5609 5.32009 13.3841L4.67991 12.6159ZM11.3201 7.61589L5.32009 2.61589L4.67991 3.38411L10.6799 8.38411L11.3201 7.61589ZM10.6799 7.61589L4.67991 12.6159L5.32009 13.3841L11.3201 8.38411L10.6799 7.61589ZM15 8C15 11.866 11.866 15 8 15V17C12.9706 17 17 12.9706 17 8H15ZM8 15C4.13401 15 1 11.866 1 8H-1C-1 12.9706 3.02944 17 8 17V15ZM1 8C1 4.13401 4.13401 1 8 1V-1C3.02944 -1 -1 3.02944 -1 8H1ZM8 1C11.866 1 15 4.13401 15 8H17C17 3.02944 12.9706 -1 8 -1V1Z" fill="black" mask="url(#path-1-inside-1_140_843)"/>
</svg>
