<svg width="16" height="16" viewBox="0 0 16 16" fill="none" xmlns="http://www.w3.org/2000/svg">
<path d="M1.54016 11.2314L1.53963 11.2304C1.47705 11.1056 1.48929 10.9565 1.57146 10.8431L4.39074 7.31197L4.49095 7.18645L4.49932 7.02605C4.53819 6.28097 4.71819 5.22649 5.14301 4.31198C5.56831 3.39643 6.20016 2.69606 7.11159 2.48739L7.5 2.39846V2V1.75238C7.5 1.71464 7.51224 1.66761 7.59814 1.60973C7.69306 1.54578 7.84217 1.5 7.99978 1.5C8.15741 1.5 8.30668 1.54579 8.40175 1.60981C8.48783 1.66777 8.5 1.71482 8.5 1.75238V2V2.3985L8.88846 2.4874C9.80036 2.69609 10.4324 3.39652 10.8576 4.31198C11.2824 5.22643 11.4622 6.28084 11.5007 7.02577L11.5089 7.18631L11.6092 7.31194L14.4285 10.8435C14.5103 10.9558 14.5232 11.1046 14.4606 11.2308C14.4416 11.2683 14.3798 11.3416 14.2668 11.4088C14.1544 11.4756 14.0525 11.5 14 11.5H11H10.5V12C10.5 13.3049 9.30478 14.5 7.99978 14.5C6.69487 14.5 5.5 13.305 5.5 12V11.5H5H2C1.9474 11.5 1.84539 11.4756 1.73309 11.4088C1.61967 11.3413 1.5584 11.268 1.54016 11.2314Z" stroke="#2A3B51"/>
</svg>
