<svg width="16" height="16" viewBox="0 0 16 16" fill="none" xmlns="http://www.w3.org/2000/svg">
<path d="M13.5 3C13.5 3.27614 13.2761 3.5 13 3.5C12.7239 3.5 12.5 3.27614 12.5 3C12.5 2.72386 12.7239 2.5 13 2.5C13.2761 2.5 13.5 2.72386 13.5 3ZM8.5 3C8.5 3.27614 8.27614 3.5 8 3.5C7.72386 3.5 7.5 3.27614 7.5 3C7.5 2.72386 7.72386 2.5 8 2.5C8.27614 2.5 8.5 2.72386 8.5 3ZM3.5 3C3.5 3.27614 3.27614 3.5 3 3.5C2.72386 3.5 2.5 3.27614 2.5 3C2.5 2.72386 2.72386 2.5 3 2.5C3.27614 2.5 3.5 2.72386 3.5 3ZM3.5 8C3.5 8.27614 3.27614 8.5 3 8.5C2.72386 8.5 2.5 8.27614 2.5 8C2.5 7.72386 2.72386 7.5 3 7.5C3.27614 7.5 3.5 7.72386 3.5 8ZM8.5 8C8.5 8.27614 8.27614 8.5 8 8.5C7.72386 8.5 7.5 8.27614 7.5 8C7.5 7.72386 7.72386 7.5 8 7.5C8.27614 7.5 8.5 7.72386 8.5 8ZM13.5 8C13.5 8.27614 13.2761 8.5 13 8.5C12.7239 8.5 12.5 8.27614 12.5 8C12.5 7.72386 12.7239 7.5 13 7.5C13.2761 7.5 13.5 7.72386 13.5 8ZM3.5 13C3.5 13.2761 3.27614 13.5 3 13.5C2.72386 13.5 2.5 13.2761 2.5 13C2.5 12.7239 2.72386 12.5 3 12.5C3.27614 12.5 3.5 12.7239 3.5 13ZM8.5 13C8.5 13.2761 8.27614 13.5 8 13.5C7.72386 13.5 7.5 13.2761 7.5 13C7.5 12.7239 7.72386 12.5 8 12.5C8.27614 12.5 8.5 12.7239 8.5 13ZM13.5 13C13.5 13.2761 13.2761 13.5 13 13.5C12.7239 13.5 12.5 13.2761 12.5 13C12.5 12.7239 12.7239 12.5 13 12.5C13.2761 12.5 13.5 12.7239 13.5 13Z" stroke="#2A3B51"/>
</svg>
