<svg width="16" height="16" viewBox="0 0 16 16" fill="none" xmlns="http://www.w3.org/2000/svg">
<path fill-rule="evenodd" clip-rule="evenodd" d="M5 1C4.44772 1 4 1.44772 4 2V4H6.98452L6.5 4.00668C6.3472 4.01224 6.14204 4.02243 5.90318 4.04109C5.86713 4.04391 5.83032 4.04692 5.7928 4.05014C5.13259 4.10672 4.25459 4.22718 3.50847 4.48359C1.16344 9.80232 0.694426 14.1538 1.16344 14.6374C1.63245 15.1209 6.32256 15.1209 6.79156 14.6374C7.00007 14.4224 7.02318 12.2958 6.98452 10H9.01548C8.97682 12.2958 8.99992 14.4224 9.20844 14.6374C9.67744 15.1209 14.3676 15.1209 14.8366 14.6374C15.3056 14.1538 14.8366 9.80232 12.4915 4.48359C11.7454 4.22718 10.8674 4.10672 10.2072 4.05014C10.1697 4.04692 10.1329 4.04391 10.0968 4.04109C9.91318 4.02675 9.46306 4.01346 9.19532 4.00555C9.11482 4.00318 9.0508 4.00129 9.01548 4H12V2C12 1.44772 11.5523 1 11 1H10C9.44772 1 9 1.44772 9 2V4H7V2C7 1.44772 6.55228 1 6 1H5ZM6 2H5V3H6V2ZM11 2H10V3H11V2ZM5.83538 5.05022C5.84249 5.22625 5.85018 5.42137 5.85824 5.63225C5.89476 6.58873 5.93853 7.86748 5.96768 9.15991C5.9969 10.4553 6.01115 11.7523 5.98965 12.7497C5.97963 13.2144 5.96215 13.5973 5.93715 13.8781C5.85767 13.8912 5.76635 13.9041 5.66325 13.9162C5.20046 13.9707 4.59668 14 3.9775 14C3.35832 14 2.75454 13.9707 2.29175 13.9162C2.18157 13.9032 2.08483 13.8894 2.00163 13.8754C1.99953 13.8029 1.99932 13.7183 2.00187 13.621C2.01464 13.1338 2.09327 12.4358 2.26238 11.5641C2.58116 9.92094 3.20712 7.73366 4.24096 5.30802C4.74121 5.17904 5.291 5.1011 5.77098 5.0561L5.83538 5.05022ZM2.03501 14.189C2.03501 14.189 2.03361 14.1803 2.02874 14.1665C2.03223 14.1827 2.03501 14.189 2.03501 14.189ZM7 5H9V9H7V5ZM10.1418 5.63225C10.1498 5.42137 10.1575 5.22625 10.1646 5.05022L10.229 5.0561C10.709 5.1011 11.2588 5.17904 11.759 5.30802C12.7929 7.73366 13.4188 9.92094 13.7376 11.5641C13.9067 12.4358 13.9854 13.1338 13.9981 13.621C14.0007 13.7183 14.0005 13.8029 13.9984 13.8754C13.9152 13.8894 13.8184 13.9032 13.7082 13.9162C13.2455 13.9707 12.6417 14 12.0225 14C11.4033 14 10.7995 13.9707 10.3367 13.9162C10.2336 13.9041 10.1423 13.8912 10.0628 13.8781C10.0378 13.5973 10.0204 13.2144 10.0104 12.7497C9.98885 11.7523 10.0031 10.4553 10.0323 9.15991C10.0615 7.86748 10.1052 6.58873 10.1418 5.63225ZM13.965 14.189C13.965 14.189 13.9664 14.1803 13.9713 14.1665C13.9678 14.1827 13.965 14.189 13.965 14.189Z" fill="#2A3B51"/>
</svg>
