<svg width="16" height="16" viewBox="0 0 16 16" fill="none" xmlns="http://www.w3.org/2000/svg">
<path d="M12.6023 13.914C11.8274 13.1682 10.9061 12.3099 10.0978 11.6357C9.69476 11.2995 9.3101 11.0009 8.98023 10.7837C8.81568 10.6754 8.65471 10.5806 8.50492 10.5112C8.36724 10.4474 8.18721 10.38 7.99999 10.38C7.81277 10.38 7.63274 10.4474 7.49506 10.5112C7.34527 10.5806 7.1843 10.6754 7.01975 10.7837C6.68988 11.0009 6.30522 11.2995 5.90215 11.6357C5.09388 12.3099 4.17254 13.1682 3.39771 13.914C3.06007 14.239 2.5 13.9876 2.5 13.5447V1C2.5 0.723858 2.72386 0.5 3 0.5H13C13.2761 0.5 13.5 0.723858 13.5 1L13.5 13.5447C13.5 13.9876 12.9399 14.239 12.6023 13.914Z" stroke="#2A3B51" stroke-linejoin="round"/>
</svg>
