<svg width="20" height="16" viewBox="0 0 20 16" fill="none" xmlns="http://www.w3.org/2000/svg">
<rect width="20" height="16" fill="white"/>
<g style="mix-blend-mode:multiply">
<rect x="17.95" y="2.05" width="11.9" height="15.9" rx="1.95" transform="rotate(90 17.95 2.05)" stroke="#63E6BE" stroke-width="0.1"/>
</g>
<g style="mix-blend-mode:multiply">
<rect x="4.05" y="0.05" width="11.9" height="15.9" rx="1.95" stroke="#FFD43B" stroke-width="0.1"/>
</g>
<g style="mix-blend-mode:multiply">
<rect x="3.05" y="1.05" width="13.9" height="13.9" rx="1.95" stroke="#74C0FC" stroke-width="0.1"/>
</g>
<g style="mix-blend-mode:multiply">
<circle cx="10" cy="8" r="7.95" stroke="#E599F7" stroke-width="0.1"/>
</g>
<path d="M14.6023 13.914C13.8274 13.1682 12.9061 12.3099 12.0978 11.6357C11.6948 11.2995 11.3101 11.0009 10.9802 10.7837C10.8157 10.6754 10.6547 10.5806 10.5049 10.5112C10.3672 10.4474 10.1872 10.38 9.99999 10.38C9.81277 10.38 9.63274 10.4474 9.49506 10.5112C9.34527 10.5806 9.1843 10.6754 9.01975 10.7837C8.68988 11.0009 8.30522 11.2995 7.90215 11.6357C7.09388 12.3099 6.17254 13.1682 5.39771 13.914C5.06007 14.239 4.5 13.9876 4.5 13.5447V1C4.5 0.723858 4.72386 0.5 5 0.5H15C15.2761 0.5 15.5 0.723858 15.5 1L15.5 13.5447C15.5 13.9876 14.9399 14.239 14.6023 13.914Z" stroke="black" stroke-linejoin="round"/>
</svg>
