<svg width="16" height="16" viewBox="0 0 16 16" fill="none" xmlns="http://www.w3.org/2000/svg">
<path d="M6 2.5H6.5V2C6.5 1.72705 6.56838 1.6318 6.60404 1.59768C6.64391 1.55953 6.74517 1.5 7 1.5H9C9.25483 1.5 9.35609 1.55953 9.39596 1.59768C9.43162 1.6318 9.5 1.72705 9.5 2V2.5H10H13C13.2548 2.5 13.3561 2.55953 13.396 2.59768C13.4316 2.6318 13.5 2.72705 13.5 3V5V5.5H14C14.2548 5.5 14.3561 5.55953 14.396 5.59768C14.4316 5.6318 14.5 5.72705 14.5 6V7C14.5 7.27295 14.4316 7.3682 14.396 7.40232C14.3561 7.44047 14.2548 7.5 14 7.5H13.5V8V14C13.5 14.273 13.4316 14.3682 13.396 14.4023C13.3561 14.4405 13.2548 14.5 13 14.5H3C2.74517 14.5 2.64391 14.4405 2.60404 14.4023C2.56838 14.3682 2.5 14.273 2.5 14V8V7.5H2C1.74517 7.5 1.64391 7.44047 1.60404 7.40232C1.56838 7.3682 1.5 7.27295 1.5 7V6C1.5 5.72705 1.56838 5.6318 1.60404 5.59768C1.64391 5.55953 1.74517 5.5 2 5.5H2.5V5V3C2.5 2.72705 2.56838 2.6318 2.60404 2.59768C2.64391 2.55953 2.74517 2.5 3 2.5H6ZM6 11H5.5V11.5V12.5V13H6H10H10.5V12.5V11.5V11H10H6ZM5.66667 4.31818C4.70613 4.31818 4 5.1537 4 6.09091C4 7.02812 4.70613 7.86364 5.66667 7.86364C6.6272 7.86364 7.33333 7.02812 7.33333 6.09091C7.33333 5.1537 6.6272 4.31818 5.66667 4.31818ZM10.3333 4.31818C9.37279 4.31818 8.66667 5.1537 8.66667 6.09091C8.66667 7.02812 9.3728 7.86364 10.3333 7.86364C11.2939 7.86364 12 7.02812 12 6.09091C12 5.1537 11.2939 4.31818 10.3333 4.31818Z" stroke="#2A3B51"/>
</svg>
