<svg width="16" height="16" viewBox="0 0 16 16" fill="none" xmlns="http://www.w3.org/2000/svg">
<path fill-rule="evenodd" clip-rule="evenodd" d="M8.99999 10L9 14L5 11L4.99999 5L8.99999 1V6H11V10H8.99999ZM6 10.5L5.99999 5.41422L7.99999 3.41422L8 12L6 10.5ZM8.99999 9H9.99999V7H8.99999V9Z" fill="#2A3B51"/>
<path fill-rule="evenodd" clip-rule="evenodd" d="M3 6V5H6V14C6 14.5523 5.55228 15 5 15H4C3.44772 15 3 14.5523 3 14V9C2.44772 9 2 8.55228 2 8V7C2 6.44772 2.44772 6 3 6ZM4 6H5V14H4V6Z" fill="#2A3B51"/>
<path d="M12.4393 5.0607C12.0488 4.67017 12.0488 4.03701 12.4393 3.64648L13.1464 2.93938C13.537 2.54885 14.1701 2.54885 14.5607 2.93938C14.9512 3.3299 14.9512 3.96307 14.5607 4.35359L13.8536 5.0607C13.463 5.45122 12.8299 5.45122 12.4393 5.0607Z" fill="#2A3B51"/>
<path d="M13 8.00001C13 7.44773 13.4477 7.00001 14 7.00001H15C15.5523 7.00001 16 7.44773 16 8.00001C16 8.5523 15.5523 9.00001 15 9.00001H14C13.4477 9.00001 13 8.5523 13 8.00001Z" fill="#2A3B51"/>
<path d="M12.7071 12.1213C12.3166 11.7308 12.3166 11.0976 12.7071 10.7071C13.0976 10.3166 13.7308 10.3166 14.1213 10.7071L14.8284 11.4142C15.2189 11.8047 15.2189 12.4379 14.8284 12.8284C14.4379 13.2189 13.8047 13.2189 13.4142 12.8284L12.7071 12.1213Z" fill="#2A3B51"/>
</svg>
