<svg width="16" height="16" viewBox="0 0 16 16" fill="none" xmlns="http://www.w3.org/2000/svg">
<path d="M13.4564 5.77723L13.4564 5.77733L13.4564 5.77738L13.4206 5.99899L13.5625 6.17307C14.1651 6.91179 14.5 7.76576 14.5 8.66749C14.5 9.9507 13.8185 11.1478 12.6468 12.0404C11.4746 12.9333 9.83343 13.5 8 13.5C6.16657 13.5 4.52535 12.9333 3.35324 12.0404C2.18154 11.1478 1.5 9.9507 1.5 8.66749C1.5 7.75682 1.8416 6.89473 2.45563 6.15093L2.60186 5.97378L2.56276 5.7476L2.56275 5.74757L2.56275 5.74754L2.56273 5.74744L2.56264 5.74694L2.56204 5.74339L2.5594 5.72745C2.55703 5.71298 2.55349 5.69095 2.54905 5.66208C2.54017 5.60431 2.5277 5.51931 2.51379 5.41279C2.48591 5.1994 2.45245 4.90152 2.43019 4.56457C2.38488 3.87892 2.39059 3.09127 2.54849 2.51904C2.56762 2.51738 2.59811 2.51691 2.64304 2.52197C2.85515 2.54583 3.16741 2.66547 3.52736 2.85399C3.87414 3.03561 4.21665 3.25486 4.47583 3.43164C4.60454 3.51942 4.71079 3.59541 4.78442 3.64913C4.8212 3.67596 4.84975 3.69717 4.86879 3.71142L4.89002 3.72741L4.89497 3.73117L4.89598 3.73194L4.89598 3.73194L4.89608 3.73201L4.89611 3.73203L5.13253 3.9131L5.40412 3.79142L5.40421 3.79138L5.40431 3.79133L5.40434 3.79132L5.40444 3.79128L5.40635 3.79043L5.41657 3.78595C5.42609 3.78181 5.44093 3.77542 5.46069 3.76709C5.50023 3.75042 5.55936 3.72606 5.63488 3.69656C5.78618 3.63746 6.00182 3.55829 6.25634 3.47916C6.77322 3.31845 7.41751 3.16842 8 3.16842C8.58257 3.16842 9.22686 3.31845 9.74371 3.47915C9.99822 3.55829 10.2138 3.63746 10.3651 3.69656C10.4406 3.72606 10.4998 3.75041 10.5393 3.76708C10.5591 3.77541 10.5739 3.78181 10.5834 3.78595L10.5936 3.79042L10.5955 3.79127L10.5956 3.79132L10.5957 3.79133L10.5958 3.79137L10.5959 3.79141L10.8674 3.91307L11.1038 3.73211L11.1038 3.73209L11.1039 3.73202L11.1039 3.73201L11.105 3.73122L11.11 3.72739L11.1316 3.71116C11.1509 3.69668 11.1799 3.67517 11.2172 3.64796C11.2919 3.59348 11.3996 3.51641 11.53 3.4274C11.7925 3.24816 12.1394 3.02576 12.49 2.84145C12.854 2.65007 13.1693 2.52852 13.3823 2.50414C13.4228 2.49951 13.4513 2.49943 13.4702 2.50063C13.6201 3.08456 13.625 3.88431 13.5822 4.57713C13.5611 4.91886 13.5294 5.22091 13.5029 5.4373C13.4897 5.54533 13.4779 5.63158 13.4694 5.69024C13.4652 5.71956 13.4619 5.74196 13.4596 5.75671L13.4571 5.77299L13.4565 5.77665L13.4564 5.77723Z" stroke="black"/>
</svg>
