<svg width="16" height="16" viewBox="0 0 16 16" fill="none" xmlns="http://www.w3.org/2000/svg">
<path fill-rule="evenodd" clip-rule="evenodd" d="M9 12.0556V13.0556V13.9161C9.19862 13.8825 9.39525 13.839 9.58913 13.7857C9.81912 14.0957 10.1075 14.3598 10.4379 14.5617C9.97351 14.7343 9.4915 14.8573 9 14.9282L8.97222 14.9322C8.65137 14.9772 8.32656 15 8 15V14.0556V14V13.0556C4.51837 13.0556 1.63041 10.8668 1.09058 8C1.05396 7.80556 1.03221 7.62877 1.01937 7.4796C1.00653 7.33043 1 7.17977 1 7.02778C1 3.7014 4.12906 1.00433 7.99078 1.00001L8 1L8.00977 1.00001C11.8712 1.00458 15 3.70155 15 7.02778C15 8.9489 14.9051 9.56519 14.5633 10.4405C14.3635 10.1128 14.1026 9.82642 13.7965 9.59718C13.8417 9.43856 13.8757 9.28123 13.9029 9.10449C13.971 8.66119 14 8.06804 14 7.02778C14 4.38832 11.4636 2.0041 8.0086 2.00001H8.00858L8.00397 2L8 2L7.99636 2L7.9919 2.00001C4.53662 2.00387 2 4.3882 2 7.02778C2 7.15112 2.0053 7.27317 2.01568 7.39384C2.02607 7.51444 2.0437 7.65772 2.0733 7.81495C2.50692 10.1176 4.89973 12.0556 8 12.0556H9ZM12 14C13.1046 14 14 13.1046 14 12C14 10.8954 13.1046 10 12 10C10.8954 10 10 10.8954 10 12C10 13.1046 10.8954 14 12 14Z" fill="#2A3B51"/>
</svg>
