<svg width="16" height="16" viewBox="0 0 16 16" fill="none" xmlns="http://www.w3.org/2000/svg">
<path fill-rule="evenodd" clip-rule="evenodd" d="M9 13V12.0556H8C4.89973 12.0556 2.50692 10.1176 2.0733 7.81495C2.0437 7.65772 2.02607 7.51444 2.01568 7.39384C2.0053 7.27317 2 7.15112 2 7.02778C2 4.3882 4.53662 2.00387 7.9919 2.00001L7.99636 2L8 2L8.00397 2L8.00858 2.00001H8.0086C11.4636 2.0041 14 4.38832 14 7.02778C14 8.06804 13.971 8.66119 13.9029 9.10449C13.8391 9.51937 13.7375 9.82729 13.5433 10.2961L13.5433 10.2961C13.3127 10.8529 13.0008 11.3685 12.6205 11.8276C12.8412 12.1322 12.9782 12.5014 12.9976 12.9014C13.6222 12.2646 14.1224 11.511 14.4672 10.6788C14.8877 9.6636 15 9.11806 15 7.02778C15 3.70155 11.8712 1.00458 8.00977 1.00001L8 1L7.99078 1.00001C4.12906 1.00433 1 3.7014 1 7.02778C1 7.17977 1.00653 7.33043 1.01937 7.4796C1.03221 7.62877 1.05396 7.80556 1.09058 8C1.63041 10.8668 4.51837 13.0556 8 13.0556V14V14.0556V15C8.32656 15 8.65137 14.9772 8.97222 14.9322L9 14.9282C9.32928 14.8807 9.6543 14.8098 9.97262 14.7163C9.64181 14.5179 9.37311 14.2265 9.20264 13.8782C9.13535 13.892 9.06779 13.9046 9 13.9161V13.0556V13ZM12 13C12 13.5523 11.5523 14 11 14C10.4477 14 10 13.5523 10 13C10 12.4477 10.4477 12 11 12C11.5523 12 12 12.4477 12 13ZM11 6C10.2819 6 9.80648 6.18951 9.29274 6.71429C8.08603 7.94692 11 11 11 11C11 11 13.914 7.94692 12.7073 6.71429C12.1935 6.18951 11.7181 6 11 6Z" fill="#2A3B51"/>
</svg>
