<svg width="16" height="16" viewBox="0 0 16 16" fill="none" xmlns="http://www.w3.org/2000/svg">
<path d="M8.5 13.0556V12.5556H8C4.70905 12.5556 2.06866 10.4922 1.58194 7.90747C1.54883 7.73164 1.52914 7.57161 1.51753 7.43672C1.50591 7.3018 1.5 7.16544 1.5 7.02778C1.5 4.0448 4.33284 1.5041 7.99134 1.50001L7.99587 1.5L8 1.5L8.00443 1.5L8.00917 1.50001C11.6674 1.50433 14.5 4.04494 14.5 7.02778C14.5 8.07048 14.4715 8.69653 14.3971 9.18046C14.3249 9.65019 14.2074 9.99924 14.0052 10.4874L14.4672 10.6788L14.0052 10.4874C13.5132 11.6752 12.6801 12.6903 11.6112 13.4046C10.7944 13.9503 9.86797 14.3016 8.90277 14.437C8.7692 14.4557 8.63488 14.4703 8.5 14.4807V13.0556Z" stroke="#2A3B51"/>
</svg>
