<svg width="16" height="16" viewBox="0 0 16 16" fill="none" xmlns="http://www.w3.org/2000/svg">
<path d="M6 2.18599C6.27614 2.18599 6.5 1.96214 6.5 1.68599V0.714086C6.64291 0.635796 7.04194 0.5 8 0.5C8.95806 0.5 9.35709 0.635796 9.5 0.714086V1.68599C9.5 1.96214 9.72386 2.18599 10 2.18599H13C13.2761 2.18599 13.5 2.40985 13.5 2.68599V15C13.5 15.2761 13.2761 15.5 13 15.5H3C2.72386 15.5 2.5 15.2761 2.5 15V2.68599C2.5 2.40985 2.72386 2.18599 3 2.18599H6ZM6.44707 0.749292C6.44668 0.749716 6.44647 0.749921 6.44646 0.749917C6.44645 0.749914 6.44665 0.749701 6.44707 0.749292Z" stroke="black" stroke-linecap="round" stroke-linejoin="round"/>
</svg>
