<svg width="16" height="16" viewBox="0 0 16 16" fill="none" xmlns="http://www.w3.org/2000/svg">
<path fill-rule="evenodd" clip-rule="evenodd" d="M6.27691 9.01599C6.27377 9.01067 6.27066 9.00535 6.26756 9C6.09739 8.70583 6 8.36429 6 8L0 8C0 7.66445 0.021102 7.33049 0.06274 7C0.21744 5.77211 0.655616 4.59203 1.34824 3.55544C2.2273 2.23985 3.47672 1.21447 4.93853 0.608967C6.40034 0.00346607 8.00887 -0.15496 9.56072 0.153722C11.1126 0.462404 12.538 1.22433 13.6569 2.34315C14.7757 3.46197 15.5376 4.88743 15.8463 6.43928C16.155 7.99113 15.9965 9.59966 15.391 11.0615C14.7855 12.5233 13.7602 13.7727 12.4446 14.6518C11.408 15.3444 10.2279 15.7826 9 15.9373C8.66951 15.9789 8.33555 16 8 16L8 10C7.63571 10 7.29417 9.90261 7 9.73244C6.99466 9.72935 6.98933 9.72623 6.98401 9.72309L3.20711 13.5H4C4.27614 13.5 4.5 13.7239 4.5 14C4.5 14.2761 4.27614 14.5 4 14.5H2C1.72386 14.5 1.5 14.2761 1.5 14V12C1.5 11.7239 1.72386 11.5 2 11.5C2.27614 11.5 2.5 11.7239 2.5 12V12.7929L6.27691 9.01599ZM1.07179 7L5.17071 7C5.58254 5.83481 6.69378 5 8 5C9.65685 5 11 6.34315 11 8C11 9.30622 10.1652 10.4175 9 10.8293L9 14.9282C10.0294 14.7796 11.0172 14.4028 11.889 13.8203C13.0401 13.0511 13.9373 11.9579 14.4672 10.6788C14.997 9.39971 15.1356 7.99224 14.8655 6.63437C14.5954 5.2765 13.9287 4.02922 12.9497 3.05026C11.9708 2.07129 10.7235 1.4046 9.36563 1.13451C8.00777 0.86441 6.6003 1.00303 5.32122 1.53285C4.04213 2.06266 2.94888 2.95987 2.17971 4.11101C1.5972 4.9828 1.22038 5.97057 1.07179 7Z" fill="#2A3B51"/>
</svg>
