<svg width="16" height="16" viewBox="0 0 16 16" fill="none" xmlns="http://www.w3.org/2000/svg">
<path d="M3.74125 9.50368L4.13486 9.52867L4.25082 9.1517C4.55879 8.15059 5.3672 7.5 6.25 7.5C6.77313 7.5 7.2614 7.72363 7.64247 8.11343L8 8.47914L8.35753 8.11343C8.73861 7.72363 9.22687 7.5 9.75 7.5C10.6328 7.5 11.4412 8.15059 11.7492 9.1517L11.8651 9.52867L12.2588 9.50368C12.2972 9.50124 12.336 9.5 12.375 9.5C13.488 9.5 14.5 10.5545 14.5 12C14.5 13.4455 13.488 14.5 12.375 14.5H3.625C2.51202 14.5 1.5 13.4455 1.5 12C1.5 10.5545 2.51202 9.5 3.625 9.5C3.66404 9.5 3.70279 9.50124 3.74125 9.50368Z" stroke="#2A3B51"/>
</svg>
