<svg width="16" height="16" viewBox="0 0 16 16" fill="none" xmlns="http://www.w3.org/2000/svg">
<path d="M7.35355 4.35355C7.54882 4.15829 7.54882 3.84171 7.35355 3.64645C7.15829 3.45118 6.84171 3.45118 6.64645 3.64645L3.35355 6.93934C2.76777 7.52513 2.76777 8.47487 3.35355 9.06066L6.64645 12.3536C6.84171 12.5488 7.15829 12.5488 7.35355 12.3536C7.54882 12.1583 7.54882 11.8417 7.35355 11.6464L4.06066 8.35355C3.8654 8.15829 3.8654 7.84171 4.06066 7.64645L7.35355 4.35355ZM9.35355 3.64645C9.15829 3.45118 8.84171 3.45118 8.64645 3.64645C8.45118 3.84171 8.45118 4.15829 8.64645 4.35355L11.9393 7.64645C12.1346 7.84171 12.1346 8.15829 11.9393 8.35355L8.64645 11.6464C8.45118 11.8417 8.45118 12.1583 8.64645 12.3536C8.84171 12.5488 9.15829 12.5488 9.35355 12.3536L12.6464 9.06066C13.2322 8.47487 13.2322 7.52513 12.6464 6.93934L9.35355 3.64645ZM2 1.5H14C14.2761 1.5 14.5 1.72386 14.5 2V14C14.5 14.2761 14.2761 14.5 14 14.5H2C1.72386 14.5 1.5 14.2761 1.5 14V2C1.5 1.72386 1.72386 1.5 2 1.5Z" stroke="#2A3B51" stroke-linecap="round" stroke-linejoin="round"/>
</svg>
