<svg width="16" height="16" viewBox="0 0 16 16" fill="none" xmlns="http://www.w3.org/2000/svg">
<path d="M11.3142 11.3803L11.1767 11.2692H11H2C1.75811 11.2692 1.5 11.0465 1.5 10.6923V2.07692C1.5 1.72276 1.75811 1.5 2 1.5H14C14.2419 1.5 14.5 1.72276 14.5 2.07692V13.9534L11.3142 11.3803Z" stroke="#2A3B51"/>
<path d="M11.2774 9.97835L11.412 9.4968L11.2774 9.97835ZM11.1338 9.93821L10.9042 10.3824C10.9345 10.3981 10.9663 10.4106 10.9992 10.4198L11.1338 9.93821ZM9.46855 9.07744L9.115 9.43099L9.16993 9.48593L9.23895 9.52161L9.46855 9.07744ZM11.0774 7.46855L11.5216 7.23895L11.4859 7.16993L11.431 7.115L11.0774 7.46855ZM11.9382 9.13377L12.4198 8.99922C12.4106 8.96634 12.3981 8.93449 12.3824 8.90417L11.9382 9.13377ZM11.9784 9.27744L11.4968 9.41199V9.41199L11.9784 9.27744ZM6.79931 3.19043L7.15287 2.83687L6.79931 3.19043ZM5.19043 4.79931L4.83687 5.15287H4.83687L5.19043 4.79931ZM4.16661 2.97105L3.81305 2.6175H3.81305L4.16661 2.97105ZM4.16661 3.77549L4.52016 3.42194L4.16661 3.77549ZM5.77549 2.16661L5.42194 2.52016V2.52016L5.77549 2.16661ZM4.97105 2.16661L5.3246 2.52016V2.52016L4.97105 2.16661ZM11.412 9.4968L11.2683 9.45666L10.9992 10.4198L11.1429 10.4599L11.412 9.4968ZM11.3634 9.49404L9.69815 8.63327L9.23895 9.52161L10.9042 10.3824L11.3634 9.49404ZM9.8221 9.43099L11.431 7.8221L10.7239 7.115L9.115 8.72388L9.8221 9.43099ZM10.6333 7.69815L11.494 9.36337L12.3824 8.90417L11.5216 7.23895L10.6333 7.69815ZM11.4567 9.26832L11.4968 9.41199L12.4599 9.14289L12.4198 8.99922L11.4567 9.26832ZM11.1429 10.4599C11.9451 10.6841 12.6841 9.94511 12.4599 9.14289L11.4968 9.41199C11.5112 9.46365 11.4636 9.51123 11.412 9.4968L11.1429 10.4599ZM11.431 7.115L7.15287 2.83687L6.44576 3.54398L10.7239 7.8221L11.431 7.115ZM4.83687 5.15287L9.115 9.43099L9.8221 8.72388L5.54398 4.44576L4.83687 5.15287ZM3.81305 4.12905L4.83687 5.15287L5.54398 4.44576L4.52016 3.42194L3.81305 4.12905ZM7.15287 2.83687L6.12905 1.81305L5.42194 2.52016L6.44576 3.54398L7.15287 2.83687ZM6.12905 1.81305C5.71164 1.39565 5.0349 1.39565 4.6175 1.81305L5.3246 2.52016C5.35148 2.49328 5.39506 2.49328 5.42194 2.52016L6.12905 1.81305ZM3.81305 2.6175C3.39565 3.0349 3.39565 3.71164 3.81305 4.12905L4.52016 3.42194C4.49328 3.39506 4.49328 3.35148 4.52016 3.3246L3.81305 2.6175ZM4.6175 1.81305L3.81305 2.6175L4.52016 3.3246L5.3246 2.52016L4.6175 1.81305ZM6.44576 2.83687L4.83687 4.44576L5.54398 5.15287L7.15287 3.54398L6.44576 2.83687Z" fill="#2A3B51"/>
</svg>
