<svg width="16" height="16" viewBox="0 0 16 16" fill="none" xmlns="http://www.w3.org/2000/svg">
<path fill-rule="evenodd" clip-rule="evenodd" d="M11.6283 10.9913L11.3534 10.7692H11H2.02221C2.01284 10.7571 2 10.732 2 10.6923V2.07692C2 2.03723 2.01284 2.01217 2.02221 2H13.9778C13.9872 2.01217 14 2.03723 14 2.07692V12.9069L11.6283 10.9913ZM15 2.07692V13.7146V15L14 14.1923L11 11.7692H2C1.44772 11.7692 1 11.2871 1 10.6923V2.07692C1 1.48216 1.44772 1 2 1H14C14.5523 1 15 1.48215 15 2.07692ZM8 2.5C8.27614 2.5 8.5 2.72386 8.5 3V7C8.5 7.27614 8.27614 7.5 8 7.5C7.72386 7.5 7.5 7.27614 7.5 7V3C7.5 2.72386 7.72386 2.5 8 2.5ZM8 10C8.55228 10 9 9.55228 9 9C9 8.44772 8.55228 8 8 8C7.44772 8 7 8.44772 7 9C7 9.55228 7.44772 10 8 10Z" fill="#2A3B51"/>
</svg>
