<svg width="16" height="16" viewBox="0 0 16 16" fill="none" xmlns="http://www.w3.org/2000/svg">
<g clip-path="url(#clip0_192_936)">
<path d="M3.35355 4.64645C3.15829 4.45118 2.84171 4.45118 2.64645 4.64645C2.45118 4.84171 2.45118 5.15829 2.64645 5.35355L5.29289 8L2.64645 10.6464C2.45118 10.8417 2.45118 11.1583 2.64645 11.3536C2.84171 11.5488 3.15829 11.5488 3.35355 11.3536L6.35355 8.35355C6.54882 8.15829 6.54882 7.84171 6.35355 7.64645L3.35355 4.64645ZM14 11.5C14.2761 11.5 14.5 11.2761 14.5 11C14.5 10.7239 14.2761 10.5 14 10.5H8C7.72386 10.5 7.5 10.7239 7.5 11C7.5 11.2761 7.72386 11.5 8 11.5H14ZM1 2.5H15C15.2761 2.5 15.5 2.72386 15.5 3V13C15.5 13.2761 15.2761 13.5 15 13.5H1C0.723858 13.5 0.5 13.2761 0.5 13V3C0.5 2.72386 0.723858 2.5 1 2.5Z" stroke="#2A3B51" stroke-linecap="round" stroke-linejoin="round"/>
</g>
<defs>
<clipPath id="clip0_192_936">
<rect width="16" height="16" fill="white"/>
</clipPath>
</defs>
</svg>
