<svg width="17" height="16" viewBox="0 0 17 16" fill="none" xmlns="http://www.w3.org/2000/svg">
<path d="M1 14C0.447715 14 0 13.5523 0 13V3C0 2.44772 0.447715 2 1 2H15C15.5523 2 16 2.44772 16 3V10H15V3H1V13H3V10C3 9.44771 3.44772 9 4 9H4.5C4.74554 9.69468 5.47808 10.2719 6.30646 10.6248C6.86752 10.8639 7.47254 11 8 11C8.31436 11 8.65627 10.9516 9 10.862V11.8894C8.66223 11.9612 8.32429 12 8 12C7.15864 12 6.22542 11.7387 5.44171 11.3181C4.92366 11.04 4.39057 10.6481 4 10.1384V13H12V14H1Z" fill="#2A3B51"/>
<path d="M15 12H16V13C16 13.5523 15.5523 14 15 14H14V13H15V12Z" fill="#2A3B51"/>
<path d="M11.5 9H12V10H10.7449C11.0965 9.71145 11.3683 9.37262 11.5 9Z" fill="#2A3B51"/>
<path fill-rule="evenodd" clip-rule="evenodd" d="M8 10C7.54232 10 7.10858 9.89751 6.72048 9.71423C6.13723 9.4388 5.65705 8.98091 5.35358 8.41421C5.28266 8.28177 5.22139 8.14339 5.17071 8C5.06015 7.68722 5 7.35064 5 7C5 5.34315 6.34315 4 8 4C9.65685 4 11 5.34315 11 7C11 7.35064 10.9398 7.68722 10.8293 8C10.7786 8.14339 10.7173 8.28177 10.6464 8.41421C10.343 8.98091 9.86277 9.4388 9.27952 9.71423C8.89142 9.89751 8.45768 10 8 10ZM10 7C10 8.10457 9.10457 9 8 9C6.89543 9 6 8.10457 6 7C6 5.89543 6.89543 5 8 5C9.10457 5 10 5.89543 10 7Z" fill="#2A3B51"/>
<path d="M13.5 8C13.5 7.72386 13.2761 7.5 13 7.5C12.7239 7.5 12.5 7.72386 12.5 8V10.5H10C9.72386 10.5 9.5 10.7239 9.5 11C9.5 11.2761 9.72386 11.5 10 11.5H12.5V14C12.5 14.2761 12.7239 14.5 13 14.5C13.2761 14.5 13.5 14.2761 13.5 14V11.5H16C16.2761 11.5 16.5 11.2761 16.5 11C16.5 10.7239 16.2761 10.5 16 10.5H13.5V8Z" fill="#2A3B51"/>
</svg>
