<svg width="16" height="16" viewBox="0 0 16 16" fill="none" xmlns="http://www.w3.org/2000/svg">
<rect x="0.5" y="2.5" width="15" height="11" rx="0.5" stroke="#2A3B51"/>
<path d="M10.5 7C10.5 8.38071 9.38071 9.5 8 9.5C6.61929 9.5 5.5 8.38071 5.5 7C5.5 5.61929 6.61929 4.5 8 4.5C9.38071 4.5 10.5 5.61929 10.5 7ZM4 9.5H4.17823C4.50117 10.0897 5.0755 10.5541 5.67816 10.8775C6.40013 11.265 7.25276 11.5 8 11.5C8.74724 11.5 9.59987 11.265 10.3218 10.8775C10.9245 10.5541 11.4988 10.0897 11.8218 9.5H12C12.2761 9.5 12.5 9.72386 12.5 10V13.5H3.5V10C3.5 9.72386 3.72386 9.5 4 9.5Z" stroke="#2A3B51"/>
</svg>
