<svg width="16" height="16" viewBox="0 0 16 16" fill="none" xmlns="http://www.w3.org/2000/svg">
<path d="M10.2746 7.7082C10.4306 7.7082 10.5602 7.65399 10.6636 7.54555C10.767 7.4371 10.8187 7.30272 10.8187 7.14242C10.8187 6.98211 10.7659 6.84883 10.6604 6.74258C10.5549 6.63633 10.4242 6.5832 10.2682 6.5832C10.1122 6.5832 9.98252 6.63742 9.87912 6.74586C9.77574 6.85431 9.72405 6.98868 9.72405 7.14899C9.72405 7.3093 9.77681 7.44258 9.88232 7.54883C9.98785 7.65508 10.1186 7.7082 10.2746 7.7082Z" fill="#2A3B51"/>
<path d="M11.7341 6.20821C11.8901 6.20821 12.0198 6.15399 12.1231 6.04555C12.2265 5.9371 12.2782 5.80273 12.2782 5.64242C12.2782 5.48211 12.2255 5.34883 12.12 5.24258C12.0144 5.13633 11.8837 5.08321 11.7277 5.08321C11.5717 5.08321 11.442 5.13743 11.3387 5.24586C11.2353 5.35431 11.1836 5.48869 11.1836 5.64899C11.1836 5.8093 11.2363 5.94258 11.3418 6.04883C11.4474 6.15508 11.5781 6.20821 11.7341 6.20821Z" fill="#2A3B51"/>
<path d="M11.7341 9.2082C11.8901 9.2082 12.0198 9.15399 12.1231 9.04555C12.2265 8.9371 12.2782 8.80272 12.2782 8.64243C12.2782 8.48211 12.2255 8.34883 12.12 8.24258C12.0144 8.13633 11.8837 8.08321 11.7277 8.08321C11.5717 8.08321 11.442 8.13742 11.3387 8.24586C11.2353 8.35431 11.1836 8.48869 11.1836 8.64898C11.1836 8.8093 11.2363 8.94258 11.3418 9.04883C11.4474 9.15508 11.5781 9.2082 11.7341 9.2082Z" fill="#2A3B51"/>
<path d="M13.1936 7.7082C13.3496 7.7082 13.4793 7.65399 13.5827 7.54555C13.686 7.4371 13.7377 7.30272 13.7377 7.14242C13.7377 6.98211 13.685 6.84883 13.5795 6.74258C13.4739 6.63633 13.3432 6.5832 13.1872 6.5832C13.0312 6.5832 12.9016 6.63742 12.7982 6.74586C12.6948 6.85431 12.6431 6.98868 12.6431 7.14899C12.6431 7.3093 12.6959 7.44258 12.8014 7.54883C12.9069 7.65508 13.0376 7.7082 13.1936 7.7082Z" fill="#2A3B51"/>
<path d="M4.15782 8.87409C4.2902 8.87409 4.39897 8.82982 4.4841 8.74129C4.56924 8.65274 4.6118 8.54076 4.6118 8.40534V7.56159H5.43279C5.56455 7.56159 5.6735 7.51712 5.75967 7.42817C5.84581 7.33921 5.88889 7.22671 5.88889 7.09067C5.88889 6.95462 5.84581 6.84285 5.75967 6.75534C5.6735 6.66784 5.56455 6.6241 5.43279 6.6241H4.6118V5.78035C4.6118 5.64493 4.56854 5.53295 4.48199 5.4444C4.39543 5.35587 4.28596 5.31159 4.15359 5.31159C4.02121 5.31159 3.91245 5.35587 3.82731 5.4444C3.74217 5.53295 3.69961 5.64493 3.69961 5.78035V6.6241H2.87862C2.74687 6.6241 2.63791 6.66857 2.55174 6.75752C2.4656 6.84649 2.42253 6.95899 2.42253 7.09502C2.42253 7.23107 2.4656 7.34285 2.55174 7.43035C2.63791 7.51784 2.74687 7.56159 2.87862 7.56159H3.69961V8.40534C3.69961 8.54076 3.74288 8.65274 3.82943 8.74129C3.91599 8.82982 4.02546 8.87409 4.15782 8.87409Z" fill="#2A3B51"/>
<path d="M5.66667 5.08321C5.66667 4.95708 5.76615 4.85482 5.88889 4.85482H6.55556C6.67829 4.85482 6.77778 4.95708 6.77778 5.08321C6.77778 5.20934 6.67829 5.31159 6.55556 5.31159H5.88889C5.76615 5.31159 5.66667 5.20934 5.66667 5.08321Z" fill="#2A3B51"/>
<path d="M7.66667 5.53998C7.54393 5.53998 7.44444 5.64223 7.44444 5.76837C7.44444 5.8945 7.54393 5.99675 7.66667 5.99675H8.33333C8.45607 5.99675 8.55556 5.8945 8.55556 5.76837C8.55556 5.64223 8.45607 5.53998 8.33333 5.53998H7.66667Z" fill="#2A3B51"/>
<path d="M9.22222 5.08321C9.22222 4.95708 9.32171 4.85482 9.44444 4.85482H10.1111C10.2338 4.85482 10.3333 4.95708 10.3333 5.08321C10.3333 5.20934 10.2338 5.31159 10.1111 5.31159H9.44444C9.32171 5.31159 9.22222 5.20934 9.22222 5.08321Z" fill="#2A3B51"/>
<path d="M8 5.1974C8.49093 5.1974 8.88889 4.78839 8.88889 4.28386C8.88889 3.77932 8.49093 3.37032 8 3.37032C7.50907 3.37032 7.11111 3.77932 7.11111 4.28386C7.11111 4.78839 7.50907 5.1974 8 5.1974Z" fill="#2A3B51"/>
<path fill-rule="evenodd" clip-rule="evenodd" d="M2.68187 14C1.95211 14 1.32878 13.7312 0.811863 13.1937C0.294949 12.6562 0.0243191 12.0062 0 11.2437C0 11.1313 0.00607639 11.0187 0.0182427 10.9062C0.0304091 10.7937 0.0486518 10.6812 0.0729709 10.5687L1.14937 4.28386C1.31966 3.60886 1.66629 3.06199 2.18929 2.64323C2.71228 2.22448 3.76435 2 4.4333 2H11.5485C12.2174 2 13.4775 2.2 14.0004 2.61875C14.5235 3.0375 14.8701 3.58438 15.0404 4.25937L15.9088 10.5687C15.9331 10.6812 15.9544 10.7969 15.9726 10.9156C15.9909 11.0344 16 11.15 16 11.2625C16 12.025 15.7355 12.6719 15.2064 13.2031C14.6773 13.7344 14.0418 14 13.2999 14C12.789 14 12.3147 13.8625 11.8769 13.5875C11.439 13.3125 11.1106 12.9375 10.8917 12.4625L10.3808 11.375C10.32 11.25 10.2288 11.1562 10.1072 11.0937C9.98555 11.0312 9.85784 11 9.72405 11H6.25769C6.1239 11 5.9962 11.0312 5.87457 11.0937C5.75294 11.1562 5.66173 11.25 5.60091 11.375L5.09007 12.4625C4.87115 12.9375 4.54277 13.3125 4.1049 13.5875C3.66705 13.8625 3.19271 14 2.68187 14ZM2.73046 12.875C3.02646 12.875 3.30014 12.7939 3.55151 12.6317C3.80286 12.4696 3.99341 12.2507 4.12314 11.975L4.63398 10.9062C4.7921 10.5813 5.01407 10.3281 5.29989 10.1469C5.58571 9.96562 5.90497 9.875 6.25769 9.875H9.72405C10.0768 9.875 10.3961 9.96875 10.6819 10.1562C10.9677 10.3438 11.1957 10.5937 11.366 10.9062L11.8769 11.975C12.0066 12.2507 12.1971 12.4696 12.4485 12.6317C12.6999 12.7939 12.9731 12.875 13.2681 12.875C13.7028 12.875 14.0783 12.7219 14.3945 12.4156C14.7108 12.1094 14.8749 11.7312 14.8871 11.2812C14.8871 11.2312 14.8689 11.0813 14.8324 10.8312L13.964 4.54063C13.8667 4.12813 13.6575 3.7875 13.3364 3.51875C13.0153 3.25 11.9766 3.125 11.5485 3.125H4.4333C4.0112 3.125 3.18201 3.27136 2.8579 3.53386C2.53379 3.79636 2.32308 4.14011 2.22578 4.56511L1.14937 10.8312C1.13721 10.8812 1.11896 11.025 1.09465 11.2625C1.09465 11.7186 1.25433 12.1013 1.57369 12.4108C1.89307 12.7203 2.27866 12.875 2.73046 12.875Z" fill="#2A3B51"/>
</svg>
