<svg width="16" height="16" viewBox="0 0 16 16" fill="none" xmlns="http://www.w3.org/2000/svg">
<path d="M10.8 3.33497L10.5955 3.79125L11.0013 3.97309L11.2293 3.59128L10.8 3.33497ZM5.2 3.33497L4.77069 3.59128L4.99864 3.97308L5.40444 3.79126L5.2 3.33497ZM5 1.99999H5.5C5.5 1.78477 5.36228 1.5937 5.15811 1.52564L5 1.99999ZM3 6.99999V7.49999C3.18938 7.49999 3.36251 7.39299 3.44721 7.22359L3 6.99999ZM0.999996 6.99999L0.514925 7.12125C0.57057 7.34384 0.770562 7.49999 0.999996 7.49999V6.99999ZM15 6.99999V7.49999C15.2294 7.49999 15.4294 7.34384 15.4851 7.12126L15 6.99999ZM11 1.99999L10.8419 1.52564C10.6377 1.5937 10.5 1.78477 10.5 1.99999H11ZM13 6.99999L12.5528 7.22359C12.6375 7.39299 12.8106 7.49999 13 7.49999V6.99999ZM9.22793 7.68376L9.70227 7.52564L9.22793 7.68376ZM9.56126 8.68376L9.08692 8.84187L9.56126 8.68376ZM6.43875 8.68376L5.9644 8.52564H5.9644L6.43875 8.68376ZM6.77208 7.68376L7.24642 7.84187H7.24642L6.77208 7.68376ZM8 3.1684C8.58256 3.1684 9.22685 3.31844 9.7437 3.47914C9.99822 3.55828 10.2138 3.63745 10.3651 3.69654C10.4406 3.72604 10.4998 3.7504 10.5393 3.76707C10.5591 3.7754 10.5739 3.78179 10.5834 3.78593C10.5882 3.788 10.5916 3.78951 10.5936 3.79041C10.5946 3.79086 10.5953 3.79116 10.5956 3.7913C10.5958 3.79137 10.5959 3.7914 10.5959 3.7914C10.5958 3.79139 10.5958 3.79138 10.5958 3.79136C10.5957 3.79134 10.5957 3.79132 10.5957 3.79131C10.5956 3.79129 10.5955 3.79125 10.8 3.33497C11.0045 2.87868 11.0044 2.87865 11.0043 2.87861C11.0043 2.87859 11.0042 2.87855 11.0041 2.87852C11.0039 2.87846 11.0038 2.87838 11.0036 2.8783C11.0032 2.87813 11.0027 2.87792 11.0022 2.87767C11.0011 2.87717 10.9996 2.87651 10.9977 2.8757C10.9941 2.87408 10.989 2.87184 10.9825 2.86903C10.9696 2.86341 10.9512 2.85548 10.9277 2.84559C10.8808 2.8258 10.8134 2.79808 10.729 2.76509C10.5603 2.69921 10.322 2.61174 10.0406 2.52423C9.48557 2.35166 8.72986 2.1684 8 2.1684V3.1684ZM5.2 3.33497C5.40444 3.79126 5.40437 3.79129 5.40431 3.79132C5.40429 3.79133 5.40424 3.79135 5.40421 3.79136C5.40416 3.79139 5.40413 3.7914 5.40412 3.7914C5.4041 3.79141 5.40417 3.79138 5.40433 3.79131C5.40465 3.79117 5.40533 3.79087 5.40635 3.79042C5.40839 3.78952 5.41181 3.78801 5.41657 3.78594C5.42608 3.7818 5.44092 3.7754 5.46068 3.76707C5.50023 3.75041 5.55936 3.72605 5.63488 3.69655C5.78617 3.63745 6.00181 3.55828 6.25634 3.47914C6.77322 3.31843 7.41751 3.1684 8 3.1684V2.1684C7.2702 2.1684 6.51449 2.35166 5.95944 2.52423C5.678 2.61174 5.43969 2.69921 5.27103 2.76509C5.18657 2.79808 5.11923 2.8258 5.07229 2.84558C5.0488 2.85548 5.0304 2.8634 5.01748 2.86903C5.01102 2.87184 5.00593 2.87407 5.00226 2.8757C5.00042 2.87651 4.99894 2.87716 4.99782 2.87766C4.99727 2.87791 4.9968 2.87812 4.99642 2.87829C4.99623 2.87837 4.99606 2.87845 4.99592 2.87851C4.99585 2.87854 4.99576 2.87859 4.99572 2.8786C4.99564 2.87864 4.99556 2.87867 5.2 3.33497ZM8 13.5C6.14675 13.5 4.50626 13.0198 3.34335 12.1783C2.19241 11.3456 1.5 10.1566 1.5 8.66748H0.499996C0.499996 10.5108 1.37459 11.9881 2.75715 12.9885C4.12774 13.9802 5.98725 14.5 8 14.5V13.5ZM14.5 8.66748C14.5 10.1566 13.8076 11.3456 12.6566 12.1783C11.4937 13.0198 9.85324 13.5 8 13.5V14.5C10.0127 14.5 11.8723 13.9802 13.2428 12.9885C14.6254 11.9881 15.5 10.5108 15.5 8.66748H14.5ZM1.35355 2.35354C1.48757 2.21952 1.7298 2.11642 2.10208 2.07505C2.46552 2.03467 2.88796 2.06049 3.30428 2.11996C3.71702 2.17892 4.10353 2.26794 4.38837 2.3429C4.53021 2.38022 4.64544 2.41369 4.72444 2.43758C4.76391 2.44951 4.79425 2.45902 4.81424 2.46539C4.82424 2.46858 4.83164 2.47098 4.8363 2.4725C4.83863 2.47326 4.84027 2.4738 4.84121 2.47411C4.84168 2.47426 4.84197 2.47436 4.84208 2.47439C4.84214 2.47441 4.84215 2.47442 4.84212 2.47441C4.8421 2.4744 4.84204 2.47438 4.84203 2.47438C4.84196 2.47436 4.84188 2.47433 5 1.99999C5.15811 1.52564 5.15801 1.52561 5.15789 1.52557C5.15784 1.52555 5.15771 1.52551 5.1576 1.52548C5.15738 1.5254 5.15712 1.52532 5.15682 1.52521C5.1562 1.52501 5.1554 1.52475 5.15443 1.52442C5.15247 1.52378 5.1498 1.5229 5.14642 1.5218C5.13966 1.5196 5.1301 1.5165 5.11788 1.51261C5.09344 1.50482 5.05835 1.49382 5.01383 1.48036C4.92486 1.45347 4.7979 1.41662 4.64287 1.37582C4.33395 1.29453 3.90797 1.19605 3.4457 1.13001C2.98702 1.06449 2.47196 1.0278 1.99165 1.08117C1.52019 1.13355 1.01242 1.28046 0.646441 1.64644L1.35355 2.35354ZM0.999996 6.99999C1.48507 6.87872 1.48508 6.87877 1.48509 6.87881C1.48509 6.87881 1.4851 6.87883 1.48509 6.87882C1.48509 6.87879 1.48506 6.8787 1.48503 6.87855C1.48495 6.87826 1.48482 6.87772 1.48463 6.87695C1.48425 6.8754 1.48363 6.87292 1.4828 6.86951C1.48113 6.8627 1.47858 6.85222 1.47524 6.83829C1.46856 6.81042 1.45873 6.76875 1.44646 6.71498C1.42193 6.6074 1.38773 6.45165 1.34966 6.2613C1.27333 5.87964 1.18235 5.36344 1.12194 4.81977C1.06112 4.27238 1.03354 3.71621 1.07607 3.24838C1.121 2.75415 1.23508 2.47201 1.35355 2.35354L0.646441 1.64644C0.264922 2.02796 0.128999 2.62082 0.0801798 3.15784C0.0289606 3.72126 0.0638812 4.35259 0.128059 4.9302C0.19265 5.51153 0.289166 6.05783 0.369082 6.45742C0.409137 6.6577 0.445254 6.82226 0.471499 6.93734C0.484626 6.9949 0.495299 7.04014 0.50278 7.07135C0.50652 7.08696 0.509464 7.09907 0.511518 7.10745C0.512546 7.11165 0.513351 7.11491 0.513922 7.11722C0.514208 7.11837 0.514435 7.11929 0.514603 7.11996C0.514687 7.1203 0.514756 7.12058 0.514809 7.12079C0.514836 7.1209 0.514865 7.12101 0.514878 7.12107C0.514903 7.12117 0.514925 7.12125 0.999996 6.99999ZM15.3535 1.64643C14.9876 1.28046 14.4798 1.13356 14.0083 1.08117C13.528 1.0278 13.013 1.06449 12.5543 1.13001C12.092 1.19605 11.666 1.29453 11.3571 1.37582C11.2021 1.41662 11.0751 1.45347 10.9862 1.48037C10.9416 1.49382 10.9066 1.50482 10.8821 1.51261C10.8699 1.5165 10.8603 1.5196 10.8536 1.5218C10.8502 1.5229 10.8475 1.52378 10.8456 1.52443C10.8446 1.52475 10.8438 1.52501 10.8432 1.52522C10.8429 1.52532 10.8426 1.5254 10.8424 1.52548C10.8423 1.52551 10.8422 1.52555 10.8421 1.52557C10.842 1.52561 10.8419 1.52564 11 1.99999C11.1581 2.47433 11.158 2.47435 11.158 2.47438C11.158 2.47438 11.1579 2.4744 11.1579 2.47441C11.1578 2.47442 11.1579 2.47441 11.1579 2.47439C11.158 2.47436 11.1583 2.47426 11.1588 2.47411C11.1597 2.4738 11.1614 2.47326 11.1637 2.4725C11.1684 2.47098 11.1758 2.46858 11.1858 2.46539C11.2057 2.45902 11.2361 2.44951 11.2755 2.43758C11.3545 2.41369 11.4698 2.38022 11.6116 2.3429C11.8965 2.26794 12.283 2.17892 12.6957 2.11996C13.112 2.06049 13.5345 2.03467 13.8979 2.07505C14.2702 2.11642 14.5124 2.21952 14.6464 2.35354L15.3535 1.64643ZM13 7.49999H15V6.49999H13V7.49999ZM4.5 1.99999V2.99999H5.5V1.99999H4.5ZM4.55278 2.77638L2.55278 6.77638L3.44721 7.22359L5.44721 3.22359L4.55278 2.77638ZM5.6293 3.07865L5.4293 2.74367L4.57069 3.2563L4.77069 3.59128L5.6293 3.07865ZM3 6.49999H0.999996V7.49999H3V6.49999ZM1.5 8.66748C1.5 8.35903 1.58949 8.15768 1.70301 8.01571C1.82278 7.86592 1.99369 7.75276 2.19239 7.66993C2.39062 7.58729 2.59583 7.54358 2.75631 7.52128C2.83526 7.51031 2.90019 7.50496 2.94378 7.50236C2.9655 7.50107 2.9817 7.50047 2.99143 7.5002C2.99628 7.50007 2.99951 7.50001 3.00098 7.49999C3.00172 7.49998 3.00201 7.49998 3.00186 7.49998C3.00178 7.49998 3.00158 7.49998 3.00127 7.49998C3.00112 7.49999 3.00094 7.49999 3.00072 7.49999C3.00062 7.49999 3.00043 7.49999 3.00038 7.49999C3.00019 7.49999 3 7.49999 3 6.99999C3 6.49999 2.99979 6.49999 2.99957 6.49999C2.99948 6.49999 2.99925 6.49999 2.99909 6.49999C2.99875 6.49999 2.99839 6.49999 2.99799 6.49999C2.9972 6.49999 2.99628 6.5 2.99524 6.5C2.99316 6.50002 2.99058 6.50004 2.98754 6.50008C2.98144 6.50016 2.97344 6.50031 2.96365 6.50059C2.94408 6.50113 2.9173 6.50216 2.88434 6.50413C2.81855 6.50805 2.72723 6.51572 2.61868 6.5308C2.40416 6.56061 2.10937 6.62112 1.80761 6.74692C1.5063 6.87252 1.17721 7.07202 0.921987 7.39121C0.660506 7.71822 0.499996 8.14218 0.499996 8.66748H1.5ZM15 6.99999C15.4851 7.12126 15.4851 7.12117 15.4851 7.12107C15.4851 7.12102 15.4852 7.1209 15.4852 7.12079C15.4852 7.12058 15.4853 7.1203 15.4854 7.11997C15.4856 7.11929 15.4858 7.11838 15.4861 7.11722C15.4866 7.11491 15.4874 7.11165 15.4885 7.10746C15.4905 7.09907 15.4935 7.08696 15.4972 7.07136C15.5047 7.04015 15.5154 6.9949 15.5285 6.93734C15.5547 6.82227 15.5909 6.6577 15.6309 6.45742C15.7108 6.05783 15.8074 5.51153 15.8719 4.9302C15.9361 4.3526 15.971 3.72126 15.9198 3.15784C15.871 2.62082 15.7351 2.02795 15.3535 1.64643L14.6464 2.35354C14.7649 2.47202 14.879 2.75415 14.9239 3.24838C14.9665 3.71621 14.9389 4.27238 14.8781 4.81977C14.8177 5.36344 14.7267 5.87964 14.6503 6.2613C14.6123 6.45165 14.5781 6.60739 14.5535 6.71498C14.5413 6.76874 14.5314 6.81041 14.5248 6.83828C14.5214 6.85222 14.5189 6.8627 14.5172 6.86951C14.5164 6.87291 14.5157 6.8754 14.5154 6.87694C14.5152 6.87772 14.515 6.87825 14.515 6.87855C14.5149 6.8787 14.5149 6.87879 14.5149 6.87881C14.5149 6.87883 14.5149 6.8788 14.5149 6.87881C14.5149 6.87877 14.5149 6.87872 15 6.99999ZM10.5 1.99999V2.99999H11.5V1.99999H10.5ZM10.5528 3.22359L12.5528 7.22359L13.4472 6.77638L11.4472 2.77638L10.5528 3.22359ZM11.2293 3.59128L11.4293 3.2563L10.5707 2.74367L10.3707 3.07865L11.2293 3.59128ZM15.5 8.66748C15.5 8.14218 15.3395 7.71822 15.078 7.39121C14.8228 7.07202 14.4937 6.87252 14.1924 6.74692C13.8906 6.62112 13.5958 6.56061 13.3813 6.5308C13.2728 6.51572 13.1814 6.50805 13.1157 6.50413C13.0827 6.50216 13.0559 6.50113 13.0363 6.50059C13.0266 6.50031 13.0186 6.50016 13.0125 6.50008C13.0094 6.50004 13.0068 6.50002 13.0048 6.5C13.0037 6.5 13.0028 6.49999 13.002 6.49999C13.0016 6.49999 13.0012 6.49999 13.0009 6.49999C13.0007 6.49999 13.0005 6.49999 13.0004 6.49999C13.0002 6.49999 13 6.49999 13 6.99999C13 7.49999 12.9998 7.49999 12.9996 7.49999C12.9996 7.49999 12.9994 7.49999 12.9993 7.49999C12.9991 7.49999 12.9989 7.49999 12.9987 7.49998C12.9984 7.49998 12.9982 7.49998 12.9981 7.49998C12.998 7.49998 12.9983 7.49998 12.999 7.49999C13.0005 7.50001 13.0037 7.50007 13.0086 7.5002C13.0183 7.50047 13.0345 7.50107 13.0562 7.50236C13.0998 7.50496 13.1647 7.51031 13.2437 7.52128C13.4042 7.54358 13.6094 7.58729 13.8076 7.66993C14.0063 7.75276 14.1772 7.86592 14.297 8.01571C14.4105 8.15768 14.5 8.35903 14.5 8.66748H15.5ZM7.72076 7.49999H8.27924V6.49999H7.72076V7.49999ZM8.75359 7.84187L9.08692 8.84187L10.0356 8.52564L9.70227 7.52564L8.75359 7.84187ZM8.61258 9.49998H7.38743V10.5H8.61258V9.49998ZM6.91309 8.84187L7.24642 7.84187L6.29774 7.52564L5.9644 8.52564L6.91309 8.84187ZM7.38743 9.49998C7.04615 9.49998 6.80517 9.16564 6.91309 8.84187L5.9644 8.52564C5.64064 9.49694 6.36359 10.5 7.38743 10.5V9.49998ZM9.08692 8.84187C9.19484 9.16564 8.95386 9.49998 8.61258 9.49998V10.5C9.63641 10.5 10.3594 9.49694 10.0356 8.52564L9.08692 8.84187ZM8.27924 7.49999C8.49446 7.49999 8.68553 7.6377 8.75359 7.84187L9.70227 7.52564C9.4981 6.91313 8.92489 6.49999 8.27924 6.49999V7.49999ZM7.72076 6.49999C7.07512 6.49999 6.50191 6.91313 6.29774 7.52564L7.24642 7.84187C7.31448 7.6377 7.50555 7.49999 7.72076 7.49999V6.49999Z" fill="#2A3B51"/>
</svg>
