<svg width="16" height="16" viewBox="0 0 16 16" fill="none" xmlns="http://www.w3.org/2000/svg">
<path d="M10.8 3.33498L10.5955 3.79127L11.0013 3.97311L11.2293 3.5913L10.8 3.33498ZM5.19998 3.33498L4.77068 3.5913L4.99862 3.97309L5.40442 3.79128L5.19998 3.33498ZM4.99998 2H5.49998C5.49998 1.78479 5.36227 1.59372 5.15809 1.52566L4.99998 2ZM2.99998 7V7.5C3.18937 7.5 3.3625 7.393 3.4472 7.22361L2.99998 7ZM0.999981 7L0.514909 7.12127C0.570555 7.34385 0.770547 7.5 0.999981 7.5V7ZM15 7V7.5C15.2294 7.5 15.4294 7.34385 15.4851 7.12127L15 7ZM11 2L10.8419 1.52566C10.6377 1.59372 10.5 1.78479 10.5 2H11ZM13 7L12.5528 7.22361C12.6375 7.393 12.8106 7.5 13 7.5V7ZM6.94404 7.90404L6.44431 7.88745L6.94404 7.90404ZM7.99998 3.16842C8.58255 3.16842 9.22684 3.31845 9.74369 3.47916C9.9982 3.55829 10.2138 3.63746 10.3651 3.69656C10.4406 3.72606 10.4997 3.75042 10.5393 3.76708C10.559 3.77541 10.5739 3.78181 10.5834 3.78595C10.5882 3.78802 10.5916 3.78952 10.5936 3.79042C10.5946 3.79088 10.5953 3.79117 10.5956 3.79132C10.5958 3.79139 10.5959 3.79142 10.5958 3.79141C10.5958 3.79141 10.5958 3.7914 10.5957 3.79137C10.5957 3.79136 10.5957 3.79133 10.5957 3.79133C10.5956 3.7913 10.5955 3.79127 10.8 3.33498C11.0044 2.8787 11.0044 2.87866 11.0043 2.87862C11.0042 2.87861 11.0041 2.87857 11.0041 2.87854C11.0039 2.87847 11.0038 2.8784 11.0036 2.87831C11.0032 2.87814 11.0027 2.87793 11.0022 2.87768C11.001 2.87719 10.9996 2.87653 10.9977 2.87572C10.9941 2.8741 10.989 2.87186 10.9825 2.86905C10.9696 2.86342 10.9512 2.8555 10.9277 2.8456C10.8808 2.82582 10.8134 2.7981 10.729 2.76511C10.5603 2.69922 10.322 2.61175 10.0406 2.52425C9.48556 2.35167 8.72985 2.16842 7.99998 2.16842V3.16842ZM5.19998 3.33498C5.40442 3.79128 5.40435 3.79131 5.40429 3.79134C5.40428 3.79134 5.40422 3.79137 5.40419 3.79138C5.40414 3.7914 5.40411 3.79142 5.4041 3.79142C5.40409 3.79143 5.40416 3.7914 5.40432 3.79132C5.40464 3.79118 5.40531 3.79088 5.40633 3.79043C5.40837 3.78953 5.41179 3.78803 5.41655 3.78596C5.42607 3.78181 5.44091 3.77542 5.46067 3.76709C5.50021 3.75042 5.55935 3.72606 5.63486 3.69656C5.78616 3.63746 6.0018 3.55829 6.25632 3.47916C6.7732 3.31845 7.41749 3.16842 7.99998 3.16842V2.16842C7.27019 2.16842 6.51448 2.35167 5.95943 2.52425C5.67799 2.61175 5.43968 2.69922 5.27102 2.7651C5.18656 2.7981 5.11921 2.82581 5.07227 2.8456C5.04879 2.85549 5.03039 2.86342 5.01747 2.86904C5.01101 2.87185 5.00592 2.87409 5.00224 2.87571C5.00041 2.87652 4.99893 2.87718 4.99781 2.87768C4.99725 2.87793 4.99678 2.87814 4.9964 2.8783C4.99621 2.87839 4.99605 2.87846 4.9959 2.87853C4.99583 2.87856 4.99574 2.8786 4.9957 2.87862C4.99562 2.87865 4.99554 2.87869 5.19998 3.33498ZM7.99998 13.5C6.14674 13.5 4.50624 13.0198 3.34333 12.1784C2.19239 11.3456 1.49998 10.1567 1.49998 8.66749H0.499981C0.499981 10.5108 1.37457 11.9882 2.75713 12.9885C4.12773 13.9802 5.98723 14.5 7.99998 14.5V13.5ZM14.5 8.66749C14.5 10.1567 13.8076 11.3456 12.6566 12.1784C11.4937 13.0198 9.85322 13.5 7.99998 13.5V14.5C10.0127 14.5 11.8722 13.9802 13.2428 12.9885C14.6254 11.9882 15.5 10.5108 15.5 8.66749H14.5ZM1.35354 2.35355C1.48756 2.21953 1.72978 2.11643 2.10207 2.07507C2.4655 2.03469 2.88795 2.0605 3.30427 2.11998C3.717 2.17894 4.10352 2.26796 4.38836 2.34291C4.5302 2.38024 4.64543 2.41371 4.72443 2.43759C4.7639 2.44952 4.79423 2.45904 4.81423 2.46541C4.82422 2.46859 4.83163 2.47099 4.83628 2.47251C4.83861 2.47327 4.84026 2.47381 4.84119 2.47412C4.84166 2.47428 4.84195 2.47437 4.84207 2.47441C4.84212 2.47443 4.84214 2.47443 4.8421 2.47442C4.84209 2.47442 4.84203 2.4744 4.84202 2.47439C4.84195 2.47437 4.84187 2.47434 4.99998 2C5.15809 1.52566 5.15799 1.52563 5.15787 1.52559C5.15782 1.52557 5.15769 1.52553 5.15759 1.52549C5.15737 1.52542 5.15711 1.52533 5.1568 1.52523C5.15619 1.52503 5.15539 1.52476 5.15441 1.52444C5.15246 1.5238 5.14978 1.52292 5.1464 1.52181C5.13965 1.51961 5.13008 1.51652 5.11786 1.51262C5.09342 1.50483 5.05833 1.49384 5.01382 1.48038C4.92484 1.45348 4.79789 1.41664 4.64285 1.37584C4.33394 1.29455 3.90795 1.19606 3.44569 1.13003C2.987 1.0645 2.47195 1.02782 1.99163 1.08118C1.52017 1.13357 1.0124 1.28047 0.646425 1.64645L1.35354 2.35355ZM0.999981 7C1.48505 6.87874 1.48507 6.87879 1.48508 6.87883C1.48507 6.87882 1.48508 6.87885 1.48508 6.87883C1.48507 6.8788 1.48505 6.87872 1.48501 6.87857C1.48494 6.87827 1.4848 6.87774 1.48461 6.87696C1.48423 6.87542 1.48362 6.87293 1.48278 6.86953C1.48111 6.86272 1.47856 6.85224 1.47523 6.8383C1.46855 6.81043 1.45871 6.76876 1.44645 6.71499C1.42191 6.60741 1.38772 6.45167 1.34965 6.26132C1.27332 5.87966 1.18233 5.36346 1.12193 4.81979C1.06111 4.27239 1.03353 3.71623 1.07606 3.24839C1.12099 2.75417 1.23506 2.47203 1.35354 2.35355L0.646425 1.64645C0.264907 2.02797 0.128984 2.62084 0.0801645 3.15786C0.0289454 3.72128 0.0638659 4.35261 0.128044 4.93022C0.192635 5.51155 0.289151 6.05785 0.369067 6.45743C0.409122 6.65771 0.445239 6.82228 0.471483 6.93735C0.484611 6.99491 0.495284 7.04016 0.502764 7.07137C0.506505 7.08698 0.509449 7.09908 0.511503 7.10747C0.51253 7.11166 0.513336 7.11493 0.513907 7.11723C0.514193 7.11839 0.51442 7.1193 0.514588 7.11998C0.514671 7.12031 0.51474 7.12059 0.514794 7.12081C0.514821 7.12091 0.51485 7.12103 0.514863 7.12108C0.514888 7.12118 0.514909 7.12127 0.999981 7ZM15.3535 1.64644C14.9875 1.28047 14.4798 1.13357 14.0083 1.08119C13.528 1.02782 13.0129 1.0645 12.5543 1.13003C12.092 1.19607 11.666 1.29455 11.3571 1.37584C11.2021 1.41664 11.0751 1.45348 10.9861 1.48038C10.9416 1.49384 10.9065 1.50483 10.8821 1.51262C10.8699 1.51652 10.8603 1.51961 10.8536 1.52182C10.8502 1.52292 10.8475 1.5238 10.8455 1.52444C10.8446 1.52476 10.8438 1.52503 10.8432 1.52523C10.8429 1.52533 10.8426 1.52542 10.8424 1.52549C10.8423 1.52553 10.8421 1.52557 10.8421 1.52559C10.842 1.52563 10.8419 1.52566 11 2C11.1581 2.47434 11.158 2.47437 11.1579 2.47439C11.1579 2.4744 11.1579 2.47442 11.1579 2.47442C11.1578 2.47443 11.1578 2.47443 11.1579 2.47441C11.158 2.47437 11.1583 2.47428 11.1588 2.47412C11.1597 2.47381 11.1613 2.47327 11.1637 2.47251C11.1683 2.47099 11.1757 2.46859 11.1857 2.46541C11.2057 2.45904 11.2361 2.44952 11.2755 2.43759C11.3545 2.41371 11.4698 2.38024 11.6116 2.34291C11.8964 2.26796 12.283 2.17894 12.6957 2.11998C13.112 2.0605 13.5344 2.03469 13.8979 2.07507C14.2702 2.11643 14.5124 2.21953 14.6464 2.35356L15.3535 1.64644ZM13 7.5H15V6.5H13V7.5ZM4.49998 2V3H5.49998V2H4.49998ZM4.55277 2.77639L2.55277 6.7764L3.4472 7.22361L5.44719 3.22361L4.55277 2.77639ZM5.62929 3.07867L5.42929 2.74369L4.57068 3.25632L4.77068 3.5913L5.62929 3.07867ZM2.99998 6.5H0.999981V7.5H2.99998V6.5ZM1.49998 8.66749C1.49998 8.35904 1.58947 8.1577 1.70299 8.01573C1.82277 7.86593 1.99368 7.75277 2.19237 7.66994C2.39061 7.5873 2.59582 7.5436 2.7563 7.5213C2.83524 7.51033 2.90017 7.50497 2.94377 7.50237C2.96549 7.50108 2.98168 7.50049 2.99141 7.50022C2.99627 7.50008 2.99949 7.50003 3.00097 7.50001C3.0017 7.5 3.002 7.5 3.00184 7.5C3.00176 7.5 3.00157 7.5 3.00126 7.5C3.0011 7.5 3.00092 7.5 3.00071 7.5C3.0006 7.5 3.00042 7.5 3.00037 7.5C3.00018 7.5 2.99998 7.5 2.99998 7C2.99998 6.5 2.99977 6.5 2.99955 6.5C2.99947 6.5 2.99924 6.5 2.99907 6.5C2.99874 6.5 2.99837 6.5 2.99798 6.50001C2.99718 6.50001 2.99626 6.50001 2.99522 6.50002C2.99314 6.50003 2.99057 6.50006 2.98752 6.5001C2.98143 6.50018 2.97342 6.50033 2.96363 6.5006C2.94406 6.50115 2.91729 6.50218 2.88432 6.50414C2.81854 6.50806 2.72722 6.51573 2.61866 6.53082C2.40414 6.56062 2.10936 6.62114 1.80759 6.74693C1.50629 6.87254 1.17719 7.07204 0.921971 7.39122C0.660491 7.71823 0.499981 8.14219 0.499981 8.66749H1.49998ZM15 7C15.4851 7.12127 15.4851 7.12119 15.4851 7.12109C15.4851 7.12103 15.4851 7.12092 15.4852 7.12081C15.4852 7.12059 15.4853 7.12032 15.4854 7.11998C15.4855 7.11931 15.4858 7.11839 15.4861 7.11724C15.4866 7.11493 15.4874 7.11166 15.4885 7.10747C15.4905 7.09908 15.4935 7.08698 15.4972 7.07137C15.5047 7.04016 15.5154 6.99492 15.5285 6.93736C15.5547 6.82228 15.5908 6.65771 15.6309 6.45744C15.7108 6.05785 15.8073 5.51155 15.8719 4.93022C15.9361 4.35261 15.971 3.72128 15.9198 3.15786C15.871 2.62083 15.7351 2.02797 15.3535 1.64644L14.6464 2.35356C14.7649 2.47204 14.879 2.75417 14.9239 3.24839C14.9664 3.71623 14.9389 4.27239 14.878 4.81978C14.8176 5.36345 14.7267 5.87965 14.6503 6.26132C14.6122 6.45166 14.5781 6.60741 14.5535 6.71499C14.5413 6.76876 14.5314 6.81043 14.5247 6.8383C14.5214 6.85223 14.5188 6.86271 14.5172 6.86952C14.5163 6.87293 14.5157 6.87542 14.5153 6.87696C14.5152 6.87773 14.515 6.87827 14.515 6.87856C14.5149 6.87871 14.5149 6.8788 14.5149 6.87883C14.5149 6.87884 14.5149 6.87882 14.5149 6.87883C14.5149 6.87879 14.5149 6.87873 15 7ZM10.5 2V3H11.5V2H10.5ZM10.5528 3.22361L12.5528 7.22361L13.4472 6.7764L11.4472 2.77639L10.5528 3.22361ZM11.2293 3.5913L11.4293 3.25632L10.5707 2.74369L10.3707 3.07867L11.2293 3.5913ZM15.5 8.66749C15.5 8.1422 15.3395 7.71823 15.078 7.39122C14.8228 7.07204 14.4937 6.87254 14.1924 6.74693C13.8906 6.62114 13.5958 6.56062 13.3813 6.53082C13.2727 6.51573 13.1814 6.50806 13.1156 6.50414C13.0827 6.50218 13.0559 6.50115 13.0363 6.5006C13.0265 6.50033 13.0185 6.50018 13.0124 6.5001C13.0094 6.50006 13.0068 6.50003 13.0047 6.50002C13.0037 6.50001 13.0028 6.50001 13.002 6.50001C13.0016 6.5 13.0012 6.5 13.0009 6.5C13.0007 6.5 13.0005 6.5 13.0004 6.5C13.0002 6.5 13 6.5 13 7C13 7.5 12.9998 7.5 12.9996 7.5C12.9995 7.5 12.9994 7.5 12.9993 7.5C12.999 7.5 12.9989 7.5 12.9987 7.5C12.9984 7.5 12.9982 7.5 12.9981 7.5C12.998 7.5 12.9983 7.5 12.999 7.50001C13.0005 7.50003 13.0037 7.50008 13.0086 7.50022C13.0183 7.50049 13.0345 7.50108 13.0562 7.50237C13.0998 7.50497 13.1647 7.51033 13.2437 7.5213C13.4041 7.5436 13.6094 7.5873 13.8076 7.66994C14.0063 7.75277 14.1772 7.86593 14.297 8.01573C14.4105 8.1577 14.5 8.35904 14.5 8.66749H15.5ZM7.90645 7.5H8.09355V6.5H7.90645V7.5ZM8.61256 9.5H7.38741V10.5H8.61256V9.5ZM7.38741 9.5C7.56147 9.5 7.60926 9.63488 7.57751 9.57184C7.54959 9.51641 7.51433 9.40033 7.48677 9.21117C7.43315 8.84319 7.42932 8.35549 7.44376 7.92064L6.44431 7.88745C6.42942 8.33593 6.43031 8.89622 6.49722 9.35537C6.52992 9.57979 6.58388 9.82208 6.68437 10.0216C6.78102 10.2135 6.99638 10.5 7.38741 10.5V9.5ZM8.55623 7.92064C8.57067 8.3555 8.56684 8.84319 8.51321 9.21117C8.48565 9.40033 8.45039 9.5164 8.42247 9.57184C8.39072 9.63488 8.43851 9.5 8.61256 9.5V10.5C9.00359 10.5 9.21896 10.2135 9.31561 10.0216C9.41609 9.82208 9.47006 9.57979 9.50276 9.35538C9.56967 8.89623 9.57057 8.33594 9.55568 7.88746L8.55623 7.92064ZM8.09355 7.5C8.35731 7.5 8.54873 7.69477 8.55623 7.92064L9.55568 7.88746C9.52904 7.08517 8.85852 6.5 8.09355 6.5V7.5ZM7.90645 6.5C7.14148 6.5 6.47096 7.08516 6.44431 7.88745L7.44376 7.92064C7.45127 7.69477 7.64268 7.5 7.90645 7.5V6.5Z" fill="#2A3B51"/>
</svg>
