<svg width="16" height="16" viewBox="0 0 16 16" fill="none" xmlns="http://www.w3.org/2000/svg">
<path d="M6.5 3C6.5 3.27614 6.27614 3.5 6 3.5C5.72386 3.5 5.5 3.27614 5.5 3C5.5 2.72386 5.72386 2.5 6 2.5C6.27614 2.5 6.5 2.72386 6.5 3ZM6.5 8C6.5 8.27614 6.27614 8.5 6 8.5C5.72386 8.5 5.5 8.27614 5.5 8C5.5 7.72386 5.72386 7.5 6 7.5C6.27614 7.5 6.5 7.72386 6.5 8ZM6.5 13C6.5 13.2761 6.27614 13.5 6 13.5C5.72386 13.5 5.5 13.2761 5.5 13C5.5 12.7239 5.72386 12.5 6 12.5C6.27614 12.5 6.5 12.7239 6.5 13ZM10.5 3C10.5 3.27614 10.2761 3.5 10 3.5C9.72386 3.5 9.5 3.27614 9.5 3C9.5 2.72386 9.72386 2.5 10 2.5C10.2761 2.5 10.5 2.72386 10.5 3ZM10.5 8C10.5 8.27614 10.2761 8.5 10 8.5C9.72386 8.5 9.5 8.27614 9.5 8C9.5 7.72386 9.72386 7.5 10 7.5C10.2761 7.5 10.5 7.72386 10.5 8ZM10.5 13C10.5 13.2761 10.2761 13.5 10 13.5C9.72386 13.5 9.5 13.2761 9.5 13C9.5 12.7239 9.72386 12.5 10 12.5C10.2761 12.5 10.5 12.7239 10.5 13Z" stroke="#2A3B51"/>
</svg>
