<svg width="16" height="16" viewBox="0 0 16 16" fill="none" xmlns="http://www.w3.org/2000/svg">
<path fill-rule="evenodd" clip-rule="evenodd" d="M8 6.5C7.17157 6.5 6.5 7.17157 6.5 8C6.5 8.82843 7.17157 9.5 8 9.5C8.82843 9.5 9.5 8.82843 9.5 8C9.5 7.17157 8.82843 6.5 8 6.5ZM8.5 8C8.5 8.27614 8.27614 8.5 8 8.5C7.72386 8.5 7.5 8.27614 7.5 8C7.5 7.72386 7.72386 7.5 8 7.5C8.27614 7.5 8.5 7.72386 8.5 8Z" fill="black"/>
<path fill-rule="evenodd" clip-rule="evenodd" d="M3.2046 3.9117C2.35483 4.77538 1.71845 5.671 1.36325 6.21556C1.29744 6.31646 1.23339 6.40716 1.16396 6.50547C1.12142 6.56571 1.07683 6.62886 1.02857 6.69897C0.910191 6.87094 0.785255 7.06382 0.680973 7.27955C0.588976 7.46986 0.5 7.72179 0.5 8C0.5 8.27821 0.588976 8.53014 0.680973 8.72045C0.785255 8.93618 0.910191 9.12906 1.02857 9.30103C1.07683 9.37114 1.12143 9.4343 1.16397 9.49453C1.2334 9.59286 1.29743 9.68352 1.36325 9.78444C1.79041 10.4393 2.62421 11.6019 3.74676 12.6061C4.86199 13.6037 6.32416 14.5 8 14.5C9.58172 14.5 10.9735 13.7017 12.0642 12.7713L13.6464 14.3536C13.8417 14.5488 14.1583 14.5488 14.3536 14.3536C14.5488 14.1583 14.5488 13.8417 14.3536 13.6464L12.7954 12.0883C13.7147 11.1539 14.3849 10.1815 14.7198 9.65556C14.7665 9.58223 14.8217 9.4997 14.8802 9.41212C14.9936 9.24235 15.1199 9.05334 15.2228 8.8743C15.3393 8.67156 15.5 8.34276 15.5 8C15.5 7.65724 15.3393 7.32844 15.2228 7.1257C15.1199 6.94665 14.9936 6.75764 14.8802 6.58786C14.8216 6.50026 14.7665 6.41778 14.7198 6.34444C14.3351 5.74024 13.5077 4.54657 12.3684 3.49843C11.2377 2.45813 9.73284 1.5 8 1.5C6.41726 1.5 5.02511 2.29946 3.93582 3.22871L2.35355 1.64645C2.15829 1.45118 1.84171 1.45118 1.64645 1.64645C1.45118 1.84171 1.45118 2.15829 1.64645 2.35355L3.2046 3.9117ZM3.91171 4.61882C3.12997 5.41442 2.53625 6.24764 2.20083 6.76188C2.12664 6.87562 2.04207 6.99559 1.96442 7.10574C1.92442 7.16249 1.88625 7.21663 1.85229 7.26597C1.74373 7.42368 1.6525 7.56748 1.5813 7.71476C1.525 7.83123 1.5 7.92876 1.5 8C1.5 8.07124 1.525 8.16878 1.5813 8.28524C1.6525 8.43252 1.74373 8.57632 1.85229 8.73403C1.88625 8.78338 1.92442 8.83752 1.96442 8.89426C2.04207 9.00441 2.12664 9.12438 2.20083 9.23812C2.60474 9.85736 3.38319 10.9391 4.41348 11.8608C5.45109 12.789 6.68237 13.5 8 13.5C9.22169 13.5 10.3687 12.8886 11.3546 12.0617L9.01598 9.72309C9.3072 9.55101 9.55101 9.3072 9.72309 9.01598L12.0883 11.3812C12.9354 10.519 13.5611 9.61342 13.8763 9.11842C13.95 9.00271 14.017 8.90288 14.0801 8.80896C14.1781 8.66304 14.2665 8.53128 14.3558 8.37597C14.4566 8.20062 14.5 8.0656 14.5 8C14.5 7.9344 14.4566 7.79938 14.3558 7.62403C14.2665 7.46875 14.178 7.33693 14.0801 7.19104C14.0171 7.09717 13.95 6.99723 13.8763 6.88158C13.5137 6.31214 12.7402 5.19931 11.6914 4.23435C10.634 3.26155 9.36352 2.5 8 2.5C6.77921 2.5 5.63256 3.11034 4.64537 3.93827L6.98402 6.27691C6.6928 6.44899 6.44899 6.6928 6.27691 6.98402L3.91171 4.61882Z" fill="black"/>
</svg>
