<svg width="16" height="16" viewBox="0 0 16 16" fill="none" xmlns="http://www.w3.org/2000/svg">
<path d="M15 8L15.2732 8.41875C15.4147 8.32644 15.5 8.16893 15.5 8C15.5 7.83107 15.4147 7.67356 15.2732 7.58125L15 8ZM1 8L0.726781 7.58125C0.585302 7.67356 0.5 7.83107 0.5 8C0.5 8.16893 0.585301 8.32644 0.726781 8.41875L1 8ZM7.5 6C7.5 6.27614 7.72386 6.5 8 6.5C8.27614 6.5 8.5 6.27614 8.5 6H7.5ZM8.5 3C8.5 2.72386 8.27614 2.5 8 2.5C7.72386 2.5 7.5 2.72386 7.5 3H8.5ZM8.5 10C8.5 9.72386 8.27614 9.5 8 9.5C7.72386 9.5 7.5 9.72386 7.5 10H8.5ZM7.5 13C7.5 13.2761 7.72386 13.5 8 13.5C8.27614 13.5 8.5 13.2761 8.5 13H7.5ZM9.64645 5.64645C9.45118 5.84171 9.45118 6.15829 9.64645 6.35355C9.84171 6.54882 10.1583 6.54882 10.3536 6.35355L9.64645 5.64645ZM12.3536 4.35355C12.5488 4.15829 12.5488 3.84171 12.3536 3.64645C12.1583 3.45118 11.8417 3.45118 11.6464 3.64645L12.3536 4.35355ZM10.3536 9.64645C10.1583 9.45118 9.84171 9.45118 9.64645 9.64645C9.45118 9.84171 9.45118 10.1583 9.64645 10.3536L10.3536 9.64645ZM11.6464 12.3536C11.8417 12.5488 12.1583 12.5488 12.3536 12.3536C12.5488 12.1583 12.5488 11.8417 12.3536 11.6464L11.6464 12.3536ZM5.64645 6.35355C5.84171 6.54882 6.15829 6.54882 6.35355 6.35355C6.54882 6.15829 6.54882 5.84171 6.35355 5.64645L5.64645 6.35355ZM4.35355 3.64645C4.15829 3.45118 3.84171 3.45118 3.64645 3.64645C3.45118 3.84171 3.45118 4.15829 3.64645 4.35355L4.35355 3.64645ZM6.35355 10.3536C6.54882 10.1583 6.54882 9.84171 6.35355 9.64645C6.15829 9.45118 5.84171 9.45118 5.64645 9.64645L6.35355 10.3536ZM3.64645 11.6464C3.45118 11.8417 3.45118 12.1583 3.64645 12.3536C3.84171 12.5488 4.15829 12.5488 4.35355 12.3536L3.64645 11.6464ZM2.64645 6.35355C2.84171 6.54882 3.15829 6.54882 3.35355 6.35355C3.54882 6.15829 3.54882 5.84171 3.35355 5.64645L2.64645 6.35355ZM2.35355 4.64645C2.15829 4.45118 1.84171 4.45118 1.64645 4.64645C1.45118 4.84171 1.45118 5.15829 1.64645 5.35355L2.35355 4.64645ZM12.6464 5.64645C12.4512 5.84171 12.4512 6.15829 12.6464 6.35355C12.8417 6.54882 13.1583 6.54882 13.3536 6.35355L12.6464 5.64645ZM14.3536 5.35355C14.5488 5.15829 14.5488 4.84171 14.3536 4.64645C14.1583 4.45118 13.8417 4.45118 13.6464 4.64645L14.3536 5.35355ZM13.3536 9.64645C13.1583 9.45118 12.8417 9.45118 12.6464 9.64645C12.4512 9.84171 12.4512 10.1583 12.6464 10.3536L13.3536 9.64645ZM13.6464 11.3536C13.8417 11.5488 14.1583 11.5488 14.3536 11.3536C14.5488 11.1583 14.5488 10.8417 14.3536 10.6464L13.6464 11.3536ZM3.35355 10.3536C3.54882 10.1583 3.54882 9.84171 3.35355 9.64645C3.15829 9.45118 2.84171 9.45118 2.64645 9.64645L3.35355 10.3536ZM1.64645 10.6464C1.45118 10.8417 1.45118 11.1583 1.64645 11.3536C1.84171 11.5488 2.15829 11.5488 2.35355 11.3536L1.64645 10.6464ZM7.99998 9.5C10.763 9.5 12.5525 9.24742 13.6643 8.98681C14.2206 8.85641 14.6085 8.72373 14.8644 8.61901C14.9924 8.56663 15.0875 8.52123 15.1541 8.48658C15.1874 8.46926 15.2137 8.45463 15.2333 8.44316C15.2431 8.43743 15.2513 8.43249 15.258 8.4284C15.2613 8.42636 15.2642 8.42452 15.2667 8.42291C15.268 8.42211 15.2692 8.42136 15.2703 8.42066C15.2708 8.42032 15.2713 8.41999 15.2718 8.41967C15.2721 8.41951 15.2724 8.41928 15.2725 8.4192C15.2729 8.41897 15.2732 8.41875 15 8C14.7268 7.58125 14.7271 7.58103 14.7274 7.58082C14.7275 7.58076 14.7279 7.58055 14.7281 7.58043C14.7284 7.58017 14.7288 7.57993 14.7292 7.5797C14.7299 7.57925 14.7305 7.57886 14.731 7.57854C14.732 7.57789 14.7327 7.57749 14.7329 7.57734C14.7334 7.57703 14.7323 7.57771 14.7296 7.5793C14.7241 7.58248 14.7121 7.58933 14.6928 7.59935C14.6543 7.61939 14.5869 7.65212 14.4857 7.69349C14.2834 7.77627 13.9464 7.89359 13.4361 8.01319C12.4148 8.25258 10.7043 8.5 7.99998 8.5V9.5ZM7.99999 7.5C10.7043 7.5 12.4148 7.74742 13.4361 7.98681C13.9464 8.10641 14.2834 8.22373 14.4857 8.30651C14.5869 8.34788 14.6543 8.38061 14.6928 8.40065C14.7121 8.41067 14.7241 8.41752 14.7296 8.4207C14.7323 8.42229 14.7334 8.42297 14.7329 8.42266C14.7327 8.42251 14.732 8.42211 14.731 8.42146C14.7305 8.42114 14.7299 8.42075 14.7292 8.4203C14.7288 8.42007 14.7284 8.41983 14.728 8.41957C14.7279 8.41945 14.7275 8.41924 14.7274 8.41918C14.7271 8.41897 14.7268 8.41875 15 8C15.2732 7.58125 15.2729 7.58103 15.2725 7.5808C15.2724 7.58072 15.2721 7.58049 15.2718 7.58033C15.2713 7.58002 15.2708 7.57968 15.2703 7.57934C15.2692 7.57864 15.268 7.57789 15.2667 7.57709C15.2642 7.57548 15.2613 7.57364 15.258 7.5716C15.2513 7.56751 15.2431 7.56257 15.2333 7.55684C15.2137 7.54537 15.1874 7.53074 15.1541 7.51342C15.0875 7.47877 14.9924 7.43337 14.8644 7.38099C14.6085 7.27627 14.2206 7.14359 13.6643 7.01319C12.5525 6.75258 10.763 6.5 7.99999 6.5V7.5ZM7.99998 8.5C5.29571 8.5 3.58516 8.25258 2.56385 8.01319C2.05357 7.89359 1.71655 7.77627 1.51426 7.69349C1.41314 7.65212 1.34574 7.61939 1.3072 7.59936C1.28793 7.58934 1.27587 7.58248 1.27042 7.5793C1.26769 7.57771 1.26661 7.57704 1.2671 7.57734C1.26735 7.57749 1.26799 7.57789 1.26901 7.57854C1.26952 7.57886 1.27013 7.57925 1.27083 7.5797C1.27118 7.57993 1.27156 7.58017 1.27195 7.58043C1.27215 7.58056 1.27247 7.58076 1.27257 7.58083C1.27289 7.58104 1.27322 7.58125 1 8C0.726781 8.41875 0.727121 8.41897 0.727466 8.4192C0.727589 8.41928 0.727941 8.4195 0.728187 8.41966C0.728679 8.41998 0.729194 8.42032 0.729734 8.42066C0.730812 8.42136 0.731985 8.42211 0.733254 8.42291C0.735793 8.42452 0.738714 8.42635 0.742027 8.4284C0.748654 8.43249 0.756848 8.43743 0.766679 8.44316C0.786342 8.45463 0.81255 8.46926 0.845868 8.48658C0.912504 8.52123 1.00755 8.56663 1.13555 8.61901C1.39149 8.72373 1.77934 8.85641 2.33564 8.98681C3.44749 9.24742 5.23693 9.5 7.99998 9.5V8.5ZM7.99999 6.5C5.23693 6.5 3.44749 6.75258 2.33564 7.01319C1.77934 7.14359 1.39149 7.27627 1.13555 7.38099C1.00755 7.43337 0.912504 7.47877 0.845868 7.51342C0.81255 7.53074 0.786343 7.54537 0.766679 7.55684C0.756848 7.56257 0.748654 7.56751 0.742027 7.5716C0.738714 7.57365 0.735793 7.57548 0.733254 7.57709C0.731985 7.57789 0.730812 7.57864 0.729734 7.57934C0.729194 7.57968 0.728679 7.58002 0.728187 7.58034C0.727941 7.5805 0.727589 7.58072 0.727466 7.5808C0.727121 7.58103 0.726781 7.58125 1 8C1.27322 8.41875 1.27289 8.41896 1.27257 8.41917C1.27247 8.41924 1.27215 8.41944 1.27195 8.41957C1.27156 8.41983 1.27118 8.42007 1.27083 8.4203C1.27013 8.42075 1.26952 8.42114 1.26901 8.42146C1.26799 8.42211 1.26735 8.42251 1.2671 8.42266C1.26661 8.42296 1.26769 8.42229 1.27042 8.4207C1.27587 8.41752 1.28793 8.41066 1.3072 8.40064C1.34574 8.38061 1.41314 8.34788 1.51426 8.30651C1.71655 8.22373 2.05357 8.10641 2.56385 7.98681C3.58516 7.74742 5.29571 7.5 7.99999 7.5V6.5ZM8.5 8C8.5 8.27613 8.27614 8.5 7.99998 8.5V9.5C8.8284 9.5 9.5 8.82844 9.5 8H8.5ZM7.99998 8.5C7.72385 8.5 7.5 8.27615 7.5 8H6.5C6.5 8.82842 7.17155 9.5 7.99998 9.5V8.5ZM7.5 8C7.5 7.72385 7.72385 7.5 7.99999 7.5V6.5C7.17155 6.5 6.5 7.17158 6.5 8H7.5ZM7.99999 7.5C8.27614 7.5 8.5 7.72387 8.5 8H9.5C9.5 7.17156 8.8284 6.5 7.99999 6.5V7.5ZM8.5 6V3H7.5V6H8.5ZM7.5 10V13H8.5V10H7.5ZM10.3536 6.35355L12.3536 4.35355L11.6464 3.64645L9.64645 5.64645L10.3536 6.35355ZM9.64645 10.3536L11.6464 12.3536L12.3536 11.6464L10.3536 9.64645L9.64645 10.3536ZM6.35355 5.64645L4.35355 3.64645L3.64645 4.35355L5.64645 6.35355L6.35355 5.64645ZM5.64645 9.64645L3.64645 11.6464L4.35355 12.3536L6.35355 10.3536L5.64645 9.64645ZM3.35355 5.64645L2.35355 4.64645L1.64645 5.35355L2.64645 6.35355L3.35355 5.64645ZM13.3536 6.35355L14.3536 5.35355L13.6464 4.64645L12.6464 5.64645L13.3536 6.35355ZM12.6464 10.3536L13.6464 11.3536L14.3536 10.6464L13.3536 9.64645L12.6464 10.3536ZM2.64645 9.64645L1.64645 10.6464L2.35355 11.3536L3.35355 10.3536L2.64645 9.64645Z" fill="#2A3B51"/>
</svg>
