<svg width="16" height="16" viewBox="0 0 16 16" fill="none" xmlns="http://www.w3.org/2000/svg">
<path d="M8.6 1L14 5M8.6 1H3C2.44772 1 2 1.44772 2 2V14C2 14.5523 2.44772 15 3 15H13C13.5523 15 14 14.5523 14 14V5M8.6 1V4C8.6 4.55228 9.04772 5 9.6 5H14" stroke="#2A3B51" stroke-linejoin="round"/>
<path d="M6.19336 11.207C6.19336 11.4648 6.10026 11.668 5.91406 11.8164C5.72917 11.9648 5.47135 12.0391 5.14062 12.0391C4.83594 12.0391 4.56641 11.9818 4.33203 11.8672V11.3047C4.52474 11.3906 4.6875 11.4512 4.82031 11.4863C4.95443 11.5215 5.07682 11.5391 5.1875 11.5391C5.32031 11.5391 5.42188 11.5137 5.49219 11.4629C5.5638 11.4121 5.59961 11.3366 5.59961 11.2363C5.59961 11.1803 5.58398 11.1309 5.55273 11.0879C5.52148 11.0436 5.47526 11.0013 5.41406 10.9609C5.35417 10.9206 5.23112 10.8561 5.04492 10.7676C4.87044 10.6855 4.73958 10.6068 4.65234 10.5312C4.5651 10.4557 4.49544 10.3678 4.44336 10.2676C4.39128 10.1673 4.36523 10.0501 4.36523 9.91602C4.36523 9.66341 4.45052 9.46484 4.62109 9.32031C4.79297 9.17578 5.02995 9.10352 5.33203 9.10352C5.48047 9.10352 5.62174 9.12109 5.75586 9.15625C5.89128 9.19141 6.03255 9.24089 6.17969 9.30469L5.98438 9.77539C5.83203 9.71289 5.70573 9.66927 5.60547 9.64453C5.50651 9.61979 5.40885 9.60742 5.3125 9.60742C5.19792 9.60742 5.11003 9.63411 5.04883 9.6875C4.98763 9.74089 4.95703 9.81055 4.95703 9.89648C4.95703 9.94987 4.9694 9.99674 4.99414 10.0371C5.01888 10.0762 5.05794 10.1146 5.11133 10.1523C5.16602 10.1888 5.29427 10.2552 5.49609 10.3516C5.76302 10.4792 5.94596 10.6074 6.04492 10.7363C6.14388 10.8639 6.19336 11.0208 6.19336 11.207ZM8.33984 9.14453H8.95117L7.98047 12H7.32031L6.35156 9.14453H6.96289L7.5 10.8438C7.52995 10.944 7.56055 11.0612 7.5918 11.1953C7.62435 11.3281 7.64453 11.4206 7.65234 11.4727C7.66667 11.3529 7.71549 11.1432 7.79883 10.8438L8.33984 9.14453ZM10.3965 10.3965H11.5293V11.877C11.3457 11.9368 11.1725 11.9785 11.0098 12.002C10.8483 12.0267 10.6829 12.0391 10.5137 12.0391C10.0827 12.0391 9.75326 11.9128 9.52539 11.6602C9.29883 11.4062 9.18555 11.0423 9.18555 10.5684C9.18555 10.1074 9.31706 9.74805 9.58008 9.49023C9.8444 9.23242 10.2103 9.10352 10.6777 9.10352C10.9707 9.10352 11.2533 9.16211 11.5254 9.2793L11.3242 9.76367C11.1159 9.65951 10.8991 9.60742 10.6738 9.60742C10.4121 9.60742 10.2025 9.69531 10.0449 9.87109C9.88737 10.0469 9.80859 10.2832 9.80859 10.5801C9.80859 10.89 9.87174 11.127 9.99805 11.291C10.1257 11.4538 10.3105 11.5352 10.5527 11.5352C10.679 11.5352 10.8073 11.5221 10.9375 11.4961V10.9004H10.3965V10.3965Z" fill="#2A3B51"/>
</svg>
