<svg width="16" height="16" viewBox="0 0 16 16" fill="none" xmlns="http://www.w3.org/2000/svg">
<path d="M10.3462 1.34606L12.9024 4.3H10.7692C10.5721 4.3 10.4463 4.29954 10.3573 4.29343C10.3467 4.17343 10.3462 4.00364 10.3462 3.73333V1.34606ZM2.50496 0.5H9.34615V3.73333L9.34615 3.75668C9.34614 4.00433 9.34612 4.2252 9.36287 4.39957C9.37923 4.56994 9.41844 4.80551 9.5841 4.99618C9.76292 5.202 10.0006 5.2583 10.1731 5.28001C10.333 5.30013 10.5311 5.30007 10.7354 5.30001C10.7467 5.3 10.7579 5.3 10.7692 5.3H13.5V15.4667C13.5 15.4808 13.4977 15.4919 13.495 15.5H2.50496C2.50227 15.4919 2.5 15.4808 2.5 15.4667V0.533333C2.5 0.519158 2.50227 0.508096 2.50496 0.5ZM5 9.78572C4.72386 9.78572 4.5 10.0096 4.5 10.2857C4.5 10.5619 4.72386 10.7857 5 10.7857H7V13.1429C7 13.419 7.22386 13.6429 7.5 13.6429C7.77614 13.6429 8 13.419 8 13.1429V10.7857H10C10.2761 10.7857 10.5 10.5619 10.5 10.2857C10.5 10.0096 10.2761 9.78572 10 9.78572H8V7.42857C8 7.15243 7.77614 6.92857 7.5 6.92857C7.22386 6.92857 7 7.15243 7 7.42857V9.78572H5Z" stroke="#2A3B51" stroke-linecap="round" stroke-linejoin="round"/>
</svg>
