<svg width="18" height="17" viewBox="0 0 18 17" fill="none" xmlns="http://www.w3.org/2000/svg">
<path d="M8.6 1L14 5M8.6 1H3C2.44772 1 2 1.44772 2 2V14C2 14.5523 2.44772 15 3 15H13C13.5523 15 14 14.5523 14 14V5M8.6 1V4C8.6 4.55228 9.04772 5 9.6 5H14" stroke="#2A3B51" stroke-linejoin="round"/>
<path d="M6.23438 10.3965H7.36719V11.877C7.18359 11.9368 7.01042 11.9785 6.84766 12.002C6.6862 12.0267 6.52083 12.0391 6.35156 12.0391C5.92057 12.0391 5.59115 11.9128 5.36328 11.6602C5.13672 11.4062 5.02344 11.0423 5.02344 10.5684C5.02344 10.1074 5.15495 9.74805 5.41797 9.49023C5.68229 9.23242 6.04818 9.10352 6.51562 9.10352C6.80859 9.10352 7.09115 9.16211 7.36328 9.2793L7.16211 9.76367C6.95378 9.65951 6.73698 9.60742 6.51172 9.60742C6.25 9.60742 6.04036 9.69531 5.88281 9.87109C5.72526 10.0469 5.64648 10.2832 5.64648 10.5801C5.64648 10.89 5.70964 11.127 5.83594 11.291C5.96354 11.4538 6.14844 11.5352 6.39062 11.5352C6.51693 11.5352 6.64518 11.5221 6.77539 11.4961V10.9004H6.23438V10.3965ZM8.04883 12V9.14453H8.6543V12H8.04883ZM9.96875 12H9.37305V9.14453H11.0098V9.64062H9.96875V10.377H10.9375V10.8711H9.96875V12Z" fill="#2A3B51"/>
</svg>
