<svg width="16" height="16" viewBox="0 0 16 16" fill="none" xmlns="http://www.w3.org/2000/svg">
<path fill-rule="evenodd" clip-rule="evenodd" d="M2.50582 1.92397C2.54334 1.68006 2.75322 1.5 3 1.5H5C5.27615 1.5 5.5 1.72386 5.5 2C5.5 2.27614 5.27615 2.5 5 2.5H3.42896L1.96742 12H6L7 14H9L10 12H14.0326L12.571 2.5H11C10.7239 2.5 10.5 2.27614 10.5 2C10.5 1.72386 10.7239 1.5 11 1.5H13C13.2468 1.5 13.4567 1.68006 13.4942 1.92397L15.4942 14.924C15.5164 15.0682 15.4745 15.2148 15.3795 15.3256C15.2845 15.4363 15.1459 15.5 15 15.5H1C0.854119 15.5 0.715511 15.4363 0.620521 15.3256C0.525531 15.2148 0.483635 15.0682 0.505818 14.924L2.50582 1.92397ZM10.118 14H13.8196L13.6529 13H10.618L10.118 14ZM5.88197 14L5.38197 13H2.34713L2.18047 14H5.88197Z" fill="#2A3B51"/>
<path d="M8.35356 2.64645C8.15829 2.45118 7.84171 2.45118 7.64645 2.64645L5.64645 4.64645C5.45119 4.84171 5.45119 5.15829 5.64645 5.35355C5.84171 5.54882 6.15829 5.54882 6.35356 5.35355L7.5 4.20711V10C7.5 10.2761 7.72386 10.5 8 10.5C8.27615 10.5 8.5 10.2761 8.5 10V4.20711L9.64645 5.35355C9.84171 5.54882 10.1583 5.54882 10.3536 5.35355C10.5488 5.15829 10.5488 4.84171 10.3536 4.64645L8.35356 2.64645Z" fill="#2A3B51"/>
</svg>
