<svg width="16" height="16" viewBox="0 0 16 16" fill="none" xmlns="http://www.w3.org/2000/svg">
<path d="M5.89453 9.60742C5.66667 9.60742 5.49023 9.69336 5.36523 9.86523C5.24023 10.0358 5.17773 10.2741 5.17773 10.5801C5.17773 11.2168 5.41667 11.5352 5.89453 11.5352C6.09505 11.5352 6.33789 11.485 6.62305 11.3848V11.8926C6.38867 11.9902 6.12695 12.0391 5.83789 12.0391C5.42253 12.0391 5.10482 11.9134 4.88477 11.6621C4.66471 11.4095 4.55469 11.0475 4.55469 10.5762C4.55469 10.2793 4.60872 10.0195 4.7168 9.79688C4.82487 9.57292 4.97982 9.40169 5.18164 9.2832C5.38477 9.16341 5.6224 9.10352 5.89453 9.10352C6.17188 9.10352 6.45052 9.17057 6.73047 9.30469L6.53516 9.79688C6.42839 9.74609 6.32096 9.70182 6.21289 9.66406C6.10482 9.6263 5.9987 9.60742 5.89453 9.60742ZM8.91797 11.207C8.91797 11.4648 8.82487 11.668 8.63867 11.8164C8.45378 11.9648 8.19596 12.0391 7.86523 12.0391C7.56055 12.0391 7.29102 11.9818 7.05664 11.8672V11.3047C7.24935 11.3906 7.41211 11.4512 7.54492 11.4863C7.67904 11.5215 7.80143 11.5391 7.91211 11.5391C8.04492 11.5391 8.14648 11.5137 8.2168 11.4629C8.28841 11.4121 8.32422 11.3366 8.32422 11.2363C8.32422 11.1803 8.30859 11.1309 8.27734 11.0879C8.24609 11.0436 8.19987 11.0013 8.13867 10.9609C8.07878 10.9206 7.95573 10.8561 7.76953 10.7676C7.59505 10.6855 7.46419 10.6068 7.37695 10.5312C7.28971 10.4557 7.22005 10.3678 7.16797 10.2676C7.11589 10.1673 7.08984 10.0501 7.08984 9.91602C7.08984 9.66341 7.17513 9.46484 7.3457 9.32031C7.51758 9.17578 7.75456 9.10352 8.05664 9.10352C8.20508 9.10352 8.34635 9.12109 8.48047 9.15625C8.61589 9.19141 8.75716 9.24089 8.9043 9.30469L8.70898 9.77539C8.55664 9.71289 8.43034 9.66927 8.33008 9.64453C8.23112 9.61979 8.13346 9.60742 8.03711 9.60742C7.92253 9.60742 7.83464 9.63411 7.77344 9.6875C7.71224 9.74089 7.68164 9.81055 7.68164 9.89648C7.68164 9.94987 7.69401 9.99674 7.71875 10.0371C7.74349 10.0762 7.78255 10.1146 7.83594 10.1523C7.89062 10.1888 8.01888 10.2552 8.2207 10.3516C8.48763 10.4792 8.67057 10.6074 8.76953 10.7363C8.86849 10.8639 8.91797 11.0208 8.91797 11.207ZM11.0645 9.14453H11.6758L10.7051 12H10.0449L9.07617 9.14453H9.6875L10.2246 10.8438C10.2546 10.944 10.2852 11.0612 10.3164 11.1953C10.349 11.3281 10.3691 11.4206 10.377 11.4727C10.3913 11.3529 10.4401 11.1432 10.5234 10.8438L11.0645 9.14453Z" fill="#2A3B51"/>
<path d="M8.6 1L14 5M8.6 1H3C2.44772 1 2 1.44772 2 2V14C2 14.5523 2.44772 15 3 15H13C13.5523 15 14 14.5523 14 14V5M8.6 1V4C8.6 4.55228 9.04772 5 9.6 5H14" stroke="#2A3B51" stroke-linejoin="round"/>
</svg>
