<svg width="16" height="16" viewBox="0 0 16 16" fill="none" xmlns="http://www.w3.org/2000/svg">
<path d="M8.6 1L14 5M8.6 1H3C2.44772 1 2 1.44772 2 2V14C2 14.5523 2.44772 15 3 15H13C13.5523 15 14 14.5523 14 14V5M8.6 1V4C8.6 4.55228 9.04772 5 9.6 5H14" stroke="#2A3B51" stroke-linejoin="round"/>
<path d="M4.63281 10.4883H4.83203C5.01823 10.4883 5.15755 10.4518 5.25 10.3789C5.34245 10.3047 5.38867 10.1973 5.38867 10.0566C5.38867 9.91471 5.34961 9.8099 5.27148 9.74219C5.19466 9.67448 5.07357 9.64062 4.9082 9.64062H4.63281V10.4883ZM6 10.0352C6 10.3424 5.90365 10.5775 5.71094 10.7402C5.51953 10.903 5.24674 10.9844 4.89258 10.9844H4.63281V12H4.02734V9.14453H4.93945C5.28581 9.14453 5.54883 9.2194 5.72852 9.36914C5.90951 9.51758 6 9.73958 6 10.0352ZM9.07227 12H8.30273L7.06055 9.83984H7.04297C7.06771 10.2214 7.08008 10.4935 7.08008 10.6562V12H6.53906V9.14453H7.30273L8.54297 11.2832H8.55664C8.53711 10.9121 8.52734 10.6497 8.52734 10.4961V9.14453H9.07227V12ZM10.877 10.3965H12.0098V11.877C11.8262 11.9368 11.653 11.9785 11.4902 12.002C11.3288 12.0267 11.1634 12.0391 10.9941 12.0391C10.5632 12.0391 10.2337 11.9128 10.0059 11.6602C9.7793 11.4062 9.66602 11.0423 9.66602 10.5684C9.66602 10.1074 9.79753 9.74805 10.0605 9.49023C10.3249 9.23242 10.6908 9.10352 11.1582 9.10352C11.4512 9.10352 11.7337 9.16211 12.0059 9.2793L11.8047 9.76367C11.5964 9.65951 11.3796 9.60742 11.1543 9.60742C10.8926 9.60742 10.6829 9.69531 10.5254 9.87109C10.3678 10.0469 10.2891 10.2832 10.2891 10.5801C10.2891 10.89 10.3522 11.127 10.4785 11.291C10.6061 11.4538 10.791 11.5352 11.0332 11.5352C11.1595 11.5352 11.2878 11.5221 11.418 11.4961V10.9004H10.877V10.3965Z" fill="#2A3B51"/>
</svg>
