<svg width="16" height="16" viewBox="0 0 16 16" fill="none" xmlns="http://www.w3.org/2000/svg">
<path d="M8.6 1L14 5M8.6 1H3C2.44772 1 2 1.44772 2 2V14C2 14.5523 2.44772 15 3 15H13C13.5523 15 14 14.5523 14 14V5M8.6 1V4C8.6 4.55228 9.04772 5 9.6 5H14" stroke="#2A3B51" stroke-linejoin="round"/>
<path d="M4.79492 12V9.14453H5.40039V12H4.79492ZM7.33203 9.60742C7.10417 9.60742 6.92773 9.69336 6.80273 9.86523C6.67773 10.0358 6.61523 10.2741 6.61523 10.5801C6.61523 11.2168 6.85417 11.5352 7.33203 11.5352C7.53255 11.5352 7.77539 11.485 8.06055 11.3848V11.8926C7.82617 11.9902 7.56445 12.0391 7.27539 12.0391C6.86003 12.0391 6.54232 11.9134 6.32227 11.6621C6.10221 11.4095 5.99219 11.0475 5.99219 10.5762C5.99219 10.2793 6.04622 10.0195 6.1543 9.79688C6.26237 9.57292 6.41732 9.40169 6.61914 9.2832C6.82227 9.16341 7.0599 9.10352 7.33203 9.10352C7.60938 9.10352 7.88802 9.17057 8.16797 9.30469L7.97266 9.79688C7.86589 9.74609 7.75846 9.70182 7.65039 9.66406C7.54232 9.6263 7.4362 9.60742 7.33203 9.60742ZM11.2031 12H10.4336L9.19141 9.83984H9.17383C9.19857 10.2214 9.21094 10.4935 9.21094 10.6562V12H8.66992V9.14453H9.43359L10.6738 11.2832H10.6875C10.668 10.9121 10.6582 10.6497 10.6582 10.4961V9.14453H11.2031V12Z" fill="#2A3B51"/>
</svg>
