<svg width="16" height="16" viewBox="0 0 16 16" fill="none" xmlns="http://www.w3.org/2000/svg">
<mask id="path-1-inside-1_93_1232" fill="white">
<path d="M14 4.80421V15.4667C14 15.7612 13.7934 16 13.5385 16H2.46154C2.20664 16 2 15.7612 2 15.4667V0.533333C2 0.238781 2.20664 0 2.46154 0H9.84253L9.84615 0.00419212L13.9964 4.8L14 4.80421Z"/>
</mask>
<path d="M5 7.5C4.72386 7.5 4.5 7.72386 4.5 8C4.5 8.27614 4.72386 8.5 5 8.5V7.5ZM10 8.5C10.2761 8.5 10.5 8.27614 10.5 8C10.5 7.72386 10.2761 7.5 10 7.5V8.5ZM5 9.78571C4.72386 9.78571 4.5 10.0096 4.5 10.2857C4.5 10.5619 4.72386 10.7857 5 10.7857V9.78571ZM10 10.7857C10.2761 10.7857 10.5 10.5619 10.5 10.2857C10.5 10.0096 10.2761 9.78571 10 9.78571V10.7857ZM5 12.0714C4.72386 12.0714 4.5 12.2953 4.5 12.5714C4.5 12.8476 4.72386 13.0714 5 13.0714V12.0714ZM9 13.0714C9.27614 13.0714 9.5 12.8476 9.5 12.5714C9.5 12.2953 9.27614 12.0714 9 12.0714V13.0714ZM14 5.3C14.2761 5.3 14.5 5.07614 14.5 4.8C14.5 4.52386 14.2761 4.3 14 4.3V5.3ZM10.3462 0C10.3462 -0.276142 10.1223 -0.5 9.84615 -0.5C9.57001 -0.5 9.34615 -0.276142 9.34615 0H10.3462ZM5 8.5H10V7.5H5V8.5ZM5 10.7857H10V9.78571H5V10.7857ZM5 13.0714H9V12.0714H5V13.0714ZM14 4.3H13.9964V5.3H14V4.3ZM13.9964 4.3H10.7692V5.3H13.9964V4.3ZM10.7692 4.3C10.5238 4.3 10.389 4.29929 10.298 4.28784C10.2109 4.27688 10.2755 4.2673 10.339 4.34032C10.3893 4.39818 10.3708 4.43401 10.3583 4.30398C10.3467 4.18342 10.3462 4.01166 10.3462 3.73333H9.34615C9.34615 3.99044 9.3456 4.21974 9.36287 4.39957C9.37923 4.56994 9.41844 4.80551 9.5841 4.99618C9.76292 5.202 10.0006 5.2583 10.1731 5.28001C10.3418 5.30123 10.5531 5.3 10.7692 5.3V4.3ZM10.3462 3.73333V0.00419212H9.34615V3.73333H10.3462ZM10.3462 0.00419212V0H9.34615V0.00419212H10.3462ZM13.9964 4.8L14.7526 4.14567L14.7525 4.14562L13.9964 4.8ZM9.84615 0.00419212L9.08998 0.658567L9.08998 0.658567L9.84615 0.00419212ZM14 4.80421H15C15 4.5639 14.9135 4.33162 14.7562 4.14989L14 4.80421ZM9.84253 0L10.5987 -0.654375C10.4087 -0.873871 10.1328 -1 9.84253 -1V0ZM15 15.4667V4.80421H13V15.4667H15ZM13.5385 17C14.4765 17 15 16.1729 15 15.4667H13C13 15.3819 13.0295 15.2808 13.1087 15.1894C13.1895 15.0959 13.3388 15 13.5385 15V17ZM2.46154 17H13.5385V15H2.46154V17ZM1 15.4667C1 16.1729 1.52352 17 2.46154 17V15C2.66124 15 2.81047 15.0959 2.89135 15.1894C2.97046 15.2808 3 15.3819 3 15.4667H1ZM1 0.533333V15.4667H3V0.533333H1ZM2.46154 -1C1.52352 -1 1 -0.17289 1 0.533333H3C3 0.618082 2.97046 0.719173 2.89135 0.810586C2.81047 0.904051 2.66124 1 2.46154 1V-1ZM9.84253 -1H2.46154V1H9.84253V-1ZM9.08636 0.654375L9.08998 0.658567L10.6023 -0.650183L10.5987 -0.654375L9.08636 0.654375ZM9.08998 0.658567L13.2402 5.45438L14.7525 4.14562L10.6023 -0.650183L9.08998 0.658567ZM13.2401 5.45433L13.2438 5.45854L14.7562 4.14989L14.7526 4.14567L13.2401 5.45433Z" fill="#2A3B51" mask="url(#path-1-inside-1_93_1232)"/>
</svg>
