<svg width="16" height="16" viewBox="0 0 16 16" fill="none" xmlns="http://www.w3.org/2000/svg">
<path d="M8.6 1L14 5M8.6 1H3C2.44772 1 2 1.44772 2 2V14C2 14.5523 2.44772 15 3 15H13C13.5523 15 14 14.5523 14 14V5M8.6 1V4C8.6 4.55228 9.04772 5 9.6 5H14" stroke="#2A3B51" stroke-linejoin="round"/>
<path d="M4.69336 12.8398C4.55664 12.8398 4.4375 12.8255 4.33594 12.7969V12.293C4.4401 12.319 4.53516 12.332 4.62109 12.332C4.75391 12.332 4.84896 12.2904 4.90625 12.207C4.96354 12.125 4.99219 11.9961 4.99219 11.8203V9.14453H5.59766V11.8164C5.59766 12.1497 5.52148 12.4036 5.36914 12.5781C5.2168 12.7526 4.99154 12.8398 4.69336 12.8398ZM6.92188 10.4883H7.12109C7.30729 10.4883 7.44661 10.4518 7.53906 10.3789C7.63151 10.3047 7.67773 10.1973 7.67773 10.0566C7.67773 9.91471 7.63867 9.8099 7.56055 9.74219C7.48372 9.67448 7.36263 9.64062 7.19727 9.64062H6.92188V10.4883ZM8.28906 10.0352C8.28906 10.3424 8.19271 10.5775 8 10.7402C7.80859 10.903 7.53581 10.9844 7.18164 10.9844H6.92188V12H6.31641V9.14453H7.22852C7.57487 9.14453 7.83789 9.2194 8.01758 9.36914C8.19857 9.51758 8.28906 9.73958 8.28906 10.0352ZM9.91211 10.3965H11.0449V11.877C10.8613 11.9368 10.6882 11.9785 10.5254 12.002C10.3639 12.0267 10.1986 12.0391 10.0293 12.0391C9.59831 12.0391 9.26888 11.9128 9.04102 11.6602C8.81445 11.4062 8.70117 11.0423 8.70117 10.5684C8.70117 10.1074 8.83268 9.74805 9.0957 9.49023C9.36003 9.23242 9.72591 9.10352 10.1934 9.10352C10.4863 9.10352 10.7689 9.16211 11.041 9.2793L10.8398 9.76367C10.6315 9.65951 10.4147 9.60742 10.1895 9.60742C9.92773 9.60742 9.7181 9.69531 9.56055 9.87109C9.40299 10.0469 9.32422 10.2832 9.32422 10.5801C9.32422 10.89 9.38737 11.127 9.51367 11.291C9.64128 11.4538 9.82617 11.5352 10.0684 11.5352C10.1947 11.5352 10.3229 11.5221 10.4531 11.4961V10.9004H9.91211V10.3965Z" fill="#2A3B51"/>
</svg>
