<svg width="16" height="16" viewBox="0 0 16 16" fill="none" xmlns="http://www.w3.org/2000/svg">
<path d="M8.6 1L14 5M8.6 1H3C2.44772 1 2 1.44772 2 2V14C2 14.5523 2.44772 15 3 15H13C13.5523 15 14 14.5523 14 14V5M8.6 1V4C8.6 4.55228 9.04772 5 9.6 5H14" stroke="#2A3B51" stroke-linejoin="round"/>
<path d="M7.5 8.5C7.22386 8.5 7 8.72386 7 9V10C7 10.2761 7.22386 10.5 7.5 10.5V11C7.5 11.2761 7.72386 11.5 8 11.5C8.27614 11.5 8.5 11.2761 8.5 11V10.5C8.77614 10.5 9 10.2761 9 10V9C9 8.72386 8.77614 8.5 8.5 8.5H7.5ZM6.5 8.18182H8H9.5C10.0669 8.18182 10.5 8.62357 10.5 9.13636V11.0455C10.5 11.5582 10.0669 12 9.5 12H6.5C5.9331 12 5.5 11.5582 5.5 11.0455V9.13636C5.5 8.62357 5.9331 8.18182 6.5 8.18182ZM8 7.18182H7V6.22727C7 6.11614 7.09731 6 7.25 6H8.75C8.90269 6 9 6.11614 9 6.22727V7.18182H8Z" stroke="#2A3B51" stroke-linecap="round" stroke-linejoin="round"/>
</svg>
