<svg width="16" height="16" viewBox="0 0 16 16" fill="none" xmlns="http://www.w3.org/2000/svg">
<path fill-rule="evenodd" clip-rule="evenodd" d="M2 2.5C2 1.67157 2.67157 1 3.5 1H8.275C8.3933 1 8.50777 1.04195 8.59806 1.11838L13.3231 5.11838C13.4353 5.21339 13.5 5.35297 13.5 5.5V9H12.5V6H9.275C8.44657 6 7.775 5.32843 7.775 4.5V2H3.5C3.22386 2 3 2.22386 3 2.5V14.5C3 14.7761 3.22386 15 3.5 15H8V16H3.5C2.67157 16 2 15.3284 2 14.5V2.5ZM8.775 2.57839L11.6355 5H9.275C8.99886 5 8.775 4.77614 8.775 4.5V2.57839ZM9.81235 9.60957C9.59672 9.43706 9.28207 9.47202 9.10957 9.68765C8.93706 9.90328 8.97202 10.2179 9.18765 10.3904L11.1996 12L9.18765 13.6096C8.97202 13.7821 8.93706 14.0967 9.10957 14.3123C9.28207 14.528 9.59672 14.5629 9.81235 14.3904L12 12.6403L14.1877 14.3904C14.4033 14.5629 14.7179 14.528 14.8904 14.3123C15.0629 14.0967 15.028 13.7821 14.8123 13.6096L12.8004 12L14.8123 10.3904C15.028 10.2179 15.0629 9.90328 14.8904 9.68765C14.7179 9.47202 14.4033 9.43706 14.1877 9.60957L12 11.3597L9.81235 9.60957Z" fill="#2A3B51"/>
</svg>
