<svg width="16" height="16" viewBox="0 0 16 16" fill="none" xmlns="http://www.w3.org/2000/svg">
<path d="M8.6 1L14 5M8.6 1H3C2.44772 1 2 1.44772 2 2V14C2 14.5523 2.44772 15 3 15H13C13.5523 15 14 14.5523 14 14V5M8.6 1V4C8.6 4.55228 9.04772 5 9.6 5H14" stroke="#2A3B51" stroke-linejoin="round"/>
<path d="M5.13086 10.4883H5.33008C5.51628 10.4883 5.6556 10.4518 5.74805 10.3789C5.84049 10.3047 5.88672 10.1973 5.88672 10.0566C5.88672 9.91471 5.84766 9.8099 5.76953 9.74219C5.69271 9.67448 5.57161 9.64062 5.40625 9.64062H5.13086V10.4883ZM6.49805 10.0352C6.49805 10.3424 6.40169 10.5775 6.20898 10.7402C6.01758 10.903 5.74479 10.9844 5.39062 10.9844H5.13086V12H4.52539V9.14453H5.4375C5.78385 9.14453 6.04688 9.2194 6.22656 9.36914C6.40755 9.51758 6.49805 9.73958 6.49805 10.0352ZM9.40625 10.5449C9.40625 11.015 9.27214 11.375 9.00391 11.625C8.73698 11.875 8.35091 12 7.8457 12H7.03711V9.14453H7.93359C8.39974 9.14453 8.76172 9.26758 9.01953 9.51367C9.27734 9.75977 9.40625 10.1035 9.40625 10.5449ZM8.77734 10.5605C8.77734 9.94727 8.50651 9.64062 7.96484 9.64062H7.64258V11.5H7.90234C8.48568 11.5 8.77734 11.1868 8.77734 10.5605ZM10.5938 12H9.99805V9.14453H11.6348V9.64062H10.5938V10.377H11.5625V10.8711H10.5938V12Z" fill="#2A3B51"/>
</svg>
