<svg width="16" height="16" viewBox="0 0 16 16" fill="none" xmlns="http://www.w3.org/2000/svg">
<mask id="path-1-inside-1_93_1222" fill="white">
<path d="M14 4.80421V15.4667C14 15.7612 13.7934 16 13.5385 16H2.46154C2.20664 16 2 15.7612 2 15.4667V0.533333C2 0.238781 2.20664 0 2.46154 0H9.84253L9.84615 0.00419212L13.9964 4.8L14 4.80421Z"/>
</mask>
<path d="M14 5.3C14.2761 5.3 14.5 5.07614 14.5 4.8C14.5 4.52386 14.2761 4.3 14 4.3V5.3ZM10.3462 0C10.3462 -0.276142 10.1223 -0.5 9.84615 -0.5C9.57001 -0.5 9.34615 -0.276142 9.34615 0H10.3462ZM9.28383 7.02839L9.66011 7.35765L9.66011 7.35765L9.28383 7.02839ZM10.8501 8.81875L11.2264 9.14801L11.2264 9.14801L10.8501 8.81875ZM8.67426 11.3053L8.29798 10.9761L8.29798 10.9761L8.67426 11.3053ZM8.21124 7.49488C8.02939 7.70269 8.05044 8.01857 8.25825 8.20042C8.46607 8.38227 8.78195 8.36122 8.9638 8.1534L8.21124 7.49488ZM7.98484 10.8518C7.80312 10.6439 7.48726 10.6226 7.27933 10.8043C7.0714 10.9861 7.05016 11.3019 7.23188 11.5099L7.98484 10.8518ZM6.71617 13.543L6.33989 13.2138L6.33989 13.2138L6.71617 13.543ZM5.14987 11.7527L4.77359 11.4234L4.77359 11.4234L5.14987 11.7527ZM7.32574 9.2661L6.94946 8.93684L6.94946 8.93684L7.32574 9.2661ZM7.78876 13.0766C7.97061 12.8687 7.94956 12.5529 7.74175 12.371C7.53393 12.1892 7.21805 12.2102 7.0362 12.418L7.78876 13.0766ZM8.01516 9.71964C8.19688 9.92756 8.51274 9.94881 8.72067 9.76709C8.9286 9.58537 8.94984 9.2695 8.76812 9.06158L8.01516 9.71964ZM14 4.3H13.9964V5.3H14V4.3ZM13.9964 4.3H10.7692V5.3H13.9964V4.3ZM10.7692 4.3C10.5238 4.3 10.389 4.29929 10.298 4.28784C10.2109 4.27688 10.2755 4.2673 10.339 4.34032C10.3893 4.39818 10.3708 4.43401 10.3583 4.30398C10.3467 4.18342 10.3462 4.01166 10.3462 3.73333H9.34615C9.34615 3.99044 9.3456 4.21974 9.36287 4.39957C9.37923 4.56994 9.41844 4.80551 9.5841 4.99618C9.76292 5.202 10.0006 5.2583 10.1731 5.28001C10.3418 5.30123 10.5531 5.3 10.7692 5.3V4.3ZM10.3462 3.73333V0.00419212H9.34615V3.73333H10.3462ZM10.3462 0.00419212V0H9.34615V0.00419212H10.3462ZM9.66011 7.35765C9.66812 7.34851 9.6635 7.35545 9.65337 7.35736C9.65095 7.35782 9.67291 7.35322 9.72716 7.37158C9.84352 7.41097 10.0095 7.52332 10.1692 7.70592C10.3262 7.88542 10.437 8.08715 10.4803 8.25422C10.5241 8.42343 10.4841 8.47775 10.4738 8.48949L11.2264 9.14801C11.5352 8.79517 11.5387 8.35226 11.4483 8.00348C11.3574 7.65257 11.1564 7.31556 10.9218 7.04748C10.69 6.78248 10.3846 6.53839 10.0478 6.42438C9.69049 6.30344 9.23805 6.32144 8.90755 6.69913L9.66011 7.35765ZM10.4738 8.48949L8.29798 10.9761L9.05054 11.6346L11.2264 9.14801L10.4738 8.48949ZM8.9638 8.1534L9.66011 7.35765L8.90755 6.69913L8.21124 7.49488L8.9638 8.1534ZM8.29798 10.9761C8.25009 11.0308 8.21993 11.0481 8.21186 11.052C8.20867 11.0535 8.21687 11.0502 8.22638 11.0513C8.23149 11.0519 8.21343 11.0513 8.16931 11.0224C8.12421 10.9929 8.0621 10.9402 7.98484 10.8518L7.23188 11.5099C7.4588 11.7695 7.75013 12.0025 8.11053 12.0445C8.50643 12.0907 8.82483 11.8925 9.05054 11.6346L8.29798 10.9761ZM6.33989 13.2138C6.33188 13.2229 6.3365 13.216 6.34663 13.2141C6.34905 13.2136 6.32709 13.2182 6.27284 13.1998C6.15648 13.1605 5.99054 13.0481 5.8308 12.8655C5.67376 12.686 5.56301 12.4843 5.51973 12.3172C5.4759 12.148 5.51588 12.0937 5.52616 12.0819L4.77359 11.4234C4.46485 11.7763 4.46134 12.2192 4.55168 12.5679C4.64257 12.9189 4.84364 13.2559 5.07817 13.524C5.31 13.7889 5.61539 14.033 5.95222 14.1471C6.30951 14.268 6.76195 14.25 7.09245 13.8723L6.33989 13.2138ZM5.52615 12.0819L7.70202 9.59536L6.94946 8.93684L4.77359 11.4234L5.52615 12.0819ZM7.0362 12.418L6.33989 13.2138L7.09245 13.8723L7.78876 13.0766L7.0362 12.418ZM7.70202 9.59536C7.74991 9.54064 7.78008 9.52332 7.78814 9.51945C7.79133 9.51792 7.78313 9.52126 7.77362 9.52015C7.76851 9.51955 7.78657 9.52008 7.83069 9.549C7.87579 9.57855 7.9379 9.63124 8.01516 9.71964L8.76812 9.06158C8.5412 8.80193 8.24987 8.56891 7.88947 8.52688C7.49357 8.4807 7.17517 8.6789 6.94946 8.93684L7.70202 9.59536ZM13.9964 4.8L14.7526 4.14567L14.7525 4.14562L13.9964 4.8ZM9.84615 0.00419212L9.08998 0.658567L9.08998 0.658567L9.84615 0.00419212ZM14 4.80421H15C15 4.5639 14.9135 4.33162 14.7562 4.14989L14 4.80421ZM9.84253 0L10.5987 -0.654375C10.4087 -0.873871 10.1328 -1 9.84253 -1V0ZM15 15.4667V4.80421H13V15.4667H15ZM13.5385 17C14.4765 17 15 16.1729 15 15.4667H13C13 15.3819 13.0295 15.2808 13.1087 15.1894C13.1895 15.096 13.3388 15 13.5385 15V17ZM2.46154 17H13.5385V15H2.46154V17ZM1 15.4667C1 16.1729 1.52352 17 2.46154 17V15C2.66124 15 2.81047 15.0959 2.89135 15.1894C2.97046 15.2808 3 15.3819 3 15.4667H1ZM1 0.533333V15.4667H3V0.533333H1ZM2.46154 -1C1.52352 -1 1 -0.17289 1 0.533333H3C3 0.618082 2.97046 0.719173 2.89135 0.810586C2.81047 0.904051 2.66124 1 2.46154 1V-1ZM9.84253 -1H2.46154V1H9.84253V-1ZM9.08636 0.654375L9.08998 0.658567L10.6023 -0.650183L10.5987 -0.654375L9.08636 0.654375ZM9.08998 0.658567L13.2402 5.45438L14.7525 4.14562L10.6023 -0.650183L9.08998 0.658567ZM13.2401 5.45433L13.2438 5.45854L14.7562 4.14989L14.7526 4.14567L13.2401 5.45433Z" fill="#2A3B51" mask="url(#path-1-inside-1_93_1222)"/>
</svg>
