<svg width="16" height="16" viewBox="0 0 16 16" fill="none" xmlns="http://www.w3.org/2000/svg">
<path d="M14 5.2H13.9964M13.9964 5.2H10.7692C9.84615 5.2 9.84615 5.20369 9.84615 4.26667V1.00367M13.9964 5.2L9.84615 1.00367M13.9964 5.2L14 5.20369V14.5333C14 14.7911 13.7934 15 13.5385 15H2.46154C2.20664 15 2 14.7911 2 14.5333V1.46667C2 1.20893 2.20664 1 2.46154 1H9.84253L9.84615 1.00367M9.84615 1.00367V1M8.58752 7.84612L9.28383 7.14984C9.92189 6.51182 11.4882 8.07838 10.8501 8.71641L8.67426 10.8922C8.35503 11.2114 7.99998 11.1753 7.60836 10.7832M7.41248 12.1539L6.71617 12.8502C6.07811 13.4882 4.51183 11.9216 5.14987 11.2836L7.32574 9.10784C7.64497 8.78863 8.00002 8.8247 8.39164 9.21678" stroke="black" stroke-linecap="round" stroke-linejoin="round"/>
</svg>
