<svg width="16" height="16" viewBox="0 0 16 16" fill="none" xmlns="http://www.w3.org/2000/svg">
<path d="M5.37651 14.0651V7.95271L6.37651 9.03604V13.9085L9.39048 12.3012L10.0915 13.0606L6.64278 14.8998C6.06101 15.21 5.37651 14.7588 5.37651 14.0651Z" fill="#2A3B51"/>
<path d="M9.62633 8.13373L10.6263 9.21706V7.87042L14.7984 2.53065C15.2733 1.92282 14.868 1 14.1262 1H3.04135L3.96443 2H13.944L9.62633 7.52608V8.13373Z" fill="#2A3B51"/>
<path d="M2.35355 1.64645C2.15829 1.45118 1.84171 1.45118 1.64645 1.64645C1.45118 1.84171 1.45118 2.15829 1.64645 2.35355L13.6464 14.3536C13.8417 14.5488 14.1583 14.5488 14.3536 14.3536C14.5488 14.1583 14.5488 13.8417 14.3536 13.6464L2.35355 1.64645Z" fill="#2A3B51"/>
</svg>
