<svg width="16" height="16" viewBox="0 0 16 16" fill="none" xmlns="http://www.w3.org/2000/svg">
<path fill-rule="evenodd" clip-rule="evenodd" d="M2.44419 2.00308C2.49558 1.97029 2.5507 1.94213 2.60916 1.91929C3.48557 1.57683 5.09594 1 6 1C6.64286 1 7.32143 1.58333 8 2.16667C8.67857 2.75 9.35714 3.33333 10 3.33333C10.6692 3.33333 11.7255 3.01725 12.5846 2.71413C13.262 2.4751 14 2.96658 14 3.68495V8.50803C14 8.90767 13.7631 9.26859 13.3908 9.41404C12.5144 9.7565 10.9041 10.3333 10 10.3333C9.35714 10.3333 8.67857 9.75 8 9.16667C7.32143 8.58333 6.64286 8 6 8C5.33077 8 4.2745 8.31608 3.41542 8.6192C3.27721 8.66797 3.13647 8.68633 3 8.67856V15.5C3 15.7761 2.77614 16 2.5 16C2.22386 16 2 15.7761 2 15.5V2.5C2 2.24272 2.19431 2.03083 2.44419 2.00308ZM13 3.68495V8.49311C12.5767 8.658 11.9955 8.87165 11.4192 9.04406C10.8017 9.22878 10.2943 9.33333 10 9.33333C9.96946 9.33333 9.83869 9.31344 9.56034 9.13158C9.29121 8.95575 9.00372 8.7108 8.65189 8.40835L8.62719 8.38711C8.30553 8.11055 7.92402 7.78252 7.53356 7.52742C7.14226 7.27177 6.61231 7 6 7C5.537 7 5.00765 7.1047 4.5301 7.22738C4.03651 7.35418 3.52775 7.51915 3.08269 7.67618C3.07061 7.68045 3.06088 7.68101 3.05104 7.67959C3.03947 7.67792 3.02666 7.67314 3.01545 7.66553C3.00574 7.65893 3.00138 7.65309 3.00009 7.65112L3 7.64838V2.84022C3.42334 2.67533 4.00448 2.46168 4.58081 2.28927C5.1983 2.10455 5.70567 2 6 2C6.03054 2 6.16131 2.0199 6.43966 2.20175C6.70879 2.37758 6.99628 2.62253 7.34811 2.92498L7.37281 2.94621C7.69446 3.22278 8.07598 3.55081 8.46644 3.80592C8.85774 4.06156 9.38769 4.33333 10 4.33333C10.463 4.33333 10.9924 4.22863 11.4699 4.10595C11.9635 3.97916 12.4722 3.81419 12.9173 3.65715C12.9294 3.65289 12.9391 3.65233 12.949 3.65374C12.9605 3.65541 12.9733 3.6602 12.9845 3.6678C12.9943 3.6744 12.9986 3.68024 12.9999 3.68221L13 3.68495Z" fill="black"/>
</svg>
