<svg width="16" height="16" viewBox="0 0 16 16" fill="none" xmlns="http://www.w3.org/2000/svg">
<path fill-rule="evenodd" clip-rule="evenodd" d="M4.95377 1.16795C5.23197 0.750652 5.70032 0.5 6.20185 0.5H8C8.82843 0.5 9.5 1.17157 9.5 2V8C9.5 8.82843 8.82843 9.5 8 9.5H2C1.17157 9.5 0.5 8.82843 0.5 8V4C0.5 3.17157 1.17157 2.5 2 2.5H3.79815C3.96533 2.5 4.12144 2.41645 4.21417 2.27735L4.95377 1.16795ZM6.20185 1.5C6.03467 1.5 5.87856 1.58355 5.78583 1.72265L5.04623 2.83205C4.76803 3.24935 4.29968 3.5 3.79815 3.5H2C1.72386 3.5 1.5 3.72386 1.5 4V8C1.5 8.27614 1.72386 8.5 2 8.5H8C8.27614 8.5 8.5 8.27614 8.5 8V2C8.5 1.72386 8.27614 1.5 8 1.5H6.20185ZM10.9538 7.16795C11.232 6.75065 11.7003 6.5 12.2018 6.5H14C14.8284 6.5 15.5 7.17157 15.5 8V14C15.5 14.8284 14.8284 15.5 14 15.5H8C7.17157 15.5 6.5 14.8284 6.5 14V10C6.5 9.17157 7.17157 8.5 8 8.5H9.79815C9.96533 8.5 10.1214 8.41645 10.2142 8.27735L10.9538 7.16795ZM12.2018 7.5C12.0347 7.5 11.8786 7.58355 11.7858 7.72265L11.0462 8.83205C10.768 9.24935 10.2997 9.5 9.79815 9.5H8C7.72386 9.5 7.5 9.72386 7.5 10V14C7.5 14.2761 7.72386 14.5 8 14.5H14C14.2761 14.5 14.5 14.2761 14.5 14V8C14.5 7.72386 14.2761 7.5 14 7.5H12.2018Z" fill="black"/>
</svg>
