<svg width="16" height="16" viewBox="0 0 16 16" fill="none" xmlns="http://www.w3.org/2000/svg">
<path fill-rule="evenodd" clip-rule="evenodd" d="M1.42857 12C1.19188 12 1 11.8081 1 11.5714L1.03944 5.61941C1.03944 5.38272 1.23132 5.19084 1.46801 5.19084H4.14341C4.23172 5.19084 4.31643 5.16364 4.38704 5.11486C4.43561 5.0813 4.47799 5.03974 4.52039 4.99816C4.55507 4.96415 4.58977 4.93012 4.62788 4.90045L5.41156 4.29039C5.44967 4.26072 5.48437 4.2267 5.51905 4.19268C5.56145 4.1511 5.60383 4.10954 5.6524 4.07598C5.72301 4.0272 5.80772 4 5.89603 4H8.57143C8.80812 4 9 4.19188 9 4.42857V11.5714C9 11.8081 8.80812 12 8.57143 12H1.42857ZM2.00381 11L2.03567 6.19084H4.14341C4.43785 6.19084 4.72028 6.10007 4.95543 5.93762C5.07363 5.85596 5.16474 5.76678 5.20459 5.72778L5.22552 5.70728C5.23806 5.69499 5.24384 5.68933 5.2507 5.68289L6.02583 5.07949C6.06193 5.05138 6.09382 5.0241 6.12069 5H8V11H2.00381Z" fill="black"/>
<path d="M10 4.5C9.72386 4.5 9.5 4.72386 9.5 5C9.5 5.27614 9.72386 5.5 10 5.5H15C15.2761 5.5 15.5 5.27614 15.5 5C15.5 4.72386 15.2761 4.5 15 4.5H10Z" fill="black"/>
<path d="M10 7.5C9.72386 7.5 9.5 7.72386 9.5 8C9.5 8.27614 9.72386 8.5 10 8.5H15C15.2761 8.5 15.5 8.27614 15.5 8C15.5 7.72386 15.2761 7.5 15 7.5H10Z" fill="black"/>
<path d="M10 10.5C9.72386 10.5 9.5 10.7239 9.5 11C9.5 11.2761 9.72386 11.5 10 11.5H15C15.2761 11.5 15.5 11.2761 15.5 11C15.5 10.7239 15.2761 10.5 15 10.5H10Z" fill="black"/>
</svg>
