<svg width="16" height="16" viewBox="0 0 16 16" fill="none" xmlns="http://www.w3.org/2000/svg">
<path d="M6.11573 1.5H8C8.27614 1.5 8.5 1.72386 8.5 2V6C8.5 6.27614 8.27614 6.5 8 6.5H2C1.72386 6.5 1.5 6.27614 1.5 6V3.5C1.5 3.22386 1.72386 3 2 3H3.88427C4.31272 3 4.72073 2.81678 5.00538 2.49655L5.74203 1.66782L5.36832 1.33564L5.74203 1.66782C5.83691 1.56107 5.97291 1.5 6.11573 1.5ZM12.1157 9.5H14C14.2761 9.5 14.5 9.72386 14.5 10V14C14.5 14.2761 14.2761 14.5 14 14.5H8C7.72386 14.5 7.5 14.2761 7.5 14V11.5C7.5 11.2239 7.72386 11 8 11H9.88427C10.3127 11 10.7207 10.8168 11.0054 10.4965L11.742 9.66782C11.8369 9.56107 11.9729 9.5 12.1157 9.5Z" stroke="#2A3B51" stroke-linecap="round" stroke-linejoin="round"/>
</svg>
