<svg width="16" height="16" viewBox="0 0 16 16" fill="none" xmlns="http://www.w3.org/2000/svg">
<path d="M8.5 13H1V5M1 1V5M1 5H8.5M14.5714 1H12.6775C12.5639 1 12.4548 1.04515 12.3745 1.12553L11.6255 1.87447C11.5452 1.95485 11.4361 2 11.3225 2H9.42857C9.19188 2 9 2.19188 9 2.42857V6.57143C9 6.80812 9.19188 7 9.42857 7H14.5714C14.8081 7 15 6.80812 15 6.57143V1.42857C15 1.19188 14.8081 1 14.5714 1ZM14.5714 9H12.6775C12.5639 9 12.4548 9.04515 12.3745 9.12553L11.6255 9.87447C11.5452 9.95485 11.4361 10 11.3225 10H9.42857C9.19188 10 9 10.1919 9 10.4286V14.5714C9 14.8081 9.19188 15 9.42857 15H14.5714C14.8081 15 15 14.8081 15 14.5714V9.42857C15 9.19188 14.8081 9 14.5714 9Z" stroke="black" stroke-linecap="round" stroke-linejoin="round"/>
</svg>
