<svg width="16" height="16" viewBox="0 0 16 16" fill="none" xmlns="http://www.w3.org/2000/svg">
<g style="mix-blend-mode:multiply">
<path fill-rule="evenodd" clip-rule="evenodd" d="M1.78979 13.9779C1.85757 13.9924 1.92789 14 2 14H14C14.5523 14 15 13.5523 15 13V3C15 2.62593 14.7946 2.29983 14.4904 2.12833L13.5562 3H14V13L2.83789 13L1.78979 13.9779ZM12.0903 3H9.49453L7.68963 4.32605C7.34633 4.57827 6.93146 4.71429 6.50547 4.71429H2L2 12.4141L1.04685 13.3034C1.01642 13.2077 1 13.1058 1 13V4.71429C1 4.162 1.44772 3.71429 2 3.71429H6.50547C6.71847 3.71429 6.9259 3.64628 7.09755 3.52017L8.90245 2.19412C9.0741 2.06801 9.28153 2 9.49453 2H13.1621L12.0903 3Z" fill="#2A3B51"/>
</g>
<rect x="2.15219" y="12.2721" width="13.5923" height="1" transform="rotate(-43.0144 2.15219 12.2721)" fill="#2A3B51"/>
</svg>
