<svg width="16" height="16" viewBox="0 0 16 16" fill="none" xmlns="http://www.w3.org/2000/svg">
<path d="M6 6.5C6.27614 6.5 6.5 6.27614 6.5 6V3.00395C6.50048 3.0671 6.51294 3.13071 6.53806 3.19134C6.61545 3.37818 6.79777 3.5 7 3.5H9C9.20223 3.5 9.38455 3.37818 9.46194 3.19134C9.48705 3.13071 9.49951 3.0671 9.5 3.00395V6C9.5 6.27614 9.72386 6.5 10 6.5H12.9961C12.9329 6.50048 12.8693 6.51294 12.8087 6.53806C12.6218 6.61545 12.5 6.79777 12.5 7V9C12.5 9.20223 12.6218 9.38455 12.8087 9.46194C12.8693 9.48705 12.9329 9.49951 12.996 9.5H10C9.72386 9.5 9.5 9.72386 9.5 10V12.996C9.49951 12.9329 9.48705 12.8693 9.46194 12.8087C9.38455 12.6218 9.20223 12.5 9 12.5H7C6.79777 12.5 6.61545 12.6218 6.53806 12.8087C6.51294 12.8693 6.50048 12.9329 6.5 12.9961V10C6.5 9.72386 6.27614 9.5 6 9.5H3.00395C3.0671 9.49951 3.13071 9.48705 3.19134 9.46194C3.37818 9.38455 3.5 9.20223 3.5 9V7C3.5 6.79777 3.37818 6.61545 3.19134 6.53806C3.13071 6.51294 3.0671 6.50048 3.00395 6.5H6ZM6.64645 2.64645C6.55174 2.74116 6.50099 2.86748 6.5 2.99627V1.5H7.99988C7.87196 1.50003 7.74405 1.54885 7.64645 1.64645L6.64645 2.64645ZM9.5 1.5V2.99627C9.49901 2.86748 9.44826 2.74116 9.35355 2.64645L8.35355 1.64645C8.25595 1.54885 8.12804 1.50003 8.00012 1.5H9.5ZM13.0037 6.5H14.5V7.99951C14.4999 7.87171 14.4511 7.74395 14.3536 7.64645L13.3536 6.64645C13.2588 6.55174 13.1325 6.50099 13.0037 6.5ZM14.5 8.00049V9.5H13.0037C13.1325 9.49901 13.2588 9.44826 13.3536 9.35355L14.3536 8.35355C14.4511 8.25605 14.4999 8.12829 14.5 8.00049ZM9.5 13.0037V14.5H8.00049C8.12829 14.4999 8.25605 14.4511 8.35355 14.3536L9.35355 13.3536C9.44826 13.2588 9.49901 13.1325 9.5 13.0037ZM7.99951 14.5H6.5V13.0037C6.50099 13.1325 6.55174 13.2588 6.64645 13.3536L7.64645 14.3536C7.74395 14.4511 7.87171 14.4999 7.99951 14.5ZM2.99627 9.5H1.5V8.00012C1.50003 8.12804 1.54885 8.25595 1.64645 8.35355L2.64645 9.35355C2.74116 9.44826 2.86748 9.49901 2.99627 9.5ZM1.5 7.99988V6.5H2.99627C2.86748 6.50099 2.74116 6.55174 2.64645 6.64645L1.64645 7.64645C1.54885 7.74405 1.50003 7.87196 1.5 7.99988Z" stroke="#2A3B51" stroke-linecap="round" stroke-linejoin="round"/>
</svg>
