<svg width="16" height="16" viewBox="0 0 16 16" fill="none" xmlns="http://www.w3.org/2000/svg">
<path fill-rule="evenodd" clip-rule="evenodd" d="M2 8L2.70711 8.70711L3 9V8.41421V7.58579V7L2.70711 7.29289L2 8ZM8.70711 2.70711L9 3H8.41421H7.58579H7L7.29289 2.70711L8 2L8.70711 2.70711ZM13.2929 8.70711L13 9V8.41421V7.58579V7L13.2929 7.29289L14 8L13.2929 8.70711ZM8 14L8.70711 13.2929L9 13H8.41421H7.58579H7L7.29289 13.2929L8 14Z" fill="#2A3B51"/>
<path d="M2.70711 8.70711L3.06066 8.35355H3.06066L2.70711 8.70711ZM2 8L1.64645 7.64645C1.55268 7.74021 1.5 7.86739 1.5 8C1.5 8.13261 1.55268 8.25979 1.64645 8.35355L2 8ZM3 9L2.64645 9.35355C2.78945 9.49655 3.0045 9.53933 3.19134 9.46194C3.37818 9.38455 3.5 9.20223 3.5 9H3ZM3 7H3.5C3.5 6.79777 3.37818 6.61545 3.19134 6.53806C3.0045 6.46067 2.78945 6.50345 2.64645 6.64645L3 7ZM2.70711 7.29289L3.06066 7.64645H3.06066L2.70711 7.29289ZM9 3V3.5C9.20223 3.5 9.38455 3.37818 9.46194 3.19134C9.53933 3.0045 9.49655 2.78945 9.35355 2.64645L9 3ZM8.70711 2.70711L8.35355 3.06066V3.06066L8.70711 2.70711ZM7 3L6.64645 2.64645C6.50345 2.78945 6.46067 3.0045 6.53806 3.19134C6.61545 3.37818 6.79777 3.5 7 3.5V3ZM7.29289 2.70711L7.64645 3.06066V3.06066L7.29289 2.70711ZM8 2L8.35355 1.64645C8.25979 1.55268 8.13261 1.5 8 1.5C7.86739 1.5 7.74021 1.55268 7.64645 1.64645L8 2ZM13 9H12.5C12.5 9.20223 12.6218 9.38455 12.8087 9.46194C12.9955 9.53933 13.2106 9.49655 13.3536 9.35355L13 9ZM13 7L13.3536 6.64645C13.2106 6.50345 12.9955 6.46067 12.8087 6.53806C12.6218 6.61545 12.5 6.79777 12.5 7H13ZM14 8L14.3536 8.35355C14.5488 8.15829 14.5488 7.84171 14.3536 7.64645L14 8ZM8 14L7.64645 14.3536C7.84171 14.5488 8.15829 14.5488 8.35355 14.3536L8 14ZM9 13L9.35355 13.3536C9.49655 13.2106 9.53933 12.9955 9.46194 12.8087C9.38455 12.6218 9.20223 12.5 9 12.5V13ZM7 13V12.5C6.79777 12.5 6.61545 12.6218 6.53806 12.8087C6.46067 12.9955 6.50345 13.2106 6.64645 13.3536L7 13ZM3.06066 8.35355L2.35355 7.64645L1.64645 8.35355L2.35355 9.06066L3.06066 8.35355ZM3.35355 8.64645L3.06066 8.35355L2.35355 9.06066L2.64645 9.35355L3.35355 8.64645ZM2.5 8.41421V9H3.5V8.41421H2.5ZM2.5 7.58579V8.41421H3.5V7.58579H2.5ZM2.5 7V7.58579H3.5V7H2.5ZM3.06066 7.64645L3.35355 7.35355L2.64645 6.64645L2.35355 6.93934L3.06066 7.64645ZM2.35355 8.35355L3.06066 7.64645L2.35355 6.93934L1.64645 7.64645L2.35355 8.35355ZM9.35355 2.64645L9.06066 2.35355L8.35355 3.06066L8.64645 3.35355L9.35355 2.64645ZM8.41421 3.5H9V2.5H8.41421V3.5ZM7.58579 3.5H8.41421V2.5H7.58579V3.5ZM7 3.5H7.58579V2.5H7V3.5ZM6.93934 2.35355L6.64645 2.64645L7.35355 3.35355L7.64645 3.06066L6.93934 2.35355ZM7.64645 1.64645L6.93934 2.35355L7.64645 3.06066L8.35355 2.35355L7.64645 1.64645ZM9.06066 2.35355L8.35355 1.64645L7.64645 2.35355L8.35355 3.06066L9.06066 2.35355ZM13.3536 9.35355L13.6464 9.06066L12.9393 8.35355L12.6464 8.64645L13.3536 9.35355ZM12.5 8.41421V9H13.5V8.41421H12.5ZM12.5 7.58579V8.41421H13.5V7.58579H12.5ZM12.5 7V7.58579H13.5V7H12.5ZM13.6464 6.93934L13.3536 6.64645L12.6464 7.35355L12.9393 7.64645L13.6464 6.93934ZM14.3536 7.64645L13.6464 6.93934L12.9393 7.64645L13.6464 8.35355L14.3536 7.64645ZM13.6464 9.06066L14.3536 8.35355L13.6464 7.64645L12.9393 8.35355L13.6464 9.06066ZM8.35355 12.9393L7.64645 13.6464L8.35355 14.3536L9.06066 13.6464L8.35355 12.9393ZM8.64645 12.6464L8.35355 12.9393L9.06066 13.6464L9.35355 13.3536L8.64645 12.6464ZM8.41421 13.5H9V12.5H8.41421V13.5ZM7.58579 13.5H8.41421V12.5H7.58579V13.5ZM7 13.5H7.58579V12.5H7V13.5ZM7.64645 12.9393L7.35355 12.6464L6.64645 13.3536L6.93934 13.6464L7.64645 12.9393ZM8.35355 13.6464L7.64645 12.9393L6.93934 13.6464L7.64645 14.3536L8.35355 13.6464Z" fill="#2A3B51"/>
</svg>
