<svg width="16" height="16" viewBox="0 0 16 16" fill="none" xmlns="http://www.w3.org/2000/svg">
<path d="M7.27371 3.16374L7.62954 3.11593L7.69796 2.76348L7.93635 1.53561C7.93705 1.53202 7.93956 1.52458 7.95034 1.51602C7.96134 1.50729 7.97825 1.5 8 1.5C8.02175 1.5 8.03866 1.50729 8.04966 1.51602C8.06044 1.52459 8.06296 1.53202 8.06365 1.53561L8.30204 2.76348L8.37046 3.11593L8.72629 3.16374C9.3297 3.2448 9.89877 3.42541 10.415 3.68715L10.7218 3.84274L10.9768 3.61173L11.9252 2.75244C11.9353 2.7433 11.9512 2.73553 11.972 2.73422C11.9929 2.73291 12.011 2.73861 12.0241 2.7477C12.0366 2.75632 12.04 2.76452 12.041 2.76848C12.0413 2.76934 12.0414 2.77013 12.0415 2.77086C12.0417 2.77209 12.0417 2.77314 12.0416 2.77403C12.0415 2.77525 12.0411 2.77741 12.0394 2.78088L11.476 3.90868L11.3084 4.24436L11.5838 4.49916C12.008 4.8915 12.3602 5.35194 12.6215 5.86072L12.7814 6.17204L13.1287 6.1284L14.4248 5.96552C14.4461 5.96283 14.465 5.9678 14.4789 5.97617C14.4926 5.98443 14.4974 5.99316 14.499 5.99795C14.5 6.00084 14.5 6.00256 14.5 6.00371C14.4999 6.00509 14.4996 6.00722 14.4984 6.01004C14.4963 6.01525 14.4904 6.0246 14.475 6.03259L13.3258 6.62839L12.9979 6.79839L13.064 7.16175C13.1135 7.43378 13.1393 7.71382 13.1393 8C13.1393 8.28618 13.1135 8.56622 13.064 8.83825L12.9979 9.20161L13.3258 9.37161L14.475 9.96741C14.4904 9.9754 14.4963 9.98475 14.4984 9.98996C14.4996 9.99278 14.4999 9.99491 14.5 9.99629C14.5 9.99744 14.5 9.99916 14.499 10.002C14.4974 10.0068 14.4926 10.0156 14.4789 10.0238C14.465 10.0322 14.4461 10.0372 14.4248 10.0345L13.1287 9.8716L12.7814 9.82796L12.6215 10.1393C12.3602 10.6481 12.008 11.1085 11.5838 11.5008L11.3084 11.7556L11.476 12.0913L12.0394 13.2191C12.0411 13.2226 12.0415 13.2248 12.0416 13.226C12.0417 13.2274 12.0417 13.2292 12.041 13.2315C12.04 13.2355 12.0366 13.2437 12.0241 13.2523C12.011 13.2614 11.9929 13.2671 11.972 13.2658C11.9512 13.2645 11.9353 13.2567 11.9252 13.2476L10.9768 12.3883L10.7218 12.1573L10.415 12.3129C9.89877 12.5746 9.3297 12.7552 8.72629 12.8363L8.37046 12.8841L8.30204 13.2365L8.06365 14.4644C8.06296 14.468 8.06044 14.4754 8.04966 14.484C8.03866 14.4927 8.02175 14.5 8 14.5C7.97825 14.5 7.96134 14.4927 7.95034 14.484C7.93956 14.4754 7.93705 14.468 7.93635 14.4644L7.69796 13.2365L7.62954 12.8841L7.27371 12.8363C6.6703 12.7552 6.10123 12.5746 5.58503 12.3129L5.27817 12.1573L5.0232 12.3883L4.07479 13.2476C4.0647 13.2567 4.04884 13.2645 4.02799 13.2658C4.00712 13.2671 3.98897 13.2614 3.97586 13.2523C3.96345 13.2437 3.96001 13.2355 3.95896 13.2315C3.95834 13.2292 3.95828 13.2274 3.95842 13.226C3.95853 13.2248 3.9589 13.2226 3.96063 13.2191L4.52396 12.0913L4.69164 11.7556L4.41617 11.5008C3.992 11.1085 3.63976 10.6481 3.37846 10.1393L3.21858 9.82796L2.87134 9.8716L1.57525 10.0345C1.55388 10.0372 1.53498 10.0322 1.5211 10.0238C1.50739 10.0156 1.50265 10.0068 1.50102 10.002C1.50004 9.99916 1.49996 9.99744 1.50001 9.99629C1.50006 9.99491 1.50039 9.99278 1.50157 9.98996C1.50374 9.98475 1.50964 9.9754 1.52505 9.96741L2.67419 9.37161L3.00207 9.20161L2.93598 8.83825C2.8865 8.56622 2.86066 8.28618 2.86066 8C2.86066 7.71382 2.8865 7.43378 2.93598 7.16175L3.00207 6.79839L2.67419 6.62839L1.52505 6.03259C1.50964 6.0246 1.50374 6.01525 1.50157 6.01004C1.50039 6.00722 1.50006 6.00509 1.50001 6.00371C1.49996 6.00256 1.50004 6.00084 1.50102 5.99796C1.50265 5.99316 1.50739 5.98443 1.5211 5.97617C1.53498 5.9678 1.55388 5.96283 1.57525 5.96552L2.87134 6.1284L3.21858 6.17204L3.37846 5.86072C3.63976 5.35194 3.992 4.8915 4.41617 4.49916L4.69164 4.24436L4.52396 3.90868L3.96063 2.78088C3.9589 2.77741 3.95853 2.77525 3.95842 2.77403C3.95828 2.77261 3.95834 2.77078 3.95896 2.76848C3.96001 2.76452 3.96345 2.75632 3.97586 2.7477C3.98897 2.73861 4.00712 2.73291 4.02799 2.73422C4.04884 2.73553 4.0647 2.7433 4.07479 2.75244L4.41051 2.38191L4.07479 2.75244L5.0232 3.61173L5.27817 3.84274L5.58503 3.68715C6.10123 3.42541 6.6703 3.2448 7.27371 3.16374Z" stroke="#2A3B51"/>
</svg>
