<svg width="16" height="16" viewBox="0 0 16 16" fill="none" xmlns="http://www.w3.org/2000/svg">
<mask id="path-1-inside-1_96_1573" fill="white">
<path d="M14 6.09524C14 9.46155 11.75 12.9524 8 16C4.25 12.9524 2 8.7619 2 6.09524C2 2.72893 4.68629 0 8 0C11.3137 0 14 2.72893 14 6.09524Z"/>
</mask>
<path d="M8 7.5C7.72386 7.5 7.5 7.27614 7.5 7H6.5C6.5 7.82843 7.17157 8.5 8 8.5V7.5ZM8.5 7C8.5 7.27614 8.27614 7.5 8 7.5V8.5C8.82843 8.5 9.5 7.82843 9.5 7H8.5ZM8 6.5C8.27614 6.5 8.5 6.72386 8.5 7H9.5C9.5 6.17157 8.82843 5.5 8 5.5V6.5ZM8 5.5C7.17157 5.5 6.5 6.17157 6.5 7H7.5C7.5 6.72386 7.72386 6.5 8 6.5V5.5ZM8 16L7.36931 16.776L8 17.2886L8.63069 16.776L8 16ZM13 6.09524C13 9.01956 11.023 12.2546 7.36931 15.224L8.63069 16.776C12.477 13.6501 15 9.90353 15 6.09524H13ZM8.63069 15.224C6.85016 13.7769 5.42838 12.0596 4.45679 10.3996C3.47344 8.71956 3 7.18339 3 6.09524H1C1 7.67375 1.65156 9.56616 2.73071 11.4099C3.82162 13.2737 5.39984 15.1755 7.36931 16.776L8.63069 15.224ZM3 6.09524C3 3.26631 5.25336 1 8 1V-1C4.11922 -1 1 2.19155 1 6.09524H3ZM8 1C10.7466 1 13 3.26631 13 6.09524H15C15 2.19155 11.8808 -1 8 -1V1Z" fill="black" mask="url(#path-1-inside-1_96_1573)"/>
</svg>
