<svg width="16" height="18" viewBox="0 0 16 18" fill="none" xmlns="http://www.w3.org/2000/svg">
<path d="M8 17L7.68466 17.388L8 17.6443L8.31534 17.388L8 17ZM13.5 7.09524C13.5 10.2406 11.3865 13.6035 7.68466 16.612L8.31534 17.388C12.1135 14.3013 14.5 10.6825 14.5 7.09524H13.5ZM8.31534 16.612C6.48758 15.1266 5.02669 13.3631 4.02527 11.6522C3.01797 9.93121 2.5 8.30598 2.5 7.09524H1.5C1.5 8.55116 2.10703 10.3545 3.16223 12.1573C4.22331 13.9702 5.76242 15.8258 7.68466 17.388L8.31534 16.612ZM2.5 7.09524C2.5 3.99762 4.96983 1.5 8 1.5V0.5C4.40275 0.5 1.5 3.46024 1.5 7.09524H2.5ZM8 1.5C11.0302 1.5 13.5 3.99762 13.5 7.09524H14.5C14.5 3.46024 11.5972 0.5 8 0.5V1.5ZM8 8.5C7.72386 8.5 7.5 8.27614 7.5 8H6.5C6.5 8.82843 7.17157 9.5 8 9.5V8.5ZM8.5 8C8.5 8.27614 8.27614 8.5 8 8.5V9.5C8.82843 9.5 9.5 8.82843 9.5 8H8.5ZM8 7.5C8.27614 7.5 8.5 7.72386 8.5 8H9.5C9.5 7.17157 8.82843 6.5 8 6.5V7.5ZM8 6.5C7.17157 6.5 6.5 7.17157 6.5 8H7.5C7.5 7.72386 7.72386 7.5 8 7.5V6.5Z" fill="black"/>
</svg>
