<svg width="16" height="16" viewBox="0 0 16 16" fill="none" xmlns="http://www.w3.org/2000/svg">
<path fill-rule="evenodd" clip-rule="evenodd" d="M8 15C11.866 15 15 11.866 15 8C15 4.13401 11.866 1 8 1C4.13401 1 1 4.13401 1 8C1 11.866 4.13401 15 8 15ZM11.7188 4.70946C11.9375 5.48713 11.7188 6.74993 11.7188 6.74993C12.1348 7.22596 12.375 7.78771 12.375 8.38938C12.375 10.1073 10.4162 11.5 8 11.5C5.58375 11.5 3.625 10.1073 3.625 8.38938C3.625 7.7817 3.87007 7.21472 4.29377 6.7357C4.29377 6.7357 4.0625 5.4871 4.29377 4.71776C4.50097 4.02851 6.25 5.27874 6.25 5.27874C6.25 5.27874 7.17982 4.88992 8 4.88992C8.82027 4.88992 9.75 5.27874 9.75 5.27874C9.75 5.27874 11.5227 4.01233 11.7188 4.70946Z" stroke="#2A3B51"/>
</svg>
