<svg width="16" height="16" viewBox="0 0 16 16" fill="none" xmlns="http://www.w3.org/2000/svg">
<path d="M3.23506 6.40959C2.7759 6.99599 2.5 7.69039 2.5 8.44501C2.5 9.6311 3.17699 10.6569 4.17473 11.3663C5.17357 12.0764 6.52759 12.5 8 12.5C9.47241 12.5 10.8264 12.0764 11.8253 11.3663C12.823 10.6569 13.5 9.6311 13.5 8.44501C13.5 7.69719 13.229 7.00839 12.7772 6.42528C12.7784 6.41604 12.7797 6.40657 12.7809 6.39687C12.8015 6.23979 12.8262 6.0207 12.8427 5.77169C12.8746 5.28973 12.8807 4.63493 12.7313 4.10399C12.6671 3.87564 12.5202 3.69038 12.3043 3.58734C12.111 3.49509 11.9088 3.49087 11.7508 3.50775C11.4382 3.54113 11.0986 3.6807 10.8207 3.81703C10.5305 3.95942 10.2531 4.12611 10.0514 4.2546C10.0091 4.28154 9.96984 4.307 9.93411 4.33047C9.81717 4.28891 9.66546 4.23827 9.49089 4.18761C9.08972 4.07119 8.53748 3.94562 8 3.94562C7.46257 3.94562 6.91033 4.0712 6.50915 4.18761C6.33454 4.23828 6.18279 4.28894 6.06582 4.3305C6.0312 4.30779 5.99325 4.28321 5.95247 4.25725C5.75301 4.13028 5.47839 3.96554 5.19054 3.82483C4.9148 3.69004 4.57749 3.5522 4.26577 3.51946C4.108 3.50289 3.90772 3.50755 3.71579 3.59769C3.50238 3.69794 3.35351 3.87862 3.28548 4.10493C3.12575 4.63626 3.13263 5.28939 3.16644 5.76701C3.18395 6.01428 3.21015 6.23177 3.23197 6.3877C3.23301 6.39513 3.23404 6.40243 3.23506 6.40959ZM15.5 8C15.5 12.1421 12.1421 15.5 8 15.5C3.85786 15.5 0.5 12.1421 0.5 8C0.5 3.85787 3.85786 0.5 8 0.5C12.1421 0.5 15.5 3.85787 15.5 8Z" stroke="#2A3B51"/>
</svg>
