<svg width="16" height="16" viewBox="0 0 16 16" fill="none" xmlns="http://www.w3.org/2000/svg">
<path d="M4.5 4C4.22386 4 4 4.22386 4 4.5V8C4 8.27614 4.22386 8.5 4.5 8.5H7.5V11.5C7.5 11.7761 7.72386 12 8 12H11.5C11.7761 12 12 11.7761 12 11.5V8C12 7.72386 11.7761 7.5 11.5 7.5H8.5V4.5C8.5 4.22386 8.27614 4 8 4H4.5ZM8.5 11V8.5H11V11H8.5ZM3.33333 1.5H12.6667C13.2622 1.5 13.6665 1.50074 13.9604 1.5334C14.258 1.56647 14.3329 1.6233 14.3548 1.64522C14.3767 1.66714 14.4335 1.74198 14.4666 2.03959C14.4993 2.33352 14.5 2.73778 14.5 3.33333V12.6667C14.5 13.2622 14.4993 13.6665 14.4666 13.9604C14.4335 14.258 14.3767 14.3329 14.3548 14.3548C14.3329 14.3767 14.258 14.4335 13.9604 14.4666C13.6665 14.4993 13.2622 14.5 12.6667 14.5H3.33333C2.73778 14.5 2.33352 14.4993 2.03959 14.4666C1.74198 14.4335 1.66714 14.3767 1.64522 14.3548C1.6233 14.3329 1.56647 14.258 1.5334 13.9604C1.50074 13.6665 1.5 13.2622 1.5 12.6667V3.33333C1.5 2.73778 1.50074 2.33352 1.5334 2.03959C1.56647 1.74198 1.6233 1.66714 1.64522 1.64522C1.66714 1.6233 1.74198 1.56647 2.03959 1.5334C2.33352 1.50074 2.73778 1.5 3.33333 1.5ZM5 7.5V5H7.5V7.5H5Z" stroke="black" stroke-linecap="round" stroke-linejoin="round"/>
</svg>
