<svg width="16" height="16" viewBox="0 0 16 16" fill="none" xmlns="http://www.w3.org/2000/svg">
<path d="M1.8 10.5H14.2C14.3657 10.5 14.5 10.6343 14.5 10.8C14.5 12.2912 13.2912 13.5 11.8 13.5H4.2C2.70883 13.5 1.5 12.2912 1.5 10.8C1.5 10.6343 1.63431 10.5 1.8 10.5ZM14.2 5.5H1.8C1.63431 5.5 1.5 5.36569 1.5 5.2C1.5 3.70883 2.70883 2.5 4.2 2.5H11.8C13.2912 2.5 14.5 3.70883 14.5 5.2C14.5 5.36569 14.3657 5.5 14.2 5.5ZM14 8.5H2C1.72386 8.5 1.5 8.27614 1.5 8C1.5 7.72386 1.72386 7.5 2 7.5H14C14.2761 7.5 14.5 7.72386 14.5 8C14.5 8.27614 14.2761 8.5 14 8.5Z" stroke="#2A3B51" stroke-linecap="round" stroke-linejoin="round"/>
</svg>
