<svg width="16" height="16" viewBox="0 0 16 16" fill="none" xmlns="http://www.w3.org/2000/svg">
<path d="M1 10.8C1 10.3582 1.35817 10 1.8 10H14.2C14.6418 10 15 10.3582 15 10.8C15 12.5673 13.5673 14 11.8 14H4.2C2.43269 14 1 12.5673 1 10.8Z" stroke="black" stroke-linecap="round" stroke-linejoin="round"/>
<path d="M1 5.2C1 5.64183 1.35817 6 1.8 6H14.2C14.6418 6 15 5.64183 15 5.2C15 3.43269 13.5673 2 11.8 2H4.2C2.43269 2 1 3.43269 1 5.2Z" stroke="black" stroke-linecap="round" stroke-linejoin="round"/>
<path d="M14 9H2C1.44772 9 1 8.55228 1 8C1 7.44772 1.44772 7 2 7H14C14.5523 7 15 7.44772 15 8C15 8.55228 14.5523 9 14 9Z" stroke="black" stroke-linecap="round" stroke-linejoin="round"/>
</svg>
