<svg width="16" height="16" viewBox="0 0 16 16" fill="none" xmlns="http://www.w3.org/2000/svg">
<path fill-rule="evenodd" clip-rule="evenodd" d="M7.46314 1.57521C7.84007 1.79779 8 2.00002 8 2.00002C8 2.00002 8.15993 1.79779 8.53686 1.57521C8.99812 1.30284 9.78431 1 11 1C13.2091 1 15 2.79086 15 5C15 5 15 6.87429 13.7017 9H12.5032C13.2131 8.00775 13.5868 7.04339 13.7838 6.30484C13.8946 5.88919 13.9488 5.54729 13.9752 5.31614C13.9884 5.20072 13.9946 5.11346 13.9975 5.05905C13.999 5.03186 13.9996 5.01294 13.9998 5.00289L14 4.99565C13.9976 3.34079 12.6554 2 11 2C10.0529 2 9.46369 2.21273 9.1382 2.38446C8.97267 2.4718 8.86686 2.55301 8.81134 2.60091C8.78967 2.6196 8.77548 2.63338 8.76828 2.64066L8 3.61212L7.23172 2.64066C7.22452 2.63338 7.21033 2.6196 7.18866 2.60091C7.13314 2.55301 7.02733 2.4718 6.8618 2.38446C6.5363 2.21273 5.94715 2 5 2C3.3446 2 2.00236 3.34078 2 4.99563L2.00016 5.00289C2.00041 5.01294 2.00104 5.03186 2.00249 5.05905C2.00539 5.11346 2.01159 5.20072 2.02478 5.31614C2.0512 5.54729 2.1054 5.88919 2.21623 6.30484C2.43795 7.13627 2.88374 8.2539 3.78087 9.37531C4.59828 10.3971 5.80652 11.6081 6.83483 12.5828C7.28025 13.0051 7.6853 13.3767 8 13.6612C8.3147 13.3767 8.71975 13.0051 9.16516 12.5828C9.67831 12.0965 10.2362 11.5512 10.7681 11H12.1398C10.3701 12.942 8 15 8 15C8 15 4.72505 12.1563 3 10C1 7.5 1 5 1 5C1 2.79086 2.79086 1 5 1C6.21569 1 7.00188 1.30284 7.46314 1.57521ZM8 9.5C7.72386 9.5 7.5 9.72386 7.5 10C7.5 10.2761 7.72386 10.5 8 10.5H15C15.2761 10.5 15.5 10.2761 15.5 10C15.5 9.72386 15.2761 9.5 15 9.5H8Z" fill="#2A3B51"/>
</svg>
