<svg width="16" height="16" viewBox="0 0 16 16" fill="none" xmlns="http://www.w3.org/2000/svg">
<path fill-rule="evenodd" clip-rule="evenodd" d="M8.32539 0.620372C8.13814 0.459876 7.86184 0.459876 7.6746 0.620372L0.674598 6.62037C0.515732 6.75654 0.458456 6.97723 0.531051 7.17347C0.603645 7.36971 0.790755 7.5 0.999993 7.5H1.49999V15C1.49999 15.2761 1.72385 15.5 1.99999 15.5H14C14.2761 15.5 14.5 15.2761 14.5 15V7.5H15C15.2092 7.5 15.3963 7.36971 15.4689 7.17347C15.5415 6.97723 15.4843 6.75654 15.3254 6.62037L8.32539 0.620372ZM3.99999 6.5H2.35162L7.99999 1.65854L13.6484 6.5H12V7.5H13.5V14.5H10.5V9C10.5 8.72386 10.2761 8.5 9.99999 8.5H5.99999C5.72385 8.5 5.49999 8.72386 5.49999 9V14.5H2.49999V7.5H3.99999V6.5ZM9.49999 9.5V14.5H6.49999V9.5H9.49999Z" fill="#2A3B51"/>
</svg>
