<svg width="16" height="16" viewBox="0 0 16 16" fill="none" xmlns="http://www.w3.org/2000/svg">
<path fill-rule="evenodd" clip-rule="evenodd" d="M8.32542 0.620372C8.13817 0.459876 7.86187 0.459876 7.67463 0.620372L0.674628 6.62037C0.515763 6.75654 0.458487 6.97723 0.531081 7.17347C0.603676 7.36971 0.790786 7.5 1.00002 7.5H1.50002V15C1.50002 15.2761 1.72388 15.5 2.00002 15.5H14C14.2762 15.5 14.5 15.2761 14.5 15V7.5H15C15.2093 7.5 15.3964 7.36971 15.469 7.17347C15.5416 6.97723 15.4843 6.75654 15.3254 6.62037L8.32542 0.620372ZM4.00002 6.5H2.35165L8.00002 1.65854L13.6484 6.5H12V7.5H13.5V14.5H10.5V9C10.5 8.72386 10.2762 8.5 10 8.5H6.00002C5.72388 8.5 5.50002 8.72386 5.50002 9V14.5H2.50002V7.5H4.00002V6.5ZM9.50002 9.5V14.5H6.50002V9.5H9.50002Z" fill="#2A3B51"/>
</svg>
