<svg width="16" height="16" viewBox="0 0 16 16" fill="none" xmlns="http://www.w3.org/2000/svg">
<path d="M8 5C8.55228 5 9 4.55228 9 4C9 3.44772 8.55228 3 8 3C7.44772 3 7 3.44772 7 4C7 4.55228 7.44772 5 8 5Z" fill="#2A3B51"/>
<path d="M8 6.5C8.27614 6.5 8.5 6.72386 8.5 7V13C8.5 13.2761 8.27614 13.5 8 13.5C7.72386 13.5 7.5 13.2761 7.5 13V7C7.5 6.72386 7.72386 6.5 8 6.5Z" fill="#2A3B51"/>
<path fill-rule="evenodd" clip-rule="evenodd" d="M16 8C16 12.4183 12.4183 16 8 16C3.58172 16 0 12.4183 0 8C0 3.58172 3.58172 0 8 0C12.4183 0 16 3.58172 16 8ZM15 8C15 11.866 11.866 15 8 15C4.13401 15 1 11.866 1 8C1 4.13401 4.13401 1 8 1C11.866 1 15 4.13401 15 8Z" fill="#2A3B51"/>
</svg>
