<svg width="16" height="16" viewBox="0 0 16 16" fill="none" xmlns="http://www.w3.org/2000/svg">
<path d="M12.1999 1.46667C12.1999 1.20893 11.991 1 11.7333 1C11.4755 1 11.2666 1.20893 11.2666 1.46667V2.86667H8.93332C8.67559 2.86667 8.46666 3.0756 8.46666 3.33333C8.46666 3.59107 8.67559 3.8 8.93332 3.8H11.2666V5.2C11.2666 5.45773 11.4755 5.66667 11.7333 5.66667C11.991 5.66667 12.1999 5.45773 12.1999 5.2V3.8H14.5332C14.791 3.8 14.9999 3.59107 14.9999 3.33333C14.9999 3.0756 14.791 2.86667 14.5332 2.86667H12.1999V1.46667Z" fill="#2A3B51"/>
<path fill-rule="evenodd" clip-rule="evenodd" d="M8.19023 4.77387C8.06917 4.71982 7.93083 4.71982 7.80977 4.77387L1.27654 7.69054C1.1084 7.7656 1.00012 7.93253 1.00012 8.11667C1.00012 8.30081 1.1084 8.46773 1.27654 8.5428L7.80977 11.4595C7.93083 11.5135 8.06917 11.5135 8.19023 11.4595L14.7235 8.5428C14.8916 8.46773 14.9999 8.30081 14.9999 8.11667C14.9999 7.93253 14.8916 7.7656 14.7235 7.69054L8.19023 4.77387ZM8 10.5223L2.61153 8.11667L8 5.71106L13.3885 8.11667L8 10.5223Z" fill="#2A3B51"/>
<path d="M1.04065 11.4264C1.14571 11.1911 1.42167 11.0855 1.65701 11.1905L8 14.0223L14.343 11.1905C14.5783 11.0855 14.8543 11.1911 14.9593 11.4264C15.0644 11.6618 14.9588 11.9377 14.7235 12.0428L8.19023 14.9595C8.06917 15.0135 7.93083 15.0135 7.80977 14.9595L1.27654 12.0428C1.0412 11.9377 0.935588 11.6618 1.04065 11.4264Z" fill="#2A3B51"/>
</svg>
