<svg width="16" height="16" viewBox="0 0 16 16" fill="none" xmlns="http://www.w3.org/2000/svg">
<path fill-rule="evenodd" clip-rule="evenodd" d="M8.18383 1.04354C8.06644 0.985488 7.93356 0.985488 7.81617 1.04354L1.28295 4.27431C1.11137 4.35916 1.00012 4.55383 1.00012 4.76923C1.00012 4.98463 1.11137 5.1793 1.28295 5.26415L7.81617 8.49493C7.93356 8.55297 8.06644 8.55297 8.18383 8.49493L14.717 5.26415C14.8886 5.1793 14.9999 4.98463 14.9999 4.76923C14.9999 4.55383 14.8886 4.35916 14.717 4.27431L8.18383 1.04354ZM8 7.41417L2.65143 4.76923L8 2.12429L13.3486 4.76923L8 7.41417Z" fill="#2A3B51"/>
<path d="M1.03885 7.78521C1.14166 7.51251 1.41659 7.38761 1.65293 7.50623L8 10.6921L14.3471 7.50623C14.5834 7.38761 14.8583 7.51251 14.9611 7.78521C15.064 8.05791 14.9557 8.37514 14.7194 8.49377L8.371 11.6803C8.13463 11.7989 7.86536 11.7989 7.629 11.6803L1.28063 8.49377C1.04429 8.37514 0.936046 8.05791 1.03885 7.78521Z" fill="#2A3B51"/>
<path d="M1.03885 11.016C1.14166 10.7433 1.41659 10.6184 1.65293 10.737L8 13.9228L14.3471 10.737C14.5834 10.6184 14.8583 10.7433 14.9611 11.016C15.064 11.2887 14.9557 11.6059 14.7194 11.7245L8.371 14.911C8.13463 15.0297 7.86536 15.0297 7.629 14.911L1.28063 11.7245C1.04429 11.6059 0.936046 11.2887 1.03885 11.016Z" fill="#2A3B51"/>
</svg>
