<svg width="16" height="16" viewBox="0 0 16 16" fill="none" xmlns="http://www.w3.org/2000/svg">
<path d="M8.93332 1C8.67559 1 8.46666 1.24108 8.46666 1.53846C8.46666 1.83585 8.67559 2.07692 8.93332 2.07692H14.5332C14.791 2.07692 14.9999 1.83585 14.9999 1.53846C14.9999 1.24108 14.791 1 14.5332 1H8.93332Z" fill="#2A3B51"/>
<path fill-rule="evenodd" clip-rule="evenodd" d="M8.19023 3.20062C8.06917 3.13826 7.93083 3.13826 7.80977 3.20062L1.27654 6.566C1.1084 6.65262 1.00012 6.84522 1.00012 7.05769C1.00012 7.27016 1.1084 7.46277 1.27654 7.54938L7.80977 10.9148C7.93083 10.9771 8.06917 10.9771 8.19023 10.9148L14.7235 7.54938C14.8916 7.46277 14.9999 7.27016 14.9999 7.05769C14.9999 6.84522 14.8916 6.65262 14.7235 6.566L8.19023 3.20062ZM8 9.8334L2.61153 7.05769L8 4.28199L13.3885 7.05769L8 9.8334Z" fill="#2A3B51"/>
<path d="M1.65701 10.6045C1.42167 10.4832 1.14571 10.6051 1.04065 10.8767C0.935588 11.1482 1.0412 11.4666 1.27654 11.5878L7.80977 14.9532C7.93083 15.0156 8.06917 15.0156 8.19023 14.9532L14.7235 11.5878C14.9588 11.4666 15.0644 11.1482 14.9593 10.8767C14.8543 10.6051 14.5783 10.4832 14.343 10.6045L8 13.8719L1.65701 10.6045Z" fill="#2A3B51"/>
</svg>
