<svg width="16" height="16" viewBox="0 0 16 16" fill="none" xmlns="http://www.w3.org/2000/svg">
<path fill-rule="evenodd" clip-rule="evenodd" d="M11.5 12V14C11.5 14.5523 11.0523 15 10.5 15H2C1.44772 15 1 14.5523 1 14V5.23077C1 4.67848 1.44772 4.23077 2 4.23077L4.5 4.23077V2C4.5 1.44772 4.94772 1 5.5 1H14C14.5523 1 15 1.44771 15 2V11C15 11.5523 14.5523 12 14 12H11.5ZM10.5 5H2V14H10.5V5ZM5.5 4.23077L10.5 4.23077C11.0523 4.23077 11.5 4.67849 11.5 5.23077V11L14 11V2L5.5 2V4.23077Z" fill="#0085FF"/>
</svg>
