<svg width="16" height="16" viewBox="0 0 16 16" fill="none" xmlns="http://www.w3.org/2000/svg">
<path fill-rule="evenodd" clip-rule="evenodd" d="M5 3C5 3.55228 4.55228 4 4 4C3.44772 4 3 3.55228 3 3C3 2.44772 3.44772 2 4 2C4.55228 2 5 2.44772 5 3ZM6 3C6 4.10457 5.10457 5 4 5C2.89543 5 2 4.10457 2 3C2 1.89543 2.89543 1 4 1C5.10457 1 6 1.89543 6 3ZM8 2.5C7.72386 2.5 7.5 2.72386 7.5 3C7.5 3.27614 7.72386 3.5 8 3.5H13C13.2761 3.5 13.5 3.27614 13.5 3C13.5 2.72386 13.2761 2.5 13 2.5H8ZM8 12.5C7.72386 12.5 7.5 12.7239 7.5 13C7.5 13.2761 7.72386 13.5 8 13.5H13C13.2761 13.5 13.5 13.2761 13.5 13C13.5 12.7239 13.2761 12.5 13 12.5H8ZM7.5 8C7.5 7.72386 7.72386 7.5 8 7.5H13C13.2761 7.5 13.5 7.72386 13.5 8C13.5 8.27614 13.2761 8.5 13 8.5H8C7.72386 8.5 7.5 8.27614 7.5 8ZM4 9C4.55228 9 5 8.55228 5 8C5 7.44772 4.55228 7 4 7C3.44772 7 3 7.44772 3 8C3 8.55228 3.44772 9 4 9ZM4 10C5.10457 10 6 9.10457 6 8C6 6.89543 5.10457 6 4 6C2.89543 6 2 6.89543 2 8C2 9.10457 2.89543 10 4 10ZM5 13C5 13.5523 4.55228 14 4 14C3.44772 14 3 13.5523 3 13C3 12.4477 3.44772 12 4 12C4.55228 12 5 12.4477 5 13ZM6 13C6 14.1046 5.10457 15 4 15C2.89543 15 2 14.1046 2 13C2 11.8954 2.89543 11 4 11C5.10457 11 6 11.8954 6 13Z" fill="#2A3B51"/>
</svg>
