<svg width="16" height="16" viewBox="0 0 16 16" fill="none" xmlns="http://www.w3.org/2000/svg">
<path fill-rule="evenodd" clip-rule="evenodd" d="M6.424 1.26501C6.57036 1.03084 6.49917 0.722362 6.265 0.576007C6.03083 0.429652 5.72236 0.500838 5.576 0.735006L3.46248 4.11664L2.4 2.70001C2.23432 2.47909 1.92091 2.43432 1.7 2.60001C1.47909 2.76569 1.43432 3.07909 1.6 3.30001L3.1 5.30001C3.19892 5.4319 3.3565 5.50655 3.52122 5.49956C3.68594 5.49256 3.83662 5.40481 3.924 5.26501L6.424 1.26501ZM8 2.50001C7.72386 2.50001 7.5 2.72386 7.5 3.00001C7.5 3.27615 7.72386 3.50001 8 3.50001H13C13.2761 3.50001 13.5 3.27615 13.5 3.00001C13.5 2.72386 13.2761 2.50001 13 2.50001H8ZM8 12.5C7.72386 12.5 7.5 12.7239 7.5 13C7.5 13.2761 7.72386 13.5 8 13.5H13C13.2761 13.5 13.5 13.2761 13.5 13C13.5 12.7239 13.2761 12.5 13 12.5H8ZM7.5 8.00001C7.5 7.72386 7.72386 7.50001 8 7.50001H13C13.2761 7.50001 13.5 7.72386 13.5 8.00001C13.5 8.27615 13.2761 8.50001 13 8.50001H8C7.72386 8.50001 7.5 8.27615 7.5 8.00001ZM6.265 4.57601C6.49917 4.72236 6.57036 5.03084 6.424 5.26501L3.924 9.26501C3.83662 9.40481 3.68594 9.49256 3.52122 9.49956C3.3565 9.50655 3.19892 9.4319 3.1 9.30001L1.6 7.30001C1.43432 7.07909 1.47909 6.76569 1.7 6.60001C1.92091 6.43432 2.23432 6.47909 2.4 6.70001L3.46248 8.11664L5.576 4.73501C5.72236 4.50084 6.03083 4.42965 6.265 4.57601ZM3 12H5V14H3V12ZM2 12C2 11.4477 2.44772 11 3 11H5C5.55229 11 6 11.4477 6 12V14C6 14.5523 5.55229 15 5 15H3C2.44772 15 2 14.5523 2 14V12Z" fill="#2A3B51"/>
</svg>
