<svg width="16" height="16" viewBox="0 0 16 16" fill="none" xmlns="http://www.w3.org/2000/svg">
<path fill-rule="evenodd" clip-rule="evenodd" d="M4 2.76779V4.33013V5.01696L4.68673 5.00531L5 5V1.68673V1H4.68673H4.46443H4.31327H4.07521L3 1.5V1.73221V2.5L3.31327 2.34336L3.68673 2.15664L4 2V2.76779ZM4.5875 12.2021L4.73855 12.0391L5 11.7571V11.6867V11.6172V11.1155V11H4.31327H3.69923H3.0125V11.1155V11.6867V11.8023H3.18884H3.69923H4.02177H4.02917L3.76925 12.1708L3.54486 12.489L3.43341 12.647L3.39167 12.7062V13.1375V13.3503C3.43611 13.339 3.49861 13.3296 3.57917 13.322C3.6625 13.3107 3.72639 13.3051 3.77083 13.3051C3.87754 13.3051 3.96465 13.3202 4.03214 13.3503C4.06304 13.3641 4.08982 13.381 4.1125 13.4011C4.18472 13.4652 4.22083 13.565 4.22083 13.7006C4.22083 14.0245 4.06667 14.1864 3.75833 14.1864C3.73541 14.1864 3.71154 14.1853 3.68673 14.1831C3.57421 14.173 3.44233 14.1402 3.29109 14.0844C3.20094 14.0512 3.10391 14.0099 3 13.9605V14.1584V14.7086V14.7571C3.12222 14.8362 3.25139 14.8964 3.3875 14.9379C3.52639 14.9793 3.66111 15 3.79167 15C4.16944 15 4.46528 14.8832 4.67917 14.6497C4.89306 14.4162 5 14.0942 5 13.6836C5 13.3973 4.937 13.1599 4.811 12.9712C4.80604 12.9638 4.80099 12.9564 4.79583 12.9492C4.70517 12.8212 4.59048 12.7258 4.45176 12.6631C4.40401 12.6415 4.35341 12.6237 4.29997 12.6098C4.27557 12.6035 4.25058 12.598 4.225 12.5932L4.5875 12.2021ZM8 12.5C7.72386 12.5 7.5 12.7239 7.5 13C7.5 13.2761 7.72386 13.5 8 13.5H13C13.2761 13.5 13.5 13.2761 13.5 13C13.5 12.7239 13.2761 12.5 13 12.5H8ZM8 2.5C7.72386 2.5 7.5 2.72386 7.5 3C7.5 3.27614 7.72386 3.5 8 3.5H13C13.2761 3.5 13.5 3.27614 13.5 3C13.5 2.72386 13.2761 2.5 13 2.5H8ZM7.5 8C7.5 7.72386 7.72386 7.5 8 7.5H13C13.2761 7.5 13.5 7.72386 13.5 8C13.5 8.27614 13.2761 8.5 13 8.5H8C7.72386 8.5 7.5 8.27614 7.5 8ZM3.88281 6.8507C3.82403 6.8507 3.75788 6.86285 3.68673 6.88603C3.48051 6.95324 3.23234 7.11325 3 7.33944V6.5C3.02816 6.46878 3.05732 6.4388 3.08733 6.41013C3.35698 6.15245 3.69536 6 4 6C4.27344 6 4.59635 6.0216 4.75781 6.2169C4.91927 6.41221 5 6.67324 5 7C5 7.18779 4.96745 7.37934 4.90234 7.57465C4.83724 7.76995 4.72917 7.98779 4.57812 8.22817C4.55965 8.25712 4.54125 8.28536 4.52267 8.31327C4.38938 8.51353 4.24684 8.69673 4 9H4.31327H4.87617H5V9.31327V9.68673V10H4.31327H3.68673H3V9.68673V9.31327V9.14073V9C3.16846 8.76565 3.3079 8.63575 3.43078 8.52129C3.52256 8.43579 3.6051 8.3589 3.68359 8.25352C3.8622 8.01374 3.96094 7.79531 4.03125 7.6338C4.10417 7.46854 4.14062 7.32207 4.14062 7.19437C4.14062 7.09296 4.11719 7.01033 4.07031 6.94648C4.02344 6.88263 3.96094 6.8507 3.88281 6.8507Z" fill="#2A3B51"/>
</svg>
