<svg width="16" height="16" viewBox="0 0 16 16" fill="none" xmlns="http://www.w3.org/2000/svg">
<path fill-rule="evenodd" clip-rule="evenodd" d="M6.42403 1.265C6.57038 1.03083 6.4992 0.722356 6.26503 0.576001C6.03086 0.429646 5.72239 0.500832 5.57603 0.735001L3.46251 4.11664L2.40003 2.7C2.23434 2.47909 1.92094 2.43431 1.70003 2.6C1.47912 2.76569 1.43434 3.07909 1.60003 3.3L3.10003 5.3C3.19895 5.43189 3.35653 5.50655 3.52125 5.49955C3.68597 5.49255 3.83665 5.40481 3.92403 5.265L6.42403 1.265ZM8.00003 2.5C7.72389 2.5 7.50003 2.72386 7.50003 3C7.50003 3.27614 7.72389 3.5 8.00003 3.5H13C13.2762 3.5 13.5 3.27614 13.5 3C13.5 2.72386 13.2762 2.5 13 2.5H8.00003ZM8.00003 12.5C7.72389 12.5 7.50003 12.7239 7.50003 13C7.50003 13.2761 7.72389 13.5 8.00003 13.5H13C13.2762 13.5 13.5 13.2761 13.5 13C13.5 12.7239 13.2762 12.5 13 12.5H8.00003ZM7.50003 8C7.50003 7.72386 7.72389 7.5 8.00003 7.5H13C13.2762 7.5 13.5 7.72386 13.5 8C13.5 8.27614 13.2762 8.5 13 8.5H8.00003C7.72389 8.5 7.50003 8.27614 7.50003 8ZM6.26503 4.576C6.4992 4.72236 6.57038 5.03083 6.42403 5.265L3.92403 9.265C3.83665 9.40481 3.68597 9.49255 3.52125 9.49955C3.35653 9.50655 3.19895 9.43189 3.10003 9.3L1.60003 7.3C1.43434 7.07909 1.47912 6.76569 1.70003 6.6C1.92094 6.43431 2.23434 6.47909 2.40003 6.7L3.46251 8.11664L5.57603 4.735C5.72239 4.50083 6.03086 4.42965 6.26503 4.576ZM3.00003 12H5.00003V14H3.00003V12ZM2.00003 12C2.00003 11.4477 2.44774 11 3.00003 11H5.00003C5.55231 11 6.00003 11.4477 6.00003 12V14C6.00003 14.5523 5.55231 15 5.00003 15H3.00003C2.44774 15 2.00003 14.5523 2.00003 14V12Z" fill="#2A3B51"/>
</svg>
