<svg width="16" height="16" viewBox="0 0 16 16" fill="none" xmlns="http://www.w3.org/2000/svg">
<path d="M7 7.5C6.72386 7.5 6.5 7.72386 6.5 8V10C6.5 10.2761 6.72386 10.5 7 10.5H7.5V12C7.5 12.2761 7.72386 12.5 8 12.5C8.27614 12.5 8.5 12.2761 8.5 12V10.5H9C9.27614 10.5 9.5 10.2761 9.5 10V8C9.5 7.72386 9.27614 7.5 9 7.5H7ZM8.5 8.5V9.5H8H7.5V8.5H8.5ZM5 5.86364H8H11C12.3953 5.86364 13.5 6.95661 13.5 8.27273V12.0909C13.5 13.407 12.3953 14.5 11 14.5H5C3.60467 14.5 2.5 13.407 2.5 12.0909V8.27273C2.5 6.95661 3.60467 5.86364 5 5.86364ZM8 4.86364H5.5V2.45455C5.5 1.94176 5.9331 1.5 6.5 1.5H9.5C10.0669 1.5 10.5 1.94176 10.5 2.45455V4.86364H8Z" stroke="#2A3B51" stroke-linecap="round" stroke-linejoin="round"/>
</svg>
