<svg width="16" height="16" viewBox="0 0 16 16" fill="none" xmlns="http://www.w3.org/2000/svg">
<path d="M10.4 8.53846H5.6V10.6923H10.4V8.53846Z" fill="#2A3B51"/>
<path fill-rule="evenodd" clip-rule="evenodd" d="M8 1C11.1112 1 13.6693 3.12513 13.9704 5.84615C13.99 6.02326 14 6.20289 14 6.38462V15H10.4V12.8462H5.6V15H2V6.38462C2 6.20289 2.01003 6.02326 2.02963 5.84615C2.33066 3.12513 4.88879 1 8 1ZM12.8 6.92308V13.9231H11.6V11.7692H4.4V13.9231H3.2V6.92308H12.8ZM8 2.07692C10.4478 2.07692 12.4676 3.72122 12.7629 5.84615H3.23714C3.53239 3.72122 5.55223 2.07692 8 2.07692Z" fill="#2A3B51"/>
</svg>
