<svg width="16" height="16" viewBox="0 0 16 16" fill="none" xmlns="http://www.w3.org/2000/svg">
<path d="M15 10.6923V5.23611C14.7115 5.49436 14.3726 5.69759 14 5.82929V10.6923C14 10.732 13.9872 10.7571 13.9778 10.7692H4.64659L2 12.9069V2.07692C2 2.03723 2.01284 2.01217 2.02221 2H10.1707C10.3024 1.62738 10.5056 1.28855 10.7639 1H2C1.44772 1 1 1.48215 1 2.07692V15L5 11.7692H14C14.5523 11.7692 15 11.2871 15 10.6923Z" fill="#2A3B51"/>
<path d="M13 5C14.1046 5 15 4.10457 15 3C15 1.89543 14.1046 1 13 1C11.8954 1 11 1.89543 11 3C11 4.10457 11.8954 5 13 5Z" fill="#2A3B51"/>
<path d="M5 4H11M5 6H11M5 8H9" stroke="#2A3B51" stroke-linecap="round" stroke-linejoin="round"/>
</svg>
