<svg width="16" height="16" viewBox="0 0 16 16" fill="none" xmlns="http://www.w3.org/2000/svg">
<path d="M4.5 4C4.5 3.72386 4.72386 3.5 5 3.5H11C11.2761 3.5 11.5 3.72386 11.5 4C11.5 4.27614 11.2761 4.5 11 4.5H5C4.72386 4.5 4.5 4.27614 4.5 4Z" fill="#2A3B51"/>
<path d="M4.5 6C4.5 5.72386 4.72386 5.5 5 5.5H11C11.2761 5.5 11.5 5.72386 11.5 6C11.5 6.27614 11.2761 6.5 11 6.5H5C4.72386 6.5 4.5 6.27614 4.5 6Z" fill="#2A3B51"/>
<path d="M4.5 8C4.5 7.72386 4.72386 7.5 5 7.5H9C9.27614 7.5 9.5 7.72386 9.5 8C9.5 8.27614 9.27614 8.5 9 8.5H5C4.72386 8.5 4.5 8.27614 4.5 8Z" fill="#2A3B51"/>
<path d="M4.64659 10.7692H8.31097L8.97764 11.7692H5L1 15V2.07692C1 1.48215 1.44772 1 2 1H14C14.5523 1 15 1.48216 15 2.07692V5.99989C14.6772 6.00019 14.3605 6.15653 14.1679 6.4453L14 6.69722V2.07692C14 2.03723 13.9872 2.01217 13.9778 2H2.02221C2.01284 2.01217 2 2.03723 2 2.07692V12.9069L4.64659 10.7692Z" fill="#2A3B51"/>
<path d="M11 11.1972L10.7147 10.7692H11.2853L11 11.1972Z" fill="#2A3B51"/>
<path d="M13.0224 11.7692L13.689 10.7692H13.9778C13.9872 10.7571 14 10.732 14 10.6923V10.3028L15 8.80278V10.6923C15 11.2871 14.5523 11.7692 14 11.7692H13.0224Z" fill="#2A3B51"/>
<path d="M15.416 7.27735C15.5692 7.04759 15.5071 6.73715 15.2773 6.58397C15.0476 6.4308 14.7372 6.49289 14.584 6.72265L11 12.0986L9.41603 9.72265C9.26285 9.49289 8.95241 9.4308 8.72265 9.58397C8.49289 9.73715 8.4308 10.0476 8.58397 10.2774L10.584 13.2773C10.6767 13.4164 10.8328 13.5 11 13.5C11.1672 13.5 11.3233 13.4164 11.416 13.2773L15.416 7.27735Z" fill="#2A3B51"/>
</svg>
