<svg width="16" height="16" viewBox="0 0 16 16" fill="none" xmlns="http://www.w3.org/2000/svg">
<mask id="path-1-inside-1_1_19" fill="white">
<path d="M8.22519 2.17102e-07C9.0886 0.000195909 9.94433 0.132675 10.7614 0.390604C11.3985 0.591746 11.5493 1.39019 11.1325 1.91242C10.0263 3.29855 8.25164 5.85217 8.22324 8C8.19484 10.1477 9.90122 12.7448 10.9705 14.1582C11.3734 14.6909 11.2024 15.4849 10.5606 15.67C9.81812 15.8842 9.0469 15.9956 8.26978 15.9999C8.25427 16 8.23876 16 8.22324 16C8.20911 16 8.19499 16 8.18087 15.9999C8.03807 15.9992 7.8951 15.9948 7.75211 15.9869C6.35224 15.9087 4.99616 15.4836 3.81273 14.752C2.6293 14.0203 1.65783 13.0065 0.990621 11.8067C0.34042 10.6375 0.000223923 9.32959 0 8.00133L6.94699e-07 7.99648C0.00195494 3.57982 3.68287 0 8.22324 0"/>
</mask>
<path d="M8.22519 2.17102e-07C9.0886 0.000195909 9.94433 0.132675 10.7614 0.390604C11.3985 0.591746 11.5493 1.39019 11.1325 1.91242C10.0263 3.29855 8.25164 5.85217 8.22324 8C8.19484 10.1477 9.90122 12.7448 10.9705 14.1582C11.3734 14.6909 11.2024 15.4849 10.5606 15.67C9.81812 15.8842 9.0469 15.9956 8.26978 15.9999C8.25427 16 8.23876 16 8.22324 16C8.20911 16 8.19499 16 8.18087 15.9999C8.03807 15.9992 7.8951 15.9948 7.75211 15.9869C6.35224 15.9087 4.99616 15.4836 3.81273 14.752C2.6293 14.0203 1.65783 13.0065 0.990621 11.8067C0.34042 10.6375 0.000223923 9.32959 0 8.00133L6.94699e-07 7.99648C0.00195494 3.57982 3.68287 0 8.22324 0" stroke="#2A3B51" stroke-width="2" mask="url(#path-1-inside-1_1_19)"/>
</svg>
