<svg width="17" height="18" viewBox="0 0 17 18" fill="none" xmlns="http://www.w3.org/2000/svg">
<path d="M9.22519 1C10.5375 1.0003 11.832 1.30618 13 1.89367C13 1.89367 9.26455 5.87607 9.22324 9C9.18193 12.1239 12.8108 16.1985 12.8108 16.1985C11.7048 16.7202 10.4946 16.9931 9.26978 16.9999C9.25427 17 9.23876 17 9.22324 17C9.20911 17 9.19499 17 9.18087 16.9999C9.03807 16.9992 8.8951 16.9948 8.75211 16.9869C7.35224 16.9087 5.99616 16.4836 4.81273 15.752C3.6293 15.0203 2.65783 14.0065 1.99062 12.8067C1.34042 11.6375 1.00022 10.3296 1 9.00133L1 8.99648C1.00195 4.57982 4.68287 1 9.22324 1" stroke="black"/>
</svg>
