<svg width="16" height="16" viewBox="0 0 16 16" fill="none" xmlns="http://www.w3.org/2000/svg">
<mask id="path-1-inside-1_1_19" fill="white">
<path d="M8.22519 2.17102e-07C9.0886 0.000195909 9.94433 0.132675 10.7614 0.390604C11.3985 0.591746 11.5493 1.39019 11.1325 1.91242C10.0263 3.29855 8.25164 5.85217 8.22324 8C8.19484 10.1477 9.90122 12.7448 10.9705 14.1582C11.3734 14.6909 11.2024 15.4849 10.5606 15.67C9.81812 15.8842 9.0469 15.9956 8.26978 15.9999C8.25427 16 8.23876 16 8.22324 16C8.20911 16 8.19499 16 8.18087 15.9999C8.03807 15.9992 7.8951 15.9948 7.75211 15.9869C6.35224 15.9087 4.99616 15.4836 3.81273 14.752C2.6293 14.0203 1.65783 13.0065 0.990621 11.8067C0.34042 10.6375 0.000223923 9.32959 0 8.00133L6.94699e-07 7.99648C0.00195494 3.57982 3.68287 0 8.22324 0"/>
</mask>
<path d="M8.22318 0.5L8.22513 0.5L8.22525 -0.5L8.22329 -0.5L8.22318 0.5ZM8.26978 15.9999L8.27519 16.9999H8.27528L8.26978 15.9999ZM8.18087 15.9999L8.17586 16.9999H8.17594L8.18087 15.9999ZM7.75211 15.9869L7.69636 16.9853H7.69637L7.75211 15.9869ZM3.81273 14.752L4.33858 13.9014L3.81273 14.752ZM0.990621 11.8067L0.116668 12.2927H0.116668L0.990621 11.8067ZM0 8.00133L-1 8.00119V8.0015L0 8.00133ZM6.94699e-07 7.99648L-0.999999 7.99604L-0.999999 7.99634L6.94699e-07 7.99648ZM10.9705 14.1582L11.768 13.5549L10.9705 14.1582ZM10.5606 15.67L10.2835 14.7092L10.5606 15.67ZM11.0624 -0.563007C10.1481 -0.851656 9.19088 -0.999781 8.22542 -1L8.22496 1C8.98632 1.00017 9.7406 1.11701 10.4603 1.34422L11.0624 -0.563007ZM9.22315 8.01322C9.23416 7.18039 9.59501 6.17625 10.1529 5.14712C10.6998 4.13802 11.3811 3.20412 11.9141 2.5362L10.351 1.28864C9.77776 2.00684 9.01856 3.04282 8.39455 4.19403C7.7814 5.3252 7.24071 6.67178 7.22332 7.98678L9.22315 8.01322ZM11.768 13.5549C11.2528 12.8739 10.5966 11.9234 10.0765 10.9011C9.54622 9.85853 9.21214 8.84592 9.22315 8.01322L7.22332 7.98678C7.20593 9.30181 7.71084 10.6616 8.29392 11.8079C8.88731 12.9744 9.6189 14.0291 10.173 14.7615L11.768 13.5549ZM8.27528 16.9999C9.14428 16.9951 10.0069 16.8705 10.8377 16.6309L10.2835 14.7092C9.62934 14.8979 8.94952 14.9961 8.26427 14.9999L8.27528 16.9999ZM8.26436 14.9999C8.25071 15 8.237 15 8.22324 15V17C8.24052 17 8.25784 17 8.27519 16.9999L8.26436 14.9999ZM8.22324 15C8.21073 15 8.19825 15 8.18581 14.9999L8.17594 16.9999C8.19172 17 8.20749 17 8.22324 17V15ZM7.69637 16.9853C7.85628 16.9942 8.01616 16.9991 8.17586 16.9999L8.18589 14.9999C8.05999 14.9993 7.93393 14.9955 7.80785 14.9884L7.69637 16.9853ZM3.28688 15.6026C4.61336 16.4226 6.13125 16.8979 7.69636 16.9853L7.80785 14.9884C6.57322 14.9195 5.37896 14.5446 4.33858 13.9014L3.28688 15.6026ZM0.116668 12.2927C0.868037 13.6438 1.96024 14.7824 3.28688 15.6026L4.33858 13.9014C3.29836 13.2583 2.44761 12.3691 1.86457 11.3207L0.116668 12.2927ZM-1 8.0015C-0.999747 9.50085 -0.615649 10.9758 0.116668 12.2927L1.86457 11.3207C1.29649 10.2991 1.0002 9.15832 1 8.00117L-1 8.0015ZM1 7.99692C1.0017 4.1581 4.2089 1 8.22324 1V-1C3.15684 -1 -0.997789 3.00154 -0.999999 7.99604L1 7.99692ZM1 8.00148L1 7.99662L-0.999999 7.99634L-1 8.00119L1 8.00148ZM10.173 14.7615C10.1806 14.7716 10.1845 14.7815 10.1863 14.7902C10.1883 14.8 10.1866 14.8041 10.1876 14.8002C10.1888 14.7956 10.1947 14.7769 10.2158 14.7539C10.2263 14.7425 10.2387 14.7321 10.2523 14.7237C10.266 14.7153 10.2772 14.711 10.2835 14.7092L10.8377 16.6309C11.5368 16.4292 11.9771 15.8837 12.127 15.2888C12.273 14.7094 12.1542 14.0654 11.768 13.5549L10.173 14.7615ZM10.4603 1.34422C10.4541 1.34226 10.443 1.33771 10.4295 1.32889C10.4161 1.32014 10.4039 1.30939 10.3937 1.29769C10.3731 1.27419 10.3676 1.25523 10.3666 1.25058C10.3657 1.24652 10.3672 1.25061 10.365 1.26037C10.363 1.26898 10.3589 1.27873 10.351 1.28864L11.9141 2.5362C12.3137 2.03563 12.449 1.39467 12.3178 0.811626C12.1831 0.212787 11.7566 -0.343873 11.0624 -0.563007L10.4603 1.34422Z" fill="#2A3B51" mask="url(#path-1-inside-1_1_19)"/>
</svg>
