<svg width="16" height="16" viewBox="0 0 16 16" fill="none" xmlns="http://www.w3.org/2000/svg">
<path fill-rule="evenodd" clip-rule="evenodd" d="M12 1H4C2.89543 1 2 1.7835 2 2.75V13.25C2 14.2165 2.89543 15 4 15H12C13.1046 15 14 14.2165 14 13.25V2.75C14 1.7835 13.1046 1 12 1ZM12 3.5625V1.875C12.5523 1.875 13 2.26675 13 2.75V3.5625H12ZM12 4.5625V6.1875H13V4.5625H12ZM13 7.1875H12V8.8125H13V7.1875ZM13 9.8125H12V11.4375H13V9.8125ZM13 12.4375H12V14.125C12.5523 14.125 13 13.7332 13 13.25V12.4375ZM11 8.5V14.125H5V8.5H11ZM11 7.5V1.875H5V7.5H11ZM4 12.4375L4 14.125C3.44772 14.125 3 13.7332 3 13.25V12.4375H4ZM4 11.4375V9.8125H3V11.4375H4ZM3 8.8125H4V7.1875H3V8.8125ZM3 6.1875H4V4.5625H3V6.1875ZM3 3.5625H4V1.875C3.44772 1.875 3 2.26675 3 2.75V3.5625Z" fill="#2A3B51"/>
</svg>
