<svg width="16" height="16" viewBox="0 0 16 16" fill="none" xmlns="http://www.w3.org/2000/svg">
<path d="M4.39895 5.31037C4.39895 4.85666 4.70441 4.45981 5.143 4.34368L12.7388 2.33254C13.3732 2.16456 13.9948 2.64293 13.9948 3.29923V9.93511C14.002 10.1014 14.0003 10.3445 13.998 10.6885C13.9965 10.9039 13.9948 11.1589 13.9948 11.4593C13.9948 12.1609 13.1892 12.7297 12.1955 12.7297C11.2019 12.7297 10.3963 12.1609 10.3963 11.4593C10.3963 10.7577 11.2019 10.189 12.1955 10.189C12.4227 10.189 12.6214 10.1643 12.7953 10.1252V4.85827L5.59843 6.76378V11.2054C5.61022 11.4759 5.59843 11.9494 5.59843 12.7297C5.59843 13.4312 4.79289 14 3.79921 14C2.80554 14 2 13.4312 2 12.7297C2 12.0281 2.80554 11.4593 3.79921 11.4593C4.02635 11.4593 4.22509 11.4346 4.39895 11.3955V5.31037Z" fill="#2A3B51"/>
</svg>
