<svg width="16" height="16" viewBox="0 0 16 16" fill="none" xmlns="http://www.w3.org/2000/svg">
<path d="M7 14.5C6.72386 14.5 6.5 14.7239 6.5 15C6.5 15.2761 6.72386 15.5 7 15.5V14.5ZM15 15.5C15.2761 15.5 15.5 15.2761 15.5 15C15.5 14.7239 15.2761 14.5 15 14.5V15.5ZM13.7355 1.03788L13.601 0.556323L13.601 0.556323L13.7355 1.03788ZM13.4841 1.10813L13.3495 0.626571C13.3167 0.635757 13.2848 0.648285 13.2545 0.66396L13.4841 1.10813ZM10.57 2.61448L10.3404 2.17032L10.2713 2.20599L10.2164 2.26093L10.57 2.61448ZM13.3855 5.43004L13.7391 5.78359L13.794 5.72865L13.8297 5.65963L13.3855 5.43004ZM14.8919 2.5159L15.336 2.7455C15.3517 2.71518 15.3642 2.68333 15.3734 2.65045L14.8919 2.5159ZM14.9621 2.26448L14.4806 2.12993L14.4806 2.12993L14.9621 2.26448ZM5.8988 12.9168L6.25235 13.2703L6.25235 13.2703L5.8988 12.9168ZM3.08324 10.1012L2.72969 9.74765L2.72969 9.74765L3.08324 10.1012ZM1.29156 13.3007L0.938007 13.6542L0.938007 13.6542L1.29156 13.3007ZM1.29156 11.8929L1.64511 12.2464L1.64511 12.2464L1.29156 11.8929ZM4.10711 14.7084L3.75356 14.3549L3.75356 14.3549L4.10711 14.7084ZM2.69934 14.7084L3.05289 14.3549L3.05289 14.3549L2.69934 14.7084ZM7 15.5C8.11329 15.5 8.69531 15.2114 9.22361 14.9472C9.69531 14.7114 10.1133 14.5 11 14.5V13.5C9.88671 13.5 9.30469 13.7886 8.77639 14.0528C8.30469 14.2886 7.88671 14.5 7 14.5V15.5ZM11 14.5C11.8867 14.5 12.3047 14.7114 12.7764 14.9472C13.3047 15.2114 13.8867 15.5 15 15.5V14.5C14.1133 14.5 13.6953 14.2886 13.2236 14.0528C12.6953 13.7886 12.1133 13.5 11 13.5V14.5ZM13.601 0.556323L13.3495 0.626571L13.6186 1.58968L13.8701 1.51944L13.601 0.556323ZM13.2545 0.66396L10.3404 2.17032L10.7996 3.05865L13.7137 1.5523L13.2545 0.66396ZM10.2164 2.96804L13.032 5.78359L13.7391 5.07648L10.9235 2.26093L10.2164 2.96804ZM13.8297 5.65963L15.336 2.7455L14.4477 2.28631L12.9413 5.20044L13.8297 5.65963ZM15.3734 2.65045L15.4437 2.39903L14.4806 2.12993L14.4103 2.38136L15.3734 2.65045ZM13.8701 1.51944C14.2419 1.41554 14.5845 1.75807 14.4806 2.12993L15.4437 2.39903C15.7573 1.27661 14.7234 0.242716 13.601 0.556323L13.8701 1.51944ZM13.032 5.07648L5.54524 12.5632L6.25235 13.2703L13.7391 5.78359L13.032 5.07648ZM3.4368 10.4548L10.9235 2.96804L10.2164 2.26093L2.72969 9.74765L3.4368 10.4548ZM1.64511 12.2464L3.4368 10.4548L2.72969 9.74765L0.938006 11.5393L1.64511 12.2464ZM5.54524 12.5632L3.75356 14.3549L4.46067 15.062L6.25235 13.2703L5.54524 12.5632ZM3.75356 14.3549C3.56008 14.5484 3.24637 14.5484 3.05289 14.3549L2.34578 15.062C2.92979 15.646 3.87666 15.646 4.46067 15.062L3.75356 14.3549ZM1.64511 12.9471C1.45163 12.7536 1.45163 12.4399 1.64511 12.2464L0.938006 11.5393C0.353998 12.1233 0.353997 13.0702 0.938007 13.6542L1.64511 12.9471ZM3.05289 14.3549L1.64511 12.9471L0.938007 13.6542L2.34578 15.062L3.05289 14.3549ZM6.25235 12.5632L3.4368 9.74765L2.72969 10.4548L5.54524 13.2703L6.25235 12.5632Z" fill="#2A3B51"/>
</svg>
