<svg width="16" height="16" viewBox="0 0 16 16" fill="none" xmlns="http://www.w3.org/2000/svg">
<path d="M1 14.5C0.723858 14.5 0.5 14.7239 0.5 15C0.5 15.2761 0.723858 15.5 1 15.5V14.5ZM9 15.5C9.27614 15.5 9.5 15.2761 9.5 15C9.5 14.7239 9.27614 14.5 9 14.5V15.5ZM13.7355 14.9621L13.601 15.4437L13.601 15.4437L13.7355 14.9621ZM13.4841 14.8919L13.2545 15.336C13.2848 15.3517 13.3167 15.3642 13.3495 15.3734L13.4841 14.8919ZM10.57 13.3855L10.2164 13.7391L10.2713 13.794L10.3404 13.8297L10.57 13.3855ZM13.3855 10.57L13.8297 10.3404L13.794 10.2713L13.7391 10.2164L13.3855 10.57ZM14.8919 13.4841L15.3734 13.3495C15.3642 13.3167 15.3517 13.2848 15.336 13.2545L14.8919 13.4841ZM14.9621 13.7355L14.4806 13.8701L14.4806 13.8701L14.9621 13.7355ZM5.8988 3.08324L6.25235 2.72969L6.25235 2.72969L5.8988 3.08324ZM3.08324 5.8988L2.72969 6.25235L2.72969 6.25235L3.08324 5.8988ZM1.29156 2.69934L0.938007 2.34578L0.938007 2.34578L1.29156 2.69934ZM1.29156 4.10711L1.64511 3.75356L1.29156 4.10711ZM4.10711 1.29156L3.75356 1.64511L3.75356 1.64511L4.10711 1.29156ZM2.69934 1.29156L3.05289 1.64511L3.05289 1.64511L2.69934 1.29156ZM1 15.5C2.11329 15.5 2.69531 15.2114 3.22361 14.9472C3.69531 14.7114 4.11329 14.5 5 14.5V13.5C3.88671 13.5 3.30469 13.7886 2.77639 14.0528C2.30469 14.2886 1.88671 14.5 1 14.5V15.5ZM5 14.5C5.88671 14.5 6.30469 14.7114 6.77639 14.9472C7.30469 15.2114 7.88671 15.5 9 15.5V14.5C8.11329 14.5 7.69531 14.2886 7.22361 14.0528C6.69531 13.7886 6.11329 13.5 5 13.5V14.5ZM13.8701 14.4806L13.6186 14.4103L13.3495 15.3734L13.601 15.4437L13.8701 14.4806ZM13.7137 14.4477L10.7996 12.9413L10.3404 13.8297L13.2545 15.336L13.7137 14.4477ZM10.9235 13.7391L13.7391 10.9235L13.032 10.2164L10.2164 13.032L10.9235 13.7391ZM12.9413 10.7996L14.4477 13.7137L15.336 13.2545L13.8297 10.3404L12.9413 10.7996ZM14.4103 13.6186L14.4806 13.8701L15.4437 13.601L15.3734 13.3495L14.4103 13.6186ZM13.601 15.4437C14.7234 15.7573 15.7573 14.7234 15.4437 13.601L14.4806 13.8701C14.5845 14.2419 14.2419 14.5845 13.8701 14.4806L13.601 15.4437ZM13.7391 10.2164L6.25235 2.72969L5.54524 3.4368L13.032 10.9235L13.7391 10.2164ZM2.72969 6.25235L10.2164 13.7391L10.9235 13.032L3.4368 5.54524L2.72969 6.25235ZM0.938007 4.46067L2.72969 6.25235L3.4368 5.54524L1.64511 3.75356L0.938007 4.46067ZM6.25235 2.72969L4.46067 0.938007L3.75356 1.64511L5.54524 3.4368L6.25235 2.72969ZM4.46067 0.938007C3.87666 0.353998 2.92979 0.353997 2.34578 0.938006L3.05289 1.64511C3.24637 1.45163 3.56008 1.45163 3.75356 1.64511L4.46067 0.938007ZM0.938007 2.34578C0.353998 2.92979 0.353999 3.87666 0.938007 4.46067L1.64511 3.75356C1.45163 3.56007 1.45163 3.24637 1.64511 3.05289L0.938007 2.34578ZM2.34578 0.938006L0.938007 2.34578L1.64511 3.05289L3.05289 1.64511L2.34578 0.938006ZM5.54524 2.72969L2.72969 5.54524L3.4368 6.25235L6.25235 3.4368L5.54524 2.72969Z" fill="black"/>
</svg>
