<svg width="16" height="16" viewBox="0 0 16 16" fill="none" xmlns="http://www.w3.org/2000/svg">
<path fill-rule="evenodd" clip-rule="evenodd" d="M12.645 1C12.9212 1 13.145 1.22386 13.145 1.5V5.83321C13.145 6.10935 12.9212 6.33321 12.645 6.33321C12.3689 6.33321 12.145 6.10935 12.145 5.83321V1.5C12.145 1.22386 12.3689 1 12.645 1ZM1.5 3.16663H11.645V4.16663H1.5C1.22386 4.16663 1 3.94277 1 3.66663C1 3.39048 1.22386 3.16663 1.5 3.16663ZM14.5025 4.16663H13.645V3.16663H14.5025C14.7787 3.16663 15.0025 3.39048 15.0025 3.66663C15.0025 3.94277 14.7787 4.16663 14.5025 4.16663ZM10.9586 8.49976C10.9858 8.33723 11 8.17027 11 8C11 7.82956 10.9858 7.66244 10.9585 7.49976H14.5025C14.7787 7.49976 15.0025 7.72362 15.0025 7.99976C15.0025 8.2759 14.7787 8.49976 14.5025 8.49976H10.9586ZM5.04144 8.49976H1.5C1.22386 8.49976 1 8.2759 1 7.99976C1 7.72362 1.22386 7.49976 1.5 7.49976H5.04152C5.01421 7.66244 5 7.82956 5 8C5 8.17027 5.01418 8.33723 5.04144 8.49976ZM3.00128 11.8329H1.5C1.22386 11.8329 1 12.0567 1 12.3329C1 12.609 1.22386 12.8329 1.5 12.8329H3.00128V11.8329ZM5.00128 12.8329H14.5025C14.7787 12.8329 15.0025 12.609 15.0025 12.3329C15.0025 12.0567 14.7787 11.8329 14.5025 11.8329H5.00128V12.8329ZM4.50128 10.1666C4.50128 9.89048 4.27742 9.66663 4.00128 9.66663C3.72514 9.66663 3.50128 9.89048 3.50128 10.1666V14.4998C3.50128 14.776 3.72514 14.9998 4.00128 14.9998C4.27742 14.9998 4.50128 14.776 4.50128 14.4998V10.1666Z" fill="#2A3B51"/>
<circle cx="8" cy="8" r="2" fill="#2A3B51"/>
</svg>
