<svg width="16" height="16" viewBox="0 0 16 16" fill="none" xmlns="http://www.w3.org/2000/svg">
<path d="M8.66667 3V4.6C8.66667 4.87614 8.44281 5.1 8.16667 5.1H1.5V2.5H8.16667C8.44281 2.5 8.66667 2.72386 8.66667 3ZM9.58131 2.5H14C14.2761 2.5 14.5 2.72386 14.5 3V4.6C14.5 4.87614 14.2761 5.1 14 5.1H9.58131C9.63659 4.94361 9.66667 4.77532 9.66667 4.6V3C9.66667 2.82468 9.63659 2.65639 9.58131 2.5ZM6.16667 13V11.4C6.16667 11.2247 6.13659 11.0564 6.08131 10.9H14C14.2761 10.9 14.5 11.1239 14.5 11.4V13C14.5 13.2761 14.2761 13.5 14 13.5H6.08131C6.13659 13.3436 6.16667 13.1753 6.16667 13ZM1.5 13.5V10.9H4.66667C4.94281 10.9 5.16667 11.1239 5.16667 11.4V13C5.16667 13.2761 4.94281 13.5 4.66667 13.5H1.5Z" stroke="#2A3B51" stroke-linejoin="round"/>
</svg>
