<svg width="18" height="16" viewBox="0 0 18 16" fill="none" xmlns="http://www.w3.org/2000/svg">
<path d="M7 13.5H3C2.72386 13.5 2.5 13.2761 2.5 13V9.93699C1.63739 9.71497 1 8.93192 1 8C1 7.06808 1.63739 6.28503 2.5 6.06301V3C2.5 2.72386 2.72386 2.5 3 2.5H7C7 2.5 6.48256 3.67209 7 4.5C7.82791 5.82466 10.1721 5.82466 11 4.5C11.5174 3.67209 11 2.5 11 2.5H15C15.2761 2.5 15.5 2.72386 15.5 3V6.06301C16.3626 6.28503 17 7.06808 17 8C17 8.93192 16.3626 9.71497 15.5 9.93699V13C15.5 13.2761 15.2761 13.5 15 13.5H11C11 13.5 11.5174 12.3279 11 11.5C10.1721 10.1753 7.82791 10.1753 7 11.5C6.48256 12.3279 7 13.5 7 13.5Z" stroke="black"/>
</svg>
