<svg width="16" height="16" viewBox="0 0 16 16" fill="none" xmlns="http://www.w3.org/2000/svg">
<path d="M5.5 12.5006C5.5 12.7764 5.27655 13 5 13H2V10.7122C2 10.0096 1.5029 9.50073 1.10423 9.20332C0.736522 8.92899 0.5 8.49218 0.5 8C0.5 7.50782 0.736522 7.07101 1.10423 6.79668L0.805253 6.39592L1.10423 6.79668C1.5029 6.49927 2 5.99037 2 5.2878V3H5C5.27655 3 5.5 3.22364 5.5 3.49938V3.50095V3.50253V3.5041V3.50568V3.50725V3.50883V3.51041V3.51199V3.51358V3.51516V3.51675V3.51833V3.51992V3.52151V3.5231V3.5247V3.52629V3.52789V3.52948V3.53108V3.53268V3.53428V3.53588V3.53749V3.53909V3.5407V3.54231V3.54392V3.54553V3.54714V3.54876V3.55037V3.55199V3.55361V3.55523V3.55685V3.55848V3.5601V3.56173V3.56335V3.56498V3.56661V3.56824V3.56988V3.57151V3.57315V3.57478V3.57642V3.57806V3.57971V3.58135V3.58299V3.58464V3.58629V3.58794V3.58959V3.59124V3.59289V3.59455V3.5962V3.59786V3.59952V3.60118V3.60284V3.60451V3.60617V3.60784V3.6095V3.61117V3.61284V3.61452V3.61619V3.61787V3.61954V3.62122V3.6229V3.62458V3.62626V3.62795V3.62963V3.63132V3.63301V3.6347V3.63639V3.63808V3.63977V3.64147V3.64317V3.64487V3.64657V3.64827V3.64997V3.65167V3.65338V3.65509V3.6568V3.65851V3.66022V3.66193V3.66365V3.66536V3.66708V3.6688V3.67052V3.67224V3.67396V3.67569V3.67742V3.67914V3.68087V3.6826V3.68434V3.68607V3.6878V3.68954V3.69128V3.69302V3.69476V3.6965V3.69825V3.69999V3.70174V3.70349V3.70524V3.70699V3.70874V3.7105V3.71225V3.71401V3.71577V3.71753V3.71929V3.72105V3.72282V3.72458V3.72635V3.72812V3.72989V3.73166V3.73344V3.73521V3.73699V3.73877V3.74055V3.74233V3.74411V3.7459V3.74768V3.74947V3.75126V3.75305V3.75484V3.75663V3.75843V3.76022V3.76202V3.76382V3.76562V3.76742V3.76922V3.77103V3.77284V3.77464V3.77645V3.77826V3.78008V3.78189V3.78371V3.78552V3.78734V3.78916V3.79098V3.7928V3.79463V3.79646V3.79828V3.80011V3.80194V3.80377V3.80561V3.80744V3.80928V3.81112V3.81296V3.8148V3.81664V3.81848V3.82033V3.82218V3.82402V3.82587V3.82773V3.82958V3.83143V3.83329V3.83515V3.83701V3.83887V3.84073V3.84259V3.84446V3.84632V3.84819V3.85006V3.85193V3.85381V3.85568V3.85755V3.85943V3.86131V3.86319V3.86507V3.86696V3.86884V3.87073V3.87261V3.8745V3.87639V3.87829V3.88018V3.88208V3.88397V3.88587V3.88777V3.88967V3.89158V3.89348V3.89539V3.89729V3.8992V3.90111V3.90303V3.90494V3.90685V3.90877V3.91069V3.91261V3.91453V3.91645V3.91838V3.9203V3.92223V3.92416V3.92609V3.92802V3.92996V3.93189V3.93383V3.93577V3.93771V3.93965V3.94159V3.94353V3.94548V3.94743V3.94938V3.95133V3.95328V3.95523V3.95719V3.95914V3.9611V3.96306V3.96502V3.96698V3.96895V3.97091V3.97288V3.97485V3.97682V3.97879V3.98077V3.98274V3.98472V3.9867V3.98868V3.99066V3.99264V3.99462V3.99661V3.9986V4.00059V4.00258V4.00457V4.00656V4.00856V4.01055V4.01255V4.01455V4.01655V4.01856V4.02056V4.02257V4.02457V4.02658V4.02859V4.03061V4.03262V4.03464V4.03665V4.03867V4.04069V4.04271V4.04473V4.04676V4.04879V4.05081V4.05284V4.05487V4.05691V4.05894V4.06098V4.06301V4.06505V4.06709V4.06913V4.07118V4.07322V4.07527V4.07732V4.07937V4.08142V4.08347V4.08552V4.08758V4.08964V4.0917V4.09376V4.09582V4.09788V4.09995V4.10201V4.10408V4.10615V4.10822V4.1103V4.11237V4.11445V4.11652V4.1186V4.12069V4.12277V4.12485V4.12694V4.12902V4.13111V4.1332V4.1353V4.13739V4.13948V4.14158V4.14368V4.14578V4.14788V4.14998V4.15209V4.15419V4.1563V4.15841V4.16052V4.16263V4.16475V4.16686V4.16898V4.1711V4.17322V4.17534V4.17747V4.17959V4.18172V4.18385V4.18598V4.18811V4.19024V4.19237V4.19451V4.19665V4.19879V4.20093V4.20307V4.20522V4.20736V4.20951V4.21166V4.21381V4.21596V4.21811V4.22027V4.22243V4.22458V4.22674V4.22891V4.23107V4.23323V4.2354V4.23757V4.23974V4.24191V4.24408V4.24626V4.24843V4.25061V4.25279V4.25497V4.25715V4.25934V4.26152V4.26371V4.2659V4.26809V4.27028V4.27247V4.27467V4.27687V4.27906V4.28126V4.28347V4.28567V4.28787V4.29008V4.29229V4.2945V4.29671V4.29892V4.30114V4.30335V4.30557V4.30779V4.31001V4.31223V4.31446V4.31668V4.31891V4.32114V4.32337V4.3256V4.32784V4.33007V4.33231V4.33455V4.33679V4.33903V4.34127V4.34352V4.34576V4.34801V4.35026V4.35251V4.35477V4.35702V4.35928V4.36154V4.3638V4.36606V4.36832V4.37059V4.37285V4.37512V4.37739V4.37966V4.38193V4.38421V4.38648V4.38876V4.39104V4.39332V4.3956V4.39789V4.40017V4.40246V4.40475V4.40704V4.40933V4.41162V4.41392V4.41622V4.41852V4.42082V4.42312V4.42542V4.42773V4.43003V4.43234V4.43465V4.43696V4.43928V4.44159V4.44391V4.44623V4.44855V4.45087V4.45319V4.45552V4.45784V4.46017V4.4625V4.46483V4.46717V4.4695V4.47184V4.47417V4.47651V4.47886V4.4812V4.48354V4.48589V4.48824V4.49059V4.49294V4.49529V4.49764V4.5C5.5 5.14586 5.92536 5.5781 6.39408 5.82216C6.86001 6.06477 7.44509 6.17157 8 6.17157C8.55491 6.17157 9.13999 6.06477 9.60592 5.82216C10.0746 5.5781 10.5 5.14586 10.5 4.5V4.49764V4.49529V4.49294V4.49059V4.48824V4.48589V4.48354V4.4812V4.47886V4.47651V4.47417V4.47184V4.4695V4.46717V4.46483V4.4625V4.46017V4.45784V4.45552V4.45319V4.45087V4.44855V4.44623V4.44391V4.44159V4.43928V4.43696V4.43465V4.43234V4.43003V4.42773V4.42542V4.42312V4.42082V4.41852V4.41622V4.41392V4.41162V4.40933V4.40704V4.40475V4.40246V4.40017V4.39789V4.3956V4.39332V4.39104V4.38876V4.38648V4.38421V4.38193V4.37966V4.37739V4.37512V4.37285V4.37059V4.36832V4.36606V4.3638V4.36154V4.35928V4.35702V4.35477V4.35251V4.35026V4.34801V4.34576V4.34352V4.34127V4.33903V4.33679V4.33455V4.33231V4.33007V4.32784V4.3256V4.32337V4.32114V4.31891V4.31668V4.31446V4.31223V4.31001V4.30779V4.30557V4.30335V4.30114V4.29892V4.29671V4.2945V4.29229V4.29008V4.28787V4.28567V4.28347V4.28126V4.27906V4.27687V4.27467V4.27247V4.27028V4.26809V4.2659V4.26371V4.26152V4.25934V4.25715V4.25497V4.25279V4.25061V4.24843V4.24626V4.24408V4.24191V4.23974V4.23757V4.2354V4.23323V4.23107V4.22891V4.22674V4.22458V4.22243V4.22027V4.21811V4.21596V4.21381V4.21166V4.20951V4.20736V4.20522V4.20307V4.20093V4.19879V4.19665V4.19451V4.19237V4.19024V4.18811V4.18598V4.18385V4.18172V4.17959V4.17747V4.17534V4.17322V4.1711V4.16898V4.16686V4.16475V4.16263V4.16052V4.15841V4.1563V4.15419V4.15209V4.14998V4.14788V4.14578V4.14368V4.14158V4.13948V4.13739V4.1353V4.1332V4.13111V4.12902V4.12694V4.12485V4.12277V4.12069V4.1186V4.11652V4.11445V4.11237V4.1103V4.10822V4.10615V4.10408V4.10201V4.09995V4.09788V4.09582V4.09376V4.0917V4.08964V4.08758V4.08552V4.08347V4.08142V4.07937V4.07732V4.07527V4.07322V4.07118V4.06913V4.06709V4.06505V4.06301V4.06098V4.05894V4.05691V4.05487V4.05284V4.05081V4.04879V4.04676V4.04473V4.04271V4.04069V4.03867V4.03665V4.03464V4.03262V4.03061V4.02859V4.02658V4.02457V4.02257V4.02056V4.01856V4.01655V4.01455V4.01255V4.01055V4.00856V4.00656V4.00457V4.00258V4.00059V3.9986V3.99661V3.99462V3.99264V3.99066V3.98868V3.9867V3.98472V3.98274V3.98077V3.97879V3.97682V3.97485V3.97288V3.97091V3.96895V3.96698V3.96502V3.96306V3.9611V3.95914V3.95719V3.95523V3.95328V3.95133V3.94938V3.94743V3.94548V3.94353V3.94159V3.93965V3.93771V3.93577V3.93383V3.93189V3.92996V3.92802V3.92609V3.92416V3.92223V3.9203V3.91838V3.91645V3.91453V3.91261V3.91069V3.90877V3.90685V3.90494V3.90303V3.90111V3.8992V3.89729V3.89539V3.89348V3.89158V3.88967V3.88777V3.88587V3.88397V3.88208V3.88018V3.87829V3.87639V3.8745V3.87261V3.87073V3.86884V3.86696V3.86507V3.86319V3.86131V3.85943V3.85755V3.85568V3.85381V3.85193V3.85006V3.84819V3.84632V3.84446V3.84259V3.84073V3.83887V3.83701V3.83515V3.83329V3.83143V3.82958V3.82773V3.82587V3.82402V3.82218V3.82033V3.81848V3.81664V3.8148V3.81296V3.81112V3.80928V3.80744V3.80561V3.80377V3.80194V3.80011V3.79828V3.79646V3.79463V3.7928V3.79098V3.78916V3.78734V3.78552V3.78371V3.78189V3.78008V3.77826V3.77645V3.77464V3.77284V3.77103V3.76922V3.76742V3.76562V3.76382V3.76202V3.76022V3.75843V3.75663V3.75484V3.75305V3.75126V3.74947V3.74768V3.7459V3.74411V3.74233V3.74055V3.73877V3.73699V3.73521V3.73344V3.73166V3.72989V3.72812V3.72635V3.72458V3.72282V3.72105V3.71929V3.71753V3.71577V3.71401V3.71225V3.7105V3.70874V3.70699V3.70524V3.70349V3.70174V3.69999V3.69825V3.6965V3.69476V3.69302V3.69128V3.68954V3.6878V3.68607V3.68434V3.6826V3.68087V3.67914V3.67742V3.67569V3.67396V3.67224V3.67052V3.6688V3.66708V3.66536V3.66365V3.66193V3.66022V3.65851V3.6568V3.65509V3.65338V3.65167V3.64997V3.64827V3.64657V3.64487V3.64317V3.64147V3.63977V3.63808V3.63639V3.6347V3.63301V3.63132V3.62963V3.62795V3.62626V3.62458V3.6229V3.62122V3.61954V3.61787V3.61619V3.61452V3.61284V3.61117V3.6095V3.60784V3.60617V3.60451V3.60284V3.60118V3.59952V3.59786V3.5962V3.59455V3.59289V3.59124V3.58959V3.58794V3.58629V3.58464V3.58299V3.58135V3.57971V3.57806V3.57642V3.57478V3.57315V3.57151V3.56988V3.56824V3.56661V3.56498V3.56335V3.56173V3.5601V3.55848V3.55685V3.55523V3.55361V3.55199V3.55037V3.54876V3.54714V3.54553V3.54392V3.54231V3.5407V3.53909V3.53749V3.53588V3.53428V3.53268V3.53108V3.52948V3.52789V3.52629V3.5247V3.5231V3.52151V3.51992V3.51833V3.51675V3.51516V3.51358V3.51199V3.51041V3.50883V3.50725V3.50568V3.5041V3.50253V3.50095V3.49938C10.5 3.22364 10.7235 3 11 3H14V5.2878C14 5.99037 14.4971 6.49927 14.8958 6.79668C15.2635 7.07101 15.5 7.50782 15.5 8C15.5 8.49218 15.2635 8.92899 14.8958 9.20332C14.4971 9.50073 14 10.0096 14 10.7122V13H11C10.7235 13 10.5 12.7764 10.5 12.5006V12.499V12.4975V12.4959V12.4943V12.4927V12.4912V12.4896V12.488V12.4864V12.4848V12.4833V12.4817V12.4801V12.4785V12.4769V12.4753V12.4737V12.4721V12.4705V12.4689V12.4673V12.4657V12.4641V12.4625V12.4609V12.4593V12.4577V12.4561V12.4545V12.4529V12.4512V12.4496V12.448V12.4464V12.4448V12.4431V12.4415V12.4399V12.4383V12.4366V12.435V12.4334V12.4318V12.4301V12.4285V12.4269V12.4252V12.4236V12.4219V12.4203V12.4187V12.417V12.4154V12.4137V12.4121V12.4104V12.4088V12.4071V12.4055V12.4038V12.4021V12.4005V12.3988V12.3972V12.3955V12.3938V12.3922V12.3905V12.3888V12.3872V12.3855V12.3838V12.3821V12.3805V12.3788V12.3771V12.3754V12.3737V12.3721V12.3704V12.3687V12.367V12.3653V12.3636V12.3619V12.3602V12.3585V12.3568V12.3551V12.3534V12.3517V12.35V12.3483V12.3466V12.3449V12.3432V12.3415V12.3398V12.3381V12.3364V12.3346V12.3329V12.3312V12.3295V12.3278V12.326V12.3243V12.3226V12.3209V12.3191V12.3174V12.3157V12.3139V12.3122V12.3105V12.3087V12.307V12.3052V12.3035V12.3018V12.3V12.2983V12.2965V12.2948V12.293V12.2913V12.2895V12.2877V12.286V12.2842V12.2825V12.2807V12.2789V12.2772V12.2754V12.2736V12.2719V12.2701V12.2683V12.2666V12.2648V12.263V12.2612V12.2595V12.2577V12.2559V12.2541V12.2523V12.2505V12.2487V12.247V12.2452V12.2434V12.2416V12.2398V12.238V12.2362V12.2344V12.2326V12.2308V12.229V12.2272V12.2254V12.2235V12.2217V12.2199V12.2181V12.2163V12.2145V12.2127V12.2108V12.209V12.2072V12.2054V12.2035V12.2017V12.1999V12.1981V12.1962V12.1944V12.1926V12.1907V12.1889V12.187V12.1852V12.1834V12.1815V12.1797V12.1778V12.176V12.1741V12.1723V12.1704V12.1686V12.1667V12.1649V12.163V12.1611V12.1593V12.1574V12.1555V12.1537V12.1518V12.1499V12.1481V12.1462V12.1443V12.1424V12.1406V12.1387V12.1368V12.1349V12.133V12.1312V12.1293V12.1274V12.1255V12.1236V12.1217V12.1198V12.1179V12.116V12.1141V12.1122V12.1103V12.1084V12.1065V12.1046V12.1027V12.1008V12.0989V12.097V12.0951V12.0931V12.0912V12.0893V12.0874V12.0855V12.0835V12.0816V12.0797V12.0778V12.0758V12.0739V12.072V12.07V12.0681V12.0662V12.0642V12.0623V12.0604V12.0584V12.0565V12.0545V12.0526V12.0506V12.0487V12.0467V12.0448V12.0428V12.0409V12.0389V12.0369V12.035V12.033V12.0311V12.0291V12.0271V12.0251V12.0232V12.0212V12.0192V12.0173V12.0153V12.0133V12.0113V12.0093V12.0074V12.0054V12.0034V12.0014V11.9994V11.9974V11.9954V11.9934V11.9914V11.9894V11.9874V11.9854V11.9834V11.9814V11.9794V11.9774V11.9754V11.9734V11.9714V11.9694V11.9674V11.9654V11.9633V11.9613V11.9593V11.9573V11.9553V11.9532V11.9512V11.9492V11.9472V11.9451V11.9431V11.9411V11.939V11.937V11.9349V11.9329V11.9309V11.9288V11.9268V11.9247V11.9227V11.9206V11.9186V11.9165V11.9145V11.9124V11.9104V11.9083V11.9062V11.9042V11.9021V11.9001V11.898V11.8959V11.8938V11.8918V11.8897V11.8876V11.8856V11.8835V11.8814V11.8793V11.8772V11.8751V11.8731V11.871V11.8689V11.8668V11.8647V11.8626V11.8605V11.8584V11.8563V11.8542V11.8521V11.85V11.8479V11.8458V11.8437V11.8416V11.8395V11.8374V11.8353V11.8331V11.831V11.8289V11.8268V11.8247V11.8225V11.8204V11.8183V11.8162V11.814V11.8119V11.8098V11.8076V11.8055V11.8034V11.8012V11.7991V11.7969V11.7948V11.7926V11.7905V11.7883V11.7862V11.784V11.7819V11.7797V11.7776V11.7754V11.7733V11.7711V11.7689V11.7668V11.7646V11.7624V11.7603V11.7581V11.7559V11.7537V11.7516V11.7494V11.7472V11.745V11.7428V11.7407V11.7385V11.7363V11.7341V11.7319V11.7297V11.7275V11.7253V11.7231V11.7209V11.7187V11.7165V11.7143V11.7121V11.7099V11.7077V11.7055V11.7033V11.7011V11.6989V11.6966V11.6944V11.6922V11.69V11.6878V11.6855V11.6833V11.6811V11.6789V11.6766V11.6744V11.6722V11.6699V11.6677V11.6655V11.6632V11.661V11.6587V11.6565V11.6542V11.652V11.6497V11.6475V11.6452V11.643V11.6407V11.6385V11.6362V11.6339V11.6317V11.6294V11.6271V11.6249V11.6226V11.6203V11.6181V11.6158V11.6135V11.6112V11.609V11.6067V11.6044V11.6021V11.5998V11.5975V11.5953V11.593V11.5907V11.5884V11.5861V11.5838V11.5815V11.5792V11.5769V11.5746V11.5723V11.57V11.5677V11.5653V11.563V11.5607V11.5584V11.5561V11.5538V11.5515V11.5491V11.5468V11.5445V11.5422V11.5398V11.5375V11.5352V11.5328V11.5305V11.5282V11.5258V11.5235V11.5211V11.5188V11.5165V11.5141V11.5118V11.5094V11.5071V11.5047V11.5024V11.5C10.5 10.8541 10.0746 10.4219 9.60592 10.1778C9.13999 9.93523 8.55491 9.82843 8 9.82843C7.44509 9.82843 6.86001 9.93523 6.39408 10.1778C5.92536 10.4219 5.5 10.8541 5.5 11.5V11.5024V11.5047V11.5071V11.5094V11.5118V11.5141V11.5165V11.5188V11.5211V11.5235V11.5258V11.5282V11.5305V11.5328V11.5352V11.5375V11.5398V11.5422V11.5445V11.5468V11.5491V11.5515V11.5538V11.5561V11.5584V11.5607V11.563V11.5653V11.5677V11.57V11.5723V11.5746V11.5769V11.5792V11.5815V11.5838V11.5861V11.5884V11.5907V11.593V11.5953V11.5975V11.5998V11.6021V11.6044V11.6067V11.609V11.6112V11.6135V11.6158V11.6181V11.6203V11.6226V11.6249V11.6271V11.6294V11.6317V11.6339V11.6362V11.6385V11.6407V11.643V11.6452V11.6475V11.6497V11.652V11.6542V11.6565V11.6587V11.661V11.6632V11.6655V11.6677V11.6699V11.6722V11.6744V11.6766V11.6789V11.6811V11.6833V11.6855V11.6878V11.69V11.6922V11.6944V11.6966V11.6989V11.7011V11.7033V11.7055V11.7077V11.7099V11.7121V11.7143V11.7165V11.7187V11.7209V11.7231V11.7253V11.7275V11.7297V11.7319V11.7341V11.7363V11.7385V11.7407V11.7428V11.745V11.7472V11.7494V11.7516V11.7537V11.7559V11.7581V11.7603V11.7624V11.7646V11.7668V11.7689V11.7711V11.7733V11.7754V11.7776V11.7797V11.7819V11.784V11.7862V11.7883V11.7905V11.7926V11.7948V11.7969V11.7991V11.8012V11.8034V11.8055V11.8076V11.8098V11.8119V11.814V11.8162V11.8183V11.8204V11.8225V11.8247V11.8268V11.8289V11.831V11.8331V11.8353V11.8374V11.8395V11.8416V11.8437V11.8458V11.8479V11.85V11.8521V11.8542V11.8563V11.8584V11.8605V11.8626V11.8647V11.8668V11.8689V11.871V11.8731V11.8751V11.8772V11.8793V11.8814V11.8835V11.8856V11.8876V11.8897V11.8918V11.8938V11.8959V11.898V11.9001V11.9021V11.9042V11.9062V11.9083V11.9104V11.9124V11.9145V11.9165V11.9186V11.9206V11.9227V11.9247V11.9268V11.9288V11.9309V11.9329V11.9349V11.937V11.939V11.9411V11.9431V11.9451V11.9472V11.9492V11.9512V11.9532V11.9553V11.9573V11.9593V11.9613V11.9633V11.9654V11.9674V11.9694V11.9714V11.9734V11.9754V11.9774V11.9794V11.9814V11.9834V11.9854V11.9874V11.9894V11.9914V11.9934V11.9954V11.9974V11.9994V12.0014V12.0034V12.0054V12.0074V12.0093V12.0113V12.0133V12.0153V12.0173V12.0192V12.0212V12.0232V12.0251V12.0271V12.0291V12.0311V12.033V12.035V12.0369V12.0389V12.0409V12.0428V12.0448V12.0467V12.0487V12.0506V12.0526V12.0545V12.0565V12.0584V12.0604V12.0623V12.0642V12.0662V12.0681V12.07V12.072V12.0739V12.0758V12.0778V12.0797V12.0816V12.0835V12.0855V12.0874V12.0893V12.0912V12.0931V12.0951V12.097V12.0989V12.1008V12.1027V12.1046V12.1065V12.1084V12.1103V12.1122V12.1141V12.116V12.1179V12.1198V12.1217V12.1236V12.1255V12.1274V12.1293V12.1312V12.133V12.1349V12.1368V12.1387V12.1406V12.1424V12.1443V12.1462V12.1481V12.1499V12.1518V12.1537V12.1555V12.1574V12.1593V12.1611V12.163V12.1649V12.1667V12.1686V12.1704V12.1723V12.1741V12.176V12.1778V12.1797V12.1815V12.1834V12.1852V12.187V12.1889V12.1907V12.1926V12.1944V12.1962V12.1981V12.1999V12.2017V12.2035V12.2054V12.2072V12.209V12.2108V12.2127V12.2145V12.2163V12.2181V12.2199V12.2217V12.2235V12.2254V12.2272V12.229V12.2308V12.2326V12.2344V12.2362V12.238V12.2398V12.2416V12.2434V12.2452V12.247V12.2487V12.2505V12.2523V12.2541V12.2559V12.2577V12.2595V12.2612V12.263V12.2648V12.2666V12.2683V12.2701V12.2719V12.2736V12.2754V12.2772V12.2789V12.2807V12.2825V12.2842V12.286V12.2877V12.2895V12.2913V12.293V12.2948V12.2965V12.2983V12.3V12.3018V12.3035V12.3052V12.307V12.3087V12.3105V12.3122V12.3139V12.3157V12.3174V12.3191V12.3209V12.3226V12.3243V12.326V12.3278V12.3295V12.3312V12.3329V12.3346V12.3364V12.3381V12.3398V12.3415V12.3432V12.3449V12.3466V12.3483V12.35V12.3517V12.3534V12.3551V12.3568V12.3585V12.3602V12.3619V12.3636V12.3653V12.367V12.3687V12.3704V12.3721V12.3737V12.3754V12.3771V12.3788V12.3805V12.3821V12.3838V12.3855V12.3872V12.3888V12.3905V12.3922V12.3938V12.3955V12.3972V12.3988V12.4005V12.4021V12.4038V12.4055V12.4071V12.4088V12.4104V12.4121V12.4137V12.4154V12.417V12.4187V12.4203V12.4219V12.4236V12.4252V12.4269V12.4285V12.4301V12.4318V12.4334V12.435V12.4366V12.4383V12.4399V12.4415V12.4431V12.4448V12.4464V12.448V12.4496V12.4512V12.4529V12.4545V12.4561V12.4577V12.4593V12.4609V12.4625V12.4641V12.4657V12.4673V12.4689V12.4705V12.4721V12.4737V12.4753V12.4769V12.4785V12.4801V12.4817V12.4833V12.4848V12.4864V12.488V12.4896V12.4912V12.4927V12.4943V12.4959V12.4975V12.499V12.5006Z" stroke="#2A3B51"/>
</svg>
