<svg width="16" height="16" viewBox="0 0 16 16" fill="none" xmlns="http://www.w3.org/2000/svg">
<path d="M5.5 3.50095V3.49938V3.50095ZM5.5 3.50095V3.50253M5.5 3.50095V3.50253M5.5 3.50253V3.5041M5.5 3.50253V3.5041M5.5 3.5041V3.50568M5.5 3.5041V3.50568M5.5 3.50568V3.50725M5.5 3.50568V3.50725M5.5 3.50725V3.50883M5.5 3.50725V3.50883M5.5 3.50883V3.51041M5.5 3.50883V3.51041M5.5 3.51041V3.51199M5.5 3.51041V3.51199M5.5 3.51199V3.51358M5.5 3.51199V3.51358M5.5 3.51358V3.51516M5.5 3.51358V3.51516M5.5 3.51516V3.51675M5.5 3.51516V3.51675M5.5 3.51675V3.51833M5.5 3.51675V3.51833M5.5 3.51833V3.51992M5.5 3.51833V3.51992M5.5 3.51992V3.52151M5.5 3.51992V3.52151M5.5 3.52151V3.5231M5.5 3.52151V3.5231M5.5 3.5231V3.5247M5.5 3.5231V3.5247M5.5 3.5247V3.52629M5.5 3.5247V3.52629M5.5 3.52629V3.52789M5.5 3.52629V3.52789M5.5 3.52789V3.52948M5.5 3.52789V3.52948M5.5 3.52948V3.53108M5.5 3.52948V3.53108M5.5 3.53108V3.53268M5.5 3.53108V3.53268M5.5 3.53268V3.53428M5.5 3.53268V3.53428M5.5 3.53428V3.53588M5.5 3.53428V3.53588M5.5 3.53588V3.53749M5.5 3.53588V3.53749M5.5 3.53749V3.53909M5.5 3.53749V3.53909M5.5 3.53909V3.5407M5.5 3.53909V3.5407M5.5 3.5407V3.54231M5.5 3.5407V3.54231M5.5 3.54231V3.54392M5.5 3.54231V3.54392M5.5 3.54392V3.54553M5.5 3.54392V3.54553M5.5 3.54553V3.54715M5.5 3.54553V3.54715M5.5 3.54715V3.54876M5.5 3.54715V3.54876M5.5 3.54876V3.55038M5.5 3.54876V3.55038M5.5 3.55038V3.55199M5.5 3.55038V3.55199M5.5 3.55199V3.55361M5.5 3.55199V3.55361M5.5 3.55361V3.55523M5.5 3.55361V3.55523M5.5 3.55523V3.55685M5.5 3.55523V3.55685M5.5 3.55685V3.55848M5.5 3.55685V3.55848M5.5 3.55848V3.5601M5.5 3.55848V3.5601M5.5 3.5601V3.56173M5.5 3.5601V3.56173M5.5 3.56173V3.56335M5.5 3.56173V3.56335M5.5 3.56335V3.56498M5.5 3.56335V3.56498M5.5 3.56498V3.56661M5.5 3.56498V3.56661M5.5 3.56661V3.56824M5.5 3.56661V3.56824M5.5 3.56824V3.56988M5.5 3.56824V3.56988M5.5 3.56988V3.57151M5.5 3.56988V3.57151M5.5 3.57151V3.57315M5.5 3.57151V3.57315M5.5 3.57315V3.57478M5.5 3.57315V3.57478M5.5 3.57478V3.57642M5.5 3.57478V3.57642M5.5 3.57642V3.57806M5.5 3.57642V3.57806M5.5 3.57806V3.57971M5.5 3.57806V3.57971M5.5 3.57971V3.58135M5.5 3.57971V3.58135M5.5 3.58135V3.58299M5.5 3.58135V3.58299M5.5 3.58299V3.58464M5.5 3.58299V3.58464M5.5 3.58464V3.58629M5.5 3.58464V3.58629M5.5 3.58629V3.58794M5.5 3.58629V3.58794M5.5 3.58794V3.58959M5.5 3.58794V3.58959M5.5 3.58959V3.59124M5.5 3.58959V3.59124M5.5 3.59124V3.59289M5.5 3.59124V3.59289M5.5 3.59289V3.59455M5.5 3.59289V3.59455M5.5 3.59455V3.5962M5.5 3.59455V3.5962M5.5 3.5962V3.59786M5.5 3.5962V3.59786M5.5 3.59786V3.59952M5.5 3.59786V3.59952M5.5 3.59952V3.60118M5.5 3.59952V3.60118M5.5 3.60118V3.60284M5.5 3.60118V3.60284M5.5 3.60284V3.60451M5.5 3.60284V3.60451M5.5 3.60451V3.60617M5.5 3.60451V3.60617M5.5 3.60617V3.60784M5.5 3.60617V3.60784M5.5 3.60784V3.6095M5.5 3.60784V3.6095M5.5 3.6095V3.61117M5.5 3.6095V3.61117M5.5 3.61117V3.61284M5.5 3.61117V3.61284M5.5 3.61284V3.61452M5.5 3.61284V3.61452M5.5 3.61452V3.61619M5.5 3.61452V3.61619M5.5 3.61619V3.61787M5.5 3.61619V3.61787M5.5 3.61787V3.61954M5.5 3.61787V3.61954M5.5 3.61954V3.62122M5.5 3.61954V3.62122M5.5 3.62122V3.6229M5.5 3.62122V3.6229M5.5 3.6229V3.62458M5.5 3.6229V3.62458M5.5 3.62458V3.62626M5.5 3.62458V3.62626M5.5 3.62626V3.62795M5.5 3.62626V3.62795M5.5 3.62795V3.62963M5.5 3.62795V3.62963M5.5 3.62963V3.63132M5.5 3.62963V3.63132M5.5 3.63132V3.63301M5.5 3.63132V3.63301M5.5 3.63301V3.6347M5.5 3.63301V3.6347M5.5 3.6347V3.63639M5.5 3.6347V3.63639M5.5 3.63639V3.63808M5.5 3.63639V3.63808M5.5 3.63808V3.63977M5.5 3.63808V3.63977M5.5 3.63977V3.64147M5.5 3.63977V3.64147M5.5 3.64147V3.64317M5.5 3.64147V3.64317M5.5 3.64317V3.64487M5.5 3.64317V3.64487M5.5 3.64487V3.64657M5.5 3.64487V3.64657M5.5 3.64657V3.64827M5.5 3.64657V3.64827M5.5 3.64827V3.64997M5.5 3.64827V3.64997M5.5 3.64997V3.65167M5.5 3.64997V3.65167M5.5 3.65167V3.65338M5.5 3.65167V3.65338M5.5 3.65338V3.65509M5.5 3.65338V3.65509M5.5 3.65509V3.6568M5.5 3.65509V3.6568M5.5 3.6568V3.65851M5.5 3.6568V3.65851M5.5 3.65851V3.66022M5.5 3.65851V3.66022M5.5 3.66022V3.66193M5.5 3.66022V3.66193M5.5 3.66193V3.66365M5.5 3.66193V3.66365M5.5 3.66365V3.66536M5.5 3.66365V3.66536M5.5 3.66536V3.66708M5.5 3.66536V3.66708M5.5 3.66708V3.6688M5.5 3.66708V3.6688M5.5 3.6688V3.67052M5.5 3.6688V3.67052M5.5 3.67052V3.67224M5.5 3.67052V3.67224M5.5 3.67224V3.67396M5.5 3.67224V3.67396M5.5 3.67396V3.67569M5.5 3.67396V3.67569M5.5 3.67569V3.67742M5.5 3.67569V3.67742M5.5 3.67742V3.67914M5.5 3.67742V3.67914M5.5 3.67914V3.68087M5.5 3.67914V3.68087M5.5 3.68087V3.6826M5.5 3.68087V3.6826M5.5 3.6826V3.68434M5.5 3.6826V3.68434M5.5 3.68434V3.68607M5.5 3.68434V3.68607M5.5 3.68607V3.6878M5.5 3.68607V3.6878M5.5 3.6878V3.68954M5.5 3.6878V3.68954M5.5 3.68954V3.69128M5.5 3.68954V3.69128M5.5 3.69128V3.69302M5.5 3.69128V3.69302M5.5 3.69302V3.69476M5.5 3.69302V3.69476M5.5 3.69476V3.6965M5.5 3.69476V3.6965M5.5 3.6965V3.69825M5.5 3.6965V3.69825M5.5 3.69825V3.69999M5.5 3.69825V3.69999M5.5 3.69999V3.70174M5.5 3.69999V3.70174M5.5 3.70174V3.70349M5.5 3.70174V3.70349M5.5 3.70349V3.70524M5.5 3.70349V3.70524M5.5 3.70524V3.70699M5.5 3.70524V3.70699M5.5 3.70699V3.70874M5.5 3.70699V3.70874M5.5 3.70874V3.7105M5.5 3.70874V3.7105M5.5 3.7105V3.71225M5.5 3.7105V3.71225M5.5 3.71225V3.71401M5.5 3.71225V3.71401M5.5 3.71401V3.71577M5.5 3.71401V3.71577M5.5 3.71577V3.71753M5.5 3.71577V3.71753M5.5 3.71753V3.71929M5.5 3.71753V3.71929M5.5 3.71929V3.72105M5.5 3.71929V3.72105M5.5 3.72105V3.72282M5.5 3.72105V3.72282M5.5 3.72282V3.72458M5.5 3.72282V3.72458M5.5 3.72458V3.72635M5.5 3.72458V3.72635M5.5 3.72635V3.72812M5.5 3.72635V3.72812M5.5 3.72812V3.72989M5.5 3.72812V3.72989M5.5 3.72989V3.73166M5.5 3.72989V3.73166M5.5 3.73166V3.73344M5.5 3.73166V3.73344M5.5 3.73344V3.73521M5.5 3.73344V3.73521M5.5 3.73521V3.73699M5.5 3.73521V3.73699M5.5 3.73699V3.73877M5.5 3.73699V3.73877M5.5 3.73877V3.74055M5.5 3.73877V3.74055M5.5 3.74055V3.74233M5.5 3.74055V3.74233M5.5 3.74233V3.74411M5.5 3.74233V3.74411M5.5 3.74411V3.7459M5.5 3.74411V3.7459M5.5 3.7459V3.74768M5.5 3.7459V3.74768M5.5 3.74768V3.74947M5.5 3.74768V3.74947M5.5 3.74947V3.75126M5.5 3.74947V3.75126M5.5 3.75126V3.75305M5.5 3.75126V3.75305M5.5 3.75305V3.75484M5.5 3.75305V3.75484M5.5 3.75484V3.75663M5.5 3.75484V3.75663M5.5 3.75663V3.75843M5.5 3.75663V3.75843M5.5 3.75843V3.76022M5.5 3.75843V3.76022M5.5 3.76022V3.76202M5.5 3.76022V3.76202M5.5 3.76202V3.76382M5.5 3.76202V3.76382M5.5 3.76382V3.76562M5.5 3.76382V3.76562M5.5 3.76562V3.76742M5.5 3.76562V3.76742M5.5 3.76742V3.76922M5.5 3.76742V3.76922M5.5 3.76922V3.77103M5.5 3.76922V3.77103M5.5 3.77103V3.77284M5.5 3.77103V3.77284M5.5 3.77284V3.77464M5.5 3.77284V3.77464M5.5 3.77464V3.77645M5.5 3.77464V3.77645M5.5 3.77645V3.77826M5.5 3.77645V3.77826M5.5 3.77826V3.78008M5.5 3.77826V3.78008M5.5 3.78008V3.78189M5.5 3.78008V3.78189M5.5 3.78189V3.78371M5.5 3.78189V3.78371M5.5 3.78371V3.78552M5.5 3.78371V3.78552M5.5 3.78552V3.78734M5.5 3.78552V3.78734M5.5 3.78734V3.78916M5.5 3.78734V3.78916M5.5 3.78916V3.79098M5.5 3.78916V3.79098M5.5 3.79098V3.7928M5.5 3.79098V3.7928M5.5 3.7928V3.79463M5.5 3.7928V3.79463M5.5 3.79463V3.79646M5.5 3.79463V3.79646M5.5 3.79646V3.79828M5.5 3.79646V3.79828M5.5 3.79828V3.80011M5.5 3.79828V3.80011M5.5 3.80011V3.80194M5.5 3.80011V3.80194M5.5 3.80194V3.80377M5.5 3.80194V3.80377M5.5 3.80377V3.80561M5.5 3.80377V3.80561M5.5 3.80561V3.80744M5.5 3.80561V3.80744M5.5 3.80744V3.80928M5.5 3.80744V3.80928M5.5 3.80928V3.81112M5.5 3.80928V3.81112M5.5 3.81112V3.81296M5.5 3.81112V3.81296M5.5 3.81296V3.8148M5.5 3.81296V3.8148M5.5 3.8148V3.81664M5.5 3.8148V3.81664M5.5 3.81664V3.81848M5.5 3.81664V3.81848M5.5 3.81848V3.82033M5.5 3.81848V3.82033M5.5 3.82033V3.82218M5.5 3.82033V3.82218M5.5 3.82218V3.82402M5.5 3.82218V3.82402M5.5 3.82402V3.82587M5.5 3.82402V3.82587M5.5 3.82587V3.82773M5.5 3.82587V3.82773M5.5 3.82773V3.82958M5.5 3.82773V3.82958M5.5 3.82958V3.83143M5.5 3.82958V3.83143M5.5 3.83143V3.83329M5.5 3.83143V3.83329M5.5 3.83329V3.83515M5.5 3.83329V3.83515M5.5 3.83515V3.83701M5.5 3.83515V3.83701M5.5 3.83701V3.83887M5.5 3.83701V3.83887M5.5 3.83887V3.84073M5.5 3.83887V3.84073M5.5 3.84073V3.84259M5.5 3.84073V3.84259M5.5 3.84259V3.84446M5.5 3.84259V3.84446M5.5 3.84446V3.84632M5.5 3.84446V3.84632M5.5 3.84632V3.84819M5.5 3.84632V3.84819M5.5 3.84819V3.85006M5.5 3.84819V3.85006M5.5 3.85006V3.85193M5.5 3.85006V3.85193M5.5 3.85193V3.85381M5.5 3.85193V3.85381M5.5 3.85381V3.85568M5.5 3.85381V3.85568M5.5 3.85568V3.85755M5.5 3.85568V3.85755M5.5 3.85755V3.85943M5.5 3.85755V3.85943M5.5 3.85943V3.86131M5.5 3.85943V3.86131M5.5 3.86131V3.86319M5.5 3.86131V3.86319M5.5 3.86319V3.86507M5.5 3.86319V3.86507M5.5 3.86507V3.86696M5.5 3.86507V3.86696M5.5 3.86696V3.86884M5.5 3.86696V3.86884M5.5 3.86884V3.87073M5.5 3.86884V3.87073M5.5 3.87073V3.87261M5.5 3.87073V3.87261M5.5 3.87261V3.8745M5.5 3.87261V3.8745M5.5 3.8745V3.87639M5.5 3.8745V3.87639M5.5 3.87639V3.87829M5.5 3.87639V3.87829M5.5 3.87829V3.88018M5.5 3.87829V3.88018M5.5 3.88018V3.88208M5.5 3.88018V3.88208M5.5 3.88208V3.88397M5.5 3.88208V3.88397M5.5 3.88397V3.88587M5.5 3.88397V3.88587M5.5 3.88587V3.88777M5.5 3.88587V3.88777M5.5 3.88777V3.88967M5.5 3.88777V3.88967M5.5 3.88967V3.89158M5.5 3.88967V3.89158M5.5 3.89158V3.89348M5.5 3.89158V3.89348M5.5 3.89348V3.89539M5.5 3.89348V3.89539M5.5 3.89539V3.89729M5.5 3.89539V3.89729M5.5 3.89729V3.8992M5.5 3.89729V3.8992M5.5 3.8992V3.90111M5.5 3.8992V3.90111M5.5 3.90111V3.90303M5.5 3.90111V3.90303M5.5 3.90303V3.90494M5.5 3.90303V3.90494M5.5 3.90494V3.90685M5.5 3.90494V3.90685M5.5 3.90685V3.90877M5.5 3.90685V3.90877M5.5 3.90877V3.91069M5.5 3.90877V3.91069M5.5 3.91069V3.91261M5.5 3.91069V3.91261M5.5 3.91261V3.91453M5.5 3.91261V3.91453M5.5 3.91453V3.91645M5.5 3.91453V3.91645M5.5 3.91645V3.91838M5.5 3.91645V3.91838M5.5 3.91838V3.9203M5.5 3.91838V3.9203M5.5 3.9203V3.92223M5.5 3.9203V3.92223M5.5 3.92223V3.92416M5.5 3.92223V3.92416M5.5 3.92416V3.92609M5.5 3.92416V3.92609M5.5 3.92609V3.92802M5.5 3.92609V3.92802M5.5 3.92802V3.92996M5.5 3.92802V3.92996M5.5 3.92996V3.93189M5.5 3.92996V3.93189M5.5 3.93189V3.93383M5.5 3.93189V3.93383M5.5 3.93383V3.93577M5.5 3.93383V3.93577M5.5 3.93577V3.93771M5.5 3.93577V3.93771M5.5 3.93771V3.93965M5.5 3.93771V3.93965M5.5 3.93965V3.94159M5.5 3.93965V3.94159M5.5 3.94159V3.94353M5.5 3.94159V3.94353M5.5 3.94353V3.94548M5.5 3.94353V3.94548M5.5 3.94548V3.94743M5.5 3.94548V3.94743M5.5 3.94743V3.94938M5.5 3.94743V3.94938M5.5 3.94938V3.95133M5.5 3.94938V3.95133M5.5 3.95133V3.95328M5.5 3.95133V3.95328M5.5 3.95328V3.95523M5.5 3.95328V3.95523M5.5 3.95523V3.95719M5.5 3.95523V3.95719M5.5 3.95719V3.95914M5.5 3.95719V3.95914M5.5 3.95914V3.9611M5.5 3.95914V3.9611M5.5 3.9611V3.96306M5.5 3.9611V3.96306M5.5 3.96306V3.96502M5.5 3.96306V3.96502M5.5 3.96502V3.96698M5.5 3.96502V3.96698M5.5 3.96698V3.96895M5.5 3.96698V3.96895M5.5 3.96895V3.97091M5.5 3.96895V3.97091M5.5 3.97091V3.97288M5.5 3.97091V3.97288M5.5 3.97288V3.97485M5.5 3.97288V3.97485M5.5 3.97485V3.97682M5.5 3.97485V3.97682M5.5 3.97682V3.97879M5.5 3.97682V3.97879M5.5 3.97879V3.98077M5.5 3.97879V3.98077M5.5 3.98077V3.98274M5.5 3.98077V3.98274M5.5 3.98274V3.98472M5.5 3.98274V3.98472M5.5 3.98472V3.9867M5.5 3.98472V3.9867M5.5 3.9867V3.98868M5.5 3.9867V3.98868M5.5 3.98868V3.99066M5.5 3.98868V3.99066M5.5 3.99066V3.99264M5.5 3.99066V3.99264M5.5 3.99264V3.99462M5.5 3.99264V3.99462M5.5 3.99462V3.99661M5.5 3.99462V3.99661M5.5 3.99661V3.9986M5.5 3.99661V3.9986M5.5 3.9986V4.00059M5.5 3.9986V4.00059M5.5 4.00059V4.00258M5.5 4.00059V4.00258M5.5 4.00258V4.00457M5.5 4.00258V4.00457M5.5 4.00457V4.00656M5.5 4.00457V4.00656M5.5 4.00656V4.00856M5.5 4.00656V4.00856M5.5 4.00856V4.01055M5.5 4.00856V4.01055M5.5 4.01055V4.01255M5.5 4.01055V4.01255M5.5 4.01255V4.01455M5.5 4.01255V4.01455M5.5 4.01455V4.01655M5.5 4.01455V4.01655M5.5 4.01655V4.01856M5.5 4.01655V4.01856M5.5 4.01856V4.02056M5.5 4.01856V4.02056M5.5 4.02056V4.02257M5.5 4.02056V4.02257M5.5 4.02257V4.02457M5.5 4.02257V4.02457M5.5 4.02457V4.02658M5.5 4.02457V4.02658M5.5 4.02658V4.02859M5.5 4.02658V4.02859M5.5 4.02859V4.03061M5.5 4.02859V4.03061M5.5 4.03061V4.03262M5.5 4.03061V4.03262M5.5 4.03262V4.03464M5.5 4.03262V4.03464M5.5 4.03464V4.03665M5.5 4.03464V4.03665M5.5 4.03665V4.03867M5.5 4.03665V4.03867M5.5 4.03867V4.04069M5.5 4.03867V4.04069M5.5 4.04069V4.04271M5.5 4.04069V4.04271M5.5 4.04271V4.04473M5.5 4.04271V4.04473M5.5 4.04473V4.04676M5.5 4.04473V4.04676M5.5 4.04676V4.04879M5.5 4.04676V4.04879M5.5 4.04879V4.05081M5.5 4.04879V4.05081M5.5 4.05081V4.05284M5.5 4.05081V4.05284M5.5 4.05284V4.05487M5.5 4.05284V4.05487M5.5 4.05487V4.05691M5.5 4.05487V4.05691M5.5 4.05691V4.05894M5.5 4.05691V4.05894M5.5 4.05894V4.06098M5.5 4.05894V4.06098M5.5 4.06098V4.06301M5.5 4.06098V4.06301M5.5 4.06301V4.06505M5.5 4.06301V4.06505M5.5 4.06505V4.06709M5.5 4.06505V4.06709M5.5 4.06709V4.06913M5.5 4.06709V4.06913M5.5 4.06913V4.07118M5.5 4.06913V4.07118M5.5 4.07118V4.07322M5.5 4.07118V4.07322M5.5 4.07322V4.07527M5.5 4.07322V4.07527M5.5 4.07527V4.07732M5.5 4.07527V4.07732M5.5 4.07732V4.07937M5.5 4.07732V4.07937M5.5 4.07937V4.08142M5.5 4.07937V4.08142M5.5 4.08142V4.08347M5.5 4.08142V4.08347M5.5 4.08347V4.08552M5.5 4.08347V4.08552M5.5 4.08552V4.08758M5.5 4.08552V4.08758M5.5 4.08758V4.08964M5.5 4.08758V4.08964M5.5 4.08964V4.0917M5.5 4.08964V4.0917M5.5 4.0917V4.09376M5.5 4.0917V4.09376M5.5 4.09376V4.09582M5.5 4.09376V4.09582M5.5 4.09582V4.09788M5.5 4.09582V4.09788M5.5 4.09788V4.09995M5.5 4.09788V4.09995M5.5 4.09995V4.10201M5.5 4.09995V4.10201M5.5 4.10201V4.10408M5.5 4.10201V4.10408M5.5 4.10408V4.10615M5.5 4.10408V4.10615M5.5 4.10615V4.10822M5.5 4.10615V4.10822M5.5 4.10822V4.1103M5.5 4.10822V4.1103M5.5 4.1103V4.11237M5.5 4.1103V4.11237M5.5 4.11237V4.11445M5.5 4.11237V4.11445M5.5 4.11445V4.11652M5.5 4.11445V4.11652M5.5 4.11652V4.1186M5.5 4.11652V4.1186M5.5 4.1186V4.12069M5.5 4.1186V4.12069M5.5 4.12069V4.12277M5.5 4.12069V4.12277M5.5 4.12277V4.12485M5.5 4.12277V4.12485M5.5 4.12485V4.12694M5.5 4.12485V4.12694M5.5 4.12694V4.12902M5.5 4.12694V4.12902M5.5 4.12902V4.13111M5.5 4.12902V4.13111M5.5 4.13111V4.1332M5.5 4.13111V4.1332M5.5 4.1332V4.1353M5.5 4.1332V4.1353M5.5 4.1353V4.13739M5.5 4.1353V4.13739M5.5 4.13739V4.13948M5.5 4.13739V4.13948M5.5 4.13948V4.14158M5.5 4.13948V4.14158M5.5 4.14158V4.14368M5.5 4.14158V4.14368M5.5 4.14368V4.14578M5.5 4.14368V4.14578M5.5 4.14578V4.14788M5.5 4.14578V4.14788M5.5 4.14788V4.14998M5.5 4.14788V4.14998M5.5 4.14998V4.15209M5.5 4.14998V4.15209M5.5 4.15209V4.15419M5.5 4.15209V4.15419M5.5 4.15419V4.1563M5.5 4.15419V4.1563M5.5 4.1563V4.15841M5.5 4.1563V4.15841M5.5 4.15841V4.16052M5.5 4.15841V4.16052M5.5 4.16052V4.16263M5.5 4.16052V4.16263M5.5 4.16263V4.16475M5.5 4.16263V4.16475M5.5 4.16475V4.16686M5.5 4.16475V4.16686M5.5 4.16686V4.16898M5.5 4.16686V4.16898M5.5 4.16898V4.1711M5.5 4.16898V4.1711M5.5 4.1711V4.17322M5.5 4.1711V4.17322M5.5 4.17322V4.17534M5.5 4.17322V4.17534M5.5 4.17534V4.17747M5.5 4.17534V4.17747M5.5 4.17747V4.17959M5.5 4.17747V4.17959M5.5 4.17959V4.18172M5.5 4.17959V4.18172M5.5 4.18172V4.18385M5.5 4.18172V4.18385M5.5 4.18385V4.18598M5.5 4.18385V4.18598M5.5 4.18598V4.18811M5.5 4.18598V4.18811M5.5 4.18811V4.19024M5.5 4.18811V4.19024M5.5 4.19024V4.19237M5.5 4.19024V4.19237M5.5 4.19237V4.19451M5.5 4.19237V4.19451M5.5 4.19451V4.19665M5.5 4.19451V4.19665M5.5 4.19665V4.19879M5.5 4.19665V4.19879M5.5 4.19879V4.20093M5.5 4.19879V4.20093M5.5 4.20093V4.20307M5.5 4.20093V4.20307M5.5 4.20307V4.20522M5.5 4.20307V4.20522M5.5 4.20522V4.20736M5.5 4.20522V4.20736M5.5 4.20736V4.20951M5.5 4.20736V4.20951M5.5 4.20951V4.21166M5.5 4.20951V4.21166M5.5 4.21166V4.21381M5.5 4.21166V4.21381M5.5 4.21381V4.21596M5.5 4.21381V4.21596M5.5 4.21596V4.21811M5.5 4.21596V4.21811M5.5 4.21811V4.22027M5.5 4.21811V4.22027M5.5 4.22027V4.22243M5.5 4.22027V4.22243M5.5 4.22243V4.22458M5.5 4.22243V4.22458M5.5 4.22458V4.22674M5.5 4.22458V4.22674M5.5 4.22674V4.22891M5.5 4.22674V4.22891M5.5 4.22891V4.23107M5.5 4.22891V4.23107M5.5 4.23107V4.23323M5.5 4.23107V4.23323M5.5 4.23323V4.2354M5.5 4.23323V4.2354M5.5 4.2354V4.23757M5.5 4.2354V4.23757M5.5 4.23757V4.23974M5.5 4.23757V4.23974M5.5 4.23974V4.24191M5.5 4.23974V4.24191M5.5 4.24191V4.24408M5.5 4.24191V4.24408M5.5 4.24408V4.24626M5.5 4.24408V4.24626M5.5 4.24626V4.24843M5.5 4.24626V4.24843M5.5 4.24843V4.25061M5.5 4.24843V4.25061M5.5 4.25061V4.25279M5.5 4.25061V4.25279M5.5 4.25279V4.25497M5.5 4.25279V4.25497M5.5 4.25497V4.25715M5.5 4.25497V4.25715M5.5 4.25715V4.25934M5.5 4.25715V4.25934M5.5 4.25934V4.26152M5.5 4.25934V4.26152M5.5 4.26152V4.26371M5.5 4.26152V4.26371M5.5 4.26371V4.2659M5.5 4.26371V4.2659M5.5 4.2659V4.26809M5.5 4.2659V4.26809M5.5 4.26809V4.27028M5.5 4.26809V4.27028M5.5 4.27028V4.27247M5.5 4.27028V4.27247M5.5 4.27247V4.27467M5.5 4.27247V4.27467M5.5 4.27467V4.27687M5.5 4.27467V4.27687M5.5 4.27687V4.27906M5.5 4.27687V4.27906M5.5 4.27906V4.28126M5.5 4.27906V4.28126M5.5 4.28126V4.28347M5.5 4.28126V4.28347M5.5 4.28347V4.28567M5.5 4.28347V4.28567M5.5 4.28567V4.28787M5.5 4.28567V4.28787M5.5 4.28787V4.29008M5.5 4.28787V4.29008M5.5 4.29008V4.29229M5.5 4.29008V4.29229M5.5 4.29229V4.2945M5.5 4.29229V4.2945M5.5 4.2945V4.29671M5.5 4.2945V4.29671M5.5 4.29671V4.29892M5.5 4.29671V4.29892M5.5 4.29892V4.30114M5.5 4.29892V4.30114M5.5 4.30114V4.30335M5.5 4.30114V4.30335M5.5 4.30335V4.30557M5.5 4.30335V4.30557M5.5 4.30557V4.30779M5.5 4.30557V4.30779M5.5 4.30779V4.31001M5.5 4.30779V4.31001M5.5 4.31001V4.31223M5.5 4.31001V4.31223M5.5 4.31223V4.31446M5.5 4.31223V4.31446M5.5 4.31446V4.31668M5.5 4.31446V4.31668M5.5 4.31668V4.31891M5.5 4.31668V4.31891M5.5 4.31891V4.32114M5.5 4.31891V4.32114M5.5 4.32114V4.32337M5.5 4.32114V4.32337M5.5 4.32337V4.3256M5.5 4.32337V4.3256M5.5 4.3256V4.32784M5.5 4.3256V4.32784M5.5 4.32784V4.33007M5.5 4.32784V4.33007M5.5 4.33007V4.33231M5.5 4.33007V4.33231M5.5 4.33231V4.33455M5.5 4.33231V4.33455M5.5 4.33455V4.33679M5.5 4.33455V4.33679M5.5 4.33679V4.33903M5.5 4.33679V4.33903M5.5 4.33903V4.34127M5.5 4.33903V4.34127M5.5 4.34127V4.34352M5.5 4.34127V4.34352M5.5 4.34352V4.34576M5.5 4.34352V4.34576M5.5 4.34576V4.34801M5.5 4.34576V4.34801M5.5 4.34801V4.35026M5.5 4.34801V4.35026M5.5 4.35026V4.35251M5.5 4.35026V4.35251M5.5 4.35251V4.35477M5.5 4.35251V4.35477M5.5 4.35477V4.35702M5.5 4.35477V4.35702M5.5 4.35702V4.35928M5.5 4.35702V4.35928M5.5 4.35928V4.36154M5.5 4.35928V4.36154M5.5 4.36154V4.3638M5.5 4.36154V4.3638M5.5 4.3638V4.36606M5.5 4.3638V4.36606M5.5 4.36606V4.36832M5.5 4.36606V4.36832M5.5 4.36832V4.37059M5.5 4.36832V4.37059M5.5 4.37059V4.37285M5.5 4.37059V4.37285M5.5 4.37285V4.37512M5.5 4.37285V4.37512M5.5 4.37512V4.37739M5.5 4.37512V4.37739M5.5 4.37739V4.37966M5.5 4.37739V4.37966M5.5 4.37966V4.38193M5.5 4.37966V4.38193M5.5 4.38193V4.38421M5.5 4.38193V4.38421M5.5 4.38421V4.38648M5.5 4.38421V4.38648M5.5 4.38648V4.38876M5.5 4.38648V4.38876M5.5 4.38876V4.39104M5.5 4.38876V4.39104M5.5 4.39104V4.39332M5.5 4.39104V4.39332M5.5 4.39332V4.3956M5.5 4.39332V4.3956M5.5 4.3956V4.39789M5.5 4.3956V4.39789M5.5 4.39789V4.40017M5.5 4.39789V4.40017M5.5 4.40017V4.40246M5.5 4.40017V4.40246M5.5 4.40246V4.40475M5.5 4.40246V4.40475M5.5 4.40475V4.40704M5.5 4.40475V4.40704M5.5 4.40704V4.40933M5.5 4.40704V4.40933M5.5 4.40933V4.41162M5.5 4.40933V4.41162M5.5 4.41162V4.41392M5.5 4.41162V4.41392M5.5 4.41392V4.41622M5.5 4.41392V4.41622M5.5 4.41622V4.41852M5.5 4.41622V4.41852M5.5 4.41852V4.42082M5.5 4.41852V4.42082M5.5 4.42082V4.42312M5.5 4.42082V4.42312M5.5 4.42312V4.42542M5.5 4.42312V4.42542M5.5 4.42542V4.42773M5.5 4.42542V4.42773M5.5 4.42773V4.43003M5.5 4.42773V4.43003M5.5 4.43003V4.43234M5.5 4.43003V4.43234M5.5 4.43234V4.43465M5.5 4.43234V4.43465M5.5 4.43465V4.43696M5.5 4.43465V4.43696M5.5 4.43696V4.43928M5.5 4.43696V4.43928M5.5 4.43928V4.44159M5.5 4.43928V4.44159M5.5 4.44159V4.44391M5.5 4.44159V4.44391M5.5 4.44391V4.44623M5.5 4.44391V4.44623M5.5 4.44623V4.44855M5.5 4.44623V4.44855M5.5 4.44855V4.45087M5.5 4.44855V4.45087M5.5 4.45087V4.45319M5.5 4.45087V4.45319M5.5 4.45319V4.45552M5.5 4.45319V4.45552M5.5 4.45552V4.45784M5.5 4.45552V4.45784M5.5 4.45784V4.46017M5.5 4.45784V4.46017M5.5 4.46017V4.4625M5.5 4.46017V4.4625M5.5 4.4625V4.46483M5.5 4.4625V4.46483M5.5 4.46483V4.46717M5.5 4.46483V4.46717M5.5 4.46717V4.4695M5.5 4.46717V4.4695M5.5 4.4695V4.47184M5.5 4.4695V4.47184M5.5 4.47184V4.47417M5.5 4.47184V4.47417M5.5 4.47417V4.47651M5.5 4.47417V4.47651M5.5 4.47651V4.47886M5.5 4.47651V4.47886M5.5 4.47886V4.4812M5.5 4.47886V4.4812M5.5 4.4812V4.48354M5.5 4.4812V4.48354M5.5 4.48354V4.48589M5.5 4.48354V4.48589M5.5 4.48589V4.48824M5.5 4.48589V4.48824M5.5 4.48824V4.49059M5.5 4.48824V4.49059M5.5 4.49059V4.49294M5.5 4.49059V4.49294M5.5 4.49294V4.49529M5.5 4.49294V4.49529M5.5 4.49529V4.49764M5.5 4.49529V4.49764M5.5 4.49764V4.5M5.5 4.49764V4.5M5.5 4.5C5.5 5.14586 5.92536 5.5781 6.39408 5.82216M5.5 4.5L6.39408 5.82216M6.39408 5.82216C6.86001 6.06477 7.44509 6.17157 8 6.17157M6.39408 5.82216L8 6.17157M8 6.17157C8.55491 6.17157 9.13999 6.06477 9.60592 5.82216M8 6.17157L9.60592 5.82216M9.60592 5.82216C10.0746 5.5781 10.5 5.14586 10.5 4.5M9.60592 5.82216L10.5 4.5M10.5 4.5V4.49764M10.5 4.5V4.49764M10.5 4.49764V4.49529M10.5 4.49764V4.49529M10.5 4.49529V4.49294M10.5 4.49529V4.49294M10.5 4.49294V4.49059M10.5 4.49294V4.49059M10.5 4.49059V4.48824M10.5 4.49059V4.48824M10.5 4.48824V4.48589M10.5 4.48824V4.48589M10.5 4.48589V4.48354M10.5 4.48589V4.48354M10.5 4.48354V4.4812M10.5 4.48354V4.4812M10.5 4.4812V4.47886M10.5 4.4812V4.47886M10.5 4.47886V4.47651M10.5 4.47886V4.47651M10.5 4.47651V4.47417M10.5 4.47651V4.47417M10.5 4.47417V4.47184M10.5 4.47417V4.47184M10.5 4.47184V4.4695M10.5 4.47184V4.4695M10.5 4.4695V4.46717M10.5 4.4695V4.46717M10.5 4.46717V4.46483M10.5 4.46717V4.46483M10.5 4.46483V4.4625M10.5 4.46483V4.4625M10.5 4.4625V4.46017M10.5 4.4625V4.46017M10.5 4.46017V4.45784M10.5 4.46017V4.45784M10.5 4.45784V4.45552M10.5 4.45784V4.45552M10.5 4.45552V4.45319M10.5 4.45552V4.45319M10.5 4.45319V4.45087M10.5 4.45319V4.45087M10.5 4.45087V4.44855M10.5 4.45087V4.44855M10.5 4.44855V4.44623M10.5 4.44855V4.44623M10.5 4.44623V4.44391M10.5 4.44623V4.44391M10.5 4.44391V4.44159M10.5 4.44391V4.44159M10.5 4.44159V4.43928M10.5 4.44159V4.43928M10.5 4.43928V4.43696M10.5 4.43928V4.43696M10.5 4.43696V4.43465M10.5 4.43696V4.43465M10.5 4.43465V4.43234M10.5 4.43465V4.43234M10.5 4.43234V4.43003M10.5 4.43234V4.43003M10.5 4.43003V4.42773M10.5 4.43003V4.42773M10.5 4.42773V4.42542M10.5 4.42773V4.42542M10.5 4.42542V4.42312M10.5 4.42542V4.42312M10.5 4.42312V4.42082M10.5 4.42312V4.42082M10.5 4.42082V4.41852M10.5 4.42082V4.41852M10.5 4.41852V4.41622M10.5 4.41852V4.41622M10.5 4.41622V4.41392M10.5 4.41622V4.41392M10.5 4.41392V4.41162M10.5 4.41392V4.41162M10.5 4.41162V4.40933M10.5 4.41162V4.40933M10.5 4.40933V4.40704M10.5 4.40933V4.40704M10.5 4.40704V4.40475M10.5 4.40704V4.40475M10.5 4.40475V4.40246M10.5 4.40475V4.40246M10.5 4.40246V4.40017M10.5 4.40246V4.40017M10.5 4.40017V4.39789M10.5 4.40017V4.39789M10.5 4.39789V4.3956M10.5 4.39789V4.3956M10.5 4.3956V4.39332M10.5 4.3956V4.39332M10.5 4.39332V4.39104M10.5 4.39332V4.39104M10.5 4.39104V4.38876M10.5 4.39104V4.38876M10.5 4.38876V4.38648M10.5 4.38876V4.38648M10.5 4.38648V4.38421M10.5 4.38648V4.38421M10.5 4.38421V4.38193M10.5 4.38421V4.38193M10.5 4.38193V4.37966M10.5 4.38193V4.37966M10.5 4.37966V4.37739M10.5 4.37966V4.37739M10.5 4.37739V4.37512M10.5 4.37739V4.37512M10.5 4.37512V4.37285M10.5 4.37512V4.37285M10.5 4.37285V4.37059M10.5 4.37285V4.37059M10.5 4.37059V4.36832M10.5 4.37059V4.36832M10.5 4.36832V4.36606M10.5 4.36832V4.36606M10.5 4.36606V4.3638M10.5 4.36606V4.3638M10.5 4.3638V4.36154M10.5 4.3638V4.36154M10.5 4.36154V4.35928M10.5 4.36154V4.35928M10.5 4.35928V4.35702M10.5 4.35928V4.35702M10.5 4.35702V4.35477M10.5 4.35702V4.35477M10.5 4.35477V4.35251M10.5 4.35477V4.35251M10.5 4.35251V4.35026M10.5 4.35251V4.35026M10.5 4.35026V4.34801M10.5 4.35026V4.34801M10.5 4.34801V4.34576M10.5 4.34801V4.34576M10.5 4.34576V4.34352M10.5 4.34576V4.34352M10.5 4.34352V4.34127M10.5 4.34352V4.34127M10.5 4.34127V4.33903M10.5 4.34127V4.33903M10.5 4.33903V4.33679M10.5 4.33903V4.33679M10.5 4.33679V4.33455M10.5 4.33679V4.33455M10.5 4.33455V4.33231M10.5 4.33455V4.33231M10.5 4.33231V4.33007M10.5 4.33231V4.33007M10.5 4.33007V4.32784M10.5 4.33007V4.32784M10.5 4.32784V4.3256M10.5 4.32784V4.3256M10.5 4.3256V4.32337M10.5 4.3256V4.32337M10.5 4.32337V4.32114M10.5 4.32337V4.32114M10.5 4.32114V4.31891M10.5 4.32114V4.31891M10.5 4.31891V4.31668M10.5 4.31891V4.31668M10.5 4.31668V4.31446M10.5 4.31668V4.31446M10.5 4.31446V4.31223M10.5 4.31446V4.31223M10.5 4.31223V4.31001M10.5 4.31223V4.31001M10.5 4.31001V4.30779M10.5 4.31001V4.30779M10.5 4.30779V4.30557M10.5 4.30779V4.30557M10.5 4.30557V4.30335M10.5 4.30557V4.30335M10.5 4.30335V4.30114M10.5 4.30335V4.30114M10.5 4.30114V4.29892M10.5 4.30114V4.29892M10.5 4.29892V4.29671M10.5 4.29892V4.29671M10.5 4.29671V4.2945M10.5 4.29671V4.2945M10.5 4.2945V4.29229M10.5 4.2945V4.29229M10.5 4.29229V4.29008M10.5 4.29229V4.29008M10.5 4.29008V4.28787M10.5 4.29008V4.28787M10.5 4.28787V4.28567M10.5 4.28787V4.28567M10.5 4.28567V4.28347M10.5 4.28567V4.28347M10.5 4.28347V4.28126M10.5 4.28347V4.28126M10.5 4.28126V4.27906M10.5 4.28126V4.27906M10.5 4.27906V4.27687M10.5 4.27906V4.27687M10.5 4.27687V4.27467M10.5 4.27687V4.27467M10.5 4.27467V4.27247M10.5 4.27467V4.27247M10.5 4.27247V4.27028M10.5 4.27247V4.27028M10.5 4.27028V4.26809M10.5 4.27028V4.26809M10.5 4.26809V4.2659M10.5 4.26809V4.2659M10.5 4.2659V4.26371M10.5 4.2659V4.26371M10.5 4.26371V4.26152M10.5 4.26371V4.26152M10.5 4.26152V4.25934M10.5 4.26152V4.25934M10.5 4.25934V4.25715M10.5 4.25934V4.25715M10.5 4.25715V4.25497M10.5 4.25715V4.25497M10.5 4.25497V4.25279M10.5 4.25497V4.25279M10.5 4.25279V4.25061M10.5 4.25279V4.25061M10.5 4.25061V4.24843M10.5 4.25061V4.24843M10.5 4.24843V4.24626M10.5 4.24843V4.24626M10.5 4.24626V4.24408M10.5 4.24626V4.24408M10.5 4.24408V4.24191M10.5 4.24408V4.24191M10.5 4.24191V4.23974M10.5 4.24191V4.23974M10.5 4.23974V4.23757M10.5 4.23974V4.23757M10.5 4.23757V4.2354M10.5 4.23757V4.2354M10.5 4.2354V4.23323M10.5 4.2354V4.23323M10.5 4.23323V4.23107M10.5 4.23323V4.23107M10.5 4.23107V4.22891M10.5 4.23107V4.22891M10.5 4.22891V4.22674M10.5 4.22891V4.22674M10.5 4.22674V4.22458M10.5 4.22674V4.22458M10.5 4.22458V4.22243M10.5 4.22458V4.22243M10.5 4.22243V4.22027M10.5 4.22243V4.22027M10.5 4.22027V4.21811M10.5 4.22027V4.21811M10.5 4.21811V4.21596M10.5 4.21811V4.21596M10.5 4.21596V4.21381M10.5 4.21596V4.21381M10.5 4.21381V4.21166M10.5 4.21381V4.21166M10.5 4.21166V4.20951M10.5 4.21166V4.20951M10.5 4.20951V4.20736M10.5 4.20951V4.20736M10.5 4.20736V4.20522M10.5 4.20736V4.20522M10.5 4.20522V4.20307M10.5 4.20522V4.20307M10.5 4.20307V4.20093M10.5 4.20307V4.20093M10.5 4.20093V4.19879M10.5 4.20093V4.19879M10.5 4.19879V4.19665M10.5 4.19879V4.19665M10.5 4.19665V4.19451M10.5 4.19665V4.19451M10.5 4.19451V4.19237M10.5 4.19451V4.19237M10.5 4.19237V4.19024M10.5 4.19237V4.19024M10.5 4.19024V4.18811M10.5 4.19024V4.18811M10.5 4.18811V4.18598M10.5 4.18811V4.18598M10.5 4.18598V4.18385M10.5 4.18598V4.18385M10.5 4.18385V4.18172M10.5 4.18385V4.18172M10.5 4.18172V4.17959M10.5 4.18172V4.17959M10.5 4.17959V4.17747M10.5 4.17959V4.17747M10.5 4.17747V4.17534M10.5 4.17747V4.17534M10.5 4.17534V4.17322M10.5 4.17534V4.17322M10.5 4.17322V4.1711M10.5 4.17322V4.1711M10.5 4.1711V4.16898M10.5 4.1711V4.16898M10.5 4.16898V4.16686M10.5 4.16898V4.16686M10.5 4.16686V4.16475M10.5 4.16686V4.16475M10.5 4.16475V4.16263M10.5 4.16475V4.16263M10.5 4.16263V4.16052M10.5 4.16263V4.16052M10.5 4.16052V4.15841M10.5 4.16052V4.15841M10.5 4.15841V4.1563M10.5 4.15841V4.1563M10.5 4.1563V4.15419M10.5 4.1563V4.15419M10.5 4.15419V4.15209M10.5 4.15419V4.15209M10.5 4.15209V4.14998M10.5 4.15209V4.14998M10.5 4.14998V4.14788M10.5 4.14998V4.14788M10.5 4.14788V4.14578M10.5 4.14788V4.14578M10.5 4.14578V4.14368M10.5 4.14578V4.14368M10.5 4.14368V4.14158M10.5 4.14368V4.14158M10.5 4.14158V4.13948M10.5 4.14158V4.13948M10.5 4.13948V4.13739M10.5 4.13948V4.13739M10.5 4.13739V4.1353M10.5 4.13739V4.1353M10.5 4.1353V4.1332M10.5 4.1353V4.1332M10.5 4.1332V4.13111M10.5 4.1332V4.13111M10.5 4.13111V4.12902M10.5 4.13111V4.12902M10.5 4.12902V4.12694M10.5 4.12902V4.12694M10.5 4.12694V4.12485M10.5 4.12694V4.12485M10.5 4.12485V4.12277M10.5 4.12485V4.12277M10.5 4.12277V4.12069M10.5 4.12277V4.12069M10.5 4.12069V4.1186M10.5 4.12069V4.1186M10.5 4.1186V4.11652M10.5 4.1186V4.11652M10.5 4.11652V4.11445M10.5 4.11652V4.11445M10.5 4.11445V4.11237M10.5 4.11445V4.11237M10.5 4.11237V4.1103M10.5 4.11237V4.1103M10.5 4.1103V4.10822M10.5 4.1103V4.10822M10.5 4.10822V4.10615M10.5 4.10822V4.10615M10.5 4.10615V4.10408M10.5 4.10615V4.10408M10.5 4.10408V4.10201M10.5 4.10408V4.10201M10.5 4.10201V4.09995M10.5 4.10201V4.09995M10.5 4.09995V4.09788M10.5 4.09995V4.09788M10.5 4.09788V4.09582M10.5 4.09788V4.09582M10.5 4.09582V4.09376M10.5 4.09582V4.09376M10.5 4.09376V4.0917M10.5 4.09376V4.0917M10.5 4.0917V4.08964M10.5 4.0917V4.08964M10.5 4.08964V4.08758M10.5 4.08964V4.08758M10.5 4.08758V4.08552M10.5 4.08758V4.08552M10.5 4.08552V4.08347M10.5 4.08552V4.08347M10.5 4.08347V4.08142M10.5 4.08347V4.08142M10.5 4.08142V4.07937M10.5 4.08142V4.07937M10.5 4.07937V4.07732M10.5 4.07937V4.07732M10.5 4.07732V4.07527M10.5 4.07732V4.07527M10.5 4.07527V4.07322M10.5 4.07527V4.07322M10.5 4.07322V4.07118M10.5 4.07322V4.07118M10.5 4.07118V4.06913M10.5 4.07118V4.06913M10.5 4.06913V4.06709M10.5 4.06913V4.06709M10.5 4.06709V4.06505M10.5 4.06709V4.06505M10.5 4.06505V4.06301M10.5 4.06505V4.06301M10.5 4.06301V4.06098M10.5 4.06301V4.06098M10.5 4.06098V4.05894M10.5 4.06098V4.05894M10.5 4.05894V4.05691M10.5 4.05894V4.05691M10.5 4.05691V4.05487M10.5 4.05691V4.05487M10.5 4.05487V4.05284M10.5 4.05487V4.05284M10.5 4.05284V4.05081M10.5 4.05284V4.05081M10.5 4.05081V4.04879M10.5 4.05081V4.04879M10.5 4.04879V4.04676M10.5 4.04879V4.04676M10.5 4.04676V4.04473M10.5 4.04676V4.04473M10.5 4.04473V4.04271M10.5 4.04473V4.04271M10.5 4.04271V4.04069M10.5 4.04271V4.04069M10.5 4.04069V4.03867M10.5 4.04069V4.03867M10.5 4.03867V4.03665M10.5 4.03867V4.03665M10.5 4.03665V4.03464M10.5 4.03665V4.03464M10.5 4.03464V4.03262M10.5 4.03464V4.03262M10.5 4.03262V4.03061M10.5 4.03262V4.03061M10.5 4.03061V4.02859M10.5 4.03061V4.02859M10.5 4.02859V4.02658M10.5 4.02859V4.02658M10.5 4.02658V4.02457M10.5 4.02658V4.02457M10.5 4.02457V4.02257M10.5 4.02457V4.02257M10.5 4.02257V4.02056M10.5 4.02257V4.02056M10.5 4.02056V4.01856M10.5 4.02056V4.01856M10.5 4.01856V4.01655M10.5 4.01856V4.01655M10.5 4.01655V4.01455M10.5 4.01655V4.01455M10.5 4.01455V4.01255M10.5 4.01455V4.01255M10.5 4.01255V4.01055M10.5 4.01255V4.01055M10.5 4.01055V4.00856M10.5 4.01055V4.00856M10.5 4.00856V4.00656M10.5 4.00856V4.00656M10.5 4.00656V4.00457M10.5 4.00656V4.00457M10.5 4.00457V4.00258M10.5 4.00457V4.00258M10.5 4.00258V4.00059M10.5 4.00258V4.00059M10.5 4.00059V3.9986M10.5 4.00059V3.9986M10.5 3.9986V3.99661M10.5 3.9986V3.99661M10.5 3.99661V3.99462M10.5 3.99661V3.99462M10.5 3.99462V3.99264M10.5 3.99462V3.99264M10.5 3.99264V3.99066M10.5 3.99264V3.99066M10.5 3.99066V3.98868M10.5 3.99066V3.98868M10.5 3.98868V3.9867M10.5 3.98868V3.9867M10.5 3.9867V3.98472M10.5 3.9867V3.98472M10.5 3.98472V3.98274M10.5 3.98472V3.98274M10.5 3.98274V3.98077M10.5 3.98274V3.98077M10.5 3.98077V3.97879M10.5 3.98077V3.97879M10.5 3.97879V3.97682M10.5 3.97879V3.97682M10.5 3.97682V3.97485M10.5 3.97682V3.97485M10.5 3.97485V3.97288M10.5 3.97485V3.97288M10.5 3.97288V3.97091M10.5 3.97288V3.97091M10.5 3.97091V3.96895M10.5 3.97091V3.96895M10.5 3.96895V3.96698M10.5 3.96895V3.96698M10.5 3.96698V3.96502M10.5 3.96698V3.96502M10.5 3.96502V3.96306M10.5 3.96502V3.96306M10.5 3.96306V3.9611M10.5 3.96306V3.9611M10.5 3.9611V3.95914M10.5 3.9611V3.95914M10.5 3.95914V3.95719M10.5 3.95914V3.95719M10.5 3.95719V3.95523M10.5 3.95719V3.95523M10.5 3.95523V3.95328M10.5 3.95523V3.95328M10.5 3.95328V3.95133M10.5 3.95328V3.95133M10.5 3.95133V3.94938M10.5 3.95133V3.94938M10.5 3.94938V3.94743M10.5 3.94938V3.94743M10.5 3.94743V3.94548M10.5 3.94743V3.94548M10.5 3.94548V3.94353M10.5 3.94548V3.94353M10.5 3.94353V3.94159M10.5 3.94353V3.94159M10.5 3.94159V3.93965M10.5 3.94159V3.93965M10.5 3.93965V3.93771M10.5 3.93965V3.93771M10.5 3.93771V3.93577M10.5 3.93771V3.93577M10.5 3.93577V3.93383M10.5 3.93577V3.93383M10.5 3.93383V3.93189M10.5 3.93383V3.93189M10.5 3.93189V3.92996M10.5 3.93189V3.92996M10.5 3.92996V3.92802M10.5 3.92996V3.92802M10.5 3.92802V3.92609M10.5 3.92802V3.92609M10.5 3.92609V3.92416M10.5 3.92609V3.92416M10.5 3.92416V3.92223M10.5 3.92416V3.92223M10.5 3.92223V3.9203M10.5 3.92223V3.9203M10.5 3.9203V3.91838M10.5 3.9203V3.91838M10.5 3.91838V3.91645M10.5 3.91838V3.91645M10.5 3.91645V3.91453M10.5 3.91645V3.91453M10.5 3.91453V3.91261M10.5 3.91453V3.91261M10.5 3.91261V3.91069M10.5 3.91261V3.91069M10.5 3.91069V3.90877M10.5 3.91069V3.90877M10.5 3.90877V3.90685M10.5 3.90877V3.90685M10.5 3.90685V3.90494M10.5 3.90685V3.90494M10.5 3.90494V3.90303M10.5 3.90494V3.90303M10.5 3.90303V3.90111M10.5 3.90303V3.90111M10.5 3.90111V3.8992M10.5 3.90111V3.8992M10.5 3.8992V3.89729M10.5 3.8992V3.89729M10.5 3.89729V3.89539M10.5 3.89729V3.89539M10.5 3.89539V3.89348M10.5 3.89539V3.89348M10.5 3.89348V3.89158M10.5 3.89348V3.89158M10.5 3.89158V3.88967M10.5 3.89158V3.88967M10.5 3.88967V3.88777M10.5 3.88967V3.88777M10.5 3.88777V3.88587M10.5 3.88777V3.88587M10.5 3.88587V3.88397M10.5 3.88587V3.88397M10.5 3.88397V3.88208M10.5 3.88397V3.88208M10.5 3.88208V3.88018M10.5 3.88208V3.88018M10.5 3.88018V3.87829M10.5 3.88018V3.87829M10.5 3.87829V3.87639M10.5 3.87829V3.87639M10.5 3.87639V3.8745M10.5 3.87639V3.8745M10.5 3.8745V3.87261M10.5 3.8745V3.87261M10.5 3.87261V3.87073M10.5 3.87261V3.87073M10.5 3.87073V3.86884M10.5 3.87073V3.86884M10.5 3.86884V3.86696M10.5 3.86884V3.86696M10.5 3.86696V3.86507M10.5 3.86696V3.86507M10.5 3.86507V3.86319M10.5 3.86507V3.86319M10.5 3.86319V3.86131M10.5 3.86319V3.86131M10.5 3.86131V3.85943M10.5 3.86131V3.85943M10.5 3.85943V3.85755M10.5 3.85943V3.85755M10.5 3.85755V3.85568M10.5 3.85755V3.85568M10.5 3.85568V3.85381M10.5 3.85568V3.85381M10.5 3.85381V3.85193M10.5 3.85381V3.85193M10.5 3.85193V3.85006M10.5 3.85193V3.85006M10.5 3.85006V3.84819M10.5 3.85006V3.84819M10.5 3.84819V3.84632M10.5 3.84819V3.84632M10.5 3.84632V3.84446M10.5 3.84632V3.84446M10.5 3.84446V3.84259M10.5 3.84446V3.84259M10.5 3.84259V3.84073M10.5 3.84259V3.84073M10.5 3.84073V3.83887M10.5 3.84073V3.83887M10.5 3.83887V3.83701M10.5 3.83887V3.83701M10.5 3.83701V3.83515M10.5 3.83701V3.83515M10.5 3.83515V3.83329M10.5 3.83515V3.83329M10.5 3.83329V3.83143M10.5 3.83329V3.83143M10.5 3.83143V3.82958M10.5 3.83143V3.82958M10.5 3.82958V3.82773M10.5 3.82958V3.82773M10.5 3.82773V3.82587M10.5 3.82773V3.82587M10.5 3.82587V3.82402M10.5 3.82587V3.82402M10.5 3.82402V3.82218M10.5 3.82402V3.82218M10.5 3.82218V3.82033M10.5 3.82218V3.82033M10.5 3.82033V3.81848M10.5 3.82033V3.81848M10.5 3.81848V3.81664M10.5 3.81848V3.81664M10.5 3.81664V3.8148M10.5 3.81664V3.8148M10.5 3.8148V3.81296M10.5 3.8148V3.81296M10.5 3.81296V3.81112M10.5 3.81296V3.81112M10.5 3.81112V3.80928M10.5 3.81112V3.80928M10.5 3.80928V3.80744M10.5 3.80928V3.80744M10.5 3.80744V3.80561M10.5 3.80744V3.80561M10.5 3.80561V3.80377M10.5 3.80561V3.80377M10.5 3.80377V3.80194M10.5 3.80377V3.80194M10.5 3.80194V3.80011M10.5 3.80194V3.80011M10.5 3.80011V3.79828M10.5 3.80011V3.79828M10.5 3.79828V3.79646M10.5 3.79828V3.79646M10.5 3.79646V3.79463M10.5 3.79646V3.79463M10.5 3.79463V3.7928M10.5 3.79463V3.7928M10.5 3.7928V3.79098M10.5 3.7928V3.79098M10.5 3.79098V3.78916M10.5 3.79098V3.78916M10.5 3.78916V3.78734M10.5 3.78916V3.78734M10.5 3.78734V3.78552M10.5 3.78734V3.78552M10.5 3.78552V3.78371M10.5 3.78552V3.78371M10.5 3.78371V3.78189M10.5 3.78371V3.78189M10.5 3.78189V3.78008M10.5 3.78189V3.78008M10.5 3.78008V3.77826M10.5 3.78008V3.77826M10.5 3.77826V3.77645M10.5 3.77826V3.77645M10.5 3.77645V3.77464M10.5 3.77645V3.77464M10.5 3.77464V3.77284M10.5 3.77464V3.77284M10.5 3.77284V3.77103M10.5 3.77284V3.77103M10.5 3.77103V3.76922M10.5 3.77103V3.76922M10.5 3.76922V3.76742M10.5 3.76922V3.76742M10.5 3.76742V3.76562M10.5 3.76742V3.76562M10.5 3.76562V3.76382M10.5 3.76562V3.76382M10.5 3.76382V3.76202M10.5 3.76382V3.76202M10.5 3.76202V3.76022M10.5 3.76202V3.76022M10.5 3.76022V3.75843M10.5 3.76022V3.75843M10.5 3.75843V3.75663M10.5 3.75843V3.75663M10.5 3.75663V3.75484M10.5 3.75663V3.75484M10.5 3.75484V3.75305M10.5 3.75484V3.75305M10.5 3.75305V3.75126M10.5 3.75305V3.75126M10.5 3.75126V3.74947M10.5 3.75126V3.74947M10.5 3.74947V3.74768M10.5 3.74947V3.74768M10.5 3.74768V3.7459M10.5 3.74768V3.7459M10.5 3.7459V3.74411M10.5 3.7459V3.74411M10.5 3.74411V3.74233M10.5 3.74411V3.74233M10.5 3.74233V3.74055M10.5 3.74233V3.74055M10.5 3.74055V3.73877M10.5 3.74055V3.73877M10.5 3.73877V3.73699M10.5 3.73877V3.73699M10.5 3.73699V3.73521M10.5 3.73699V3.73521M10.5 3.73521V3.73344M10.5 3.73521V3.73344M10.5 3.73344V3.73166M10.5 3.73344V3.73166M10.5 3.73166V3.72989M10.5 3.73166V3.72989M10.5 3.72989V3.72812M10.5 3.72989V3.72812M10.5 3.72812V3.72635M10.5 3.72812V3.72635M10.5 3.72635V3.72458M10.5 3.72635V3.72458M10.5 3.72458V3.72282M10.5 3.72458V3.72282M10.5 3.72282V3.72105M10.5 3.72282V3.72105M10.5 3.72105V3.71929M10.5 3.72105V3.71929M10.5 3.71929V3.71753M10.5 3.71929V3.71753M10.5 3.71753V3.71577M10.5 3.71753V3.71577M10.5 3.71577V3.71401M10.5 3.71577V3.71401M10.5 3.71401V3.71225M10.5 3.71401V3.71225M10.5 3.71225V3.7105M10.5 3.71225V3.7105M10.5 3.7105V3.70874M10.5 3.7105V3.70874M10.5 3.70874V3.70699M10.5 3.70874V3.70699M10.5 3.70699V3.70524M10.5 3.70699V3.70524M10.5 3.70524V3.70349M10.5 3.70524V3.70349M10.5 3.70349V3.70174M10.5 3.70349V3.70174M10.5 3.70174V3.69999M10.5 3.70174V3.69999M10.5 3.69999V3.69825M10.5 3.69999V3.69825M10.5 3.69825V3.6965M10.5 3.69825V3.6965M10.5 3.6965V3.69476M10.5 3.6965V3.69476M10.5 3.69476V3.69302M10.5 3.69476V3.69302M10.5 3.69302V3.69128M10.5 3.69302V3.69128M10.5 3.69128V3.68954M10.5 3.69128V3.68954M10.5 3.68954V3.6878M10.5 3.68954V3.6878M10.5 3.6878V3.68607M10.5 3.6878V3.68607M10.5 3.68607V3.68434M10.5 3.68607V3.68434M10.5 3.68434V3.6826M10.5 3.68434V3.6826M10.5 3.6826V3.68087M10.5 3.6826V3.68087M10.5 3.68087V3.67914M10.5 3.68087V3.67914M10.5 3.67914V3.67742M10.5 3.67914V3.67742M10.5 3.67742V3.67569M10.5 3.67742V3.67569M10.5 3.67569V3.67396M10.5 3.67569V3.67396M10.5 3.67396V3.67224M10.5 3.67396V3.67224M10.5 3.67224V3.67052M10.5 3.67224V3.67052M10.5 3.67052V3.6688M10.5 3.67052V3.6688M10.5 3.6688V3.66708M10.5 3.6688V3.66708M10.5 3.66708V3.66536M10.5 3.66708V3.66536M10.5 3.66536V3.66365M10.5 3.66536V3.66365M10.5 3.66365V3.66193M10.5 3.66365V3.66193M10.5 3.66193V3.66022M10.5 3.66193V3.66022M10.5 3.66022V3.65851M10.5 3.66022V3.65851M10.5 3.65851V3.6568M10.5 3.65851V3.6568M10.5 3.6568V3.65509M10.5 3.6568V3.65509M10.5 3.65509V3.65338M10.5 3.65509V3.65338M10.5 3.65338V3.65167M10.5 3.65338V3.65167M10.5 3.65167V3.64997M10.5 3.65167V3.64997M10.5 3.64997V3.64827M10.5 3.64997V3.64827M10.5 3.64827V3.64657M10.5 3.64827V3.64657M10.5 3.64657V3.64487M10.5 3.64657V3.64487M10.5 3.64487V3.64317M10.5 3.64487V3.64317M10.5 3.64317V3.64147M10.5 3.64317V3.64147M10.5 3.64147V3.63977M10.5 3.64147V3.63977M10.5 3.63977V3.63808M10.5 3.63977V3.63808M10.5 3.63808V3.63639M10.5 3.63808V3.63639M10.5 3.63639V3.6347M10.5 3.63639V3.6347M10.5 3.6347V3.63301M10.5 3.6347V3.63301M10.5 3.63301V3.63132M10.5 3.63301V3.63132M10.5 3.63132V3.62963M10.5 3.63132V3.62963M10.5 3.62963V3.62795M10.5 3.62963V3.62795M10.5 3.62795V3.62626M10.5 3.62795V3.62626M10.5 3.62626V3.62458M10.5 3.62626V3.62458M10.5 3.62458V3.6229M10.5 3.62458V3.6229M10.5 3.6229V3.62122M10.5 3.6229V3.62122M10.5 3.62122V3.61954M10.5 3.62122V3.61954M10.5 3.61954V3.61787M10.5 3.61954V3.61787M10.5 3.61787V3.61619M10.5 3.61787V3.61619M10.5 3.61619V3.61452M10.5 3.61619V3.61452M10.5 3.61452V3.61284M10.5 3.61452V3.61284M10.5 3.61284V3.61117M10.5 3.61284V3.61117M10.5 3.61117V3.6095M10.5 3.61117V3.6095M10.5 3.6095V3.60784M10.5 3.6095V3.60784M10.5 3.60784V3.60617M10.5 3.60784V3.60617M10.5 3.60617V3.60451M10.5 3.60617V3.60451M10.5 3.60451V3.60284M10.5 3.60451V3.60284M10.5 3.60284V3.60118M10.5 3.60284V3.60118M10.5 3.60118V3.59952M10.5 3.60118V3.59952M10.5 3.59952V3.59786M10.5 3.59952V3.59786M10.5 3.59786V3.5962M10.5 3.59786V3.5962M10.5 3.5962V3.59455M10.5 3.5962V3.59455M10.5 3.59455V3.59289M10.5 3.59455V3.59289M10.5 3.59289V3.59124M10.5 3.59289V3.59124M10.5 3.59124V3.58959M10.5 3.59124V3.58959M10.5 3.58959V3.58794M10.5 3.58959V3.58794M10.5 3.58794V3.58629M10.5 3.58794V3.58629M10.5 3.58629V3.58464M10.5 3.58629V3.58464M10.5 3.58464V3.58299M10.5 3.58464V3.58299M10.5 3.58299V3.58135M10.5 3.58299V3.58135M10.5 3.58135V3.57971M10.5 3.58135V3.57971M10.5 3.57971V3.57806M10.5 3.57971V3.57806M10.5 3.57806V3.57642M10.5 3.57806V3.57642M10.5 3.57642V3.57478M10.5 3.57642V3.57478M10.5 3.57478V3.57315M10.5 3.57478V3.57315M10.5 3.57315V3.57151M10.5 3.57315V3.57151M10.5 3.57151V3.56988M10.5 3.57151V3.56988M10.5 3.56988V3.56824M10.5 3.56988V3.56824M10.5 3.56824V3.56661M10.5 3.56824V3.56661M10.5 3.56661V3.56498M10.5 3.56661V3.56498M10.5 3.56498V3.56335M10.5 3.56498V3.56335M10.5 3.56335V3.56173M10.5 3.56335V3.56173M10.5 3.56173V3.5601M10.5 3.56173V3.5601M10.5 3.5601V3.55848M10.5 3.5601V3.55848M10.5 3.55848V3.55685M10.5 3.55848V3.55685M10.5 3.55685V3.55523M10.5 3.55685V3.55523M10.5 3.55523V3.55361M10.5 3.55523V3.55361M10.5 3.55361V3.55199M10.5 3.55361V3.55199M10.5 3.55199V3.55038M10.5 3.55199V3.55038M10.5 3.55038V3.54876M10.5 3.55038V3.54876M10.5 3.54876V3.54715M10.5 3.54876V3.54715M10.5 3.54715V3.54553M10.5 3.54715V3.54553M10.5 3.54553V3.54392M10.5 3.54553V3.54392M10.5 3.54392V3.54231M10.5 3.54392V3.54231M10.5 3.54231V3.5407M10.5 3.54231V3.5407M10.5 3.5407V3.53909M10.5 3.5407V3.53909M10.5 3.53909V3.53749M10.5 3.53909V3.53749M10.5 3.53749V3.53588M10.5 3.53749V3.53588M10.5 3.53588V3.53428M10.5 3.53588V3.53428M10.5 3.53428V3.53268M10.5 3.53428V3.53268M10.5 3.53268V3.53108M10.5 3.53268V3.53108M10.5 3.53108V3.52948M10.5 3.53108V3.52948M10.5 3.52948V3.52789M10.5 3.52948V3.52789M10.5 3.52789V3.52629M10.5 3.52789V3.52629M10.5 3.52629V3.5247M10.5 3.52629V3.5247M10.5 3.5247V3.5231M10.5 3.5247V3.5231M10.5 3.5231V3.52151M10.5 3.5231V3.52151M10.5 3.52151V3.51992M10.5 3.52151V3.51992M10.5 3.51992V3.51833M10.5 3.51992V3.51833M10.5 3.51833V3.51675M10.5 3.51833V3.51675M10.5 3.51675V3.51516M10.5 3.51675V3.51516M10.5 3.51516V3.51358M10.5 3.51516V3.51358M10.5 3.51358V3.51199M10.5 3.51358V3.51199M10.5 3.51199V3.51041M10.5 3.51199V3.51041M10.5 3.51041V3.50883M10.5 3.51041V3.50883M10.5 3.50883V3.50725M10.5 3.50883V3.50725M10.5 3.50725V3.50568M10.5 3.50725V3.50568M10.5 3.50568V3.5041M10.5 3.50568V3.5041M10.5 3.5041V3.50253M10.5 3.5041V3.50253M10.5 3.50253V3.50095M10.5 3.50253V3.50095M10.5 3.50095V3.49938M10.5 3.50095V3.49938M10.5 3.49938C10.5 3.22364 10.7235 3 11 3L10.5 3.49938ZM10.5 12.499V12.5006V12.499ZM10.5 12.499V12.4975M10.5 12.499V12.4975M10.5 12.4975V12.4959M10.5 12.4975V12.4959M10.5 12.4959V12.4943M10.5 12.4959V12.4943M10.5 12.4943V12.4927M10.5 12.4943V12.4927M10.5 12.4927V12.4912M10.5 12.4927V12.4912M10.5 12.4912V12.4896M10.5 12.4912V12.4896M10.5 12.4896V12.488M10.5 12.4896V12.488M10.5 12.488V12.4864M10.5 12.488V12.4864M10.5 12.4864V12.4848M10.5 12.4864V12.4848M10.5 12.4848V12.4833M10.5 12.4848V12.4833M10.5 12.4833V12.4817M10.5 12.4833V12.4817M10.5 12.4817V12.4801M10.5 12.4817V12.4801M10.5 12.4801V12.4785M10.5 12.4801V12.4785M10.5 12.4785V12.4769M10.5 12.4785V12.4769M10.5 12.4769V12.4753M10.5 12.4769V12.4753M10.5 12.4753V12.4737M10.5 12.4753V12.4737M10.5 12.4737V12.4721M10.5 12.4737V12.4721M10.5 12.4721V12.4705M10.5 12.4721V12.4705M10.5 12.4705V12.4689M10.5 12.4705V12.4689M10.5 12.4689V12.4673M10.5 12.4689V12.4673M10.5 12.4673V12.4657M10.5 12.4673V12.4657M10.5 12.4657V12.4641M10.5 12.4657V12.4641M10.5 12.4641V12.4625M10.5 12.4641V12.4625M10.5 12.4625V12.4609M10.5 12.4625V12.4609M10.5 12.4609V12.4593M10.5 12.4609V12.4593M10.5 12.4593V12.4577M10.5 12.4593V12.4577M10.5 12.4577V12.4561M10.5 12.4577V12.4561M10.5 12.4561V12.4545M10.5 12.4561V12.4545M10.5 12.4545V12.4529M10.5 12.4545V12.4529M10.5 12.4529V12.4512M10.5 12.4529V12.4512M10.5 12.4512V12.4496M10.5 12.4512V12.4496M10.5 12.4496V12.448M10.5 12.4496V12.448M10.5 12.448V12.4464M10.5 12.448V12.4464M10.5 12.4464V12.4448M10.5 12.4464V12.4448M10.5 12.4448V12.4431M10.5 12.4448V12.4431M10.5 12.4431V12.4415M10.5 12.4431V12.4415M10.5 12.4415V12.4399M10.5 12.4415V12.4399M10.5 12.4399V12.4383M10.5 12.4399V12.4383M10.5 12.4383V12.4366M10.5 12.4383V12.4366M10.5 12.4366V12.435M10.5 12.4366V12.435M10.5 12.435V12.4334M10.5 12.435V12.4334M10.5 12.4334V12.4318M10.5 12.4334V12.4318M10.5 12.4318V12.4301M10.5 12.4318V12.4301M10.5 12.4301V12.4285M10.5 12.4301V12.4285M10.5 12.4285V12.4269M10.5 12.4285V12.4269M10.5 12.4269V12.4252M10.5 12.4269V12.4252M10.5 12.4252V12.4236M10.5 12.4252V12.4236M10.5 12.4236V12.4219M10.5 12.4236V12.4219M10.5 12.4219V12.4203M10.5 12.4219V12.4203M10.5 12.4203V12.4187M10.5 12.4203V12.4187M10.5 12.4187V12.417M10.5 12.4187V12.417M10.5 12.417V12.4154M10.5 12.417V12.4154M10.5 12.4154V12.4137M10.5 12.4154V12.4137M10.5 12.4137V12.4121M10.5 12.4137V12.4121M10.5 12.4121V12.4104M10.5 12.4121V12.4104M10.5 12.4104V12.4088M10.5 12.4104V12.4088M10.5 12.4088V12.4071M10.5 12.4088V12.4071M10.5 12.4071V12.4055M10.5 12.4071V12.4055M10.5 12.4055V12.4038M10.5 12.4055V12.4038M10.5 12.4038V12.4021M10.5 12.4038V12.4021M10.5 12.4021V12.4005M10.5 12.4021V12.4005M10.5 12.4005V12.3988M10.5 12.4005V12.3988M10.5 12.3988V12.3972M10.5 12.3988V12.3972M10.5 12.3972V12.3955M10.5 12.3972V12.3955M10.5 12.3955V12.3938M10.5 12.3955V12.3938M10.5 12.3938V12.3922M10.5 12.3938V12.3922M10.5 12.3922V12.3905M10.5 12.3922V12.3905M10.5 12.3905V12.3888M10.5 12.3905V12.3888M10.5 12.3888V12.3872M10.5 12.3888V12.3872M10.5 12.3872V12.3855M10.5 12.3872V12.3855M10.5 12.3855V12.3838M10.5 12.3855V12.3838M10.5 12.3838V12.3821M10.5 12.3838V12.3821M10.5 12.3821V12.3805M10.5 12.3821V12.3805M10.5 12.3805V12.3788M10.5 12.3805V12.3788M10.5 12.3788V12.3771M10.5 12.3788V12.3771M10.5 12.3771V12.3754M10.5 12.3771V12.3754M10.5 12.3754V12.3737M10.5 12.3754V12.3737M10.5 12.3737V12.3721M10.5 12.3737V12.3721M10.5 12.3721V12.3704M10.5 12.3721V12.3704M10.5 12.3704V12.3687M10.5 12.3704V12.3687M10.5 12.3687V12.367M10.5 12.3687V12.367M10.5 12.367V12.3653M10.5 12.367V12.3653M10.5 12.3653V12.3636M10.5 12.3653V12.3636M10.5 12.3636V12.3619M10.5 12.3636V12.3619M10.5 12.3619V12.3602M10.5 12.3619V12.3602M10.5 12.3602V12.3585M10.5 12.3602V12.3585M10.5 12.3585V12.3568M10.5 12.3585V12.3568M10.5 12.3568V12.3551M10.5 12.3568V12.3551M10.5 12.3551V12.3534M10.5 12.3551V12.3534M10.5 12.3534V12.3517M10.5 12.3534V12.3517M10.5 12.3517V12.35M10.5 12.3517V12.35M10.5 12.35V12.3483M10.5 12.35V12.3483M10.5 12.3483V12.3466M10.5 12.3483V12.3466M10.5 12.3466V12.3449M10.5 12.3466V12.3449M10.5 12.3449V12.3432M10.5 12.3449V12.3432M10.5 12.3432V12.3415M10.5 12.3432V12.3415M10.5 12.3415V12.3398M10.5 12.3415V12.3398M10.5 12.3398V12.3381M10.5 12.3398V12.3381M10.5 12.3381V12.3364M10.5 12.3381V12.3364M10.5 12.3364V12.3346M10.5 12.3364V12.3346M10.5 12.3346V12.3329M10.5 12.3346V12.3329M10.5 12.3329V12.3312M10.5 12.3329V12.3312M10.5 12.3312V12.3295M10.5 12.3312V12.3295M10.5 12.3295V12.3278M10.5 12.3295V12.3278M10.5 12.3278V12.326M10.5 12.3278V12.326M10.5 12.326V12.3243M10.5 12.326V12.3243M10.5 12.3243V12.3226M10.5 12.3243V12.3226M10.5 12.3226V12.3209M10.5 12.3226V12.3209M10.5 12.3209V12.3191M10.5 12.3209V12.3191M10.5 12.3191V12.3174M10.5 12.3191V12.3174M10.5 12.3174V12.3157M10.5 12.3174V12.3157M10.5 12.3157V12.3139M10.5 12.3157V12.3139M10.5 12.3139V12.3122M10.5 12.3139V12.3122M10.5 12.3122V12.3105M10.5 12.3122V12.3105M10.5 12.3105V12.3087M10.5 12.3105V12.3087M10.5 12.3087V12.307M10.5 12.3087V12.307M10.5 12.307V12.3052M10.5 12.307V12.3052M10.5 12.3052V12.3035M10.5 12.3052V12.3035M10.5 12.3035V12.3018M10.5 12.3035V12.3018M10.5 12.3018V12.3M10.5 12.3018V12.3M10.5 12.3V12.2983M10.5 12.3V12.2983M10.5 12.2983V12.2965M10.5 12.2983V12.2965M10.5 12.2965V12.2948M10.5 12.2965V12.2948M10.5 12.2948V12.293M10.5 12.2948V12.293M10.5 12.293V12.2913M10.5 12.293V12.2913M10.5 12.2913V12.2895M10.5 12.2913V12.2895M10.5 12.2895V12.2877M10.5 12.2895V12.2877M10.5 12.2877V12.286M10.5 12.2877V12.286M10.5 12.286V12.2842M10.5 12.286V12.2842M10.5 12.2842V12.2825M10.5 12.2842V12.2825M10.5 12.2825V12.2807M10.5 12.2825V12.2807M10.5 12.2807V12.2789M10.5 12.2807V12.2789M10.5 12.2789V12.2772M10.5 12.2789V12.2772M10.5 12.2772V12.2754M10.5 12.2772V12.2754M10.5 12.2754V12.2736M10.5 12.2754V12.2736M10.5 12.2736V12.2719M10.5 12.2736V12.2719M10.5 12.2719V12.2701M10.5 12.2719V12.2701M10.5 12.2701V12.2683M10.5 12.2701V12.2683M10.5 12.2683V12.2666M10.5 12.2683V12.2666M10.5 12.2666V12.2648M10.5 12.2666V12.2648M10.5 12.2648V12.263M10.5 12.2648V12.263M10.5 12.263V12.2612M10.5 12.263V12.2612M10.5 12.2612V12.2595M10.5 12.2612V12.2595M10.5 12.2595V12.2577M10.5 12.2595V12.2577M10.5 12.2577V12.2559M10.5 12.2577V12.2559M10.5 12.2559V12.2541M10.5 12.2559V12.2541M10.5 12.2541V12.2523M10.5 12.2541V12.2523M10.5 12.2523V12.2505M10.5 12.2523V12.2505M10.5 12.2505V12.2487M10.5 12.2505V12.2487M10.5 12.2487V12.247M10.5 12.2487V12.247M10.5 12.247V12.2452M10.5 12.247V12.2452M10.5 12.2452V12.2434M10.5 12.2452V12.2434M10.5 12.2434V12.2416M10.5 12.2434V12.2416M10.5 12.2416V12.2398M10.5 12.2416V12.2398M10.5 12.2398V12.238M10.5 12.2398V12.238M10.5 12.238V12.2362M10.5 12.238V12.2362M10.5 12.2362V12.2344M10.5 12.2362V12.2344M10.5 12.2344V12.2326M10.5 12.2344V12.2326M10.5 12.2326V12.2308M10.5 12.2326V12.2308M10.5 12.2308V12.229M10.5 12.2308V12.229M10.5 12.229V12.2272M10.5 12.229V12.2272M10.5 12.2272V12.2254M10.5 12.2272V12.2254M10.5 12.2254V12.2235M10.5 12.2254V12.2235M10.5 12.2235V12.2217M10.5 12.2235V12.2217M10.5 12.2217V12.2199M10.5 12.2217V12.2199M10.5 12.2199V12.2181M10.5 12.2199V12.2181M10.5 12.2181V12.2163M10.5 12.2181V12.2163M10.5 12.2163V12.2145M10.5 12.2163V12.2145M10.5 12.2145V12.2127M10.5 12.2145V12.2127M10.5 12.2127V12.2108M10.5 12.2127V12.2108M10.5 12.2108V12.209M10.5 12.2108V12.209M10.5 12.209V12.2072M10.5 12.209V12.2072M10.5 12.2072V12.2054M10.5 12.2072V12.2054M10.5 12.2054V12.2035M10.5 12.2054V12.2035M10.5 12.2035V12.2017M10.5 12.2035V12.2017M10.5 12.2017V12.1999M10.5 12.2017V12.1999M10.5 12.1999V12.1981M10.5 12.1999V12.1981M10.5 12.1981V12.1962M10.5 12.1981V12.1962M10.5 12.1962V12.1944M10.5 12.1962V12.1944M10.5 12.1944V12.1926M10.5 12.1944V12.1926M10.5 12.1926V12.1907M10.5 12.1926V12.1907M10.5 12.1907V12.1889M10.5 12.1907V12.1889M10.5 12.1889V12.187M10.5 12.1889V12.187M10.5 12.187V12.1852M10.5 12.187V12.1852M10.5 12.1852V12.1834M10.5 12.1852V12.1834M10.5 12.1834V12.1815M10.5 12.1834V12.1815M10.5 12.1815V12.1797M10.5 12.1815V12.1797M10.5 12.1797V12.1778M10.5 12.1797V12.1778M10.5 12.1778V12.176M10.5 12.1778V12.176M10.5 12.176V12.1741M10.5 12.176V12.1741M10.5 12.1741V12.1723M10.5 12.1741V12.1723M10.5 12.1723V12.1704M10.5 12.1723V12.1704M10.5 12.1704V12.1686M10.5 12.1704V12.1686M10.5 12.1686V12.1667M10.5 12.1686V12.1667M10.5 12.1667V12.1649M10.5 12.1667V12.1649M10.5 12.1649V12.163M10.5 12.1649V12.163M10.5 12.163V12.1611M10.5 12.163V12.1611M10.5 12.1611V12.1593M10.5 12.1611V12.1593M10.5 12.1593V12.1574M10.5 12.1593V12.1574M10.5 12.1574V12.1555M10.5 12.1574V12.1555M10.5 12.1555V12.1537M10.5 12.1555V12.1537M10.5 12.1537V12.1518M10.5 12.1537V12.1518M10.5 12.1518V12.1499M10.5 12.1518V12.1499M10.5 12.1499V12.1481M10.5 12.1499V12.1481M10.5 12.1481V12.1462M10.5 12.1481V12.1462M10.5 12.1462V12.1443M10.5 12.1462V12.1443M10.5 12.1443V12.1424M10.5 12.1443V12.1424M10.5 12.1424V12.1406M10.5 12.1424V12.1406M10.5 12.1406V12.1387M10.5 12.1406V12.1387M10.5 12.1387V12.1368M10.5 12.1387V12.1368M10.5 12.1368V12.1349M10.5 12.1368V12.1349M10.5 12.1349V12.133M10.5 12.1349V12.133M10.5 12.133V12.1312M10.5 12.133V12.1312M10.5 12.1312V12.1293M10.5 12.1312V12.1293M10.5 12.1293V12.1274M10.5 12.1293V12.1274M10.5 12.1274V12.1255M10.5 12.1274V12.1255M10.5 12.1255V12.1236M10.5 12.1255V12.1236M10.5 12.1236V12.1217M10.5 12.1236V12.1217M10.5 12.1217V12.1198M10.5 12.1217V12.1198M10.5 12.1198V12.1179M10.5 12.1198V12.1179M10.5 12.1179V12.116M10.5 12.1179V12.116M10.5 12.116V12.1141M10.5 12.116V12.1141M10.5 12.1141V12.1122M10.5 12.1141V12.1122M10.5 12.1122V12.1103M10.5 12.1122V12.1103M10.5 12.1103V12.1084M10.5 12.1103V12.1084M10.5 12.1084V12.1065M10.5 12.1084V12.1065M10.5 12.1065V12.1046M10.5 12.1065V12.1046M10.5 12.1046V12.1027M10.5 12.1046V12.1027M10.5 12.1027V12.1008M10.5 12.1027V12.1008M10.5 12.1008V12.0989M10.5 12.1008V12.0989M10.5 12.0989V12.097M10.5 12.0989V12.097M10.5 12.097V12.0951M10.5 12.097V12.0951M10.5 12.0951V12.0931M10.5 12.0951V12.0931M10.5 12.0931V12.0912M10.5 12.0931V12.0912M10.5 12.0912V12.0893M10.5 12.0912V12.0893M10.5 12.0893V12.0874M10.5 12.0893V12.0874M10.5 12.0874V12.0855M10.5 12.0874V12.0855M10.5 12.0855V12.0835M10.5 12.0855V12.0835M10.5 12.0835V12.0816M10.5 12.0835V12.0816M10.5 12.0816V12.0797M10.5 12.0816V12.0797M10.5 12.0797V12.0778M10.5 12.0797V12.0778M10.5 12.0778V12.0758M10.5 12.0778V12.0758M10.5 12.0758V12.0739M10.5 12.0758V12.0739M10.5 12.0739V12.072M10.5 12.0739V12.072M10.5 12.072V12.07M10.5 12.072V12.07M10.5 12.07V12.0681M10.5 12.07V12.0681M10.5 12.0681V12.0662M10.5 12.0681V12.0662M10.5 12.0662V12.0642M10.5 12.0662V12.0642M10.5 12.0642V12.0623M10.5 12.0642V12.0623M10.5 12.0623V12.0604M10.5 12.0623V12.0604M10.5 12.0604V12.0584M10.5 12.0604V12.0584M10.5 12.0584V12.0565M10.5 12.0584V12.0565M10.5 12.0565V12.0545M10.5 12.0565V12.0545M10.5 12.0545V12.0526M10.5 12.0545V12.0526M10.5 12.0526V12.0506M10.5 12.0526V12.0506M10.5 12.0506V12.0487M10.5 12.0506V12.0487M10.5 12.0487V12.0467M10.5 12.0487V12.0467M10.5 12.0467V12.0448M10.5 12.0467V12.0448M10.5 12.0448V12.0428M10.5 12.0448V12.0428M10.5 12.0428V12.0409M10.5 12.0428V12.0409M10.5 12.0409V12.0389M10.5 12.0409V12.0389M10.5 12.0389V12.0369M10.5 12.0389V12.0369M10.5 12.0369V12.035M10.5 12.0369V12.035M10.5 12.035V12.033M10.5 12.035V12.033M10.5 12.033V12.0311M10.5 12.033V12.0311M10.5 12.0311V12.0291M10.5 12.0311V12.0291M10.5 12.0291V12.0271M10.5 12.0291V12.0271M10.5 12.0271V12.0251M10.5 12.0271V12.0251M10.5 12.0251V12.0232M10.5 12.0251V12.0232M10.5 12.0232V12.0212M10.5 12.0232V12.0212M10.5 12.0212V12.0192M10.5 12.0212V12.0192M10.5 12.0192V12.0173M10.5 12.0192V12.0173M10.5 12.0173V12.0153M10.5 12.0173V12.0153M10.5 12.0153V12.0133M10.5 12.0153V12.0133M10.5 12.0133V12.0113M10.5 12.0133V12.0113M10.5 12.0113V12.0093M10.5 12.0113V12.0093M10.5 12.0093V12.0074M10.5 12.0093V12.0074M10.5 12.0074V12.0054M10.5 12.0074V12.0054M10.5 12.0054V12.0034M10.5 12.0054V12.0034M10.5 12.0034V12.0014M10.5 12.0034V12.0014M10.5 12.0014V11.9994M10.5 12.0014V11.9994M10.5 11.9994V11.9974M10.5 11.9994V11.9974M10.5 11.9974V11.9954M10.5 11.9974V11.9954M10.5 11.9954V11.9934M10.5 11.9954V11.9934M10.5 11.9934V11.9914M10.5 11.9934V11.9914M10.5 11.9914V11.9894M10.5 11.9914V11.9894M10.5 11.9894V11.9874M10.5 11.9894V11.9874M10.5 11.9874V11.9854M10.5 11.9874V11.9854M10.5 11.9854V11.9834M10.5 11.9854V11.9834M10.5 11.9834V11.9814M10.5 11.9834V11.9814M10.5 11.9814V11.9794M10.5 11.9814V11.9794M10.5 11.9794V11.9774M10.5 11.9794V11.9774M10.5 11.9774V11.9754M10.5 11.9774V11.9754M10.5 11.9754V11.9734M10.5 11.9754V11.9734M10.5 11.9734V11.9714M10.5 11.9734V11.9714M10.5 11.9714V11.9694M10.5 11.9714V11.9694M10.5 11.9694V11.9674M10.5 11.9694V11.9674M10.5 11.9674V11.9654M10.5 11.9674V11.9654M10.5 11.9654V11.9633M10.5 11.9654V11.9633M10.5 11.9633V11.9613M10.5 11.9633V11.9613M10.5 11.9613V11.9593M10.5 11.9613V11.9593M10.5 11.9593V11.9573M10.5 11.9593V11.9573M10.5 11.9573V11.9553M10.5 11.9573V11.9553M10.5 11.9553V11.9532M10.5 11.9553V11.9532M10.5 11.9532V11.9512M10.5 11.9532V11.9512M10.5 11.9512V11.9492M10.5 11.9512V11.9492M10.5 11.9492V11.9472M10.5 11.9492V11.9472M10.5 11.9472V11.9451M10.5 11.9472V11.9451M10.5 11.9451V11.9431M10.5 11.9451V11.9431M10.5 11.9431V11.9411M10.5 11.9431V11.9411M10.5 11.9411V11.939M10.5 11.9411V11.939M10.5 11.939V11.937M10.5 11.939V11.937M10.5 11.937V11.9349M10.5 11.937V11.9349M10.5 11.9349V11.9329M10.5 11.9349V11.9329M10.5 11.9329V11.9309M10.5 11.9329V11.9309M10.5 11.9309V11.9288M10.5 11.9309V11.9288M10.5 11.9288V11.9268M10.5 11.9288V11.9268M10.5 11.9268V11.9247M10.5 11.9268V11.9247M10.5 11.9247V11.9227M10.5 11.9247V11.9227M10.5 11.9227V11.9206M10.5 11.9227V11.9206M10.5 11.9206V11.9186M10.5 11.9206V11.9186M10.5 11.9186V11.9165M10.5 11.9186V11.9165M10.5 11.9165V11.9145M10.5 11.9165V11.9145M10.5 11.9145V11.9124M10.5 11.9145V11.9124M10.5 11.9124V11.9104M10.5 11.9124V11.9104M10.5 11.9104V11.9083M10.5 11.9104V11.9083M10.5 11.9083V11.9062M10.5 11.9083V11.9062M10.5 11.9062V11.9042M10.5 11.9062V11.9042M10.5 11.9042V11.9021M10.5 11.9042V11.9021M10.5 11.9021V11.9001M10.5 11.9021V11.9001M10.5 11.9001V11.898M10.5 11.9001V11.898M10.5 11.898V11.8959M10.5 11.898V11.8959M10.5 11.8959V11.8938M10.5 11.8959V11.8938M10.5 11.8938V11.8918M10.5 11.8938V11.8918M10.5 11.8918V11.8897M10.5 11.8918V11.8897M10.5 11.8897V11.8876M10.5 11.8897V11.8876M10.5 11.8876V11.8856M10.5 11.8876V11.8856M10.5 11.8856V11.8835M10.5 11.8856V11.8835M10.5 11.8835V11.8814M10.5 11.8835V11.8814M10.5 11.8814V11.8793M10.5 11.8814V11.8793M10.5 11.8793V11.8772M10.5 11.8793V11.8772M10.5 11.8772V11.8751M10.5 11.8772V11.8751M10.5 11.8751V11.8731M10.5 11.8751V11.8731M10.5 11.8731V11.871M10.5 11.8731V11.871M10.5 11.871V11.8689M10.5 11.871V11.8689M10.5 11.8689V11.8668M10.5 11.8689V11.8668M10.5 11.8668V11.8647M10.5 11.8668V11.8647M10.5 11.8647V11.8626M10.5 11.8647V11.8626M10.5 11.8626V11.8605M10.5 11.8626V11.8605M10.5 11.8605V11.8584M10.5 11.8605V11.8584M10.5 11.8584V11.8563M10.5 11.8584V11.8563M10.5 11.8563V11.8542M10.5 11.8563V11.8542M10.5 11.8542V11.8521M10.5 11.8542V11.8521M10.5 11.8521V11.85M10.5 11.8521V11.85M10.5 11.85V11.8479M10.5 11.85V11.8479M10.5 11.8479V11.8458M10.5 11.8479V11.8458M10.5 11.8458V11.8437M10.5 11.8458V11.8437M10.5 11.8437V11.8416M10.5 11.8437V11.8416M10.5 11.8416V11.8395M10.5 11.8416V11.8395M10.5 11.8395V11.8374M10.5 11.8395V11.8374M10.5 11.8374V11.8353M10.5 11.8374V11.8353M10.5 11.8353V11.8331M10.5 11.8353V11.8331M10.5 11.8331V11.831M10.5 11.8331V11.831M10.5 11.831V11.8289M10.5 11.831V11.8289M10.5 11.8289V11.8268M10.5 11.8289V11.8268M10.5 11.8268V11.8247M10.5 11.8268V11.8247M10.5 11.8247V11.8225M10.5 11.8247V11.8225M10.5 11.8225V11.8204M10.5 11.8225V11.8204M10.5 11.8204V11.8183M10.5 11.8204V11.8183M10.5 11.8183V11.8162M10.5 11.8183V11.8162M10.5 11.8162V11.814M10.5 11.8162V11.814M10.5 11.814V11.8119M10.5 11.814V11.8119M10.5 11.8119V11.8098M10.5 11.8119V11.8098M10.5 11.8098V11.8076M10.5 11.8098V11.8076M10.5 11.8076V11.8055M10.5 11.8076V11.8055M10.5 11.8055V11.8034M10.5 11.8055V11.8034M10.5 11.8034V11.8012M10.5 11.8034V11.8012M10.5 11.8012V11.7991M10.5 11.8012V11.7991M10.5 11.7991V11.7969M10.5 11.7991V11.7969M10.5 11.7969V11.7948M10.5 11.7969V11.7948M10.5 11.7948V11.7926M10.5 11.7948V11.7926M10.5 11.7926V11.7905M10.5 11.7926V11.7905M10.5 11.7905V11.7883M10.5 11.7905V11.7883M10.5 11.7883V11.7862M10.5 11.7883V11.7862M10.5 11.7862V11.784M10.5 11.7862V11.784M10.5 11.784V11.7819M10.5 11.784V11.7819M10.5 11.7819V11.7797M10.5 11.7819V11.7797M10.5 11.7797V11.7776M10.5 11.7797V11.7776M10.5 11.7776V11.7754M10.5 11.7776V11.7754M10.5 11.7754V11.7733M10.5 11.7754V11.7733M10.5 11.7733V11.7711M10.5 11.7733V11.7711M10.5 11.7711V11.7689M10.5 11.7711V11.7689M10.5 11.7689V11.7668M10.5 11.7689V11.7668M10.5 11.7668V11.7646M10.5 11.7668V11.7646M10.5 11.7646V11.7624M10.5 11.7646V11.7624M10.5 11.7624V11.7603M10.5 11.7624V11.7603M10.5 11.7603V11.7581M10.5 11.7603V11.7581M10.5 11.7581V11.7559M10.5 11.7581V11.7559M10.5 11.7559V11.7537M10.5 11.7559V11.7537M10.5 11.7537V11.7516M10.5 11.7537V11.7516M10.5 11.7516V11.7494M10.5 11.7516V11.7494M10.5 11.7494V11.7472M10.5 11.7494V11.7472M10.5 11.7472V11.745M10.5 11.7472V11.745M10.5 11.745V11.7428M10.5 11.745V11.7428M10.5 11.7428V11.7407M10.5 11.7428V11.7407M10.5 11.7407V11.7385M10.5 11.7407V11.7385M10.5 11.7385V11.7363M10.5 11.7385V11.7363M10.5 11.7363V11.7341M10.5 11.7363V11.7341M10.5 11.7341V11.7319M10.5 11.7341V11.7319M10.5 11.7319V11.7297M10.5 11.7319V11.7297M10.5 11.7297V11.7275M10.5 11.7297V11.7275M10.5 11.7275V11.7253M10.5 11.7275V11.7253M10.5 11.7253V11.7231M10.5 11.7253V11.7231M10.5 11.7231V11.7209M10.5 11.7231V11.7209M10.5 11.7209V11.7187M10.5 11.7209V11.7187M10.5 11.7187V11.7165M10.5 11.7187V11.7165M10.5 11.7165V11.7143M10.5 11.7165V11.7143M10.5 11.7143V11.7121M10.5 11.7143V11.7121M10.5 11.7121V11.7099M10.5 11.7121V11.7099M10.5 11.7099V11.7077M10.5 11.7099V11.7077M10.5 11.7077V11.7055M10.5 11.7077V11.7055M10.5 11.7055V11.7033M10.5 11.7055V11.7033M10.5 11.7033V11.7011M10.5 11.7033V11.7011M10.5 11.7011V11.6989M10.5 11.7011V11.6989M10.5 11.6989V11.6966M10.5 11.6989V11.6966M10.5 11.6966V11.6944M10.5 11.6966V11.6944M10.5 11.6944V11.6922M10.5 11.6944V11.6922M10.5 11.6922V11.69M10.5 11.6922V11.69M10.5 11.69V11.6878M10.5 11.69V11.6878M10.5 11.6878V11.6855M10.5 11.6878V11.6855M10.5 11.6855V11.6833M10.5 11.6855V11.6833M10.5 11.6833V11.6811M10.5 11.6833V11.6811M10.5 11.6811V11.6789M10.5 11.6811V11.6789M10.5 11.6789V11.6766M10.5 11.6789V11.6766M10.5 11.6766V11.6744M10.5 11.6766V11.6744M10.5 11.6744V11.6722M10.5 11.6744V11.6722M10.5 11.6722V11.6699M10.5 11.6722V11.6699M10.5 11.6699V11.6677M10.5 11.6699V11.6677M10.5 11.6677V11.6655M10.5 11.6677V11.6655M10.5 11.6655V11.6632M10.5 11.6655V11.6632M10.5 11.6632V11.661M10.5 11.6632V11.661M10.5 11.661V11.6587M10.5 11.661V11.6587M10.5 11.6587V11.6565M10.5 11.6587V11.6565M10.5 11.6565V11.6542M10.5 11.6565V11.6542M10.5 11.6542V11.652M10.5 11.6542V11.652M10.5 11.652V11.6497M10.5 11.652V11.6497M10.5 11.6497V11.6475M10.5 11.6497V11.6475M10.5 11.6475V11.6452M10.5 11.6475V11.6452M10.5 11.6452V11.643M10.5 11.6452V11.643M10.5 11.643V11.6407M10.5 11.643V11.6407M10.5 11.6407V11.6385M10.5 11.6407V11.6385M10.5 11.6385V11.6362M10.5 11.6385V11.6362M10.5 11.6362V11.6339M10.5 11.6362V11.6339M10.5 11.6339V11.6317M10.5 11.6339V11.6317M10.5 11.6317V11.6294M10.5 11.6317V11.6294M10.5 11.6294V11.6271M10.5 11.6294V11.6271M10.5 11.6271V11.6249M10.5 11.6271V11.6249M10.5 11.6249V11.6226M10.5 11.6249V11.6226M10.5 11.6226V11.6203M10.5 11.6226V11.6203M10.5 11.6203V11.6181M10.5 11.6203V11.6181M10.5 11.6181V11.6158M10.5 11.6181V11.6158M10.5 11.6158V11.6135M10.5 11.6158V11.6135M10.5 11.6135V11.6112M10.5 11.6135V11.6112M10.5 11.6112V11.609M10.5 11.6112V11.609M10.5 11.609V11.6067M10.5 11.609V11.6067M10.5 11.6067V11.6044M10.5 11.6067V11.6044M10.5 11.6044V11.6021M10.5 11.6044V11.6021M10.5 11.6021V11.5998M10.5 11.6021V11.5998M10.5 11.5998V11.5975M10.5 11.5998V11.5975M10.5 11.5975V11.5953M10.5 11.5975V11.5953M10.5 11.5953V11.593M10.5 11.5953V11.593M10.5 11.593V11.5907M10.5 11.593V11.5907M10.5 11.5907V11.5884M10.5 11.5907V11.5884M10.5 11.5884V11.5861M10.5 11.5884V11.5861M10.5 11.5861V11.5838M10.5 11.5861V11.5838M10.5 11.5838V11.5815M10.5 11.5838V11.5815M10.5 11.5815V11.5792M10.5 11.5815V11.5792M10.5 11.5792V11.5769M10.5 11.5792V11.5769M10.5 11.5769V11.5746M10.5 11.5769V11.5746M10.5 11.5746V11.5723M10.5 11.5746V11.5723M10.5 11.5723V11.57M10.5 11.5723V11.57M10.5 11.57V11.5677M10.5 11.57V11.5677M10.5 11.5677V11.5653M10.5 11.5677V11.5653M10.5 11.5653V11.563M10.5 11.5653V11.563M10.5 11.563V11.5607M10.5 11.563V11.5607M10.5 11.5607V11.5584M10.5 11.5607V11.5584M10.5 11.5584V11.5561M10.5 11.5584V11.5561M10.5 11.5561V11.5538M10.5 11.5561V11.5538M10.5 11.5538V11.5515M10.5 11.5538V11.5515M10.5 11.5515V11.5491M10.5 11.5515V11.5491M10.5 11.5491V11.5468M10.5 11.5491V11.5468M10.5 11.5468V11.5445M10.5 11.5468V11.5445M10.5 11.5445V11.5422M10.5 11.5445V11.5422M10.5 11.5422V11.5398M10.5 11.5422V11.5398M10.5 11.5398V11.5375M10.5 11.5398V11.5375M10.5 11.5375V11.5352M10.5 11.5375V11.5352M10.5 11.5352V11.5328M10.5 11.5352V11.5328M10.5 11.5328V11.5305M10.5 11.5328V11.5305M10.5 11.5305V11.5282M10.5 11.5305V11.5282M10.5 11.5282V11.5258M10.5 11.5282V11.5258M10.5 11.5258V11.5235M10.5 11.5258V11.5235M10.5 11.5235V11.5211M10.5 11.5235V11.5211M10.5 11.5211V11.5188M10.5 11.5211V11.5188M10.5 11.5188V11.5165M10.5 11.5188V11.5165M10.5 11.5165V11.5141M10.5 11.5165V11.5141M10.5 11.5141V11.5118M10.5 11.5141V11.5118M10.5 11.5118V11.5094M10.5 11.5118V11.5094M10.5 11.5094V11.5071M10.5 11.5094V11.5071M10.5 11.5071V11.5047M10.5 11.5071V11.5047M10.5 11.5047V11.5024M10.5 11.5047V11.5024M10.5 11.5024V11.5M10.5 11.5024V11.5M10.5 11.5C10.5 10.8541 10.0746 10.4219 9.60592 10.1778M10.5 11.5L9.60592 10.1778M9.60592 10.1778C9.13999 9.93523 8.55491 9.82843 8 9.82843M9.60592 10.1778L8 9.82843M8 9.82843C7.44509 9.82843 6.86001 9.93523 6.39408 10.1778M8 9.82843L6.39408 10.1778M6.39408 10.1778C5.92536 10.4219 5.5 10.8541 5.5 11.5M6.39408 10.1778L5.5 11.5M5.5 11.5V11.5024M5.5 11.5V11.5024M5.5 11.5024V11.5047M5.5 11.5024V11.5047M5.5 11.5047V11.5071M5.5 11.5047V11.5071M5.5 11.5071V11.5094M5.5 11.5071V11.5094M5.5 11.5094V11.5118M5.5 11.5094V11.5118M5.5 11.5118V11.5141M5.5 11.5118V11.5141M5.5 11.5141V11.5165M5.5 11.5141V11.5165M5.5 11.5165V11.5188M5.5 11.5165V11.5188M5.5 11.5188V11.5211M5.5 11.5188V11.5211M5.5 11.5211V11.5235M5.5 11.5211V11.5235M5.5 11.5235V11.5258M5.5 11.5235V11.5258M5.5 11.5258V11.5282M5.5 11.5258V11.5282M5.5 11.5282V11.5305M5.5 11.5282V11.5305M5.5 11.5305V11.5328M5.5 11.5305V11.5328M5.5 11.5328V11.5352M5.5 11.5328V11.5352M5.5 11.5352V11.5375M5.5 11.5352V11.5375M5.5 11.5375V11.5398M5.5 11.5375V11.5398M5.5 11.5398V11.5422M5.5 11.5398V11.5422M5.5 11.5422V11.5445M5.5 11.5422V11.5445M5.5 11.5445V11.5468M5.5 11.5445V11.5468M5.5 11.5468V11.5491M5.5 11.5468V11.5491M5.5 11.5491V11.5515M5.5 11.5491V11.5515M5.5 11.5515V11.5538M5.5 11.5515V11.5538M5.5 11.5538V11.5561M5.5 11.5538V11.5561M5.5 11.5561V11.5584M5.5 11.5561V11.5584M5.5 11.5584V11.5607M5.5 11.5584V11.5607M5.5 11.5607V11.563M5.5 11.5607V11.563M5.5 11.563V11.5653M5.5 11.563V11.5653M5.5 11.5653V11.5677M5.5 11.5653V11.5677M5.5 11.5677V11.57M5.5 11.5677V11.57M5.5 11.57V11.5723M5.5 11.57V11.5723M5.5 11.5723V11.5746M5.5 11.5723V11.5746M5.5 11.5746V11.5769M5.5 11.5746V11.5769M5.5 11.5769V11.5792M5.5 11.5769V11.5792M5.5 11.5792V11.5815M5.5 11.5792V11.5815M5.5 11.5815V11.5838M5.5 11.5815V11.5838M5.5 11.5838V11.5861M5.5 11.5838V11.5861M5.5 11.5861V11.5884M5.5 11.5861V11.5884M5.5 11.5884V11.5907M5.5 11.5884V11.5907M5.5 11.5907V11.593M5.5 11.5907V11.593M5.5 11.593V11.5953M5.5 11.593V11.5953M5.5 11.5953V11.5975M5.5 11.5953V11.5975M5.5 11.5975V11.5998M5.5 11.5975V11.5998M5.5 11.5998V11.6021M5.5 11.5998V11.6021M5.5 11.6021V11.6044M5.5 11.6021V11.6044M5.5 11.6044V11.6067M5.5 11.6044V11.6067M5.5 11.6067V11.609M5.5 11.6067V11.609M5.5 11.609V11.6112M5.5 11.609V11.6112M5.5 11.6112V11.6135M5.5 11.6112V11.6135M5.5 11.6135V11.6158M5.5 11.6135V11.6158M5.5 11.6158V11.6181M5.5 11.6158V11.6181M5.5 11.6181V11.6203M5.5 11.6181V11.6203M5.5 11.6203V11.6226M5.5 11.6203V11.6226M5.5 11.6226V11.6249M5.5 11.6226V11.6249M5.5 11.6249V11.6271M5.5 11.6249V11.6271M5.5 11.6271V11.6294M5.5 11.6271V11.6294M5.5 11.6294V11.6317M5.5 11.6294V11.6317M5.5 11.6317V11.6339M5.5 11.6317V11.6339M5.5 11.6339V11.6362M5.5 11.6339V11.6362M5.5 11.6362V11.6385M5.5 11.6362V11.6385M5.5 11.6385V11.6407M5.5 11.6385V11.6407M5.5 11.6407V11.643M5.5 11.6407V11.643M5.5 11.643V11.6452M5.5 11.643V11.6452M5.5 11.6452V11.6475M5.5 11.6452V11.6475M5.5 11.6475V11.6497M5.5 11.6475V11.6497M5.5 11.6497V11.652M5.5 11.6497V11.652M5.5 11.652V11.6542M5.5 11.652V11.6542M5.5 11.6542V11.6565M5.5 11.6542V11.6565M5.5 11.6565V11.6587M5.5 11.6565V11.6587M5.5 11.6587V11.661M5.5 11.6587V11.661M5.5 11.661V11.6632M5.5 11.661V11.6632M5.5 11.6632V11.6655M5.5 11.6632V11.6655M5.5 11.6655V11.6677M5.5 11.6655V11.6677M5.5 11.6677V11.6699M5.5 11.6677V11.6699M5.5 11.6699V11.6722M5.5 11.6699V11.6722M5.5 11.6722V11.6744M5.5 11.6722V11.6744M5.5 11.6744V11.6766M5.5 11.6744V11.6766M5.5 11.6766V11.6789M5.5 11.6766V11.6789M5.5 11.6789V11.6811M5.5 11.6789V11.6811M5.5 11.6811V11.6833M5.5 11.6811V11.6833M5.5 11.6833V11.6855M5.5 11.6833V11.6855M5.5 11.6855V11.6878M5.5 11.6855V11.6878M5.5 11.6878V11.69M5.5 11.6878V11.69M5.5 11.69V11.6922M5.5 11.69V11.6922M5.5 11.6922V11.6944M5.5 11.6922V11.6944M5.5 11.6944V11.6966M5.5 11.6944V11.6966M5.5 11.6966V11.6989M5.5 11.6966V11.6989M5.5 11.6989V11.7011M5.5 11.6989V11.7011M5.5 11.7011V11.7033M5.5 11.7011V11.7033M5.5 11.7033V11.7055M5.5 11.7033V11.7055M5.5 11.7055V11.7077M5.5 11.7055V11.7077M5.5 11.7077V11.7099M5.5 11.7077V11.7099M5.5 11.7099V11.7121M5.5 11.7099V11.7121M5.5 11.7121V11.7143M5.5 11.7121V11.7143M5.5 11.7143V11.7165M5.5 11.7143V11.7165M5.5 11.7165V11.7187M5.5 11.7165V11.7187M5.5 11.7187V11.7209M5.5 11.7187V11.7209M5.5 11.7209V11.7231M5.5 11.7209V11.7231M5.5 11.7231V11.7253M5.5 11.7231V11.7253M5.5 11.7253V11.7275M5.5 11.7253V11.7275M5.5 11.7275V11.7297M5.5 11.7275V11.7297M5.5 11.7297V11.7319M5.5 11.7297V11.7319M5.5 11.7319V11.7341M5.5 11.7319V11.7341M5.5 11.7341V11.7363M5.5 11.7341V11.7363M5.5 11.7363V11.7385M5.5 11.7363V11.7385M5.5 11.7385V11.7407M5.5 11.7385V11.7407M5.5 11.7407V11.7428M5.5 11.7407V11.7428M5.5 11.7428V11.745M5.5 11.7428V11.745M5.5 11.745V11.7472M5.5 11.745V11.7472M5.5 11.7472V11.7494M5.5 11.7472V11.7494M5.5 11.7494V11.7516M5.5 11.7494V11.7516M5.5 11.7516V11.7537M5.5 11.7516V11.7537M5.5 11.7537V11.7559M5.5 11.7537V11.7559M5.5 11.7559V11.7581M5.5 11.7559V11.7581M5.5 11.7581V11.7603M5.5 11.7581V11.7603M5.5 11.7603V11.7624M5.5 11.7603V11.7624M5.5 11.7624V11.7646M5.5 11.7624V11.7646M5.5 11.7646V11.7668M5.5 11.7646V11.7668M5.5 11.7668V11.7689M5.5 11.7668V11.7689M5.5 11.7689V11.7711M5.5 11.7689V11.7711M5.5 11.7711V11.7733M5.5 11.7711V11.7733M5.5 11.7733V11.7754M5.5 11.7733V11.7754M5.5 11.7754V11.7776M5.5 11.7754V11.7776M5.5 11.7776V11.7797M5.5 11.7776V11.7797M5.5 11.7797V11.7819M5.5 11.7797V11.7819M5.5 11.7819V11.784M5.5 11.7819V11.784M5.5 11.784V11.7862M5.5 11.784V11.7862M5.5 11.7862V11.7883M5.5 11.7862V11.7883M5.5 11.7883V11.7905M5.5 11.7883V11.7905M5.5 11.7905V11.7926M5.5 11.7905V11.7926M5.5 11.7926V11.7948M5.5 11.7926V11.7948M5.5 11.7948V11.7969M5.5 11.7948V11.7969M5.5 11.7969V11.7991M5.5 11.7969V11.7991M5.5 11.7991V11.8012M5.5 11.7991V11.8012M5.5 11.8012V11.8034M5.5 11.8012V11.8034M5.5 11.8034V11.8055M5.5 11.8034V11.8055M5.5 11.8055V11.8076M5.5 11.8055V11.8076M5.5 11.8076V11.8098M5.5 11.8076V11.8098M5.5 11.8098V11.8119M5.5 11.8098V11.8119M5.5 11.8119V11.814M5.5 11.8119V11.814M5.5 11.814V11.8162M5.5 11.814V11.8162M5.5 11.8162V11.8183M5.5 11.8162V11.8183M5.5 11.8183V11.8204M5.5 11.8183V11.8204M5.5 11.8204V11.8225M5.5 11.8204V11.8225M5.5 11.8225V11.8247M5.5 11.8225V11.8247M5.5 11.8247V11.8268M5.5 11.8247V11.8268M5.5 11.8268V11.8289M5.5 11.8268V11.8289M5.5 11.8289V11.831M5.5 11.8289V11.831M5.5 11.831V11.8331M5.5 11.831V11.8331M5.5 11.8331V11.8353M5.5 11.8331V11.8353M5.5 11.8353V11.8374M5.5 11.8353V11.8374M5.5 11.8374V11.8395M5.5 11.8374V11.8395M5.5 11.8395V11.8416M5.5 11.8395V11.8416M5.5 11.8416V11.8437M5.5 11.8416V11.8437M5.5 11.8437V11.8458M5.5 11.8437V11.8458M5.5 11.8458V11.8479M5.5 11.8458V11.8479M5.5 11.8479V11.85M5.5 11.8479V11.85M5.5 11.85V11.8521M5.5 11.85V11.8521M5.5 11.8521V11.8542M5.5 11.8521V11.8542M5.5 11.8542V11.8563M5.5 11.8542V11.8563M5.5 11.8563V11.8584M5.5 11.8563V11.8584M5.5 11.8584V11.8605M5.5 11.8584V11.8605M5.5 11.8605V11.8626M5.5 11.8605V11.8626M5.5 11.8626V11.8647M5.5 11.8626V11.8647M5.5 11.8647V11.8668M5.5 11.8647V11.8668M5.5 11.8668V11.8689M5.5 11.8668V11.8689M5.5 11.8689V11.871M5.5 11.8689V11.871M5.5 11.871V11.8731M5.5 11.871V11.8731M5.5 11.8731V11.8751M5.5 11.8731V11.8751M5.5 11.8751V11.8772M5.5 11.8751V11.8772M5.5 11.8772V11.8793M5.5 11.8772V11.8793M5.5 11.8793V11.8814M5.5 11.8793V11.8814M5.5 11.8814V11.8835M5.5 11.8814V11.8835M5.5 11.8835V11.8856M5.5 11.8835V11.8856M5.5 11.8856V11.8876M5.5 11.8856V11.8876M5.5 11.8876V11.8897M5.5 11.8876V11.8897M5.5 11.8897V11.8918M5.5 11.8897V11.8918M5.5 11.8918V11.8938M5.5 11.8918V11.8938M5.5 11.8938V11.8959M5.5 11.8938V11.8959M5.5 11.8959V11.898M5.5 11.8959V11.898M5.5 11.898V11.9001M5.5 11.898V11.9001M5.5 11.9001V11.9021M5.5 11.9001V11.9021M5.5 11.9021V11.9042M5.5 11.9021V11.9042M5.5 11.9042V11.9062M5.5 11.9042V11.9062M5.5 11.9062V11.9083M5.5 11.9062V11.9083M5.5 11.9083V11.9104M5.5 11.9083V11.9104M5.5 11.9104V11.9124M5.5 11.9104V11.9124M5.5 11.9124V11.9145M5.5 11.9124V11.9145M5.5 11.9145V11.9165M5.5 11.9145V11.9165M5.5 11.9165V11.9186M5.5 11.9165V11.9186M5.5 11.9186V11.9206M5.5 11.9186V11.9206M5.5 11.9206V11.9227M5.5 11.9206V11.9227M5.5 11.9227V11.9247M5.5 11.9227V11.9247M5.5 11.9247V11.9268M5.5 11.9247V11.9268M5.5 11.9268V11.9288M5.5 11.9268V11.9288M5.5 11.9288V11.9309M5.5 11.9288V11.9309M5.5 11.9309V11.9329M5.5 11.9309V11.9329M5.5 11.9329V11.9349M5.5 11.9329V11.9349M5.5 11.9349V11.937M5.5 11.9349V11.937M5.5 11.937V11.939M5.5 11.937V11.939M5.5 11.939V11.9411M5.5 11.939V11.9411M5.5 11.9411V11.9431M5.5 11.9411V11.9431M5.5 11.9431V11.9451M5.5 11.9431V11.9451M5.5 11.9451V11.9472M5.5 11.9451V11.9472M5.5 11.9472V11.9492M5.5 11.9472V11.9492M5.5 11.9492V11.9512M5.5 11.9492V11.9512M5.5 11.9512V11.9532M5.5 11.9512V11.9532M5.5 11.9532V11.9553M5.5 11.9532V11.9553M5.5 11.9553V11.9573M5.5 11.9553V11.9573M5.5 11.9573V11.9593M5.5 11.9573V11.9593M5.5 11.9593V11.9613M5.5 11.9593V11.9613M5.5 11.9613V11.9633M5.5 11.9613V11.9633M5.5 11.9633V11.9654M5.5 11.9633V11.9654M5.5 11.9654V11.9674M5.5 11.9654V11.9674M5.5 11.9674V11.9694M5.5 11.9674V11.9694M5.5 11.9694V11.9714M5.5 11.9694V11.9714M5.5 11.9714V11.9734M5.5 11.9714V11.9734M5.5 11.9734V11.9754M5.5 11.9734V11.9754M5.5 11.9754V11.9774M5.5 11.9754V11.9774M5.5 11.9774V11.9794M5.5 11.9774V11.9794M5.5 11.9794V11.9814M5.5 11.9794V11.9814M5.5 11.9814V11.9834M5.5 11.9814V11.9834M5.5 11.9834V11.9854M5.5 11.9834V11.9854M5.5 11.9854V11.9874M5.5 11.9854V11.9874M5.5 11.9874V11.9894M5.5 11.9874V11.9894M5.5 11.9894V11.9914M5.5 11.9894V11.9914M5.5 11.9914V11.9934M5.5 11.9914V11.9934M5.5 11.9934V11.9954M5.5 11.9934V11.9954M5.5 11.9954V11.9974M5.5 11.9954V11.9974M5.5 11.9974V11.9994M5.5 11.9974V11.9994M5.5 11.9994V12.0014M5.5 11.9994V12.0014M5.5 12.0014V12.0034M5.5 12.0014V12.0034M5.5 12.0034V12.0054M5.5 12.0034V12.0054M5.5 12.0054V12.0074M5.5 12.0054V12.0074M5.5 12.0074V12.0093M5.5 12.0074V12.0093M5.5 12.0093V12.0113M5.5 12.0093V12.0113M5.5 12.0113V12.0133M5.5 12.0113V12.0133M5.5 12.0133V12.0153M5.5 12.0133V12.0153M5.5 12.0153V12.0173M5.5 12.0153V12.0173M5.5 12.0173V12.0192M5.5 12.0173V12.0192M5.5 12.0192V12.0212M5.5 12.0192V12.0212M5.5 12.0212V12.0232M5.5 12.0212V12.0232M5.5 12.0232V12.0251M5.5 12.0232V12.0251M5.5 12.0251V12.0271M5.5 12.0251V12.0271M5.5 12.0271V12.0291M5.5 12.0271V12.0291M5.5 12.0291V12.0311M5.5 12.0291V12.0311M5.5 12.0311V12.033M5.5 12.0311V12.033M5.5 12.033V12.035M5.5 12.033V12.035M5.5 12.035V12.0369M5.5 12.035V12.0369M5.5 12.0369V12.0389M5.5 12.0369V12.0389M5.5 12.0389V12.0409M5.5 12.0389V12.0409M5.5 12.0409V12.0428M5.5 12.0409V12.0428M5.5 12.0428V12.0448M5.5 12.0428V12.0448M5.5 12.0448V12.0467M5.5 12.0448V12.0467M5.5 12.0467V12.0487M5.5 12.0467V12.0487M5.5 12.0487V12.0506M5.5 12.0487V12.0506M5.5 12.0506V12.0526M5.5 12.0506V12.0526M5.5 12.0526V12.0545M5.5 12.0526V12.0545M5.5 12.0545V12.0565M5.5 12.0545V12.0565M5.5 12.0565V12.0584M5.5 12.0565V12.0584M5.5 12.0584V12.0604M5.5 12.0584V12.0604M5.5 12.0604V12.0623M5.5 12.0604V12.0623M5.5 12.0623V12.0642M5.5 12.0623V12.0642M5.5 12.0642V12.0662M5.5 12.0642V12.0662M5.5 12.0662V12.0681M5.5 12.0662V12.0681M5.5 12.0681V12.07M5.5 12.0681V12.07M5.5 12.07V12.072M5.5 12.07V12.072M5.5 12.072V12.0739M5.5 12.072V12.0739M5.5 12.0739V12.0758M5.5 12.0739V12.0758M5.5 12.0758V12.0778M5.5 12.0758V12.0778M5.5 12.0778V12.0797M5.5 12.0778V12.0797M5.5 12.0797V12.0816M5.5 12.0797V12.0816M5.5 12.0816V12.0835M5.5 12.0816V12.0835M5.5 12.0835V12.0855M5.5 12.0835V12.0855M5.5 12.0855V12.0874M5.5 12.0855V12.0874M5.5 12.0874V12.0893M5.5 12.0874V12.0893M5.5 12.0893V12.0912M5.5 12.0893V12.0912M5.5 12.0912V12.0931M5.5 12.0912V12.0931M5.5 12.0931V12.0951M5.5 12.0931V12.0951M5.5 12.0951V12.097M5.5 12.0951V12.097M5.5 12.097V12.0989M5.5 12.097V12.0989M5.5 12.0989V12.1008M5.5 12.0989V12.1008M5.5 12.1008V12.1027M5.5 12.1008V12.1027M5.5 12.1027V12.1046M5.5 12.1027V12.1046M5.5 12.1046V12.1065M5.5 12.1046V12.1065M5.5 12.1065V12.1084M5.5 12.1065V12.1084M5.5 12.1084V12.1103M5.5 12.1084V12.1103M5.5 12.1103V12.1122M5.5 12.1103V12.1122M5.5 12.1122V12.1141M5.5 12.1122V12.1141M5.5 12.1141V12.116M5.5 12.1141V12.116M5.5 12.116V12.1179M5.5 12.116V12.1179M5.5 12.1179V12.1198M5.5 12.1179V12.1198M5.5 12.1198V12.1217M5.5 12.1198V12.1217M5.5 12.1217V12.1236M5.5 12.1217V12.1236M5.5 12.1236V12.1255M5.5 12.1236V12.1255M5.5 12.1255V12.1274M5.5 12.1255V12.1274M5.5 12.1274V12.1293M5.5 12.1274V12.1293M5.5 12.1293V12.1312M5.5 12.1293V12.1312M5.5 12.1312V12.133M5.5 12.1312V12.133M5.5 12.133V12.1349M5.5 12.133V12.1349M5.5 12.1349V12.1368M5.5 12.1349V12.1368M5.5 12.1368V12.1387M5.5 12.1368V12.1387M5.5 12.1387V12.1406M5.5 12.1387V12.1406M5.5 12.1406V12.1424M5.5 12.1406V12.1424M5.5 12.1424V12.1443M5.5 12.1424V12.1443M5.5 12.1443V12.1462M5.5 12.1443V12.1462M5.5 12.1462V12.1481M5.5 12.1462V12.1481M5.5 12.1481V12.1499M5.5 12.1481V12.1499M5.5 12.1499V12.1518M5.5 12.1499V12.1518M5.5 12.1518V12.1537M5.5 12.1518V12.1537M5.5 12.1537V12.1555M5.5 12.1537V12.1555M5.5 12.1555V12.1574M5.5 12.1555V12.1574M5.5 12.1574V12.1593M5.5 12.1574V12.1593M5.5 12.1593V12.1611M5.5 12.1593V12.1611M5.5 12.1611V12.163M5.5 12.1611V12.163M5.5 12.163V12.1649M5.5 12.163V12.1649M5.5 12.1649V12.1667M5.5 12.1649V12.1667M5.5 12.1667V12.1686M5.5 12.1667V12.1686M5.5 12.1686V12.1704M5.5 12.1686V12.1704M5.5 12.1704V12.1723M5.5 12.1704V12.1723M5.5 12.1723V12.1741M5.5 12.1723V12.1741M5.5 12.1741V12.176M5.5 12.1741V12.176M5.5 12.176V12.1778M5.5 12.176V12.1778M5.5 12.1778V12.1797M5.5 12.1778V12.1797M5.5 12.1797V12.1815M5.5 12.1797V12.1815M5.5 12.1815V12.1834M5.5 12.1815V12.1834M5.5 12.1834V12.1852M5.5 12.1834V12.1852M5.5 12.1852V12.187M5.5 12.1852V12.187M5.5 12.187V12.1889M5.5 12.187V12.1889M5.5 12.1889V12.1907M5.5 12.1889V12.1907M5.5 12.1907V12.1926M5.5 12.1907V12.1926M5.5 12.1926V12.1944M5.5 12.1926V12.1944M5.5 12.1944V12.1962M5.5 12.1944V12.1962M5.5 12.1962V12.1981M5.5 12.1962V12.1981M5.5 12.1981V12.1999M5.5 12.1981V12.1999M5.5 12.1999V12.2017M5.5 12.1999V12.2017M5.5 12.2017V12.2035M5.5 12.2017V12.2035M5.5 12.2035V12.2054M5.5 12.2035V12.2054M5.5 12.2054V12.2072M5.5 12.2054V12.2072M5.5 12.2072V12.209M5.5 12.2072V12.209M5.5 12.209V12.2108M5.5 12.209V12.2108M5.5 12.2108V12.2127M5.5 12.2108V12.2127M5.5 12.2127V12.2145M5.5 12.2127V12.2145M5.5 12.2145V12.2163M5.5 12.2145V12.2163M5.5 12.2163V12.2181M5.5 12.2163V12.2181M5.5 12.2181V12.2199M5.5 12.2181V12.2199M5.5 12.2199V12.2217M5.5 12.2199V12.2217M5.5 12.2217V12.2235M5.5 12.2217V12.2235M5.5 12.2235V12.2254M5.5 12.2235V12.2254M5.5 12.2254V12.2272M5.5 12.2254V12.2272M5.5 12.2272V12.229M5.5 12.2272V12.229M5.5 12.229V12.2308M5.5 12.229V12.2308M5.5 12.2308V12.2326M5.5 12.2308V12.2326M5.5 12.2326V12.2344M5.5 12.2326V12.2344M5.5 12.2344V12.2362M5.5 12.2344V12.2362M5.5 12.2362V12.238M5.5 12.2362V12.238M5.5 12.238V12.2398M5.5 12.238V12.2398M5.5 12.2398V12.2416M5.5 12.2398V12.2416M5.5 12.2416V12.2434M5.5 12.2416V12.2434M5.5 12.2434V12.2452M5.5 12.2434V12.2452M5.5 12.2452V12.247M5.5 12.2452V12.247M5.5 12.247V12.2487M5.5 12.247V12.2487M5.5 12.2487V12.2505M5.5 12.2487V12.2505M5.5 12.2505V12.2523M5.5 12.2505V12.2523M5.5 12.2523V12.2541M5.5 12.2523V12.2541M5.5 12.2541V12.2559M5.5 12.2541V12.2559M5.5 12.2559V12.2577M5.5 12.2559V12.2577M5.5 12.2577V12.2595M5.5 12.2577V12.2595M5.5 12.2595V12.2612M5.5 12.2595V12.2612M5.5 12.2612V12.263M5.5 12.2612V12.263M5.5 12.263V12.2648M5.5 12.263V12.2648M5.5 12.2648V12.2666M5.5 12.2648V12.2666M5.5 12.2666V12.2683M5.5 12.2666V12.2683M5.5 12.2683V12.2701M5.5 12.2683V12.2701M5.5 12.2701V12.2719M5.5 12.2701V12.2719M5.5 12.2719V12.2736M5.5 12.2719V12.2736M5.5 12.2736V12.2754M5.5 12.2736V12.2754M5.5 12.2754V12.2772M5.5 12.2754V12.2772M5.5 12.2772V12.2789M5.5 12.2772V12.2789M5.5 12.2789V12.2807M5.5 12.2789V12.2807M5.5 12.2807V12.2825M5.5 12.2807V12.2825M5.5 12.2825V12.2842M5.5 12.2825V12.2842M5.5 12.2842V12.286M5.5 12.2842V12.286M5.5 12.286V12.2877M5.5 12.286V12.2877M5.5 12.2877V12.2895M5.5 12.2877V12.2895M5.5 12.2895V12.2913M5.5 12.2895V12.2913M5.5 12.2913V12.293M5.5 12.2913V12.293M5.5 12.293V12.2948M5.5 12.293V12.2948M5.5 12.2948V12.2965M5.5 12.2948V12.2965M5.5 12.2965V12.2983M5.5 12.2965V12.2983M5.5 12.2983V12.3M5.5 12.2983V12.3M5.5 12.3V12.3018M5.5 12.3V12.3018M5.5 12.3018V12.3035M5.5 12.3018V12.3035M5.5 12.3035V12.3052M5.5 12.3035V12.3052M5.5 12.3052V12.307M5.5 12.3052V12.307M5.5 12.307V12.3087M5.5 12.307V12.3087M5.5 12.3087V12.3105M5.5 12.3087V12.3105M5.5 12.3105V12.3122M5.5 12.3105V12.3122M5.5 12.3122V12.3139M5.5 12.3122V12.3139M5.5 12.3139V12.3157M5.5 12.3139V12.3157M5.5 12.3157V12.3174M5.5 12.3157V12.3174M5.5 12.3174V12.3191M5.5 12.3174V12.3191M5.5 12.3191V12.3209M5.5 12.3191V12.3209M5.5 12.3209V12.3226M5.5 12.3209V12.3226M5.5 12.3226V12.3243M5.5 12.3226V12.3243M5.5 12.3243V12.326M5.5 12.3243V12.326M5.5 12.326V12.3278M5.5 12.326V12.3278M5.5 12.3278V12.3295M5.5 12.3278V12.3295M5.5 12.3295V12.3312M5.5 12.3295V12.3312M5.5 12.3312V12.3329M5.5 12.3312V12.3329M5.5 12.3329V12.3346M5.5 12.3329V12.3346M5.5 12.3346V12.3364M5.5 12.3346V12.3364M5.5 12.3364V12.3381M5.5 12.3364V12.3381M5.5 12.3381V12.3398M5.5 12.3381V12.3398M5.5 12.3398V12.3415M5.5 12.3398V12.3415M5.5 12.3415V12.3432M5.5 12.3415V12.3432M5.5 12.3432V12.3449M5.5 12.3432V12.3449M5.5 12.3449V12.3466M5.5 12.3449V12.3466M5.5 12.3466V12.3483M5.5 12.3466V12.3483M5.5 12.3483V12.35M5.5 12.3483V12.35M5.5 12.35V12.3517M5.5 12.35V12.3517M5.5 12.3517V12.3534M5.5 12.3517V12.3534M5.5 12.3534V12.3551M5.5 12.3534V12.3551M5.5 12.3551V12.3568M5.5 12.3551V12.3568M5.5 12.3568V12.3585M5.5 12.3568V12.3585M5.5 12.3585V12.3602M5.5 12.3585V12.3602M5.5 12.3602V12.3619M5.5 12.3602V12.3619M5.5 12.3619V12.3636M5.5 12.3619V12.3636M5.5 12.3636V12.3653M5.5 12.3636V12.3653M5.5 12.3653V12.367M5.5 12.3653V12.367M5.5 12.367V12.3687M5.5 12.367V12.3687M5.5 12.3687V12.3704M5.5 12.3687V12.3704M5.5 12.3704V12.3721M5.5 12.3704V12.3721M5.5 12.3721V12.3737M5.5 12.3721V12.3737M5.5 12.3737V12.3754M5.5 12.3737V12.3754M5.5 12.3754V12.3771M5.5 12.3754V12.3771M5.5 12.3771V12.3788M5.5 12.3771V12.3788M5.5 12.3788V12.3805M5.5 12.3788V12.3805M5.5 12.3805V12.3821M5.5 12.3805V12.3821M5.5 12.3821V12.3838M5.5 12.3821V12.3838M5.5 12.3838V12.3855M5.5 12.3838V12.3855M5.5 12.3855V12.3872M5.5 12.3855V12.3872M5.5 12.3872V12.3888M5.5 12.3872V12.3888M5.5 12.3888V12.3905M5.5 12.3888V12.3905M5.5 12.3905V12.3922M5.5 12.3905V12.3922M5.5 12.3922V12.3938M5.5 12.3922V12.3938M5.5 12.3938V12.3955M5.5 12.3938V12.3955M5.5 12.3955V12.3972M5.5 12.3955V12.3972M5.5 12.3972V12.3988M5.5 12.3972V12.3988M5.5 12.3988V12.4005M5.5 12.3988V12.4005M5.5 12.4005V12.4021M5.5 12.4005V12.4021M5.5 12.4021V12.4038M5.5 12.4021V12.4038M5.5 12.4038V12.4055M5.5 12.4038V12.4055M5.5 12.4055V12.4071M5.5 12.4055V12.4071M5.5 12.4071V12.4088M5.5 12.4071V12.4088M5.5 12.4088V12.4104M5.5 12.4088V12.4104M5.5 12.4104V12.4121M5.5 12.4104V12.4121M5.5 12.4121V12.4137M5.5 12.4121V12.4137M5.5 12.4137V12.4154M5.5 12.4137V12.4154M5.5 12.4154V12.417M5.5 12.4154V12.417M5.5 12.417V12.4187M5.5 12.417V12.4187M5.5 12.4187V12.4203M5.5 12.4187V12.4203M5.5 12.4203V12.4219M5.5 12.4203V12.4219M5.5 12.4219V12.4236M5.5 12.4219V12.4236M5.5 12.4236V12.4252M5.5 12.4236V12.4252M5.5 12.4252V12.4269M5.5 12.4252V12.4269M5.5 12.4269V12.4285M5.5 12.4269V12.4285M5.5 12.4285V12.4301M5.5 12.4285V12.4301M5.5 12.4301V12.4318M5.5 12.4301V12.4318M5.5 12.4318V12.4334M5.5 12.4318V12.4334M5.5 12.4334V12.435M5.5 12.4334V12.435M5.5 12.435V12.4366M5.5 12.435V12.4366M5.5 12.4366V12.4383M5.5 12.4366V12.4383M5.5 12.4383V12.4399M5.5 12.4383V12.4399M5.5 12.4399V12.4415M5.5 12.4399V12.4415M5.5 12.4415V12.4431M5.5 12.4415V12.4431M5.5 12.4431V12.4448M5.5 12.4431V12.4448M5.5 12.4448V12.4464M5.5 12.4448V12.4464M5.5 12.4464V12.448M5.5 12.4464V12.448M5.5 12.448V12.4496M5.5 12.448V12.4496M5.5 12.4496V12.4512M5.5 12.4496V12.4512M5.5 12.4512V12.4529M5.5 12.4512V12.4529M5.5 12.4529V12.4545M5.5 12.4529V12.4545M5.5 12.4545V12.4561M5.5 12.4545V12.4561M5.5 12.4561V12.4577M5.5 12.4561V12.4577M5.5 12.4577V12.4593M5.5 12.4577V12.4593M5.5 12.4593V12.4609M5.5 12.4593V12.4609M5.5 12.4609V12.4625M5.5 12.4609V12.4625M5.5 12.4625V12.4641M5.5 12.4625V12.4641M5.5 12.4641V12.4657M5.5 12.4641V12.4657M5.5 12.4657V12.4673M5.5 12.4657V12.4673M5.5 12.4673V12.4689M5.5 12.4673V12.4689M5.5 12.4689V12.4705M5.5 12.4689V12.4705M5.5 12.4705V12.4721M5.5 12.4705V12.4721M5.5 12.4721V12.4737M5.5 12.4721V12.4737M5.5 12.4737V12.4753M5.5 12.4737V12.4753M5.5 12.4753V12.4769M5.5 12.4753V12.4769M5.5 12.4769V12.4785M5.5 12.4769V12.4785M5.5 12.4785V12.4801M5.5 12.4785V12.4801M5.5 12.4801V12.4817M5.5 12.4801V12.4817M5.5 12.4817V12.4833M5.5 12.4817V12.4833M5.5 12.4833V12.4848M5.5 12.4833V12.4848M5.5 12.4848V12.4864M5.5 12.4848V12.4864M5.5 12.4864V12.488M5.5 12.4864V12.488M5.5 12.488V12.4896M5.5 12.488V12.4896M5.5 12.4896V12.4912M5.5 12.4896V12.4912M5.5 12.4912V12.4927M5.5 12.4912V12.4927M5.5 12.4927V12.4943M5.5 12.4927V12.4943M5.5 12.4943V12.4959M5.5 12.4943V12.4959M5.5 12.4959V12.4975M5.5 12.4959V12.4975M5.5 12.4975V12.499M5.5 12.4975V12.499M5.5 12.499V12.5006M5.5 12.499V12.5006M5.5 12.5006C5.5 12.7764 5.27655 13 5 13L5.5 12.5006ZM5 13.5V13H2V10.7122H1.5C1.5 10.2559 1.17098 9.87692 0.805253 9.60408L1.10423 9.20332C0.736522 8.92899 0.5 8.49218 0.5 8C0.5 7.50782 0.736522 7.07101 1.10423 6.79668L0.805253 6.39592C1.17098 6.12308 1.5 5.74408 1.5 5.2878H2V3H5V2.5C5.55228 2.5 6 2.9471 6 3.49938V4.5C6 6.0621 10 6.0621 10 4.5V3.49938C10 2.9471 10.4477 2.5 11 2.5V3H14V5.2878H14.5C14.5 5.74408 14.829 6.12308 15.1947 6.39592L14.8958 6.79668C15.2635 7.07101 15.5 7.50782 15.5 8C15.5 8.49218 15.2635 8.92899 14.8958 9.20332L15.1947 9.60408C14.829 9.87692 14.5 10.2559 14.5 10.7122H14V13H11V13.5C10.4477 13.5 10 13.0529 10 12.5006V11.5C10 9.9379 6 9.9379 6 11.5V12.5006C6 13.0529 5.55228 13.5 5 13.5Z" stroke="#2A3B51"/>
</svg>
