<svg width="16" height="16" viewBox="0 0 16 16" fill="none" xmlns="http://www.w3.org/2000/svg">
<path d="M1.5 12H4.51938C4.82316 12 5.11047 11.8619 5.30024 11.6247L7 9.5M1.5 12L3.5 10M1.5 12L3.5 14M14.5 4H11.5092C11.1893 4 10.8887 4.15308 10.7005 4.41183L9 6.75M14.5 4L12.5 2M14.5 4L12.5 6M1.5 4H4.5C4.81476 4 5.11115 4.14819 5.3 4.4L7 6.75M1.5 4L3.5 2M1.5 4L3.5 6M14.5 12H11.5C11.1852 12 10.8889 11.8518 10.7 11.6L9 9.5M14.5 12L12.5 10M14.5 12L12.5 14" stroke="black" stroke-linecap="round" stroke-linejoin="round"/>
</svg>
