<svg width="16" height="16" viewBox="0 0 16 16" fill="none" xmlns="http://www.w3.org/2000/svg">
<path d="M8.15454 11.4755L9.50003 11.0384V13.7929L9.50003 13C9.50003 12.8674 9.44735 12.7402 9.35358 12.6464L8.35358 11.6464C8.15832 11.4512 7.84174 11.4512 7.64648 11.6464L6.64648 12.6464C6.55311 12.7398 6.50048 12.8663 6.50003 12.9983V11.0384L7.84552 11.4755C7.94595 11.5082 8.05412 11.5082 8.15454 11.4755ZM6.15454 9.87463C6.15451 9.87462 6.15447 9.87461 6.15444 9.8746L5.37012 9.61976L3.74475 7.38263V4.61737L5.37012 2.38024L8.00003 1.52573L10.6299 2.38024L12.2553 4.61737V7.38263L10.6299 9.61976L9.84552 9.87463L8.00003 10.4743L6.15454 9.87463Z" stroke="#2A3B51" stroke-linecap="round" stroke-linejoin="round"/>
</svg>
