<svg width="16" height="16" viewBox="0 0 16 16" fill="none" xmlns="http://www.w3.org/2000/svg">
<path d="M8.15451 11.4755L9.5 11.0384V13.7929L9.5 13C9.5 12.8674 9.44732 12.7402 9.35355 12.6464L8.35355 11.6464C8.15829 11.4512 7.84171 11.4512 7.64645 11.6464L6.64645 12.6464C6.55308 12.7398 6.50045 12.8663 6.5 12.9983V11.0384L7.84549 11.4755C7.94592 11.5082 8.05409 11.5082 8.15451 11.4755ZM6.15451 9.87463C6.15448 9.87462 6.15444 9.87461 6.15441 9.8746L5.37009 9.61976L3.74472 7.38263V4.61737L5.37009 2.38024L8 1.52573L10.6299 2.38024L12.2553 4.61737V7.38263L10.6299 9.61976L9.84549 9.87463L8 10.4743L6.15451 9.87463Z" stroke="#2A3B51" stroke-linecap="round" stroke-linejoin="round"/>
</svg>
