<svg width="16" height="16" viewBox="0 0 16 16" fill="none" xmlns="http://www.w3.org/2000/svg">
<g clip-path="url(#clip0_216_1107)">
<path fill-rule="evenodd" clip-rule="evenodd" d="M5.02058 10.1998C6.13423 10.0303 7.36017 9.39619 8.39498 8.29355C9.42979 7.19092 10.0249 5.88462 10.184 4.69797C10.2437 4.25251 10.2419 3.83363 10.1839 3.4496C10.0538 3.11656 9.87134 2.82368 9.64188 2.57917C9.13773 2.04198 8.41443 1.74672 7.55379 1.75333C7.58307 1.74857 7.61229 1.74411 7.64142 1.73995C8.75061 1.58149 9.67932 1.85825 10.2855 2.46446C10.8917 3.07068 11.1685 3.99939 11.01 5.10858C10.8515 6.21815 10.2582 7.4415 9.22487 8.47487C8.1915 9.50824 6.96815 10.1015 5.85858 10.26C5.40348 10.3251 4.97877 10.3168 4.59424 10.2426C4.73313 10.2361 4.87535 10.2219 5.02058 10.1998ZM9.13205 9.88269C6.88108 11.6023 4.07269 11.808 2.50736 10.2426C0.75 8.48528 1.22487 5.16116 3.56802 2.81802C5.572 0.81404 8.29351 0.176618 10.1388 1.13344C10.1383 1.1329 10.1377 1.13236 10.1372 1.13182C8.3844 -0.735909 5.06883 -0.231212 2.73172 2.25909C0.866805 4.24623 0.188417 6.89722 0.880995 8.8363C1.01851 9.61305 1.34259 10.3139 1.86275 10.8682C3.5818 12.6999 6.80392 12.2498 9.13205 9.88269Z" fill="#2A3B51"/>
</g>
<defs>
<clipPath id="clip0_216_1107">
<rect width="12" height="12" fill="white"/>
</clipPath>
</defs>
</svg>
