<svg width="12" height="12" viewBox="0 0 12 12" fill="none" xmlns="http://www.w3.org/2000/svg">
<path fill-rule="evenodd" clip-rule="evenodd" d="M10.1998 6.97941C10.0303 5.86575 9.39618 4.63981 8.29355 3.605C7.19091 2.57019 5.88462 1.97512 4.69797 1.81603C4.25251 1.75631 3.83362 1.75812 3.44959 1.81612C3.11656 1.94621 2.82368 2.12864 2.57917 2.3581C2.04198 2.86225 1.74671 3.58556 1.75333 4.4462C1.74857 4.41691 1.74411 4.3877 1.73995 4.35856C1.58149 3.24937 1.85825 2.32066 2.46446 1.71445C3.07067 1.10824 3.99938 0.831479 5.10858 0.989935C6.21815 1.14844 7.4415 1.74174 8.47487 2.77511C9.50824 3.80848 10.1015 5.03184 10.26 6.14141C10.3251 6.5965 10.3168 7.02122 10.2426 7.40574C10.2361 7.26686 10.2219 7.12464 10.1998 6.97941ZM9.88269 2.86793C11.6022 5.1189 11.808 7.92729 10.2426 9.49263C8.48528 11.25 5.16116 10.7751 2.81802 8.43197C0.814038 6.42799 0.176616 3.70647 1.13344 1.86122C1.1329 1.86173 1.13236 1.86224 1.13182 1.86274C-0.735911 3.61558 -0.231214 6.93115 2.25909 9.26827C4.24623 11.1332 6.89721 11.8116 8.83629 11.119C9.61305 10.9815 10.3139 10.6574 10.8682 10.1372C12.6999 8.41818 12.2498 5.19607 9.88269 2.86793Z" fill="#2A3B51"/>
</svg>
