<svg width="16" height="16" viewBox="0 0 16 16" fill="none" xmlns="http://www.w3.org/2000/svg">
<g clip-path="url(#clip0_216_1086)">
<path fill-rule="evenodd" clip-rule="evenodd" d="M6.73974 13.94C8.30011 13.7025 9.99711 12.8188 11.4214 11.3011C12.8458 9.78344 13.6751 7.97522 13.898 6.31258C13.9838 5.67278 13.9796 5.06475 13.8905 4.50383C13.7016 4.00678 13.4311 3.56572 13.084 3.19584C12.3484 2.41211 11.313 1.99512 10.1133 1.99403C10.1227 1.99265 10.1321 1.99129 10.1414 1.98995C11.6985 1.76751 13.0507 2.15115 13.9498 3.05025C14.8489 3.94936 15.2325 5.30152 15.0101 6.85858C14.7876 8.41601 13.9594 10.1116 12.5356 11.5355C11.1117 12.9594 9.41603 13.7876 7.8586 14.01C7.25265 14.0966 6.67772 14.0914 6.14846 13.9997C6.34187 13.9904 6.53914 13.9705 6.73974 13.94ZM2.09647 11.4095C2.10059 11.4385 2.10494 11.4674 2.10951 11.4962C2.11944 11.5223 2.1296 11.5483 2.13999 11.5741C2.36206 12.3627 2.76064 13.0743 3.34317 13.6569C5.43027 15.744 9.1748 15.4697 12.1761 13.1769C9.07191 16.333 4.77575 16.9332 2.48368 14.4909C1.79015 13.7519 1.35803 12.8174 1.17468 11.7817C0.251243 9.19629 1.15576 5.66165 3.64231 3.01212C6.75847 -0.308281 11.1792 -0.981211 13.5163 1.50909C13.517 1.50981 13.5177 1.51053 13.5184 1.51125C11.058 0.235492 7.42935 1.08539 4.75738 3.75736C2.46358 6.05116 1.51259 9.05002 2.09647 11.4095Z" fill="#2A3B51"/>
</g>
<defs>
<clipPath id="clip0_216_1086">
<rect width="16" height="16" fill="white"/>
</clipPath>
</defs>
</svg>
