<svg width="16" height="16" viewBox="0 0 16 16" fill="none" xmlns="http://www.w3.org/2000/svg">
<path fill-rule="evenodd" clip-rule="evenodd" d="M8.89306 10.0785C8.07646 10.6588 7.07807 11 6 11C3.23858 11 1 8.76142 1 6C1 3.23858 3.23858 1 6 1C8.76142 1 11 3.23858 11 6C11 7.32096 10.4877 8.52227 9.65105 9.41614L14.8363 14.13C15.0407 14.3158 15.0557 14.632 14.87 14.8363C14.6842 15.0407 14.368 15.0557 14.1637 14.87L8.89306 10.0785ZM10 6C10 8.20914 8.20914 10 6 10C3.79086 10 2 8.20914 2 6C2 3.79086 3.79086 2 6 2C8.20914 2 10 3.79086 10 6Z" fill="black"/>
</svg>
