<svg width="16" height="16" viewBox="0 0 16 16" fill="none" xmlns="http://www.w3.org/2000/svg">
<path d="M9.5 6.18182H6.5M9.5 6.18182C10.3284 6.18182 11 6.83304 11 7.63636V9.54545C11 10.3488 10.3284 11 9.5 11H6.5C5.67157 11 5 10.3488 5 9.54545V7.63636C5 6.83304 5.67157 6.18182 6.5 6.18182M9.5 6.18182V4.72727C9.5 4.32561 9.16421 4 8.75 4H7.25C6.83579 4 6.5 4.32561 6.5 4.72727V6.18182M8 8.5H8.5V7.5H7.5V8.5H8ZM8 8.5V9.5M5.6 2C4.30779 2.46151 2 3 2 3V8C2 8 2.18673 10.629 3.2 12C4.42877 13.6626 8 15 8 15C8 15 11.5712 13.6626 12.8 12C13.8133 10.629 14 8 14 8V3C14 3 11.6922 2.46151 10.4 2C9.18169 1.56489 8 1 8 1C8 1 6.81831 1.56489 5.6 2Z" stroke="black" stroke-linecap="round" stroke-linejoin="round"/>
</svg>
