<svg width="16" height="16" viewBox="0 0 16 16" fill="none" xmlns="http://www.w3.org/2000/svg">
<path d="M8.38063 14.3053C8.22452 14.3721 8.09482 14.4252 8 14.4631C7.90518 14.4252 7.77548 14.3721 7.61937 14.3053C7.27349 14.1574 6.80034 13.9435 6.29081 13.6795C5.24671 13.1385 4.14153 12.4327 3.6021 11.7028C3.16263 11.1082 2.87975 10.1977 2.70943 9.38349C2.62621 8.98569 2.57326 8.62822 2.54118 8.37046C2.52517 8.24181 2.51444 8.1386 2.50776 8.06835C2.50442 8.03323 2.50211 8.0064 2.50065 7.98878L2.5 7.98059V3.39423C2.73836 3.33609 3.0695 3.25378 3.44143 3.15693C4.18125 2.96426 5.09967 2.70962 5.76817 2.47087C6.39209 2.24804 7.00354 1.99316 7.45705 1.79501C7.68126 1.69705 7.868 1.61246 8 1.55174C8.132 1.61246 8.31874 1.69705 8.54295 1.79501C8.99646 1.99316 9.60791 2.24804 10.2318 2.47087C10.9003 2.70962 11.8187 2.96426 12.5586 3.15693C12.9305 3.25378 13.2616 3.33609 13.5 3.39423V7.98059L13.4993 7.98878C13.4979 8.0064 13.4956 8.03323 13.4922 8.06835C13.4856 8.1386 13.4748 8.24181 13.4588 8.37046C13.4267 8.62822 13.3738 8.98569 13.2906 9.38349C13.1203 10.1977 12.8374 11.1082 12.3979 11.7028C11.8585 12.4327 10.7533 13.1385 9.70919 13.6795C9.19966 13.9435 8.72651 14.1574 8.38063 14.3053Z" stroke="black"/>
</svg>
