<svg width="16" height="16" viewBox="0 0 16 16" fill="none" xmlns="http://www.w3.org/2000/svg">
<mask id="path-1-inside-1_95_1448" fill="white">
<path d="M5.6 2C6.81831 1.56489 8 1 8 1C8 1 9.18169 1.56489 10.4 2C11.6922 2.46151 14 3 14 3V8C14 8 13.8133 10.629 12.8 12C11.5712 13.6626 8 15 8 15C8 15 4.42877 13.6626 3.2 12C2.18673 10.629 2 8 2 8V3C2 3 4.30779 2.46151 5.6 2Z"/>
</mask>
<path d="M7.5 7.5V7C7.22386 7 7 7.22386 7 7.5H7.5ZM8.5 7.5H9C9 7.22386 8.77614 7 8.5 7V7.5ZM8.5 8.5V9C8.77614 9 9 8.77614 9 8.5H8.5ZM7.5 8.5H7C7 8.77614 7.22386 9 7.5 9V8.5ZM7.5 9.5C7.5 9.77614 7.72386 10 8 10C8.27614 10 8.5 9.77614 8.5 9.5H7.5ZM6.5 6.68182H9.5V5.68182H6.5V6.68182ZM10.5 7.63636V9.54545H11.5V7.63636H10.5ZM9.5 10.5H6.5V11.5H9.5V10.5ZM5.5 9.54545V7.63636H4.5V9.54545H5.5ZM6.5 10.5C5.9331 10.5 5.5 10.0582 5.5 9.54545H4.5C4.5 10.6393 5.41005 11.5 6.5 11.5V10.5ZM10.5 9.54545C10.5 10.0582 10.0669 10.5 9.5 10.5V11.5C10.59 11.5 11.5 10.6393 11.5 9.54545H10.5ZM9.5 6.68182C10.0669 6.68182 10.5 7.12357 10.5 7.63636H11.5C11.5 6.54251 10.59 5.68182 9.5 5.68182V6.68182ZM6.5 5.68182C5.41004 5.68182 4.5 6.54251 4.5 7.63636H5.5C5.5 7.12357 5.9331 6.68182 6.5 6.68182V5.68182ZM7.25 4.5H8.75V3.5H7.25V4.5ZM9 4.72727V6.18182H10V4.72727H9ZM7 6.18182V4.72727H6V6.18182H7ZM8.75 4.5C8.90269 4.5 9 4.61614 9 4.72727H10C10 4.03508 9.42574 3.5 8.75 3.5V4.5ZM7.25 3.5C6.57426 3.5 6 4.03508 6 4.72727H7C7 4.61614 7.09731 4.5 7.25 4.5V3.5ZM7.5 8H8.5V7H7.5V8ZM8 7.5V8.5H9V7.5H8ZM8 8.5V7.5H7V8.5H8ZM8.5 8H8V9H8.5V8ZM8 8H7.5V9H8V8ZM7.5 8.5V9.5H8.5V8.5H7.5ZM5.6 2L5.26366 1.05826L5.6 2ZM10.4 2L10.7363 1.05826L10.4 2ZM12.8 12L13.6042 12.5944L13.6042 12.5944L12.8 12ZM3.2 12L2.3958 12.5944L2.3958 12.5944L3.2 12ZM8 15L7.64929 15.9365C7.87543 16.0212 8.12457 16.0212 8.35071 15.9365L8 15ZM2 8H1C1 8.02364 1.00084 8.04727 1.00251 8.07085L2 8ZM14 8L14.9975 8.07085C14.9992 8.04727 15 8.02364 15 8H14ZM2 3L1.77277 2.02616C1.32018 2.13177 1 2.53526 1 3H2ZM14 3H15C15 2.53526 14.6798 2.13177 14.2272 2.02616L14 3ZM8 1L8.43129 0.0977865C8.15854 -0.0325955 7.84146 -0.0325955 7.56871 0.0977866L8 1ZM11.9958 11.4056C11.5313 12.0341 10.521 12.6958 9.47916 13.2356C8.98331 13.4925 8.52182 13.7012 8.18406 13.8456C8.01566 13.9176 7.87921 13.9731 7.78609 14.0102C7.73956 14.0287 7.70393 14.0426 7.68063 14.0515C7.66899 14.056 7.66043 14.0593 7.65515 14.0613C7.65251 14.0623 7.65068 14.063 7.6497 14.0634C7.64921 14.0635 7.64892 14.0637 7.64885 14.0637C7.64882 14.0637 7.64884 14.0637 7.64891 14.0637C7.64895 14.0636 7.64904 14.0636 7.64906 14.0636C7.64917 14.0636 7.64929 14.0635 8 15C8.35071 15.9365 8.35086 15.9364 8.35102 15.9364C8.35109 15.9363 8.35127 15.9363 8.35141 15.9362C8.3517 15.9361 8.35205 15.936 8.35245 15.9358C8.35325 15.9355 8.35426 15.9352 8.35549 15.9347C8.35795 15.9338 8.36126 15.9325 8.36542 15.9309C8.37372 15.9278 8.38537 15.9233 8.40018 15.9176C8.4298 15.9062 8.4721 15.8897 8.52561 15.8684C8.6326 15.8258 8.78475 15.7639 8.97034 15.6845C9.34059 15.5262 9.84871 15.2966 10.3993 15.0114C11.4503 14.4668 12.8399 13.6285 13.6042 12.5944L11.9958 11.4056ZM8 15C8.35071 14.0635 8.35083 14.0636 8.35094 14.0636C8.35096 14.0636 8.35105 14.0636 8.35109 14.0637C8.35116 14.0637 8.35118 14.0637 8.35115 14.0637C8.35108 14.0637 8.35079 14.0635 8.3503 14.0634C8.34932 14.063 8.34749 14.0623 8.34485 14.0613C8.33957 14.0593 8.33101 14.056 8.31937 14.0515C8.29607 14.0426 8.26044 14.0287 8.21391 14.0102C8.12079 13.9731 7.98434 13.9176 7.81594 13.8456C7.47818 13.7012 7.01669 13.4925 6.52084 13.2356C5.47902 12.6958 4.46867 12.0341 4.0042 11.4056L2.3958 12.5944C3.1601 13.6285 4.54975 14.4668 5.60074 15.0114C6.15129 15.2966 6.65941 15.5262 7.02966 15.6845C7.21525 15.7639 7.3674 15.8258 7.47439 15.8684C7.5279 15.8897 7.5702 15.9062 7.59982 15.9176C7.61463 15.9233 7.62628 15.9278 7.63458 15.9309C7.63874 15.9325 7.64205 15.9338 7.64451 15.9347C7.64574 15.9352 7.64675 15.9355 7.64755 15.9358C7.64795 15.936 7.6483 15.9361 7.64859 15.9362C7.64873 15.9363 7.64891 15.9363 7.64898 15.9364C7.64914 15.9364 7.64929 15.9365 8 15ZM4.0042 11.4056C3.63189 10.9019 3.36613 10.0808 3.19884 9.28111C3.11907 8.89982 3.06817 8.55635 3.03735 8.30871C3.022 8.18536 3.01178 8.087 3.00552 8.02105C3.00239 7.98811 3.00025 7.96335 2.99896 7.9477C2.99832 7.93988 2.99789 7.93434 2.99765 7.93121C2.99753 7.92964 2.99745 7.92868 2.99743 7.92833C2.99742 7.92816 2.99741 7.92814 2.99742 7.92827C2.99743 7.92834 2.99744 7.92845 2.99745 7.9286C2.99745 7.92867 2.99746 7.92881 2.99747 7.92884C2.99748 7.92899 2.99749 7.92915 2 8C1.00251 8.07085 1.00253 8.07103 1.00254 8.07122C1.00254 8.07129 1.00256 8.07149 1.00257 8.07164C1.00259 8.07195 1.00262 8.0723 1.00264 8.07269C1.0027 8.07346 1.00277 8.0744 1.00285 8.07549C1.00301 8.07768 1.00322 8.08051 1.00349 8.08396C1.00402 8.09086 1.00476 8.10025 1.00573 8.11202C1.00767 8.13555 1.01053 8.16861 1.01449 8.21023C1.02239 8.29342 1.03468 8.41116 1.05266 8.5557C1.08852 8.84384 1.14763 9.2433 1.24121 9.69063C1.4206 10.5482 1.75483 11.7271 2.3958 12.5944L4.0042 11.4056ZM14 8C13.0025 7.92915 13.0025 7.92899 13.0025 7.92884C13.0025 7.92881 13.0025 7.92867 13.0026 7.9286C13.0026 7.92845 13.0026 7.92834 13.0026 7.92827C13.0026 7.92814 13.0026 7.92816 13.0026 7.92833C13.0025 7.92868 13.0025 7.92964 13.0024 7.93121C13.0021 7.93434 13.0017 7.93988 13.001 7.9477C12.9997 7.96335 12.9976 7.98811 12.9945 8.02105C12.9882 8.087 12.978 8.18536 12.9626 8.30871C12.9318 8.55635 12.8809 8.89982 12.8012 9.28111C12.6339 10.0808 12.3681 10.9019 11.9958 11.4056L13.6042 12.5944C14.2452 11.7271 14.5794 10.5482 14.7588 9.69063C14.8524 9.2433 14.9115 8.84384 14.9473 8.5557C14.9653 8.41116 14.9776 8.29342 14.9855 8.21023C14.9895 8.16861 14.9923 8.13555 14.9943 8.11202C14.9952 8.10025 14.996 8.09086 14.9965 8.08396C14.9968 8.08051 14.997 8.07768 14.9972 8.07549C14.9972 8.0744 14.9973 8.07346 14.9974 8.07269C14.9974 8.0723 14.9974 8.07195 14.9974 8.07164C14.9974 8.07149 14.9975 8.07129 14.9975 8.07122C14.9975 8.07103 14.9975 8.07085 14 8ZM3 8V3H1V8H3ZM2 3C2.22723 3.97384 2.22727 3.97383 2.22732 3.97382C2.22735 3.97381 2.22741 3.9738 2.22747 3.97379C2.22758 3.97376 2.22772 3.97373 2.22791 3.97368C2.22827 3.9736 2.22878 3.97348 2.22942 3.97333C2.2307 3.97303 2.23254 3.9726 2.23492 3.97204C2.23967 3.97093 2.24659 3.9693 2.25556 3.96719C2.27351 3.96296 2.2997 3.95677 2.33331 3.94877C2.40053 3.93276 2.49751 3.90949 2.61774 3.88017C2.85802 3.82156 3.19205 3.73855 3.56743 3.64079C4.30861 3.44777 5.24544 3.18849 5.93634 2.94174L5.26366 1.05826C4.66234 1.27302 3.79917 1.51373 3.06341 1.70534C2.70032 1.79989 2.37664 1.88035 2.14382 1.93713C2.02751 1.9655 1.9341 1.98791 1.87006 2.00315C1.83805 2.01078 1.81339 2.01661 1.79691 2.02049C1.78866 2.02243 1.78246 2.02389 1.7784 2.02484C1.77637 2.02532 1.77488 2.02567 1.77394 2.02589C1.77347 2.026 1.77313 2.02607 1.77294 2.02612C1.77284 2.02614 1.77277 2.02616 1.77275 2.02616C1.77273 2.02617 1.77274 2.02617 1.77273 2.02617C1.77274 2.02617 1.77277 2.02616 2 3ZM10.0637 2.94174C10.7546 3.18849 11.6914 3.44777 12.4326 3.64079C12.808 3.73855 13.142 3.82156 13.3823 3.88017C13.5025 3.90949 13.5995 3.93276 13.6667 3.94877C13.7003 3.95677 13.7265 3.96296 13.7444 3.96719C13.7534 3.9693 13.7603 3.97093 13.7651 3.97204C13.7675 3.9726 13.7693 3.97303 13.7706 3.97333C13.7712 3.97348 13.7717 3.9736 13.7721 3.97368C13.7723 3.97373 13.7724 3.97376 13.7725 3.97379C13.7726 3.9738 13.7726 3.97381 13.7727 3.97382C13.7727 3.97383 13.7728 3.97384 14 3C14.2272 2.02616 14.2273 2.02617 14.2273 2.02617C14.2273 2.02617 14.2273 2.02617 14.2273 2.02616C14.2272 2.02616 14.2272 2.02614 14.2271 2.02612C14.2269 2.02607 14.2265 2.026 14.2261 2.02589C14.2251 2.02567 14.2236 2.02532 14.2216 2.02484C14.2175 2.02389 14.2113 2.02243 14.2031 2.02049C14.1866 2.01661 14.162 2.01078 14.1299 2.00315C14.0659 1.98791 13.9725 1.9655 13.8562 1.93713C13.6234 1.88035 13.2997 1.79989 12.9366 1.70534C12.2008 1.51373 11.3377 1.27302 10.7363 1.05826L10.0637 2.94174ZM13 3V8H15V3H13ZM5.93634 2.94174C6.57503 2.71364 7.19792 2.45387 7.65723 2.25319C7.88793 2.15239 8.07971 2.06548 8.21446 2.00345C8.28188 1.97241 8.33515 1.94755 8.37202 1.93024C8.39045 1.92158 8.40479 1.9148 8.41476 1.91007C8.41975 1.90771 8.42364 1.90586 8.42641 1.90454C8.42779 1.90388 8.42889 1.90336 8.42971 1.90297C8.43012 1.90277 8.43045 1.90261 8.43072 1.90249C8.43085 1.90243 8.43096 1.90237 8.43106 1.90232C8.4311 1.9023 8.43116 1.90227 8.43119 1.90226C8.43124 1.90224 8.43129 1.90221 8 1C7.56871 0.0977866 7.56875 0.0977674 7.56879 0.0977503C7.56879 0.0977474 7.56882 0.0977325 7.56884 0.0977268C7.56886 0.0977154 7.56887 0.0977125 7.56885 0.0977182C7.56883 0.0977294 7.56874 0.0977746 7.56857 0.0978534C7.56824 0.098011 7.56763 0.098303 7.56674 0.0987268C7.56496 0.0995744 7.56207 0.100949 7.5581 0.102829C7.55016 0.10659 7.53793 0.112373 7.52167 0.120009C7.48916 0.135284 7.44059 0.157956 7.37819 0.186678C7.25331 0.244163 7.07351 0.325664 6.8565 0.420479C6.42039 0.611019 5.84328 0.851252 5.26366 1.05826L5.93634 2.94174ZM8 1C7.56871 1.90221 7.56876 1.90224 7.56881 1.90226C7.56884 1.90227 7.5689 1.9023 7.56894 1.90232C7.56904 1.90237 7.56915 1.90243 7.56929 1.90249C7.56955 1.90261 7.56988 1.90277 7.57029 1.90297C7.57111 1.90336 7.57221 1.90388 7.57359 1.90454C7.57636 1.90586 7.58025 1.90771 7.58524 1.91007C7.59521 1.9148 7.60955 1.92158 7.62798 1.93024C7.66485 1.94755 7.71812 1.97241 7.78554 2.00345C7.92029 2.06548 8.11207 2.15239 8.34277 2.25319C8.80208 2.45387 9.42497 2.71364 10.0637 2.94174L10.7363 1.05826C10.1567 0.851252 9.57961 0.611019 9.1435 0.420479C8.92649 0.325664 8.74669 0.244163 8.62181 0.186678C8.55941 0.157956 8.51084 0.135284 8.47833 0.120009C8.46207 0.112373 8.44984 0.10659 8.4419 0.102829C8.43793 0.100949 8.43504 0.0995743 8.43326 0.0987267C8.43237 0.0983029 8.43176 0.0980109 8.43143 0.0978533C8.43126 0.0977745 8.43117 0.0977293 8.43115 0.0977181C8.43113 0.0977124 8.43114 0.0977153 8.43116 0.0977267C8.43118 0.0977324 8.43121 0.0977473 8.43121 0.0977502C8.43125 0.0977673 8.43129 0.0977865 8 1Z" fill="#2A3B51" mask="url(#path-1-inside-1_95_1448)"/>
</svg>
