<svg width="16" height="16" viewBox="0 0 16 16" fill="none" xmlns="http://www.w3.org/2000/svg">
<path d="M14.4045 6.43663C14.3999 6.44194 14.3953 6.44735 14.3909 6.45286L8.60439 13.676C8.54054 13.7423 8.32666 13.8419 7.99278 13.8419C7.6598 13.8419 7.44618 13.7429 7.38169 13.6766L1.65185 6.4547C1.64697 6.44856 1.64196 6.44253 1.6368 6.43663C1.59754 6.39166 1.55382 6.31981 1.52446 6.23801C1.49423 6.15378 1.49169 6.0944 1.4952 6.06927C1.62574 5.13607 2.32099 4.24895 3.49323 3.57943C4.65876 2.91375 6.24098 2.5 8.00003 2.5C9.75908 2.5 11.3413 2.91375 12.5068 3.57943C13.6791 4.24895 14.3743 5.13607 14.5049 6.06927C14.522 6.19213 14.47 6.36159 14.4045 6.43663Z" stroke="#2A3B51" stroke-linecap="round" stroke-linejoin="round"/>
</svg>
