<svg width="16" height="16" viewBox="0 0 16 16" fill="none" xmlns="http://www.w3.org/2000/svg">
<path d="M12.0241 6.15332C12.0241 6.15332 12.0241 6.15331 12.0241 6.15331C12.0241 6.15333 12.0241 6.15335 12.0241 6.15337L12.0241 6.15332ZM12.5 6C12.9763 5.8478 12.9761 5.84722 12.9759 5.84665L12.9755 5.84546L12.9747 5.84298L12.9729 5.8376L12.9685 5.82517C12.9652 5.81615 12.9612 5.8057 12.9564 5.79391C12.9468 5.77032 12.9338 5.74141 12.9168 5.70802C12.8826 5.64113 12.8321 5.55676 12.7591 5.4615C12.6123 5.26989 12.3792 5.04071 12.0158 4.82172C11.2911 4.38513 10.0679 4 7.99999 4C5.93212 4 4.70887 4.38513 3.98422 4.82172C3.62075 5.04071 3.38767 5.26989 3.24084 5.4615C3.16784 5.55676 3.11739 5.64113 3.08321 5.70802C3.06615 5.74141 3.0532 5.77032 3.04355 5.79391C3.03873 5.8057 3.03474 5.81615 3.03147 5.82517L3.02709 5.8376L3.02528 5.84298L3.02447 5.84546L3.02409 5.84665C3.0239 5.84722 3.02372 5.8478 3.49999 6L3.02372 5.8478C2.93966 6.11083 3.08475 6.39221 3.34779 6.47627C3.60466 6.55836 3.87902 6.42192 3.97003 6.17051C3.97079 6.16887 3.97198 6.16638 3.97367 6.16307C3.98141 6.14793 3.99983 6.11511 4.03458 6.06975C4.10328 5.98011 4.24133 5.83429 4.50028 5.67828C5.02047 5.36487 6.04722 5 7.99999 5C9.95276 5 10.9795 5.36487 11.4997 5.67828C11.7587 5.83429 11.8967 5.98011 11.9654 6.06975C12.0002 6.11511 12.0186 6.14793 12.0263 6.16307C12.028 6.16638 12.0292 6.16888 12.03 6.17051C12.121 6.42192 12.3953 6.55836 12.6522 6.47627C12.9152 6.39221 13.0603 6.11083 12.9763 5.8478L12.5 6ZM11 7.5C11.4472 7.27639 11.447 7.27595 11.4468 7.27551L11.4463 7.2746L11.4453 7.27271L11.4433 7.26865L11.4384 7.25945C11.4348 7.25283 11.4306 7.24527 11.4257 7.23683C11.4158 7.21996 11.4032 7.19959 11.3874 7.17628C11.3557 7.12961 11.3114 7.07136 11.2514 7.00589C11.1308 6.87438 10.9497 6.71679 10.6856 6.56588C10.1564 6.26348 9.31631 6 7.99999 6C6.68367 6 5.84361 6.26348 5.31442 6.56588C5.05033 6.71679 4.86915 6.87438 4.7486 7.00589C4.68858 7.07136 4.64429 7.12961 4.61262 7.17628C4.5968 7.19959 4.58417 7.21996 4.57433 7.23683C4.56941 7.24527 4.56518 7.25283 4.56161 7.25945L4.55673 7.26865L4.55464 7.27271L4.55368 7.2746L4.55322 7.27551C4.553 7.27595 4.55278 7.27639 4.99999 7.5L4.55278 7.27639C4.42928 7.52338 4.52939 7.82372 4.77638 7.94721C5.01789 8.06797 5.31041 7.97493 5.43872 7.73983C5.4391 7.73927 5.43955 7.73858 5.4401 7.73778C5.44554 7.72976 5.45984 7.70989 5.48575 7.68161C5.53708 7.62562 5.63715 7.53321 5.81056 7.43412C6.15637 7.23652 6.81631 7 7.99999 7C9.18367 7 9.84361 7.23652 10.1894 7.43412C10.3628 7.53321 10.4629 7.62562 10.5142 7.68161C10.5401 7.70989 10.5544 7.72976 10.5599 7.73778C10.5604 7.73858 10.5609 7.73927 10.5613 7.73984C10.6896 7.97493 10.9821 8.06797 11.2236 7.94721C11.4706 7.82372 11.5707 7.52338 11.4472 7.27639L11 7.5ZM10.5532 7.72447C10.5532 7.72447 10.5532 7.72446 10.5532 7.72446C10.5533 7.72458 10.5533 7.72471 10.5534 7.72484L10.5532 7.72447ZM9.50058 9.52476C9.51349 9.7894 9.73214 10 9.99998 10C10.2761 10 10.5 9.77614 10.5 9.5H9.99998C10.5 9.5 10.5 9.49951 10.5 9.49901L10.5 9.49799L10.5 9.49588L10.4999 9.49134L10.4997 9.48101C10.4994 9.47358 10.499 9.46506 10.4984 9.45551C10.4971 9.43644 10.4949 9.41317 10.4911 9.38632C10.4834 9.33271 10.4692 9.26407 10.4431 9.18564C10.3902 9.02703 10.2896 8.83253 10.1035 8.64645C9.7267 8.26961 9.07705 8 7.99998 8C6.92291 8 6.27327 8.26961 5.89643 8.64645C5.71035 8.83253 5.60976 9.02703 5.55689 9.18564C5.53075 9.26407 5.51657 9.33271 5.50891 9.38632C5.50508 9.41317 5.50285 9.43644 5.50158 9.45551C5.50094 9.46506 5.50054 9.47358 5.5003 9.48101L5.50005 9.49134L5.5 9.49588L5.49999 9.49799L5.49998 9.49901C5.49998 9.49951 5.49998 9.5 5.99998 9.5H5.49998C5.49998 9.77614 5.72384 10 5.99998 10C6.26782 10 6.48648 9.7894 6.49938 9.52476C6.50016 9.52069 6.50195 9.51275 6.50557 9.50186C6.51521 9.47297 6.53962 9.41747 6.60353 9.35355C6.7267 9.23039 7.07705 9 7.99998 9C8.92291 9 9.27327 9.23039 9.39643 9.35355C9.46035 9.41747 9.48476 9.47297 9.49439 9.50186C9.49802 9.51275 9.4998 9.52069 9.50058 9.52476ZM1.65182 6.4547C1.64694 6.44856 1.64193 6.44253 1.63677 6.43663C1.59751 6.39166 1.55379 6.31981 1.52443 6.23801C1.4942 6.15378 1.49166 6.0944 1.49517 6.06927C1.62571 5.13607 2.32096 4.24895 3.4932 3.57943C4.65873 2.91375 6.24095 2.5 8 2.5C9.75905 2.5 11.3413 2.91375 12.5068 3.57943C13.679 4.24895 14.3743 5.13607 14.5048 6.06927C14.522 6.19213 14.47 6.36159 14.4045 6.43663C14.3998 6.44194 14.3953 6.44735 14.3909 6.45286L8.60436 13.676C8.54051 13.7423 8.32663 13.8419 7.99275 13.8419C7.65977 13.8419 7.44615 13.7429 7.38166 13.6766L1.65182 6.4547Z" stroke="#2A3B51" stroke-linecap="round" stroke-linejoin="round"/>
</svg>
