<svg width="16" height="16" viewBox="0 0 16 16" fill="none" xmlns="http://www.w3.org/2000/svg">
<path fill-rule="evenodd" clip-rule="evenodd" d="M2.04099 6.0016C2.03206 5.99065 2.0229 5.97989 2.01352 5.96932L2.00991 5.96361L2.00774 5.95982C2.13285 5.29407 2.67665 4.57581 3.73487 3.98757C4.81456 3.3874 6.31072 3 7.99904 3C9.68736 3 11.1835 3.3874 12.2632 3.98757C13.3439 4.58832 13.8881 5.32469 13.9977 6.00223L8.27092 12.9598L8.25763 12.9643C8.19641 12.9838 8.10257 13 7.9918 13C7.88102 13 7.78719 12.9838 7.72597 12.9643L7.71349 12.9601L2.04099 6.0016ZM7.00004 13.6676C7.39767 14.1108 8.58593 14.1108 8.98356 13.6676L14.7734 6.63345C14.9407 6.44697 15.0279 6.13837 14.992 5.88919C14.6735 3.67302 11.6603 2 7.99904 2C4.3378 2 1.32455 3.67302 1.00603 5.88919C0.970217 6.13837 1.09862 6.44697 1.2659 6.63345L7.00004 13.6676ZM7.68487 12.9481L7.68767 12.9496C7.68573 12.9487 7.68484 12.9481 7.68487 12.9481ZM8.29592 12.9496L8.29872 12.9481C8.29875 12.9481 8.29785 12.9487 8.29592 12.9496ZM7.43115 9.39502V8.99756L7.43115 8.98528C7.43113 8.64669 7.43111 8.35179 7.57617 8.10059C7.72298 7.84635 7.99154 7.57601 8.38184 7.28955C8.75781 7.021 9.00488 6.80257 9.12305 6.63428C9.24479 6.46598 9.30566 6.278 9.30566 6.07031C9.30566 5.83756 9.21973 5.66032 9.04785 5.53857C8.87598 5.41683 8.63607 5.35596 8.32812 5.35596C7.79102 5.35596 7.17871 5.53141 6.49121 5.88232L5.90576 4.70605C6.70426 4.25846 7.55111 4.03467 8.44629 4.03467C9.18392 4.03467 9.76937 4.21191 10.2026 4.56641C10.6395 4.9209 10.8579 5.39355 10.8579 5.98438C10.8579 6.37825 10.7684 6.71842 10.5894 7.00488C10.4103 7.29134 10.0702 7.61361 9.56885 7.97168C9.40467 8.0931 9.20537 8.20064 9.03181 8.29429C8.84197 8.39672 8.68291 8.48255 8.63428 8.55176C8.54476 8.68424 8.5 8.85791 8.5 9.07275V9.39502H7.43115ZM8 12C8.55228 12 9 11.5523 9 11C9 10.4477 8.55228 10 8 10C7.44772 10 7 10.4477 7 11C7 11.5523 7.44772 12 8 12Z" fill="#2A3B51"/>
</svg>
