<svg width="16" height="16" viewBox="0 0 16 16" fill="none" xmlns="http://www.w3.org/2000/svg">
<path d="M14.4045 6.43663C14.3998 6.44194 14.3953 6.44735 14.3909 6.45286L8.60436 13.676C8.54051 13.7423 8.32663 13.8419 7.99275 13.8419C7.65977 13.8419 7.44615 13.7429 7.38166 13.6766L1.65182 6.4547C1.64694 6.44856 1.64193 6.44253 1.63677 6.43663C1.59751 6.39166 1.55379 6.31981 1.52443 6.23801C1.4942 6.15378 1.49166 6.0944 1.49517 6.06927C1.62571 5.13607 2.32096 4.24895 3.4932 3.57943C4.65873 2.91375 6.24095 2.5 8 2.5C9.75905 2.5 11.3413 2.91375 12.5068 3.57943C13.679 4.24895 14.3743 5.13607 14.5048 6.06927C14.522 6.19213 14.47 6.36159 14.4045 6.43663Z" stroke="#2A3B51" stroke-linecap="round" stroke-linejoin="round"/>
</svg>
