<svg width="16" height="16" viewBox="0 0 16 16" fill="none" xmlns="http://www.w3.org/2000/svg">
<path d="M9.50058 9.52476C9.51349 9.7894 9.73214 10 9.99998 10C10.2761 10 10.5 9.77614 10.5 9.5H9.99998C10.5 9.5 10.5 9.49951 10.5 9.49901L10.5 9.49799L10.5 9.49588L10.4999 9.49134L10.4997 9.48101C10.4994 9.47358 10.499 9.46506 10.4984 9.45551C10.4971 9.43644 10.4949 9.41317 10.4911 9.38632C10.4834 9.33271 10.4692 9.26407 10.4431 9.18564C10.3902 9.02703 10.2896 8.83253 10.1035 8.64645C9.7267 8.26961 9.07705 8 7.99998 8C6.92291 8 6.27327 8.26961 5.89643 8.64645C5.71035 8.83253 5.60976 9.02703 5.55689 9.18564C5.53075 9.26407 5.51657 9.33271 5.50891 9.38632C5.50508 9.41317 5.50285 9.43644 5.50158 9.45551C5.50094 9.46506 5.50054 9.47358 5.5003 9.48101L5.50005 9.49134L5.5 9.49588L5.49999 9.49799L5.49998 9.49901C5.49998 9.49951 5.49998 9.5 5.99998 9.5H5.49998C5.49998 9.77614 5.72384 10 5.99998 10C6.26782 10 6.48648 9.7894 6.49938 9.52476C6.50016 9.52069 6.50195 9.51275 6.50557 9.50186C6.51521 9.47297 6.53962 9.41747 6.60353 9.35355C6.7267 9.23039 7.07705 9 7.99998 9C8.92291 9 9.27327 9.23039 9.39643 9.35355C9.46035 9.41747 9.48476 9.47297 9.49439 9.50186C9.49802 9.51275 9.4998 9.52069 9.50058 9.52476ZM1.65182 6.4547C1.64694 6.44856 1.64193 6.44253 1.63677 6.43663C1.59751 6.39166 1.55379 6.31981 1.52443 6.23801C1.4942 6.15378 1.49166 6.0944 1.49517 6.06927C1.62571 5.13607 2.32096 4.24895 3.4932 3.57943C4.65873 2.91375 6.24095 2.5 8 2.5C9.75905 2.5 11.3413 2.91375 12.5068 3.57943C13.679 4.24895 14.3743 5.13607 14.5048 6.06927C14.522 6.19213 14.47 6.36159 14.4045 6.43663C14.3998 6.44194 14.3953 6.44735 14.3909 6.45286L8.60436 13.676C8.54051 13.7423 8.32663 13.8419 7.99275 13.8419C7.65977 13.8419 7.44615 13.7429 7.38166 13.6766L1.65182 6.4547Z" stroke="#2A3B51" stroke-linecap="round" stroke-linejoin="round"/>
</svg>
