<svg width="16" height="16" viewBox="0 0 16 16" fill="none" xmlns="http://www.w3.org/2000/svg">
<path d="M4.41421 6.5C3.96876 6.5 3.74568 5.96143 4.06066 5.64645L7.64645 2.06066L7.29289 1.70711L7.64645 2.06066C7.84171 1.8654 8.15829 1.8654 8.35355 2.06066L8.70711 1.70711L8.35355 2.06066L11.9393 5.64645C12.2543 5.96143 12.0312 6.5 11.5858 6.5H4.41421ZM4.06066 10.3536C3.74568 10.0386 3.96876 9.5 4.41421 9.5H11.5858C12.0312 9.5 12.2543 10.0386 11.9393 10.3536L8.35355 13.9393C8.15829 14.1346 7.84171 14.1346 7.64645 13.9393L4.06066 10.3536Z" stroke="black" stroke-linejoin="round"/>
</svg>
