<svg width="16" height="16" viewBox="0 0 16 16" fill="none" xmlns="http://www.w3.org/2000/svg">
<path d="M5.00001 1.5C5.1484 1.5 5.28913 1.56591 5.38412 1.67991L9.38412 6.47991C9.56091 6.69205 9.53224 7.00733 9.3201 7.18411C9.10797 7.36089 8.79268 7.33223 8.6159 7.12009L5.50001 3.38102V14C5.50001 14.2761 5.27615 14.5 5.00001 14.5C4.72387 14.5 4.50001 14.2761 4.50001 14V3.38102L1.38412 7.12009C1.20734 7.33223 0.892059 7.36089 0.67992 7.18411C0.467782 7.00733 0.43912 6.69205 0.615902 6.47991L4.6159 1.67991C4.7109 1.56591 4.85162 1.5 5.00001 1.5Z" fill="#2A3B51"/>
<path d="M9.5 2.5C9.5 2.22386 9.72386 2 10 2H15C15.2761 2 15.5 2.22386 15.5 2.5C15.5 2.77614 15.2761 3 15 3H10C9.72386 3 9.5 2.77614 9.5 2.5Z" fill="#2A3B51"/>
<path d="M9.5 14.5C9.5 14.2239 9.72386 14 10 14H12C12.2761 14 12.5 14.2239 12.5 14.5C12.5 14.7761 12.2761 15 12 15H10C9.72386 15 9.5 14.7761 9.5 14.5Z" fill="#2A3B51"/>
<path d="M10 10C9.72386 10 9.5 10.2239 9.5 10.5C9.5 10.7761 9.72386 11 10 11H13C13.2761 11 13.5 10.7761 13.5 10.5C13.5 10.2239 13.2761 10 13 10H10Z" fill="#2A3B51"/>
<path d="M9.5 6.5C9.5 6.22386 9.72386 6 10 6H14C14.2761 6 14.5 6.22386 14.5 6.5C14.5 6.77614 14.2761 7 14 7H10C9.72386 7 9.5 6.77614 9.5 6.5Z" fill="#2A3B51"/>
</svg>
