<svg width="16" height="16" viewBox="0 0 16 16" fill="none" xmlns="http://www.w3.org/2000/svg">
<path fill-rule="evenodd" clip-rule="evenodd" d="M10 2C10 1.72386 10.2239 1.5 10.5 1.5L12.5 1L14.5 1.5C14.7761 1.5 15 1.72386 15 2V7C15 7.27614 14.7761 7.5 14.5 7.5C14.2239 7.5 14 7.27614 14 7V5.5H11V7C11 7.27614 10.7761 7.5 10.5 7.5C10.2239 7.5 10 7.27614 10 7V2ZM14 2.5V4.5H11V2.5L12.5 2L14 2.5Z" fill="#2A3B51"/>
<path d="M10 9.5C10 9.77614 10.2239 10 10.5 10H13.2929L10.1465 14.1464C10.0035 14.2894 9.96071 14.5045 10.0381 14.6913C10.1155 14.8782 10.2978 15 10.5 15H14.5C14.7762 15 15 14.7761 15 14.5C15 14.2239 14.7762 14 14.5 14H11.7072L14.8536 9.85355C14.9966 9.71055 15.0394 9.4955 14.962 9.30866C14.8846 9.12182 14.7023 9 14.5 9H10.5C10.2239 9 10 9.22386 10 9.5Z" fill="#2A3B51"/>
<path d="M5.38412 14.3201C5.28913 14.4341 5.1484 14.5 5.00001 14.5C4.85162 14.5 4.7109 14.4341 4.6159 14.3201L0.615902 9.52009C0.43912 9.30795 0.467782 8.99267 0.67992 8.81589C0.892059 8.63911 1.20734 8.66777 1.38412 8.87991L4.50001 12.619V2C4.50001 1.72386 4.72387 1.5 5.00001 1.5C5.27615 1.5 5.50001 1.72386 5.50001 2V12.619L8.6159 8.87991C8.79268 8.66777 9.10797 8.63911 9.3201 8.81589C9.53224 8.99267 9.56091 9.30795 9.38412 9.52009L5.38412 14.3201Z" fill="#2A3B51"/>
</svg>
