<svg width="16" height="16" viewBox="0 0 16 16" fill="none" xmlns="http://www.w3.org/2000/svg">
<path d="M12 2L11 2.5V1.5L12.0752 1H13V5L12 5.01696V2Z" fill="#2A3B51"/>
<path d="M12.7386 12.0391L13 11.7571V11H11.0125V11.8023H12.0292L11.3917 12.7062V13.3503C11.4361 13.339 11.4986 13.3296 11.5792 13.322C11.6625 13.3107 11.7264 13.3051 11.7708 13.3051C11.8776 13.3051 11.9647 13.3202 12.0322 13.3503C12.063 13.3641 12.0898 13.381 12.1125 13.4011C12.1847 13.4652 12.2208 13.565 12.2208 13.7006C12.2208 14.0245 12.0667 14.1864 11.7583 14.1864C11.7354 14.1864 11.7115 14.1853 11.6867 14.1831C11.5742 14.173 11.4423 14.1402 11.2911 14.0844C11.201 14.0512 11.1039 14.0099 11 13.9605V14.7571C11.1222 14.8362 11.2514 14.8964 11.3875 14.9379C11.5264 14.9793 11.6611 15 11.7917 15C12.1695 15 12.4653 14.8832 12.6792 14.6497C12.8931 14.4162 13 14.0942 13 13.6836C13 13.3973 12.937 13.1599 12.811 12.9712C12.8061 12.9638 12.801 12.9564 12.7958 12.9492C12.7052 12.8212 12.5905 12.7258 12.4518 12.6631C12.404 12.6415 12.3534 12.6237 12.3 12.6098C12.2756 12.6035 12.2506 12.598 12.225 12.5932L12.7386 12.0391Z" fill="#2A3B51"/>
<path d="M11.6867 6.88603C11.7579 6.86285 11.824 6.8507 11.8828 6.8507C11.9609 6.8507 12.0234 6.88263 12.0703 6.94648C12.1172 7.01033 12.1406 7.09296 12.1406 7.19437C12.1406 7.32207 12.1042 7.46854 12.0313 7.6338C11.9609 7.79531 11.8622 8.01374 11.6836 8.25352C11.6051 8.3589 11.5226 8.43579 11.4308 8.52129C11.3079 8.63575 11.1685 8.76565 11 9V10H13V9H12C12.2469 8.69673 12.3894 8.51353 12.5227 8.31327C12.5413 8.28536 12.5597 8.25712 12.5781 8.22817C12.7292 7.98779 12.8373 7.76995 12.9024 7.57465C12.9675 7.37934 13 7.18779 13 7C13 6.67324 12.9193 6.41221 12.7578 6.2169C12.5964 6.0216 12.2734 6 12 6C11.6954 6 11.357 6.15245 11.0873 6.41013C11.0573 6.4388 11.0282 6.46878 11 6.5V7.33944C11.2324 7.11325 11.4805 6.95324 11.6867 6.88603Z" fill="#2A3B51"/>
<path d="M5.38412 14.3201C5.28913 14.4341 5.1484 14.5 5.00001 14.5C4.85162 14.5 4.7109 14.4341 4.6159 14.3201L0.615902 9.52009C0.43912 9.30795 0.467782 8.99267 0.67992 8.81589C0.892059 8.63911 1.20734 8.66777 1.38412 8.87991L4.50001 12.619V2C4.50001 1.72386 4.72387 1.5 5.00001 1.5C5.27615 1.5 5.50001 1.72386 5.50001 2V12.619L8.6159 8.87991C8.79268 8.66777 9.10797 8.63911 9.3201 8.81589C9.53224 8.99267 9.56091 9.30795 9.38412 9.52009L5.38412 14.3201Z" fill="#2A3B51"/>
</svg>
