<svg width="16" height="16" viewBox="0 0 16 16" fill="none" xmlns="http://www.w3.org/2000/svg">
<path d="M5.38412 1.67991C5.28913 1.56591 5.1484 1.5 5.00001 1.5C4.85162 1.5 4.7109 1.56591 4.6159 1.67991L0.615902 6.47991C0.43912 6.69205 0.467782 7.00733 0.67992 7.18411C0.892059 7.36089 1.20734 7.33223 1.38412 7.12009L4.50001 3.38103V14C4.50001 14.2761 4.72387 14.5 5.00001 14.5C5.27615 14.5 5.50001 14.2761 5.50001 14V3.38103L8.6159 7.12009C8.79268 7.33223 9.10797 7.36089 9.3201 7.18411C9.53224 7.00733 9.56091 6.69205 9.38412 6.47991L5.38412 1.67991Z" fill="#2A3B51"/>
<path fill-rule="evenodd" clip-rule="evenodd" d="M10 9C10 8.72386 10.2239 8.5 10.5 8.5L12.5 8L14.5 8.5C14.7761 8.5 15 8.72386 15 9V14C15 14.2761 14.7761 14.5 14.5 14.5C14.2239 14.5 14 14.2761 14 14V12.5H11V14C11 14.2761 10.7761 14.5 10.5 14.5C10.2239 14.5 10 14.2761 10 14V9ZM14 9.5V11.5H11V9.5L12.5 9L14 9.5Z" fill="#2A3B51"/>
<path d="M10 1.5C10 1.77614 10.2239 2 10.5 2H13.2929L10.1465 6.14645C10.0035 6.28945 9.96068 6.50451 10.0381 6.69134C10.1155 6.87818 10.2978 7 10.5 7H14.5C14.7762 7 15 6.77614 15 6.5C15 6.22386 14.7762 6 14.5 6H11.7071L14.8536 1.85355C14.9966 1.71055 15.0393 1.4955 14.962 1.30866C14.8846 1.12182 14.7022 1 14.5 1H10.5C10.2239 1 10 1.22386 10 1.5Z" fill="#2A3B51"/>
</svg>
