<svg width="16" height="16" viewBox="0 0 16 16" fill="none" xmlns="http://www.w3.org/2000/svg">
<path d="M12.7386 2.03914L13 1.75706V1H11.0125V1.80226H12.0292L11.3917 2.70622V3.35028C11.4361 3.33898 11.4986 3.32957 11.5792 3.32203C11.6625 3.31073 11.7264 3.30508 11.7708 3.30508C11.8776 3.30508 11.9647 3.32015 12.0322 3.35028C12.063 3.36408 12.0898 3.38102 12.1125 3.40113C12.1847 3.46516 12.2208 3.56497 12.2208 3.70057C12.2208 4.02448 12.0667 4.18644 11.7583 4.18644C11.7354 4.18644 11.7115 4.18533 11.6867 4.18311C11.5742 4.17304 11.4423 4.14015 11.2911 4.08443C11.201 4.05121 11.1039 4.00989 11 3.96045V4.75706C11.1222 4.83616 11.2514 4.89642 11.3875 4.93785C11.5264 4.97928 11.6611 5 11.7917 5C12.1695 5 12.4653 4.88324 12.6792 4.64972C12.8931 4.4162 13 4.09416 13 3.68362C13 3.39733 12.937 3.15986 12.811 2.9712C12.8061 2.96378 12.801 2.95643 12.7958 2.94915C12.7052 2.82121 12.5905 2.72584 12.4518 2.66307C12.404 2.64146 12.3534 2.62371 12.3 2.60983C12.2756 2.60349 12.2506 2.59795 12.225 2.59322L12.7386 2.03914Z" fill="#2A3B51"/>
<path d="M12 12L11 12.5V11.5L12.0752 11H13V15L12 15.017V12Z" fill="#2A3B51"/>
<path d="M11.6867 6.88603C11.7579 6.86285 11.824 6.8507 11.8828 6.8507C11.9609 6.8507 12.0234 6.88263 12.0703 6.94648C12.1172 7.01033 12.1406 7.09296 12.1406 7.19437C12.1406 7.32207 12.1042 7.46854 12.0313 7.6338C11.9609 7.79531 11.8622 8.01374 11.6836 8.25352C11.6051 8.3589 11.5226 8.43579 11.4308 8.52129C11.3079 8.63575 11.1685 8.76565 11 9V10H13V9H12C12.2469 8.69673 12.3894 8.51353 12.5227 8.31327C12.5413 8.28536 12.5597 8.25712 12.5781 8.22817C12.7292 7.98779 12.8373 7.76995 12.9024 7.57465C12.9675 7.37934 13 7.18779 13 7C13 6.67324 12.9193 6.41221 12.7578 6.2169C12.5964 6.0216 12.2734 6 12 6C11.6954 6 11.357 6.15245 11.0873 6.41013C11.0573 6.4388 11.0282 6.46878 11 6.5V7.33944C11.2324 7.11325 11.4805 6.95324 11.6867 6.88603Z" fill="#2A3B51"/>
<path d="M5.38412 1.67991C5.28913 1.56591 5.1484 1.5 5.00001 1.5C4.85162 1.5 4.7109 1.56591 4.6159 1.67991L0.615902 6.47991C0.43912 6.69205 0.467782 7.00733 0.67992 7.18411C0.892059 7.36089 1.20734 7.33223 1.38412 7.12009L4.50001 3.38102V14C4.50001 14.2761 4.72387 14.5 5.00001 14.5C5.27615 14.5 5.50001 14.2761 5.50001 14V3.38102L8.6159 7.12009C8.79268 7.33223 9.10797 7.36089 9.3201 7.18411C9.53224 7.00733 9.56091 6.69205 9.38412 6.47991L5.38412 1.67991Z" fill="#2A3B51"/>
</svg>
