<svg width="16" height="16" viewBox="0 0 16 16" fill="none" xmlns="http://www.w3.org/2000/svg">
<path d="M5.00001 15C5.1484 15 5.28913 14.9341 5.38412 14.8201L9.38412 10.0201C9.56091 9.80795 9.53224 9.49267 9.3201 9.31589C9.10797 9.13911 8.79268 9.16777 8.6159 9.37991L5.50001 13.119V2.5C5.50001 2.22386 5.27615 2 5.00001 2C4.72387 2 4.50001 2.22386 4.50001 2.5V13.119L1.38412 9.37991C1.20734 9.16777 0.892059 9.13911 0.67992 9.31589C0.467782 9.49267 0.43912 9.80795 0.615902 10.0201L4.6159 14.8201C4.7109 14.9341 4.85162 15 5.00001 15Z" fill="#2A3B51"/>
<path d="M9.5 14C9.5 14.2761 9.72386 14.5 10 14.5H15C15.2761 14.5 15.5 14.2761 15.5 14C15.5 13.7239 15.2761 13.5 15 13.5H10C9.72386 13.5 9.5 13.7239 9.5 14Z" fill="#2A3B51"/>
<path d="M9.5 2C9.5 2.27614 9.72386 2.5 10 2.5H12C12.2761 2.5 12.5 2.27614 12.5 2C12.5 1.72386 12.2761 1.5 12 1.5H10C9.72386 1.5 9.5 1.72386 9.5 2Z" fill="#2A3B51"/>
<path d="M10 6.5C9.72386 6.5 9.5 6.27614 9.5 6C9.5 5.72386 9.72386 5.5 10 5.5H13C13.2761 5.5 13.5 5.72386 13.5 6C13.5 6.27614 13.2761 6.5 13 6.5H10Z" fill="#2A3B51"/>
<path d="M9.5 10C9.5 10.2761 9.72386 10.5 10 10.5H14C14.2761 10.5 14.5 10.2761 14.5 10C14.5 9.72386 14.2761 9.5 14 9.5H10C9.72386 9.5 9.5 9.72386 9.5 10Z" fill="#2A3B51"/>
</svg>
