<svg width="16" height="16" viewBox="0 0 16 16" fill="none" xmlns="http://www.w3.org/2000/svg">
<path d="M5.51519 5.63537C5.96486 5.54834 6.35013 5.26063 6.56127 4.85419L7.5563 2.93875C7.74297 2.57941 8.25703 2.57941 8.4437 2.93875L9.43873 4.85419C9.64987 5.26063 10.0351 5.54834 10.4848 5.63537L13.1965 6.16022C13.5753 6.23353 13.7319 6.69002 13.4778 6.98036L11.4484 9.29965C11.1414 9.65057 11.015 10.1243 11.1064 10.5816L11.6308 13.2034C11.7103 13.6011 11.3081 13.9231 10.9374 13.7584L8.60921 12.7236C8.22136 12.5512 7.77864 12.5512 7.39079 12.7236L5.06258 13.7584C4.69192 13.9231 4.28967 13.6011 4.36922 13.2034L4.89359 10.5816C4.98503 10.1243 4.85864 9.65058 4.55158 9.29965L2.5222 6.98036C2.26815 6.69002 2.42471 6.23353 2.80348 6.16022L5.51519 5.63537Z" stroke="black" stroke-linejoin="round"/>
</svg>
