<svg width="16" height="16" viewBox="0 0 16 16" fill="none" xmlns="http://www.w3.org/2000/svg">
<path d="M12 5.0761C11.8677 4.85562 11.7102 4.6531 11.5286 4.47145C11.3469 4.2898 11.1444 4.13226 10.9239 4C11.1444 3.86774 11.3469 3.7102 11.5286 3.52855C11.7102 3.3469 11.8677 3.14438 12 2.9239C12.1323 3.14438 12.2898 3.3469 12.4714 3.52855C12.6531 3.7102 12.8556 3.86774 13.0761 4C12.8556 4.13226 12.6531 4.2898 12.4714 4.47145C12.2898 4.6531 12.1323 4.85562 12 5.0761ZM4.11669 8.47748C4.56636 8.39044 4.95163 8.10274 5.16277 7.69629L5.5563 6.93875C5.74297 6.57941 6.25703 6.57941 6.4437 6.93875L6.83723 7.69629C7.04837 8.10274 7.43364 8.39044 7.88331 8.47748L9.19652 8.73165C9.57529 8.80496 9.73185 9.26145 9.4778 9.55179L8.44842 10.7282C8.14136 11.0791 8.01497 11.5529 8.10641 12.0102L8.34506 13.2034C8.42461 13.6011 8.02237 13.9231 7.6517 13.7584L6.60921 13.295C6.22136 13.1227 5.77864 13.1227 5.39079 13.295L4.3483 13.7584C3.97763 13.9231 3.57539 13.6011 3.65494 13.2034L3.89359 12.0102C3.98503 11.5529 3.85864 11.0791 3.55158 10.7282L2.5222 9.55179C2.26815 9.26145 2.42471 8.80496 2.80348 8.73165L4.11669 8.47748Z" stroke="black" stroke-linejoin="round"/>
</svg>
