<svg width="16" height="16" viewBox="0 0 16 16" fill="none" xmlns="http://www.w3.org/2000/svg">
<path d="M4 5.0761C3.86774 4.85562 3.7102 4.6531 3.52855 4.47145C3.3469 4.2898 3.14438 4.13226 2.9239 4C3.14438 3.86774 3.3469 3.7102 3.52855 3.52855C3.7102 3.3469 3.86774 3.14438 4 2.9239C4.13226 3.14438 4.2898 3.3469 4.47145 3.52855C4.6531 3.7102 4.85562 3.86774 5.0761 4C4.85562 4.13226 4.6531 4.2898 4.47145 4.47145C4.2898 4.6531 4.13226 4.85562 4 5.0761ZM12 7.0761C11.8677 6.85562 11.7102 6.6531 11.5286 6.47145C11.3469 6.2898 11.1444 6.13226 10.9239 6C11.1444 5.86774 11.3469 5.7102 11.5286 5.52855C11.7102 5.3469 11.8677 5.14438 12 4.9239C12.1323 5.14438 12.2898 5.3469 12.4714 5.52855C12.6531 5.7102 12.8556 5.86774 13.0761 6C12.8556 6.13226 12.6531 6.2898 12.4714 6.47145C12.2898 6.6531 12.1323 6.85562 12 7.0761ZM8.0761 12C7.85562 12.1323 7.6531 12.2898 7.47145 12.4714C7.2898 12.6531 7.13226 12.8556 7 13.0761C6.86774 12.8556 6.7102 12.6531 6.52855 12.4714C6.3469 12.2898 6.14438 12.1323 5.9239 12C6.14438 11.8677 6.3469 11.7102 6.52855 11.5286C6.7102 11.3469 6.86774 11.1444 7 10.9239C7.13226 11.1444 7.2898 11.3469 7.47145 11.5286C7.6531 11.7102 7.85562 11.8677 8.0761 12Z" stroke="black" stroke-linecap="round" stroke-linejoin="round"/>
</svg>
