<svg width="16" height="16" viewBox="0 0 16 16" fill="none" xmlns="http://www.w3.org/2000/svg">
<mask id="path-1-inside-1_192_762" fill="white">
<path d="M13.6676 12.1083C14.2071 11.364 14.5948 10.5207 14.8084 9.62662C15.022 8.73253 15.0574 7.80513 14.9126 6.89735C14.7678 5.98957 14.4456 5.11921 13.9645 4.33594C13.4833 3.55268 12.8525 2.87186 12.1083 2.33236C11.364 1.79285 10.5207 1.40523 9.62662 1.19162C8.73253 0.978005 7.80513 0.942589 6.89735 1.08739C5.98957 1.23219 5.1192 1.55438 4.33594 2.03555C3.55268 2.51672 2.87186 3.14745 2.33236 3.89174C1.79285 4.63603 1.40523 5.47929 1.19162 6.37338C0.978005 7.26747 0.942589 8.19488 1.08739 9.10265C1.23219 10.0104 1.55438 10.8808 2.03555 11.6641C2.51672 12.4473 3.14745 13.1281 3.89174 13.6676C4.63603 14.2071 5.47929 14.5948 6.37338 14.8084C7.26747 15.022 8.19488 15.0574 9.10265 14.9126C10.0104 14.7678 10.8808 14.4456 11.6641 13.9645C12.4473 13.4833 13.1281 12.8525 13.6676 12.1083Z"/>
</mask>
<path d="M8.5 5C8.5 4.72386 8.27614 4.5 8 4.5C7.72386 4.5 7.5 4.72386 7.5 5H8.5ZM8 9H7.5C7.5 9.27614 7.72386 9.5 8 9.5V9ZM12 9.5C12.2761 9.5 12.5 9.27614 12.5 9C12.5 8.72386 12.2761 8.5 12 8.5V9.5ZM7.5 5V9H8.5V5H7.5ZM8 9.5H12V8.5H8V9.5ZM14.8084 9.62662L13.8358 9.39425V9.39425L14.8084 9.62662ZM1.08739 9.10265L2.07491 8.94513L1.08739 9.10265ZM1.19162 6.37338L2.16424 6.60575L1.19162 6.37338ZM9.62662 1.19162L9.39425 2.16424L9.62662 1.19162ZM12.1083 2.33236L11.5214 3.14202L12.1083 2.33236ZM13.9645 4.33594L14.8165 3.81251L13.9645 4.33594ZM13.8358 9.39425C13.6527 10.1606 13.3204 10.8834 12.858 11.5214L14.4773 12.6952C15.0939 11.8445 15.5369 10.8808 15.781 9.859L13.8358 9.39425ZM12.858 11.5214C12.3955 12.1593 11.812 12.7 11.1406 13.1124L12.1875 14.8165C13.0827 14.2666 13.8607 13.5458 14.4773 12.6952L12.858 11.5214ZM11.1406 13.1124C10.4693 13.5248 9.72322 13.801 8.94513 13.9251L9.26017 15.9001C10.2976 15.7346 11.2923 15.3664 12.1875 14.8165L11.1406 13.1124ZM8.94513 13.9251C8.16704 14.0492 7.37211 14.0189 6.60575 13.8358L6.141 15.781C7.16282 16.0251 8.22272 16.0656 9.26017 15.9001L8.94513 13.9251ZM6.60575 13.8358C5.83939 13.6527 5.11659 13.3204 4.47863 12.858L3.30485 14.4773C4.15546 15.0939 5.11919 15.5369 6.141 15.781L6.60575 13.8358ZM4.47863 12.858C3.84068 12.3955 3.30005 11.812 2.88761 11.1406L1.18348 12.1875C1.73339 13.0827 2.45423 13.8607 3.30485 14.4773L4.47863 12.858ZM2.88761 11.1406C2.47518 10.4693 2.19902 9.72322 2.07491 8.94513L0.0998759 9.26017C0.265364 10.2976 0.633575 11.2923 1.18348 12.1875L2.88761 11.1406ZM2.07491 8.94513C1.95079 8.16704 1.98115 7.37211 2.16424 6.60575L0.218989 6.141C-0.0251377 7.16282 -0.0656124 8.22271 0.0998759 9.26017L2.07491 8.94513ZM2.16424 6.60575C2.34734 5.83939 2.67959 5.11659 3.14202 4.47863L1.52269 3.30485C0.906115 4.15546 0.463117 5.11919 0.218989 6.141L2.16424 6.60575ZM3.14202 4.47863C3.60445 3.84068 4.18801 3.30005 4.85938 2.88761L3.81251 1.18348C2.91735 1.73339 2.13927 2.45423 1.52269 3.30485L3.14202 4.47863ZM4.85938 2.88761C5.53075 2.47518 6.27678 2.19902 7.05487 2.07491L6.73983 0.0998759C5.70237 0.265364 4.70766 0.633575 3.81251 1.18348L4.85938 2.88761ZM7.05487 2.07491C7.83296 1.95079 8.62789 1.98115 9.39425 2.16424L9.859 0.21899C8.83718 -0.0251375 7.77729 -0.0656124 6.73983 0.0998759L7.05487 2.07491ZM9.39425 2.16424C10.1606 2.34734 10.8834 2.67959 11.5214 3.14202L12.6952 1.52269C11.8445 0.906115 10.8808 0.463117 9.859 0.21899L9.39425 2.16424ZM11.5214 3.14202C12.1593 3.60445 12.7 4.18801 13.1124 4.85938L14.8165 3.81251C14.2666 2.91735 13.5458 2.13927 12.6952 1.52269L11.5214 3.14202ZM13.1124 4.85938C13.5248 5.53075 13.801 6.27678 13.9251 7.05487L15.9001 6.73983C15.7346 5.70237 15.3664 4.70766 14.8165 3.81251L13.1124 4.85938ZM13.9251 7.05487C14.0492 7.83297 14.0189 8.62789 13.8358 9.39425L15.781 9.859C16.0251 8.83718 16.0656 7.77729 15.9001 6.73983L13.9251 7.05487Z" fill="#0085FF" mask="url(#path-1-inside-1_192_762)"/>
</svg>
