<svg width="16" height="16" viewBox="0 0 16 16" fill="none" xmlns="http://www.w3.org/2000/svg">
<path d="M13.2628 4.18519C13.7638 4.87631 14.1237 5.65934 14.3221 6.48956C14.5204 7.31979 14.5533 8.18095 14.4189 9.02389C14.2844 9.86683 13.9852 10.675 13.5384 11.4023C13.0916 12.1297 12.5059 12.7618 11.8148 13.2628C11.1237 13.7638 10.3407 14.1237 9.51044 14.3221C8.68021 14.5204 7.81904 14.5533 6.97611 14.4189C6.13317 14.2844 5.32498 13.9852 4.59766 13.5384C3.87034 13.0916 3.23816 12.5059 2.73719 11.8148C2.23622 11.1237 1.87628 10.3407 1.67793 9.51044C1.47958 8.68021 1.44669 7.81904 1.58115 6.97611C1.71561 6.13317 2.01478 5.32498 2.46158 4.59766C2.90838 3.87034 3.49407 3.23815 4.18519 2.73719C4.87631 2.23622 5.65934 1.87628 6.48956 1.67793C7.31979 1.47958 8.18096 1.44669 9.02389 1.58115C9.86683 1.71561 10.675 2.01478 11.4023 2.46158C12.1297 2.90838 12.7618 3.49407 13.2628 4.18519Z" stroke="#0085FF"/>
<path d="M11.3263 5.77754C11.6136 6.2067 11.82 6.69457 11.9239 7.21935L11.4334 7.31639C11.477 7.53708 11.5 7.76561 11.5 8C11.5 8.23439 11.477 8.46292 11.4334 8.68361L11.9239 8.78065C11.82 9.30543 11.6136 9.7933 11.3263 10.2225L10.9108 9.9443C10.6551 10.3262 10.3262 10.6551 9.9443 10.9108L10.2225 11.3263C9.7933 11.6136 9.30543 11.82 8.78065 11.9239L8.68361 11.4334C8.46292 11.477 8.23439 11.5 8 11.5C7.76561 11.5 7.53708 11.477 7.31639 11.4334L7.21935 11.9239C6.69457 11.82 6.2067 11.6136 5.77754 11.3263L6.0557 10.9108C5.6738 10.6551 5.3449 10.3262 5.08922 9.9443L4.67374 10.2225C4.38642 9.7933 4.17995 9.30543 4.07614 8.78065L4.56663 8.68361C4.52297 8.46292 4.5 8.23439 4.5 8C4.5 7.76561 4.52297 7.53708 4.56663 7.31639L4.07614 7.21935C4.17995 6.69457 4.38642 6.2067 4.67374 5.77754L5.08922 6.0557C5.3449 5.6738 5.6738 5.3449 6.0557 5.08922L5.77754 4.67374C6.2067 4.38642 6.69457 4.17995 7.21935 4.07614L7.31639 4.56663C7.53708 4.52297 7.76561 4.5 8 4.5C8.23439 4.5 8.46292 4.52297 8.68361 4.56663L8.78065 4.07614C9.30543 4.17995 9.7933 4.38642 10.2225 4.67374L9.9443 5.08922C10.3262 5.3449 10.6551 5.6738 10.9108 6.0557L11.3263 5.77754Z" stroke="#0085FF" stroke-dasharray="2 2"/>
</svg>
