<svg width="16" height="16" viewBox="0 0 16 16" fill="none" xmlns="http://www.w3.org/2000/svg">
<path d="M6 7.5C5.72386 7.5 5.5 7.72386 5.5 8C5.5 8.27614 5.72386 8.5 6 8.5H10C10.2761 8.5 10.5 8.27614 10.5 8C10.5 7.72386 10.2761 7.5 10 7.5H6ZM14.3221 9.51043C14.1237 10.3407 13.7638 11.1237 13.2628 11.8148C12.7618 12.5059 12.1297 13.0916 11.4023 13.5384C10.675 13.9852 9.86683 14.2844 9.02389 14.4189C8.18096 14.5533 7.31979 14.5204 6.48956 14.3221C5.65934 14.1237 4.87631 13.7638 4.18519 13.2628C3.49407 12.7618 2.90838 12.1297 2.46158 11.4023C2.01478 10.675 1.71561 9.86683 1.58115 9.02389C1.44669 8.18096 1.47958 7.31979 1.67793 6.48956C1.87628 5.65934 2.23622 4.87631 2.73719 4.18519C3.23816 3.49406 3.87034 2.90838 4.59766 2.46158C5.32498 2.01478 6.13317 1.71561 6.97611 1.58115C7.81905 1.44669 8.68021 1.47958 9.51044 1.67793C10.3407 1.87628 11.1237 2.23622 11.8148 2.73719C12.5059 3.23816 13.0916 3.87035 13.5384 4.59766C13.9852 5.32498 14.2844 6.13317 14.4189 6.97611C14.5533 7.81905 14.5204 8.68021 14.3221 9.51043Z" stroke="#2A3B51" stroke-linecap="round"/>
</svg>
