<svg width="16" height="16" viewBox="0 0 16 16" fill="none" xmlns="http://www.w3.org/2000/svg">
<path d="M13.2628 11.8148C13.1377 11.9874 13.0044 12.1534 12.8636 12.3123L13.2377 12.644C12.9335 12.9871 12.5963 13.2994 12.231 13.5766L11.9288 13.1783C11.7596 13.3066 11.584 13.4269 11.4023 13.5384C11.2207 13.65 11.0341 13.7523 10.8431 13.8452L11.0618 14.2949C10.6495 14.4954 10.2184 14.655 9.7749 14.7712L9.64812 14.2876C9.44269 14.3414 9.23437 14.3853 9.02389 14.4189C8.81341 14.4524 8.60179 14.4756 8.3898 14.4883L8.41979 14.9874C7.9621 15.0149 7.50281 14.9974 7.04855 14.935L7.11651 14.4397C6.90611 14.4108 6.69687 14.3716 6.48956 14.3221C6.28226 14.2725 6.07789 14.2129 5.87717 14.1436L5.71387 14.6162C5.2805 14.4664 4.86288 14.2744 4.46705 14.043L4.7194 13.6114C4.53607 13.5042 4.35776 13.3879 4.18519 13.2628C4.01261 13.1377 3.84661 13.0044 3.68771 12.8636L3.356 13.2377C3.01292 12.9335 2.70055 12.5963 2.42341 12.231L2.82174 11.9288C2.69337 11.7596 2.57315 11.584 2.46158 11.4023C2.35001 11.2207 2.24765 11.0341 2.15476 10.8431L1.70513 11.0618C1.50458 10.6495 1.34502 10.2184 1.22876 9.7749L1.71242 9.64812C1.65857 9.44269 1.61472 9.23437 1.58115 9.02389C1.54757 8.81341 1.52443 8.60179 1.5117 8.3898L1.0126 8.41979C0.985102 7.9621 1.00264 7.50281 1.06496 7.04855L1.56032 7.11651C1.58919 6.90611 1.6284 6.69687 1.67793 6.48956C1.72746 6.28226 1.78706 6.07789 1.85642 5.87717L1.38384 5.71387C1.53358 5.2805 1.72555 4.86288 1.95697 4.46705L2.38861 4.7194C2.4958 4.53607 2.61209 4.35776 2.73719 4.18519C2.86228 4.01261 2.99555 3.84661 3.13645 3.68771L2.76233 3.356C3.06652 3.01292 3.40369 2.70055 3.76897 2.42341L4.07118 2.82174C4.24037 2.69337 4.41605 2.57315 4.59766 2.46158C4.77927 2.35001 4.96593 2.24765 5.1569 2.15476L4.9382 1.70513C5.35053 1.50458 5.78157 1.34502 6.2251 1.22876L6.35188 1.71242C6.55731 1.65857 6.76563 1.61472 6.97611 1.58115C7.18659 1.54757 7.39821 1.52443 7.6102 1.5117L7.58021 1.0126C8.0379 0.985102 8.4972 1.00264 8.95145 1.06496L8.88349 1.56032C9.09389 1.58919 9.30313 1.6284 9.51044 1.67793C9.71774 1.72746 9.92211 1.78706 10.1228 1.85642L10.2861 1.38384C10.7195 1.53358 11.1371 1.72555 11.533 1.95697L11.2806 2.38861C11.4639 2.4958 11.6422 2.61209 11.8148 2.73719C11.9874 2.86228 12.1534 2.99555 12.3123 3.13645L12.644 2.76233C12.9871 3.06652 13.2995 3.40369 13.5766 3.76897L13.1783 4.07118C13.3066 4.24037 13.4269 4.41605 13.5384 4.59766C13.65 4.77927 13.7523 4.96593 13.8452 5.1569L14.2949 4.9382C14.4954 5.35053 14.655 5.78157 14.7712 6.2251L14.2876 6.35188C14.3414 6.55731 14.3853 6.76563 14.4189 6.97611C14.4524 7.18659 14.4756 7.39821 14.4883 7.6102L14.9874 7.58021C15.0149 8.0379 14.9974 8.49719 14.935 8.95145L14.4397 8.88349C14.4108 9.09389 14.3716 9.30313 14.3221 9.51043C14.2725 9.71774 14.2129 9.92211 14.1436 10.1228L14.6162 10.2861C14.4664 10.7195 14.2744 11.1371 14.043 11.533L13.6114 11.2806C13.5042 11.4639 13.3879 11.6422 13.2628 11.8148Z" stroke="#0085FF" stroke-dasharray="2 2"/>
</svg>
