<svg width="16" height="16" viewBox="0 0 16 16" fill="none" xmlns="http://www.w3.org/2000/svg">
<path d="M14.5 8C14.5 8.85359 14.3319 9.69883 14.0052 10.4874C13.6786 11.2761 13.1998 11.9926 12.5962 12.5962C11.9926 13.1998 11.2761 13.6786 10.4874 14.0052C9.69882 14.3319 8.85359 14.5 8 14.5C7.14641 14.5 6.30117 14.3319 5.51256 14.0052C4.72394 13.6786 4.00739 13.1998 3.40381 12.5962C2.80022 11.9926 2.32144 11.2761 1.99478 10.4874C1.66813 9.69882 1.5 8.85359 1.5 8C1.5 7.14641 1.66813 6.30117 1.99478 5.51256C2.32144 4.72394 2.80023 4.00739 3.40381 3.40381C4.00739 2.80022 4.72394 2.32144 5.51256 1.99478C6.30117 1.66813 7.14641 1.5 8 1.5C8.85359 1.5 9.69883 1.66813 10.4874 1.99478C11.2761 2.32144 11.9926 2.80023 12.5962 3.40381C13.1998 4.00739 13.6786 4.72394 14.0052 5.51256C14.3319 6.30118 14.5 7.14641 14.5 8Z" stroke="#89BDEE"/>
<mask id="path-2-inside-1_192_766" fill="white">
<path d="M12.9497 12.9497C13.9287 11.9708 14.5954 10.7235 14.8655 9.36563C15.1356 8.00777 14.997 6.6003 14.4672 5.32122C13.9373 4.04213 13.0401 2.94888 11.889 2.17971C10.7378 1.41054 9.38447 1 8 1L8 8L12.9497 12.9497Z"/>
</mask>
<path d="M12.9497 12.9497C13.9287 11.9708 14.5954 10.7235 14.8655 9.36563C15.1356 8.00777 14.997 6.6003 14.4672 5.32122C13.9373 4.04213 13.0401 2.94888 11.889 2.17971C10.7378 1.41054 9.38447 1 8 1L8 8L12.9497 12.9497Z" fill="#0085FF" stroke="#0085FF" stroke-width="2" mask="url(#path-2-inside-1_192_766)"/>
</svg>
