<svg width="16" height="16" viewBox="0 0 16 16" fill="none" xmlns="http://www.w3.org/2000/svg">
<path fill-rule="evenodd" clip-rule="evenodd" d="M13.8358 9.39425C13.6527 10.1606 13.3204 10.8834 12.858 11.5214C12.3955 12.1593 11.812 12.7 11.1406 13.1124C10.4693 13.5248 9.72322 13.801 8.94513 13.9251C8.16704 14.0492 7.37211 14.0189 6.60575 13.8358C5.83939 13.6527 5.11659 13.3204 4.47863 12.858C3.84068 12.3955 3.30005 11.812 2.88761 11.1406C2.47518 10.4693 2.19902 9.72322 2.07491 8.94513C1.95079 8.16704 1.98115 7.37211 2.16424 6.60575C2.34734 5.83939 2.67959 5.11659 3.14202 4.47863C3.60445 3.84068 4.18801 3.30005 4.85938 2.88761C5.53075 2.47518 6.27678 2.19902 7.05487 2.07491C7.83296 1.95079 8.62789 1.98115 9.39425 2.16424C10.1606 2.34734 10.8834 2.67959 11.5214 3.14202C12.1593 3.60445 12.7 4.18801 13.1124 4.85938C13.5248 5.53075 13.801 6.27678 13.9251 7.05487C14.0492 7.83297 14.0189 8.62789 13.8358 9.39425ZM13.6676 12.1083C14.2071 11.364 14.5948 10.5207 14.8084 9.62662C15.022 8.73253 15.0574 7.80513 14.9126 6.89735C14.7678 5.98957 14.4456 5.11921 13.9645 4.33594C13.4833 3.55268 12.8525 2.87186 12.1083 2.33236C11.364 1.79285 10.5207 1.40523 9.62662 1.19162C8.73253 0.978005 7.80513 0.942589 6.89735 1.08739C5.98957 1.23219 5.1192 1.55438 4.33594 2.03555C3.55268 2.51672 2.87186 3.14745 2.33236 3.89174C1.79285 4.63603 1.40523 5.47929 1.19162 6.37338C0.978005 7.26747 0.942589 8.19488 1.08739 9.10265C1.23219 10.0104 1.55438 10.8808 2.03555 11.6641C2.51672 12.4473 3.14745 13.1281 3.89174 13.6676C4.63603 14.2071 5.47929 14.5948 6.37338 14.8084C7.26747 15.022 8.19488 15.0574 9.10265 14.9126C10.0104 14.7678 10.8808 14.4456 11.6641 13.9645C12.4473 13.4833 13.1281 12.8525 13.6676 12.1083ZM8 11C9.65685 11 11 9.65685 11 8C11 6.34315 9.65685 5 8 5C6.34315 5 5 6.34315 5 8C5 9.65685 6.34315 11 8 11Z" fill="#2A3B51"/>
</svg>
