<svg width="16" height="16" viewBox="0 0 16 16" fill="none" xmlns="http://www.w3.org/2000/svg">
<mask id="path-1-inside-1_213_1036" fill="white">
<path fill-rule="evenodd" clip-rule="evenodd" d="M7.23177 1.92189L4.36681 5.35984C3.82403 6.01117 4.28719 7.00002 5.13503 7.00002H10.8649C11.7128 7.00002 12.1759 6.01117 11.6332 5.35984L8.76821 1.92189C8.36841 1.44213 7.63156 1.44213 7.23177 1.92189ZM7.23177 14.0782L4.36681 10.6402C3.82403 9.98888 4.28719 9.00002 5.13503 9.00002H10.8649C11.7128 9.00002 12.1759 9.98888 11.6332 10.6402L8.76821 14.0782C8.36841 14.5579 7.63156 14.5579 7.23177 14.0782Z"/>
</mask>
<path fill-rule="evenodd" clip-rule="evenodd" d="M7.23177 1.92189L4.36681 5.35984C3.82403 6.01117 4.28719 7.00002 5.13503 7.00002H10.8649C11.7128 7.00002 12.1759 6.01117 11.6332 5.35984L8.76821 1.92189C8.36841 1.44213 7.63156 1.44213 7.23177 1.92189ZM7.23177 14.0782L4.36681 10.6402C3.82403 9.98888 4.28719 9.00002 5.13503 9.00002H10.8649C11.7128 9.00002 12.1759 9.98888 11.6332 10.6402L8.76821 14.0782C8.36841 14.5579 7.63156 14.5579 7.23177 14.0782Z" fill="#2A3B51"/>
<path d="M4.36681 5.35984L3.59859 4.71966L3.59859 4.71966L4.36681 5.35984ZM7.23177 1.92189L7.99999 2.56207L7.23177 1.92189ZM11.6332 5.35984L10.8649 6.00002L11.6332 5.35984ZM8.76821 1.92189L7.99999 2.56207V2.56207L8.76821 1.92189ZM4.36681 10.6402L3.59859 11.2804H3.59859L4.36681 10.6402ZM7.23177 14.0782L7.99999 13.438H7.99999L7.23177 14.0782ZM11.6332 10.6402L10.8649 10L11.6332 10.6402ZM8.76821 14.0782L7.99999 13.438H7.99999L8.76821 14.0782ZM5.13503 6.00002L7.99999 2.56207L6.46355 1.2817L3.59859 4.71966L5.13503 6.00002ZM5.13503 6.00002L5.13503 6.00002L3.59859 4.71966C2.51304 6.02231 3.43936 8.00002 5.13503 8.00002V6.00002ZM10.8649 6.00002H5.13503V8.00002H10.8649V6.00002ZM10.8649 6.00002H10.8649V8.00002C12.5606 8.00002 13.4869 6.02231 12.4014 4.71965L10.8649 6.00002ZM7.99999 2.56207L10.8649 6.00002L12.4014 4.71965L9.53643 1.2817L7.99999 2.56207ZM7.99999 2.56207L7.99999 2.56207L9.53643 1.2817C8.73684 0.322194 7.26313 0.322198 6.46355 1.2817L7.99999 2.56207ZM3.59859 11.2804L6.46355 14.7183L7.99999 13.438L5.13503 10L3.59859 11.2804ZM5.13503 8.00002C3.43936 8.00002 2.51304 9.97773 3.59859 11.2804L5.13503 10L5.13503 10V8.00002ZM10.8649 8.00002H5.13503V10H10.8649V8.00002ZM12.4014 11.2804C13.4869 9.97774 12.5606 8.00002 10.8649 8.00002V10H10.8649L12.4014 11.2804ZM9.53643 14.7183L12.4014 11.2804L10.8649 10L7.99999 13.438L9.53643 14.7183ZM6.46355 14.7183C7.26313 15.6778 8.73684 15.6779 9.53643 14.7183L7.99999 13.438L7.99999 13.438L6.46355 14.7183Z" fill="#2A3B51" mask="url(#path-1-inside-1_213_1036)"/>
</svg>
