<svg width="16" height="16" viewBox="0 0 16 16" fill="none" xmlns="http://www.w3.org/2000/svg">
<g clip-path="url(#clip0_140_916)">
<path fill-rule="evenodd" clip-rule="evenodd" d="M3.30289 0.5C2.74547 0.499988 2.28502 0.499977 1.92916 0.539517C1.57052 0.579366 1.20786 0.668368 0.938113 0.938114C0.668365 1.20786 0.579364 1.57052 0.539515 1.92916C0.499974 2.28503 0.499986 2.74548 0.500001 3.3029L0.500001 12.6971C0.499988 13.2545 0.499977 13.715 0.539517 14.0708C0.579366 14.4295 0.668368 14.7921 0.938114 15.0619C1.20786 15.3316 1.57052 15.4206 1.92916 15.4605C2.28502 15.5 2.74546 15.5 3.30288 15.5H5.66527L5.66667 15.5L5.66806 15.5H10.3319L10.3333 15.5L10.3347 15.5H12.6971C13.2545 15.5 13.715 15.5 14.0708 15.4605C14.4295 15.4206 14.7921 15.3316 15.0619 15.0619C15.3316 14.7921 15.4206 14.4295 15.4605 14.0708C15.5 13.715 15.5 13.2545 15.5 12.6971V3.30292C15.5 2.74549 15.5 2.28503 15.4605 1.92916C15.4206 1.57052 15.3316 1.20786 15.0619 0.938114C14.7921 0.668368 14.4295 0.579366 14.0708 0.539517C13.715 0.499977 13.2545 0.499988 12.6971 0.5H3.30289ZM9.83333 14.5H6.16667V3.83333H9.83333V14.5ZM5.16667 14.5V3.83333H1.5V12.6667C1.5 13.2622 1.50074 13.6665 1.5334 13.9604C1.56647 14.258 1.6233 14.3329 1.64522 14.3548C1.66714 14.3767 1.74198 14.4335 2.03959 14.4666C2.33352 14.4993 2.73778 14.5 3.33333 14.5H5.16667ZM10.8333 14.5V3.83333H14.5V12.6667C14.5 13.2622 14.4993 13.6665 14.4666 13.9604C14.4335 14.258 14.3767 14.3329 14.3548 14.3548C14.3329 14.3767 14.258 14.4335 13.9604 14.4666C13.6665 14.4993 13.2622 14.5 12.6667 14.5H10.8333Z" fill="black"/>
</g>
<defs>
<clipPath id="clip0_140_916">
<rect width="16" height="16" fill="white"/>
</clipPath>
</defs>
</svg>
