<svg width="20" height="16" viewBox="0 0 20 16" fill="none" xmlns="http://www.w3.org/2000/svg">
<path d="M5.14286 6.85714C5.14286 7.25163 5.46265 7.57143 5.85714 7.57143C6.25163 7.57143 6.57143 7.25163 6.57143 6.85714C6.57143 6.46265 6.25163 6.14286 5.85714 6.14286C5.46265 6.14286 5.14286 6.46265 5.14286 6.85714Z" fill="#D9D9D9"/>
<path d="M9.14286 4.85714C9.14286 5.25163 9.46265 5.57143 9.85714 5.57143C10.2516 5.57143 10.5714 5.25163 10.5714 4.85714C10.5714 4.46265 10.2516 4.14286 9.85714 4.14286C9.46265 4.14286 9.14286 4.46265 9.14286 4.85714Z" fill="#2A3B51"/>
<path d="M5.5 4H4.42857L3 5.42857V9L8 14L9.5 12.5M5.85714 7.57143C5.46265 7.57143 5.14286 7.25163 5.14286 6.85714C5.14286 6.46265 5.46265 6.14286 5.85714 6.14286C6.25163 6.14286 6.57143 6.46265 6.57143 6.85714C6.57143 7.25163 6.25163 7.57143 5.85714 7.57143ZM7 3.42857L8.42857 2H12L17 7L12 12L7 7V3.42857ZM9.85714 5.57143C9.46265 5.57143 9.14286 5.25163 9.14286 4.85714C9.14286 4.46265 9.46265 4.14286 9.85714 4.14286C10.2516 4.14286 10.5714 4.46265 10.5714 4.85714C10.5714 5.25163 10.2516 5.57143 9.85714 5.57143Z" stroke="#2A3B51" stroke-linecap="round" stroke-linejoin="round"/>
</svg>
