<svg width="16" height="16" viewBox="0 0 16 16" fill="none" xmlns="http://www.w3.org/2000/svg">
<path fill-rule="evenodd" clip-rule="evenodd" d="M11 3V6C11 6 12.6095 7.26458 12.9408 10C12.9788 10.3139 13 10.6471 13 11H10V14L8 15L6 14V11H3C3 10.6471 3.02119 10.3139 3.05921 10C3.39053 7.26458 5 6 5 6V3H4C3.75 2.75 3.625 2.625 3.625 2.5C3.625 2.375 3.75 2.25 4 2H12C12.25 2.25 12.375 2.375 12.375 2.5C12.375 2.625 12.25 2.75 12 3H11ZM7.49734 6.78534L10.3814 6.7857C10.3878 6.79117 10.3985 6.80076 10.4136 6.8145C10.4495 6.84703 10.5078 6.90254 10.5814 6.98142C10.7289 7.13945 10.9358 7.38926 11.1458 7.73423C11.4637 8.25641 11.7938 9.00438 11.9324 10H4.06763C4.20624 9.00438 4.53635 8.25641 4.8542 7.73423C5.06418 7.38926 5.27106 7.13945 5.41856 6.98142C5.49219 6.90254 5.55054 6.84703 5.58636 6.8145C5.60168 6.80059 5.61282 6.79093 5.61921 6.78549L7.49734 6.78534ZM5.62461 6.78094L5.62201 6.78311L5.61921 6.78549L7.49734 6.78534L10.3803 6.78511L10.378 6.78311L10.3754 6.78094C10.1383 6.59127 10 6.30397 10 6V3H6V6C6 6.30397 5.86175 6.59127 5.62461 6.78094ZM7 13.382V11H9V13.382L8 13.882L7 13.382Z" fill="#2A3B51"/>
</svg>
