<svg width="16" height="16" viewBox="0 0 16 16" fill="none" xmlns="http://www.w3.org/2000/svg">
<path fill-rule="evenodd" clip-rule="evenodd" d="M13.145 1.5C13.145 1.22386 12.9212 1 12.645 1C12.3689 1 12.145 1.22386 12.145 1.5V5.83321C12.145 6.10935 12.3689 6.33321 12.645 6.33321C12.9212 6.33321 13.145 6.10935 13.145 5.83321V1.5ZM11.645 3.16663H1.5C1.22386 3.16663 1 3.39048 1 3.66663C1 3.94277 1.22386 4.16663 1.5 4.16663H11.645V3.16663ZM13.645 4.16663H14.5025C14.7787 4.16663 15.0025 3.94277 15.0025 3.66663C15.0025 3.39048 14.7787 3.16663 14.5025 3.16663H13.645V4.16663ZM1.5 7.49976H2.35748V8.49976H1.5C1.22386 8.49976 1 8.2759 1 7.99976C1 7.72362 1.22386 7.49976 1.5 7.49976ZM14.5025 8.49976H4.35748V7.49976H14.5025C14.7787 7.49976 15.0025 7.72362 15.0025 7.99976C15.0025 8.2759 14.7787 8.49976 14.5025 8.49976ZM1.5 11.8329H7.00128V12.8329H1.5C1.22386 12.8329 1 12.609 1 12.3329C1 12.0567 1.22386 11.8329 1.5 11.8329ZM14.5025 12.8329H9.00128V11.8329H14.5025C14.7787 11.8329 15.0025 12.0567 15.0025 12.3329C15.0025 12.609 14.7787 12.8329 14.5025 12.8329ZM3.35748 5.33345C3.63363 5.33345 3.85748 5.55731 3.85748 5.83345V10.1667C3.85748 10.4428 3.63363 10.6667 3.35748 10.6667C3.08134 10.6667 2.85748 10.4428 2.85748 10.1667V5.83345C2.85748 5.55731 3.08134 5.33345 3.35748 5.33345ZM8.50128 10.1666C8.50128 9.89044 8.27742 9.66658 8.00128 9.66658C7.72514 9.66658 7.50128 9.89044 7.50128 10.1666V14.4998C7.50128 14.7759 7.72514 14.9998 8.00128 14.9998C8.27742 14.9998 8.50128 14.7759 8.50128 14.4998V10.1666Z" fill="#2A3B51"/>
</svg>
