<svg width="16" height="16" viewBox="0 0 16 16" fill="none" xmlns="http://www.w3.org/2000/svg">
<path d="M14.416 2.27735C14.5692 2.04759 14.5071 1.73715 14.2774 1.58397C14.0476 1.4308 13.7372 1.49289 13.584 1.72265L14.416 2.27735ZM8 11L7.6 11.3C7.69736 11.4298 7.85167 11.5043 8.01387 11.4998C8.17608 11.4953 8.32601 11.4124 8.41603 11.2774L8 11ZM5.4 6.7C5.23431 6.47909 4.92091 6.43431 4.7 6.6C4.47909 6.76569 4.43431 7.07909 4.6 7.3L5.4 6.7ZM11 2.5C11.2761 2.5 11.5 2.27614 11.5 2C11.5 1.72386 11.2761 1.5 11 1.5V2.5ZM14.5 5C14.5 4.72386 14.2761 4.5 14 4.5C13.7239 4.5 13.5 4.72386 13.5 5H14.5ZM13.584 1.72265L7.58397 10.7226L8.41603 11.2774L14.416 2.27735L13.584 1.72265ZM8.4 10.7L5.4 6.7L4.6 7.3L7.6 11.3L8.4 10.7ZM3 2.5H11V1.5H3V2.5ZM13.5 5V13H14.5V5H13.5ZM13 13.5H3V14.5H13V13.5ZM2.5 13V3H1.5V13H2.5ZM3 13.5C2.75764 13.5 2.61232 13.4958 2.51522 13.4819C2.41932 13.4682 2.45185 13.4548 2.49851 13.5015C2.54518 13.5481 2.53179 13.5807 2.51806 13.4848C2.50415 13.3877 2.5 13.2424 2.5 13H1.5C1.5 13.231 1.5025 13.4474 1.52816 13.6266C1.55399 13.8069 1.61309 14.0303 1.79141 14.2086C1.96972 14.3869 2.19308 14.446 2.37344 14.4718C2.5526 14.4975 2.76897 14.5 3 14.5V13.5ZM13.5 13C13.5 13.2424 13.4958 13.3877 13.4819 13.4848C13.4682 13.5807 13.4548 13.5481 13.5015 13.5015C13.5481 13.4548 13.5807 13.4682 13.4848 13.4819C13.3877 13.4958 13.2424 13.5 13 13.5V14.5C13.231 14.5 13.4474 14.4975 13.6266 14.4718C13.8069 14.446 14.0303 14.3869 14.2086 14.2086C14.3869 14.0303 14.446 13.8069 14.4718 13.6266C14.4975 13.4474 14.5 13.231 14.5 13H13.5ZM3 1.5C2.76897 1.5 2.5526 1.5025 2.37344 1.52816C2.19308 1.55399 1.96972 1.61309 1.79141 1.79141C1.61309 1.96972 1.55399 2.19308 1.52816 2.37344C1.5025 2.5526 1.5 2.76897 1.5 3H2.5C2.5 2.75764 2.50415 2.61232 2.51806 2.51522C2.53179 2.41932 2.54518 2.45185 2.49851 2.49851C2.45185 2.54518 2.41932 2.53179 2.51522 2.51806C2.61232 2.50415 2.75764 2.5 3 2.5V1.5Z" fill="#2A3B51"/>
</svg>
