<svg width="16" height="16" viewBox="0 0 16 16" fill="none" xmlns="http://www.w3.org/2000/svg">
<path d="M11.4472 8.77639C11.3753 8.63264 11.2387 8.5322 11.0801 8.50646C10.9226 8.4809 10.7625 8.53204 10.649 8.64395L10.6463 8.64646C10.6425 8.65 10.6351 8.65689 10.6239 8.66668C10.6015 8.68627 10.5644 8.71736 10.5125 8.75625C10.4087 8.83408 10.2466 8.94266 10.0264 9.05279C9.58754 9.27221 8.91362 9.5 8 9.5C7.08638 9.5 6.41246 9.27221 5.97361 9.05279C5.75336 8.94266 5.59127 8.83408 5.4875 8.75625C5.43565 8.71736 5.39851 8.68627 5.37613 8.66668C5.36494 8.65689 5.35746 8.65 5.35369 8.64646L5.35102 8.64393C5.23752 8.53203 5.07738 8.4809 4.91991 8.50646C4.76126 8.5322 4.62466 8.63264 4.55279 8.77639L2.55279 12.7764C2.49998 12.882 2.487 13.0011 2.51292 13.113C1.26409 11.7733 0.5 9.97591 0.5 8C0.5 3.85786 3.85786 0.5 8 0.5C12.1421 0.5 15.5 3.85786 15.5 8C15.5 9.97591 14.7359 11.7733 13.4871 13.113C13.513 13.0011 13.5 12.882 13.4472 12.7764L11.4472 8.77639ZM10.4736 9.94721C10.6029 9.88255 10.718 9.81756 10.8187 9.75553L12.191 12.5H3.80902L5.18125 9.75553C5.28203 9.81756 5.39707 9.88255 5.52639 9.94721C6.08754 10.2278 6.91362 10.5 8 10.5C9.08638 10.5 9.91246 10.2278 10.4736 9.94721ZM5.35291 8.6458L5.35303 8.64593C5.35295 8.64585 5.35288 8.64577 5.3528 8.64569L5.35291 8.6458ZM8 15.5C6.0241 15.5 4.22666 14.7359 2.88704 13.4871C2.92367 13.4956 2.96153 13.5 3 13.5H13C13.0385 13.5 13.0763 13.4956 13.113 13.4871C11.7733 14.7359 9.9759 15.5 8 15.5ZM8 7.5C7.17157 7.5 6.5 6.82843 6.5 6C6.5 5.17157 7.17157 4.5 8 4.5C8.82843 4.5 9.5 5.17157 9.5 6C9.5 6.82843 8.82843 7.5 8 7.5ZM5.5 6C5.5 7.38071 6.61929 8.5 8 8.5C9.38071 8.5 10.5 7.38071 10.5 6C10.5 4.61929 9.38071 3.5 8 3.5C6.61929 3.5 5.5 4.61929 5.5 6Z" stroke="#2A3B51" stroke-linecap="round" stroke-linejoin="round"/>
</svg>
