<svg width="16" height="16" viewBox="0 0 16 16" fill="none" xmlns="http://www.w3.org/2000/svg">
<path d="M9 9L7.4 4.64444C7.4 4.64444 6.6 5.53333 5 5.53333C3.4 5.53333 2.6 4.64444 2.6 4.64444L1 9H9Z" stroke="black" stroke-linecap="round" stroke-linejoin="round"/>
<path d="M3.4 2.6C3.4 1.71634 4.11634 1 5 1C5.88366 1 6.6 1.71634 6.6 2.6C6.6 3.48366 5.88366 4.2 5 4.2C4.11634 4.2 3.4 3.48366 3.4 2.6Z" stroke="black" stroke-linecap="round" stroke-linejoin="round"/>
<path d="M15 15L13.4 10.6444C13.4 10.6444 12.6 11.5333 11 11.5333C9.4 11.5333 8.6 10.6444 8.6 10.6444L7 15H15Z" stroke="black" stroke-linecap="round" stroke-linejoin="round"/>
<path d="M9.4 8.6C9.4 7.71634 10.1163 7 11 7C11.8837 7 12.6 7.71634 12.6 8.6C12.6 9.48366 11.8837 10.2 11 10.2C10.1163 10.2 9.4 9.48366 9.4 8.6Z" stroke="black" stroke-linecap="round" stroke-linejoin="round"/>
</svg>
