<svg width="16" height="16" viewBox="0 0 16 16" fill="none" xmlns="http://www.w3.org/2000/svg">
<path d="M8.03665 7.82759C8.15654 8.15394 7.91499 8.5 7.56732 8.5H2.43268C2.08501 8.5 1.84346 8.15394 1.96335 7.82759L2.49725 6.3742C2.55714 6.21115 2.72556 6.05141 3.0213 5.95034C3.31365 5.85043 3.65483 5.83755 3.9238 5.90455C4.24037 5.98339 4.59939 6.03333 5 6.03333C5.40061 6.03333 5.75963 5.98339 6.0762 5.90454C6.34517 5.83755 6.68635 5.85043 6.9787 5.95034C7.27444 6.05141 7.44286 6.21115 7.50275 6.3742L8.03665 7.82759ZM3.9 2.6C3.9 1.99249 4.39249 1.5 5 1.5C5.60751 1.5 6.1 1.99249 6.1 2.6C6.1 3.20751 5.60751 3.7 5 3.7C4.39249 3.7 3.9 3.20751 3.9 2.6ZM14.0367 13.8276C14.1565 14.1539 13.915 14.5 13.5673 14.5H8.43268C8.08501 14.5 7.84346 14.1539 7.96335 13.8276L8.49725 12.3742C8.55714 12.2112 8.72556 12.0514 9.0213 11.9503C9.31365 11.8504 9.65483 11.8376 9.9238 11.9045C10.2404 11.9834 10.5994 12.0333 11 12.0333C11.4006 12.0333 11.7596 11.9834 12.0762 11.9045C12.3452 11.8376 12.6864 11.8504 12.9787 11.9503C13.2744 12.0514 13.4429 12.2112 13.5028 12.3742L14.0367 13.8276ZM9.9 8.6C9.9 7.99249 10.3925 7.5 11 7.5C11.6075 7.5 12.1 7.99249 12.1 8.6C12.1 9.20751 11.6075 9.7 11 9.7C10.3925 9.7 9.9 9.20751 9.9 8.6Z" stroke="#2A3B51" stroke-linecap="round" stroke-linejoin="round"/>
</svg>
