<svg width="16" height="16" viewBox="0 0 16 16" fill="none" xmlns="http://www.w3.org/2000/svg">
<path fill-rule="evenodd" clip-rule="evenodd" d="M3.35115 11.0216L7.70104 14.8149C8.2702 15.3112 9.01527 14.7514 9.01527 13.8274V2.17238C9.01527 1.27395 8.30669 0.710383 7.73673 1.1555L3.35115 4.58043V11.0216ZM1 7.09656C1 6.67612 1.16466 6.28798 1.43139 6.07968L2.28244 5.41504V10.0897L1.3957 9.31645C1.14923 9.10153 1 8.72914 1 8.32904V7.09656ZM10.1908 7.3273C9.89573 7.3273 9.65649 7.65487 9.65649 8.05896C9.65649 8.46304 9.89573 8.79062 10.1908 8.79062H14.4656C14.7608 8.79062 15 8.46304 15 8.05896C15 7.65487 14.7608 7.3273 14.4656 7.3273H10.1908Z" fill="#2A3B51"/>
</svg>
