<svg width="16" height="16" viewBox="0 0 16 16" fill="none" xmlns="http://www.w3.org/2000/svg">
<path fill-rule="evenodd" clip-rule="evenodd" d="M3.35114 11.0216L7.70104 14.8149C8.2702 15.3112 9.01527 14.7514 9.01527 13.8274V2.17239C9.01527 1.27395 8.30669 0.710383 7.73673 1.1555L3.35114 4.58043V11.0216ZM1 7.09656C1 6.67613 1.16466 6.28798 1.43139 6.07968L2.28244 5.41504V10.0897L1.3957 9.31645C1.14923 9.10153 1 8.72914 1 8.32904V7.09656ZM9.65649 8.05896C9.65649 7.65487 9.89573 7.3273 10.1908 7.3273H11.5802V5.77778C11.5802 5.47095 11.8952 5.22222 12.2839 5.22222C12.6726 5.22222 12.9876 5.47095 12.9876 5.77778V7.3273H14.4656C14.7608 7.3273 15 7.65487 15 8.05896C15 8.46304 14.7608 8.79062 14.4656 8.79062H12.9876V10.2222C12.9876 10.529 12.6725 10.7778 12.2839 10.7778C11.8952 10.7778 11.5802 10.529 11.5802 10.2222V8.79062H10.1908C9.89573 8.79062 9.65649 8.46304 9.65649 8.05896Z" fill="#2A3B51"/>
</svg>
