<svg width="16" height="16" viewBox="0 0 16 16" fill="none" xmlns="http://www.w3.org/2000/svg">
<path d="M1.5 12.6667V3.83333H14.5V12.6667C14.5 13.2622 14.4993 13.6665 14.4666 13.9604C14.4335 14.258 14.3767 14.3329 14.3548 14.3548C14.3329 14.3767 14.258 14.4335 13.9604 14.4666C13.6665 14.4993 13.2622 14.5 12.6667 14.5H3.33333C2.73778 14.5 2.33352 14.4993 2.03959 14.4666C1.74198 14.4335 1.66714 14.3767 1.64522 14.3548C1.6233 14.3329 1.56647 14.258 1.5334 13.9604C1.50074 13.6665 1.5 13.2622 1.5 12.6667ZM14.4989 2.83333H1.50113C1.50351 2.49831 1.51084 2.24263 1.5334 2.03959C1.56647 1.74198 1.6233 1.66714 1.64522 1.64522C1.66714 1.6233 1.74198 1.56647 2.03959 1.5334C2.33352 1.50074 2.73778 1.5 3.33333 1.5H12.6667C13.2622 1.5 13.6665 1.50074 13.9604 1.5334C14.258 1.56647 14.3329 1.6233 14.3548 1.64522C14.3767 1.66714 14.4335 1.74198 14.4666 2.03959C14.4892 2.24263 14.4965 2.49831 14.4989 2.83333ZM9.5 7C9.5 7.27614 9.72386 7.5 10 7.5H12C12.2761 7.5 12.5 7.27614 12.5 7C12.5 6.72386 12.2761 6.5 12 6.5H10.5V5C10.5 4.72386 10.2761 4.5 10 4.5C9.72386 4.5 9.5 4.72386 9.5 5V7ZM6.5 11C6.5 10.7239 6.27614 10.5 6 10.5H4C3.72386 10.5 3.5 10.7239 3.5 11C3.5 11.2761 3.72386 11.5 4 11.5H5.5V13C5.5 13.2761 5.72386 13.5 6 13.5C6.27614 13.5 6.5 13.2761 6.5 13V11ZM6 7.5C6.27614 7.5 6.5 7.27614 6.5 7V5C6.5 4.72386 6.27614 4.5 6 4.5C5.72386 4.5 5.5 4.72386 5.5 5V6.5H4C3.72386 6.5 3.5 6.72386 3.5 7C3.5 7.27614 3.72386 7.5 4 7.5H6ZM10 10.5C9.72386 10.5 9.5 10.7239 9.5 11V13C9.5 13.2761 9.72386 13.5 10 13.5C10.2761 13.5 10.5 13.2761 10.5 13V11.5H12C12.2761 11.5 12.5 11.2761 12.5 11C12.5 10.7239 12.2761 10.5 12 10.5H10Z" stroke="#2A3B51" stroke-linecap="round" stroke-linejoin="round"/>
</svg>
