<svg width="16" height="16" viewBox="0 0 16 16" fill="none" xmlns="http://www.w3.org/2000/svg">
<path d="M5.5 6C5.5 6.27614 5.72386 6.5 6 6.5C6.27614 6.5 6.5 6.27614 6.5 6H5.5ZM4 14.5H8V13.5H4V14.5ZM8 5.5H4V6.5H8V5.5ZM10.5 12V8H9.5V12H10.5ZM1.5 8V12H2.5V8H1.5ZM8 6.5C8.51222 6.5 8.85398 6.50074 9.10103 6.52819C9.35177 6.55605 9.39536 6.60247 9.39645 6.60355C9.39753 6.60464 9.44395 6.64823 9.47181 6.89897C9.49926 7.14602 9.5 7.48778 9.5 8H10.5C10.5 7.51222 10.5007 7.10398 10.4657 6.78853C10.4311 6.47677 10.3525 6.14536 10.1036 5.89645C9.85464 5.64753 9.52323 5.56895 9.21147 5.53431C8.89602 5.49926 8.48778 5.5 8 5.5V6.5ZM8 14.5C8.48778 14.5 8.89602 14.5007 9.21147 14.4657C9.52323 14.4311 9.85464 14.3525 10.1036 14.1036C10.3525 13.8546 10.4311 13.5232 10.4657 13.2115C10.5007 12.896 10.5 12.4878 10.5 12H9.5C9.5 12.5122 9.49926 12.854 9.47181 13.101C9.44395 13.3518 9.39753 13.3954 9.39645 13.3964C9.39536 13.3975 9.35177 13.4439 9.10103 13.4718C8.85398 13.4993 8.51222 13.5 8 13.5V14.5ZM4 13.5C3.48778 13.5 3.14602 13.4993 2.89897 13.4718C2.64823 13.4439 2.60464 13.3975 2.60355 13.3964C2.60247 13.3954 2.55605 13.3518 2.52819 13.101C2.50074 12.854 2.5 12.5122 2.5 12H1.5C1.5 12.4878 1.49926 12.896 1.53431 13.2115C1.56895 13.5232 1.64753 13.8546 1.89645 14.1036C2.14536 14.3525 2.47677 14.4311 2.78853 14.4657C3.10398 14.5007 3.51222 14.5 4 14.5V13.5ZM4 5.5C3.51222 5.5 3.10398 5.49926 2.78853 5.53431C2.47677 5.56895 2.14536 5.64753 1.89645 5.89645C1.64753 6.14536 1.56895 6.47677 1.53431 6.78853C1.49926 7.10398 1.5 7.51222 1.5 8H2.5C2.5 7.48778 2.50074 7.14602 2.52819 6.89897C2.55605 6.64823 2.60247 6.60464 2.60355 6.60355C2.60464 6.60247 2.64823 6.55605 2.89897 6.52819C3.14602 6.50074 3.48778 6.5 4 6.5V5.5ZM12 1.5H8V2.5H12V1.5ZM14.5 8V4H13.5V8H14.5ZM5.5 4V6H6.5V4H5.5ZM13.5 8C13.5 8.51222 13.4993 8.85398 13.4718 9.10103C13.4439 9.35177 13.3975 9.39536 13.3964 9.39645C13.3954 9.39753 13.3518 9.44395 13.101 9.47181C12.854 9.49926 12.5122 9.5 12 9.5V10.5C12.4878 10.5 12.896 10.5007 13.2115 10.4657C13.5232 10.4311 13.8546 10.3525 14.1036 10.1036C14.3525 9.85464 14.4311 9.52323 14.4657 9.21147C14.5007 8.89602 14.5 8.48778 14.5 8H13.5ZM12 2.5C12.5122 2.5 12.854 2.50074 13.101 2.52819C13.3518 2.55605 13.3954 2.60247 13.3964 2.60355C13.3975 2.60464 13.4439 2.64823 13.4718 2.89897C13.4993 3.14602 13.5 3.48778 13.5 4H14.5C14.5 3.51222 14.5007 3.10398 14.4657 2.78853C14.4311 2.47677 14.3525 2.14536 14.1036 1.89645C13.8546 1.64753 13.5232 1.56895 13.2115 1.53431C12.896 1.49926 12.4878 1.5 12 1.5V2.5ZM8 1.5C7.51222 1.5 7.10398 1.49926 6.78853 1.53431C6.47677 1.56895 6.14536 1.64753 5.89645 1.89645C5.64753 2.14536 5.56895 2.47677 5.53431 2.78853C5.49926 3.10398 5.5 3.51222 5.5 4H6.5C6.5 3.48778 6.50074 3.14602 6.52819 2.89897C6.55605 2.64823 6.60247 2.60464 6.60355 2.60355C6.60464 2.60247 6.64823 2.55605 6.89897 2.52819C7.14602 2.50074 7.48778 2.5 8 2.5V1.5Z" fill="#2A3B51"/>
</svg>
