<svg width="16" height="16" viewBox="0 0 16 16" fill="none" xmlns="http://www.w3.org/2000/svg">
<path d="M1.5 12.6667V3.83333H14.5V12.6667C14.5 13.2622 14.4993 13.6665 14.4666 13.9604C14.4335 14.258 14.3767 14.3329 14.3548 14.3548C14.3329 14.3767 14.258 14.4335 13.9604 14.4666C13.6665 14.4993 13.2622 14.5 12.6667 14.5H3.33333C2.73778 14.5 2.33352 14.4993 2.03959 14.4666C1.74198 14.4335 1.66714 14.3767 1.64522 14.3548C1.6233 14.3329 1.56647 14.258 1.5334 13.9604C1.50074 13.6665 1.5 13.2622 1.5 12.6667ZM14.4989 2.83333H1.50113C1.50351 2.49831 1.51084 2.24263 1.5334 2.03959C1.56647 1.74198 1.6233 1.66714 1.64522 1.64522C1.66714 1.6233 1.74198 1.56647 2.03959 1.5334C2.33352 1.50074 2.73778 1.5 3.33333 1.5H12.6667C13.2622 1.5 13.6665 1.50074 13.9604 1.5334C14.258 1.56647 14.3329 1.6233 14.3548 1.64522C14.3767 1.66714 14.4335 1.74198 14.4666 2.03959C14.4892 2.24263 14.4965 2.49831 14.4989 2.83333ZM12 5.66667C12 5.39053 11.7761 5.16667 11.5 5.16667H9.16667C8.89052 5.16667 8.66667 5.39053 8.66667 5.66667C8.66667 5.94281 8.89052 6.16667 9.16667 6.16667H11V8C11 8.27614 11.2239 8.5 11.5 8.5C11.7761 8.5 12 8.27614 12 8V5.66667ZM4 12.6667C4 12.9428 4.22386 13.1667 4.5 13.1667H6.83333C7.10948 13.1667 7.33333 12.9428 7.33333 12.6667C7.33333 12.3905 7.10948 12.1667 6.83333 12.1667H5V10.3333C5 10.0572 4.77614 9.83333 4.5 9.83333C4.22386 9.83333 4 10.0572 4 10.3333V12.6667ZM4.5 5.16667C4.22386 5.16667 4 5.39053 4 5.66667V8C4 8.27614 4.22386 8.5 4.5 8.5C4.77614 8.5 5 8.27614 5 8V6.16667H6.83333C7.10948 6.16667 7.33333 5.94281 7.33333 5.66667C7.33333 5.39053 7.10948 5.16667 6.83333 5.16667H4.5ZM11.5 13.1667C11.7761 13.1667 12 12.9428 12 12.6667V10.3333C12 10.0572 11.7761 9.83333 11.5 9.83333C11.2239 9.83333 11 10.0572 11 10.3333V12.1667H9.16667C8.89052 12.1667 8.66667 12.3905 8.66667 12.6667C8.66667 12.9428 8.89052 13.1667 9.16667 13.1667H11.5Z" stroke="#2A3B51" stroke-linecap="round" stroke-linejoin="round"/>
</svg>
