<svg width="16" height="16" viewBox="0 0 16 16" fill="none" xmlns="http://www.w3.org/2000/svg">
<path d="M1.5 12.6667V3.83333H14.5V12.6667C14.5 13.2622 14.4993 13.6665 14.4666 13.9604C14.4335 14.258 14.3767 14.3329 14.3548 14.3548C14.3329 14.3767 14.258 14.4335 13.9604 14.4666C13.6665 14.4993 13.2622 14.5 12.6667 14.5H3.33333C2.73778 14.5 2.33352 14.4993 2.03959 14.4666C1.74198 14.4335 1.66714 14.3767 1.64522 14.3548C1.6233 14.3329 1.56647 14.258 1.5334 13.9604C1.50074 13.6665 1.5 13.2622 1.5 12.6667ZM14.4989 2.83333H1.50113C1.50351 2.49831 1.51084 2.24263 1.5334 2.03959C1.56647 1.74198 1.6233 1.66714 1.64522 1.64522C1.66714 1.6233 1.74198 1.56647 2.03959 1.5334C2.33352 1.50074 2.73778 1.5 3.33333 1.5H12.6667C13.2622 1.5 13.6665 1.50074 13.9604 1.5334C14.258 1.56647 14.3329 1.6233 14.3548 1.64522C14.3767 1.66714 14.4335 1.74198 14.4666 2.03959C14.4892 2.24263 14.4965 2.49831 14.4989 2.83333ZM8.5 6C8.5 5.72386 8.27614 5.5 8 5.5C7.72386 5.5 7.5 5.72386 7.5 6V8.5H5C4.72386 8.5 4.5 8.72386 4.5 9C4.5 9.27614 4.72386 9.5 5 9.5H7.5V12C7.5 12.2761 7.72386 12.5 8 12.5C8.27614 12.5 8.5 12.2761 8.5 12V9.5H11C11.2761 9.5 11.5 9.27614 11.5 9C11.5 8.72386 11.2761 8.5 11 8.5H8.5V6Z" stroke="#2A3B51" stroke-linecap="round" stroke-linejoin="round"/>
</svg>
